<?xml version="1.0" encoding="utf-8"?>
<!-- Generator: Adobe Illustrator 24.0.0, SVG Export Plug-In . SVG Version: 6.00 Build 0)  -->
<svg version="1.1" id="Layer_1" xmlns="http://www.w3.org/2000/svg" xmlns:xlink="http://www.w3.org/1999/xlink" x="0px" y="0px"
	 viewBox="0 0 593.82 411.59" style="enable-background:new 0 0 593.82 411.59;" xml:space="preserve">
<style type="text/css">
	.st0{fill:url(#SVGID_1_);}
	.st1{clip-path:url(#SVGID_3_);}
	.st2{fill:url(#SVGID_4_);}
	.st3{fill:url(#SVGID_5_);}
	.st4{fill:url(#SVGID_6_);}
	.st5{fill:url(#SVGID_7_);}
	.st6{fill:url(#SVGID_8_);}
	.st7{fill:url(#SVGID_9_);}
	.st8{fill:url(#SVGID_10_);}
	.st9{fill:url(#SVGID_11_);}
	.st10{fill:url(#SVGID_12_);}
	.st11{fill:url(#SVGID_13_);}
	.st12{fill:url(#SVGID_14_);}
	.st13{fill:url(#SVGID_15_);}
	.st14{fill:url(#SVGID_16_);}
	.st15{fill:url(#SVGID_17_);}
	.st16{fill:url(#SVGID_18_);}
	.st17{fill:url(#SVGID_19_);}
	.st18{fill:url(#SVGID_20_);}
	.st19{fill:url(#SVGID_21_);}
	.st20{fill:url(#SVGID_22_);}
	.st21{fill:url(#SVGID_23_);}
	.st22{fill:url(#SVGID_24_);}
	.st23{fill:url(#SVGID_25_);}
	.st24{fill:url(#SVGID_26_);}
	.st25{fill:url(#SVGID_27_);}
	.st26{fill:#FFFFFF;}
	.st27{fill:url(#SVGID_28_);}
	.st28{fill:#116979;}
	.st29{fill:#18B0B0;}
	.st30{fill:url(#SVGID_29_);}
	.st31{fill:url(#SVGID_30_);}
	.st32{fill:url(#SVGID_31_);}
	.st33{fill:url(#SVGID_32_);}
	.st34{fill:url(#SVGID_33_);}
	.st35{fill:url(#SVGID_34_);}
	.st36{fill:url(#SVGID_35_);}
	.st37{fill:url(#SVGID_36_);}
	.st38{fill:url(#SVGID_37_);}
	.st39{fill:url(#SVGID_38_);}
	.st40{fill:url(#SVGID_39_);}
	.st41{fill:url(#SVGID_40_);}
	.st42{fill:url(#SVGID_41_);}
	.st43{fill:url(#SVGID_42_);}
	.st44{fill:url(#SVGID_43_);}
	.st45{fill:url(#SVGID_44_);}
	.st46{fill:url(#SVGID_45_);}
	.st47{fill:url(#SVGID_46_);}
	.st48{fill:url(#SVGID_47_);}
	.st49{fill:url(#SVGID_48_);}
	.st50{fill:url(#SVGID_49_);}
	.st51{fill:url(#SVGID_50_);}
	.st52{fill:url(#SVGID_51_);}
	.st53{fill:url(#SVGID_52_);}
	.st54{fill:url(#SVGID_53_);}
	.st55{fill:url(#SVGID_54_);}
	.st56{fill:url(#SVGID_55_);}
	.st57{fill:url(#SVGID_56_);}
	.st58{fill:url(#SVGID_57_);}
	.st59{fill:url(#SVGID_58_);}
	.st60{fill:url(#SVGID_59_);}
	.st61{fill:url(#SVGID_60_);}
	.st62{fill:url(#SVGID_61_);}
	.st63{fill:url(#SVGID_62_);}
	.st64{fill:#0B1321;}
	.st65{opacity:0.5;fill:url(#SVGID_63_);}
	.st66{fill:url(#SVGID_64_);}
	.st67{fill:url(#SVGID_65_);}
	.st68{fill:#FCD77F;}
	.st69{fill:url(#SVGID_66_);}
</style>
<g>
	<g>
		<linearGradient id="SVGID_1_" gradientUnits="userSpaceOnUse" x1="321.3006" y1="-19.977" x2="321.3006" y2="442.9944">
			<stop  offset="0" style="stop-color:#2E99B0"/>
			<stop  offset="1" style="stop-color:#FFFFFF"/>
		</linearGradient>
		<path class="st0" d="M212.46,54.47c-14.68,17.99-24.59,39.88-41.52,55.77c-22.15,20.78-53.55,28.75-77.46,47.48
			c-25.78,20.19-41.26,53.34-38.76,85.98s23.5,63.57,53.51,76.66c14.72,6.42,30.88,8.62,46.35,12.93
			c51.02,14.23,93.55,51.12,144.81,64.46c45.33,11.8,93.68,17.21,132.9-14.42c33.44-26.97,47.17-72.74,80.34-100.04
			c16.84-13.86,38.39-22.44,51.92-40.12c13.29-17.35,22.83-38.14,23.58-60.27c0.98-29-18.28-43.68-30.17-67.57
			c-8.32-16.72-8.62-36.55-17-53.24c-8.84-17.62-26.21-30.09-45.15-35.57c-18.93-5.49-39.29-4.5-58.5-0.06
			c-12.08,2.79-24.31,7.07-36.85,6.87c-11.58-0.19-20.4-5.24-30.65-9.97C315.97-1.53,251.55,6.55,212.46,54.47z"/>
	</g>
	<g>
		<defs>
			<path id="SVGID_2_" d="M557.95,115.33c-8.32-16.72-8.62-36.55-17-53.24c-8.84-17.62-26.21-30.09-45.15-35.57
				c-18.93-5.49-39.29-4.5-58.5-0.06c-12.08,2.79-24.31,7.07-36.85,6.87c-11.58-0.19-20.4-5.24-30.65-9.97
				C322.68,1.57,267.44,5.05,228.18,38.4c-4.24-9.44-8.99-19.3-8.99-19.3H91.45l-8.46,142.81l-24.47-5.93l-30.45,28.92l9.06,45.7
				c-42.78,43.72-17.68,103.62-17.68,103.62l33.13-22.26c-8.33,24.62,0,47.38,0,47.38l57.36-38.26
				c14.26,5.87,29.76,8.07,44.64,12.22c51.02,14.23,93.55,51.12,144.81,64.46c45.33,11.8,93.68,17.21,132.9-14.42
				c33.44-26.97,47.17-72.74,80.34-100.04c16.84-13.86,38.39-22.44,51.92-40.12c13.29-17.35,22.83-38.14,23.58-60.27
				C589.1,153.9,569.84,139.22,557.95,115.33z"/>
		</defs>
		<clipPath id="SVGID_3_">
			<use xlink:href="#SVGID_2_"  style="overflow:visible;"/>
		</clipPath>
		<g class="st1">
			<g>
				<g>
					<g>
						<g>
							<linearGradient id="SVGID_4_" gradientUnits="userSpaceOnUse" x1="141.6338" y1="271.786" x2="118.1025" y2="144.3619">
								<stop  offset="0.0112" style="stop-color:#1E1548"/>
								<stop  offset="0.9944" style="stop-color:#2E99B0"/>
							</linearGradient>
							<path class="st2" d="M93.77,139.66c-0.19,4.31-0.37,8.68,0.62,12.87c1.6,6.77,6.11,12.53,8.06,19.21
								c2.62,9,0.37,18.86,2.93,27.88c2.65,9.31,10.1,16.58,13.34,25.71c1.17,3.3,1.78,6.81,3.37,9.93c1.86,3.64,4.94,6.5,7.21,9.9
								c5.66,8.48,5.8,19.36,5.81,29.56c0.01,32.52,0.65,65.03,1.9,97.52c1.62-1.23,2.07-3.44,2.35-5.45
								c2.7-19.43,0.24-39.14-0.54-58.74c-0.79-19.6,0.28-40,9.31-57.41c3.1-5.98,7.11-11.56,9.03-18.01
								c1.58-5.32,1.63-11.09,0.15-16.44c-1.9-6.85-6.19-12.86-8.02-19.73c-1.81-6.76-1.14-14.02-3.14-20.73
								c-2.35-7.87-8.22-14.5-9.59-22.59c-1.18-7.03,1.07-14.92-2.69-20.98c-6.16-9.93-25.1-12.92-35.47-11.54
								c-2.03,0.27-4.08,0.69-5.87,1.7c-1.79,1-3.29,2.66-3.7,4.67c0.41-2.04,4.89,2.82,5.14,3.47
								C94.91,132.9,93.89,137.05,93.77,139.66z"/>
						</g>
						<linearGradient id="SVGID_5_" gradientUnits="userSpaceOnUse" x1="129.171" y1="197.5251" x2="106.4939" y2="85.4479">
							<stop  offset="0.0112" style="stop-color:#1E1548"/>
							<stop  offset="0.9944" style="stop-color:#2E99B0"/>
						</linearGradient>
						<path class="st3" d="M141.2,230.37c-0.44-14.65-5.33-26.42-8.99-37.96c-3.66-11.54-9.43-25.97-11.21-37.52
							c-1.78-11.54-7.98-33.79-7.98-33.79l0,0c-1.16-0.2-2.31-0.36-3.45-0.49c0.78,2.31,5.4,16.22,7.43,27.18
							c2.22,11.99,3.55,15.54,8.88,32.81c5.33,17.27,8.44,28.01,11.61,41.82c3.17,13.8,0,48.13,0,48.13S141.64,245.02,141.2,230.37z
							"/>
					</g>
					<g>
						<g>
							<linearGradient id="SVGID_6_" gradientUnits="userSpaceOnUse" x1="54.7166" y1="201.526" x2="44.2274" y2="231.6616">
								<stop  offset="0.0112" style="stop-color:#1E1548"/>
								<stop  offset="0.9944" style="stop-color:#2E99B0"/>
							</linearGradient>
							<path class="st4" d="M37.19,198.44c0.33,4.09,1.61,8.08,1.63,12.17c0.01,2.9-0.61,5.84-0.06,8.69
								c0.68,3.49,3.02,6.4,5.29,9.14c2.03-4.94,5.7-9.19,10.3-11.91c1.35-0.8,2.81-1.49,3.91-2.61c1.71-1.74,2.33-4.23,3.03-6.57
								c2.79-9.31,9.04-18.79,18.61-20.48c-1.38,0.24-7.75-4.23-9.67-4.81c-4-1.21-8.24-1.66-12.41-1.37
								C47.32,181.41,36.21,186.25,37.19,198.44z"/>
						</g>
						<linearGradient id="SVGID_7_" gradientUnits="userSpaceOnUse" x1="44.7878" y1="219.5429" x2="35.1311" y2="246.1821">
							<stop  offset="0.0112" style="stop-color:#1E1548"/>
							<stop  offset="0.9944" style="stop-color:#2E99B0"/>
						</linearGradient>
						<path class="st5" d="M47.46,212.94c2-4.66,4.33-14.82,7.33-21.64c1.36-3.1,4.12-7.16,6.74-10.67
							c-0.68-0.02-1.35-0.03-2.03-0.02c-1.27,1.6-2.63,3.35-3.97,5.19c-5.09,6.99-7.07,19.65-10.06,26.81
							c-3,7.16-1.41,15.83-1.41,15.83C43.65,223.35,45.46,217.61,47.46,212.94z"/>
						<g>
							<linearGradient id="SVGID_8_" gradientUnits="userSpaceOnUse" x1="117.2429" y1="301.9086" x2="78.394" y2="204.4536">
								<stop  offset="0.0112" style="stop-color:#1E1548"/>
								<stop  offset="0.9944" style="stop-color:#2E99B0"/>
							</linearGradient>
							<path class="st6" d="M92.39,180.93c6.45,2.92,11.18,8.67,14.94,14.68c6.22,9.96,10.42,21.18,12.27,32.78
								c1.22,7.65,1.43,15.5,3.56,22.95c2.92,10.23,9.32,19.22,12.1,29.49c1.64,6.06,1.97,12.4,2.29,18.67
								c0.38,7.46,0.76,14.92,1.14,22.39c0.89,17.42,1.77,34.91,0.2,52.28c-2.29,0-2.75-3.23-2.49-5.5
								c3.04-27.14-3.5-54.45-12.06-80.38c-0.93-2.82-1.91-5.69-3.7-8.07c-2.77-3.7-7.13-5.79-10.78-8.62
								c-10.28-7.98-14.44-21.3-18.43-33.68c-2.17-6.72-4.64-13.71-9.83-18.51c-4.02-3.72-9.35-5.81-13.27-9.63
								c-3.34-3.27-5.43-7.57-7.75-11.62c-2.32-4.06-5.12-8.1-9.25-10.28c-4.14-2.17-9.94-1.82-12.74,1.93
								c4.47-5.99,7.63-10.88,15.48-12.88c3.82-0.98,6.45-0.13,10.09,0.25c4.89,0.51,9.71-0.64,14.47,0.11
								C83.17,177.99,88.19,179.03,92.39,180.93z"/>
						</g>
						<linearGradient id="SVGID_9_" gradientUnits="userSpaceOnUse" x1="106.1116" y1="240.6665" x2="73.2566" y2="158.973">
							<stop  offset="0.0112" style="stop-color:#1E1548"/>
							<stop  offset="0.9944" style="stop-color:#2E99B0"/>
						</linearGradient>
						<path class="st7" d="M91.45,201.29c5.13,16.65,16.45,29.14,18.78,44.21c2.33,15.07,18.98,27.05,21.98,44.37
							c0,0-0.59-10.04-10.77-25.09c-10.17-15.04-9.32-23.98-15.54-38.4c-6.22-14.43-8.66-17.76-13.1-29.08
							c-2.83-7.21-11.22-15.32-16.94-20.26c-0.99-0.03-1.99-0.02-2.99,0.02C78.82,181.7,88.08,190.34,91.45,201.29z"/>
					</g>
					<g>
						<g>
							<linearGradient id="SVGID_10_" gradientUnits="userSpaceOnUse" x1="229.7096" y1="266.2456" x2="242.5297" y2="288.2229">
								<stop  offset="0.0112" style="stop-color:#1E1548"/>
								<stop  offset="0.9944" style="stop-color:#2E99B0"/>
							</linearGradient>
							<path class="st8" d="M244.45,263.82c-0.95-1.51-5.09-3.08-8.29-3.01c-4.16,0.09-8.35-0.41-12.45-0.07
								c-4.28,0.36-7.19,3.36-10.93,4.18c3.33-0.72,7.01,0.44,9.32,2.94c1.92,2.08,2.92,4.97,5.14,6.73
								c4.03,3.2,10.72,1.68,14.15,5.52c1.23,1.38,1.79,3.22,2.31,5C247.18,278.07,248.11,270.78,244.45,263.82z"/>
						</g>
						<linearGradient id="SVGID_11_" gradientUnits="userSpaceOnUse" x1="240.9696" y1="278.9645" x2="252.7823" y2="299.215">
							<stop  offset="0.0112" style="stop-color:#1E1548"/>
							<stop  offset="0.9944" style="stop-color:#2E99B0"/>
						</linearGradient>
						<path class="st9" d="M243.71,275.31c-0.88-3.57-7.61-4.92-10.63-7.36c-1.76-1.42-4.57-4.77-6.61-7.31
							c-0.4,0-0.81,0.01-1.21,0.02c1.64,1.95,3.57,4.35,4.53,5.9c1.85,3,3.98,4.33,9.14,6.32c5.16,1.99,4.77,12.25,4.77,12.25
							S244.59,278.88,243.71,275.31z"/>
						<g>
							<linearGradient id="SVGID_12_" gradientUnits="userSpaceOnUse" x1="170.2359" y1="310.5686" x2="228.8421" y2="237.7548">
								<stop  offset="0.0112" style="stop-color:#1E1548"/>
								<stop  offset="0.9944" style="stop-color:#2E99B0"/>
							</linearGradient>
							<path class="st10" d="M142.63,371.9c-0.29-13.92,5.19-27.41,5.45-41.33c0.24-12.39-3.57-25.36,1.1-36.83
								c1.92-4.72,5.15-8.77,8.34-12.75c3.91-4.88,7.82-9.77,11.73-14.65c3.01-3.76,6.04-7.54,9.61-10.78
								c10.87-9.85,23.55-11.8,37.57-8.71c5.21,1.15,10.31,3.54,13.8,7.58c0.68,0.78,1.3,1.64,2.18,2.19
								c1.34,0.85,3.03,0.85,4.58,1.19c3.24,0.69,6.1,3,7.46,6.02c-6.36-3.2-11.58,6.08-17.18,7.96c-7,2.35-14.37,3.61-21.76,3.69
								c-5.09,0.06-10.59-0.31-14.8,2.55c-5.97,4.06-6.82,12.95-12.49,17.41c-5.47,4.3-13.8,3.23-19.26,7.53
								c-6.38,5.02-5.97,14.53-6.41,22.63c-0.29,5.39-1.22,10.71-2.14,16.03c-1.71,9.82-3.42,19.65-5.13,29.47
								c-0.2,1.18-0.61,2.58-1.76,2.88s-1.92-1.96-0.73-1.94"/>
						</g>
						<linearGradient id="SVGID_13_" gradientUnits="userSpaceOnUse" x1="184.8696" y1="270.2569" x2="191.5065" y2="281.6344">
							<stop  offset="0.0112" style="stop-color:#1E1548"/>
							<stop  offset="0.9944" style="stop-color:#2E99B0"/>
						</linearGradient>
						<path class="st11" d="M201.63,259.12c13.19-3.14,19.3-6.75,24.97-7.94c-0.89-0.63-1.81-1.21-2.78-1.71
							c-4.38,1.7-12.5,4.7-18.52,6.09c-8.66,2-14.82,4.33-19.31,9.99c-4.5,5.66-12.15,12.65-22.98,19.56
							c-10.82,6.91-11.49,18.59-11.49,18.59s6.99-14.34,18.98-21.5C182.49,275.05,185.98,262.85,201.63,259.12z"/>
					</g>
					<g>
						<g>
							<linearGradient id="SVGID_14_" gradientUnits="userSpaceOnUse" x1="108.3955" y1="284.871" x2="128.3749" y2="341.4792">
								<stop  offset="0.0112" style="stop-color:#1E1548"/>
								<stop  offset="0.9944" style="stop-color:#2E99B0"/>
							</linearGradient>
							<path class="st12" d="M124.25,278.29c0.67,3.14,1.34,6.3,1.36,9.51c0.02,3.59-0.77,7.13-1.28,10.68
								c-1.37,9.53,0.11,17.07,3.19,26.15c5.59,16.49,8.65,33.85,9.02,51.26c-2.02-1.45-2.48-4.22-2.77-6.69
								c-0.75-6.34-1.5-12.68-2.25-19.02c-0.49-4.15-0.98-8.31-2-12.35c-3.9-15.54-13.74-27.74-15-44.23
								c-0.19-2.52-0.26-5.13-1.35-7.41c-0.76-1.6-1.97-2.93-3.09-4.3c-6.38-7.83-10.02-17.52-15.57-25.96S80.3,239.87,70.2,240.1
								c4.45-5.7,11.97-8.33,19.2-8.51c7.29-0.19,19.5-0.42,24.17,6.36c3.34,4.85,4.28,12.72,5.7,18.34
								C121.12,263.58,122.69,270.93,124.25,278.29z"/>
						</g>
						<linearGradient id="SVGID_15_" gradientUnits="userSpaceOnUse" x1="95.9734" y1="228.1404" x2="115.6198" y2="292.0744">
							<stop  offset="0.0112" style="stop-color:#1E1548"/>
							<stop  offset="0.9944" style="stop-color:#2E99B0"/>
						</linearGradient>
						<path class="st13" d="M103.37,253.24c6.86,17.65,11.19,20.48,13.85,31.88c2.66,11.41,0.17,21.24,6.38,34.05
							c0,0-3.39-14.23-3.39-24.27c0-10.03-2.87-15.01-8.1-26.34c-3.52-7.63-10.55-24.3-17.62-37.03c-1.06-0.01-2.08-0.01-3.06,0.01
							C95.48,237.27,100.11,244.86,103.37,253.24z"/>
						<g>
							<linearGradient id="SVGID_16_" gradientUnits="userSpaceOnUse" x1="84.9177" y1="212.6317" x2="58.2786" y2="273.2359">
								<stop  offset="0.0112" style="stop-color:#1E1548"/>
								<stop  offset="0.9944" style="stop-color:#2E99B0"/>
							</linearGradient>
							<path class="st14" d="M87.77,247.75c4.29-6.32,16.17-15.84,24.35-11.87c-1.19-2.56-3.69-4.32-6.36-5.25
								c-8.49-2.95-17.72-1.88-26.39-5.37c-7.59-3.05-14.7-4.24-22.56-0.51c-3.74,1.77-8.65,4.76-11.51,7.78
								c-2.94,3.1-3.87,7.73-6.33,11.27c-2.29,3.3-5.32,6.01-7.84,9.13c-6.95,8.61-9.68,20.47-7.19,31.25
								c0.84,3.64,2.24,7.15,2.7,10.86c0.7,5.65-0.78,11.66,1.42,16.91c3.8-7.65,10.82-13.64,18.98-16.18
								c6.28-1.96,13.23-1.99,18.96-5.22c7.12-4.01,10.87-12.09,13.24-19.92C81.62,262.81,83.18,254.51,87.77,247.75z"/>
						</g>
						<linearGradient id="SVGID_17_" gradientUnits="userSpaceOnUse" x1="70.5902" y1="241.0239" x2="21.3077" y2="311.6178">
							<stop  offset="0.0112" style="stop-color:#1E1548"/>
							<stop  offset="0.9944" style="stop-color:#2E99B0"/>
						</linearGradient>
						<path class="st15" d="M67.58,239.25c3.35-5.96,10.35-10.29,15.4-12.79c-1.21-0.33-2.42-0.72-3.61-1.2
							c-0.06-0.03-0.13-0.05-0.19-0.07c-4.45,2.37-9.99,6.72-14.57,14.73c-9.32,16.32-21,27.64-27.48,41.62
							c-6.48,13.99-9.06,30.41-9.06,30.41s5.25-21.08,13.24-30.41C49.29,272.22,62.02,249.16,67.58,239.25z"/>
					</g>
					<g>
						<g>
							<linearGradient id="SVGID_18_" gradientUnits="userSpaceOnUse" x1="132.7925" y1="332.6503" x2="163.8716" y2="233.1973">
								<stop  offset="0.0112" style="stop-color:#1E1548"/>
								<stop  offset="0.9944" style="stop-color:#2E99B0"/>
							</linearGradient>
							<path class="st16" d="M177.28,151.39c-3.62,3.5-6.45,7.71-9.25,11.89c-3.94,5.88-7.89,11.75-11.83,17.63
								c-2.67,3.98-5.37,8.01-6.98,12.52c-2.08,5.8-2.27,12.08-2.21,18.24c0.05,5.08,0.25,10.16,0.6,15.22
								c0.31,4.45,0.73,8.94,0.05,13.34c-2.1,13.57-9.87,23.62-7.19,37.95c3.53,18.91,9.63,34.68,7.61,54.41
								c-0.88,8.54-2.3,17.01-3.42,25.52c-0.56,4.23-1.15,8.49-1.39,12.75c-0.08,1.46-0.56,3.32-0.12,4.76
								c0.12,0.39,1.86,3.35,1.9,3.06c2.82-20.37,5.64-40.74,8.46-61.11c0.86-6.24,1.92-12.59,5.56-17.87
								c3.48-5.06,8.16-9.26,11.5-14.47c2.96-4.62,4.86-9.93,5.51-15.38c0.63-5.31,0.09-10.75,1.32-15.95
								c2.55-10.8,12.13-18.59,16.12-28.94c5.71-14.79-0.83-32.2,4.93-46.97c1.44-3.69,3.61-7.1,4.62-10.93
								c2.34-8.92-2.03-18.47-0.25-27.52C193.57,141.06,184.06,144.61,177.28,151.39z"/>
						</g>
						<linearGradient id="SVGID_19_" gradientUnits="userSpaceOnUse" x1="162.2237" y1="249.2564" x2="189.7508" y2="153.7993">
							<stop  offset="0.0112" style="stop-color:#1E1548"/>
							<stop  offset="0.9944" style="stop-color:#2E99B0"/>
						</linearGradient>
						<path class="st17" d="M202.79,139.54c0,0-17.86,8.9-24.52,31.88c-6.66,22.99-13.76,30.23-17.32,57.02
							c-3.55,26.79-8.65,33.57-10.21,49.43c-1.56,15.86,0,37.29,0,37.29s1.78-31.97,4.88-44.62c3.11-12.65,8.44-34.85,10.66-49.95
							c2.22-15.1,7.45-34.43,14.82-49.18C188.48,156.67,202.79,139.54,202.79,139.54z"/>
					</g>
					<g>
						<linearGradient id="SVGID_20_" gradientUnits="userSpaceOnUse" x1="54.6663" y1="335.3609" x2="137.4864" y2="335.3609">
							<stop  offset="0.0112" style="stop-color:#1E1548"/>
							<stop  offset="0.9944" style="stop-color:#2E99B0"/>
						</linearGradient>
						<path class="st18" d="M135.24,354.65c-1.74-13.1-4.46-26.22-10.08-38.19c-1.6-3.42-3.52-6.83-6.5-9.14
							c-2.17-1.68-4.78-2.69-7.09-4.17c-3.75-2.39-6.77-6.03-10.97-7.51c-7.28-2.57-14.86,2.14-22.31,4.14
							c-4.82,1.29-10.52,1.81-13.38,5.91c-1.68,2.41-1.93,5.54-3.35,8.11c-1.03,1.85-2.63,3.32-3.88,5.03
							c-3.82,5.21-4.02,12.8-0.49,18.2c5.94-7.01,15.02-10.37,23.67-13.44c5.17-1.84,10.34-3.67,15.51-5.51
							c4.37-1.55,8.83-3.12,13.47-3.24c5.43-0.13,10.05,0.93,13.45,5.56c2.32,3.15,3.53,6.96,4.6,10.72
							c4.11,14.44,6.65,29.32,7.56,44.31c0.08,1.25,1.92-1.04,1.95-1.09c0.37-0.65-0.55-4.65-0.64-5.55
							C136.32,364.08,135.87,359.36,135.24,354.65z"/>
					</g>
					<g>
						
							<linearGradient id="SVGID_21_" gradientUnits="userSpaceOnUse" x1="-498.3436" y1="321.1533" x2="-415.5235" y2="321.1533" gradientTransform="matrix(-1 0 0 1 -275.8283 0)">
							<stop  offset="0.0112" style="stop-color:#1E1548"/>
							<stop  offset="0.9944" style="stop-color:#2E99B0"/>
						</linearGradient>
						<path class="st19" d="M141.94,340.44c1.74-13.1,4.46-26.22,10.08-38.19c1.6-3.42,3.52-6.83,6.5-9.14
							c2.17-1.68,4.78-2.69,7.09-4.17c3.75-2.39,6.77-6.03,10.97-7.51c7.28-2.57,14.86,2.14,22.31,4.14
							c4.82,1.29,10.52,1.81,13.38,5.91c1.68,2.41,1.93,5.54,3.35,8.11c1.03,1.85,2.63,3.32,3.88,5.03
							c3.82,5.21,4.02,12.8,0.49,18.2c-5.94-7.01-15.02-10.37-23.67-13.44c-5.17-1.84-10.34-3.67-15.51-5.51
							c-4.37-1.55-8.83-3.12-13.47-3.24c-5.43-0.13-10.05,0.93-13.45,5.56c-2.31,3.15-3.53,6.96-4.6,10.72
							c-4.11,14.44-6.65,29.32-7.56,44.31c-0.08,1.25-1.92-1.04-1.95-1.09c-0.37-0.65,0.55-4.65,0.64-5.55
							C140.86,349.87,141.31,345.15,141.94,340.44z"/>
					</g>
				</g>
				<linearGradient id="SVGID_22_" gradientUnits="userSpaceOnUse" x1="141.2302" y1="469.5003" x2="141.2302" y2="338.0347">
					<stop  offset="0.0112" style="stop-color:#F4EEFF"/>
					<stop  offset="0.9944" style="stop-color:#FFFFFF"/>
				</linearGradient>
				<polygon class="st20" points="141.23,335.98 100.21,335.98 112.39,467.44 141.23,467.44 170.07,467.44 182.25,335.98 				"/>
			</g>
			<g>
				<linearGradient id="SVGID_23_" gradientUnits="userSpaceOnUse" x1="321.3006" y1="441.5944" x2="321.3006" y2="154.8772">
					<stop  offset="0" style="stop-color:#2E99B0"/>
					<stop  offset="1" style="stop-color:#FFFFFF"/>
				</linearGradient>
				<path class="st21" d="M158.19,83.34v209.66c0,7.58,6.15,13.73,13.73,13.73h298.77c7.58,0,13.73-6.15,13.73-13.73V83.34
					c0-7.58-6.15-13.73-13.73-13.73H171.92C164.34,69.62,158.19,75.76,158.19,83.34z"/>
				<linearGradient id="SVGID_24_" gradientUnits="userSpaceOnUse" x1="321.3006" y1="60.7199" x2="321.3006" y2="105.0875">
					<stop  offset="0.0112" style="stop-color:#1E1548"/>
					<stop  offset="0.9944" style="stop-color:#2E99B0"/>
				</linearGradient>
				<path class="st22" d="M470.68,69.62H171.92c-7.58,0-13.73,6.15-13.73,13.73v17.76h326.22V83.34
					C484.41,75.76,478.26,69.62,470.68,69.62z"/>
				<g>
					<linearGradient id="SVGID_25_" gradientUnits="userSpaceOnUse" x1="432.3853" y1="104.3949" x2="432.3853" y2="81.327">
						<stop  offset="5.586592e-03" style="stop-color:#DCD6F7"/>
						<stop  offset="0.9944" style="stop-color:#F4EEFF"/>
					</linearGradient>
					<path class="st23" d="M432.39,80.42c-2.73,0-4.94,2.21-4.94,4.94c0,2.73,2.21,4.94,4.94,4.94c2.73,0,4.94-2.21,4.94-4.94
						C437.33,82.63,435.11,80.42,432.39,80.42z"/>
					<linearGradient id="SVGID_26_" gradientUnits="userSpaceOnUse" x1="450.2317" y1="104.3949" x2="450.2317" y2="81.327">
						<stop  offset="5.586592e-03" style="stop-color:#DCD6F7"/>
						<stop  offset="0.9944" style="stop-color:#F4EEFF"/>
					</linearGradient>
					<path class="st24" d="M450.23,80.42c-2.73,0-4.94,2.21-4.94,4.94c0,2.73,2.21,4.94,4.94,4.94c2.73,0,4.94-2.21,4.94-4.94
						C455.17,82.63,452.96,80.42,450.23,80.42z"/>
					<linearGradient id="SVGID_27_" gradientUnits="userSpaceOnUse" x1="468.078" y1="104.3949" x2="468.078" y2="81.327">
						<stop  offset="5.586592e-03" style="stop-color:#DCD6F7"/>
						<stop  offset="0.9944" style="stop-color:#F4EEFF"/>
					</linearGradient>
					<path class="st25" d="M468.08,80.42c-2.73,0-4.94,2.21-4.94,4.94c0,2.73,2.21,4.94,4.94,4.94c2.73,0,4.94-2.21,4.94-4.94
						C473.02,82.63,470.81,80.42,468.08,80.42z"/>
				</g>
				<path class="st26" d="M222.67,178.37v19.61c0,1.13,0.92,2.05,2.05,2.05h193.15c1.13,0,2.05-0.92,2.05-2.05v-19.61
					c0-1.13-0.92-2.05-2.05-2.05H224.72C223.59,176.32,222.67,177.23,222.67,178.37z"/>
				<linearGradient id="SVGID_28_" gradientUnits="userSpaceOnUse" x1="321.3006" y1="230.8872" x2="321.3006" y2="201.2332">
					<stop  offset="0.0112" style="stop-color:#1E1548"/>
					<stop  offset="0.9944" style="stop-color:#2E99B0"/>
				</linearGradient>
				<path class="st27" d="M278.02,210.12v15.51c0,2.26,1.84,4.1,4.1,4.1h78.37c2.26,0,4.1-1.84,4.1-4.1v-15.51
					c0-2.26-1.84-4.1-4.1-4.1h-78.37C279.85,206.02,278.02,207.85,278.02,210.12z"/>
				<g>
					<path class="st28" d="M255.44,172.03c-0.79,0-1.55-0.08-2.26-0.23v-3.39c0.23,0.04,0.49,0.09,0.75,0.15
						c0.26,0.06,0.55,0.08,0.86,0.08c0.72,0,1.24-0.22,1.55-0.65c0.31-0.43,0.46-1.18,0.46-2.23v-14.93h4.38v14.56
						c0,2.19-0.48,3.84-1.43,4.96C258.78,171.47,257.35,172.03,255.44,172.03z"/>
					<path class="st28" d="M279.76,158.88c0,2.71-0.67,4.78-2,6.19c-1.33,1.41-3.28,2.12-5.85,2.12c-2.53,0-4.47-0.71-5.82-2.13
						c-1.35-1.42-2.02-3.49-2.02-6.2c0-2.69,0.67-4.74,2.01-6.15c1.34-1.42,3.29-2.12,5.85-2.12c2.57,0,4.51,0.7,5.84,2.11
						C279.1,154.09,279.76,156.15,279.76,158.88z M268.66,158.88c0,3.12,1.08,4.68,3.26,4.68c1.1,0,1.92-0.38,2.45-1.14
						c0.53-0.76,0.8-1.94,0.8-3.54c0-1.61-0.27-2.8-0.81-3.57c-0.54-0.77-1.35-1.15-2.42-1.15
						C269.75,154.15,268.66,155.73,268.66,158.88z"/>
					<path class="st28" d="M282.67,150.83h5.63c2.19,0,3.82,0.33,4.88,0.98c1.06,0.65,1.59,1.66,1.59,3.04c0,0.9-0.23,1.68-0.7,2.32
						c-0.46,0.64-1.07,1.05-1.83,1.24v0.11c1,0.26,1.72,0.71,2.17,1.32c0.45,0.62,0.67,1.42,0.67,2.41c0,1.46-0.55,2.62-1.65,3.46
						c-1.1,0.84-2.6,1.26-4.5,1.26h-6.28V150.83z M287.03,157.02h1.31c0.63,0,1.11-0.13,1.45-0.39c0.34-0.26,0.51-0.64,0.51-1.15
						c0-0.9-0.68-1.36-2.05-1.36h-1.23V157.02z M287.03,160.21v3.39h1.53c1.36,0,2.04-0.57,2.04-1.72c0-0.54-0.18-0.95-0.55-1.24
						c-0.36-0.29-0.89-0.43-1.58-0.43H287.03z"/>
					<path class="st28" d="M314.33,162.07c0,1-0.25,1.89-0.76,2.67c-0.51,0.78-1.24,1.38-2.2,1.81c-0.96,0.43-2.08,0.65-3.37,0.65
						c-1.07,0-1.98-0.08-2.7-0.23c-0.73-0.15-1.49-0.41-2.27-0.79v-3.88c0.83,0.43,1.7,0.76,2.59,1c0.9,0.24,1.72,0.36,2.47,0.36
						c0.65,0,1.12-0.11,1.42-0.34c0.3-0.22,0.45-0.51,0.45-0.87c0-0.22-0.06-0.41-0.18-0.58c-0.12-0.17-0.32-0.33-0.59-0.5
						c-0.27-0.17-0.98-0.51-2.15-1.04c-1.05-0.48-1.84-0.94-2.37-1.39c-0.53-0.45-0.92-0.96-1.17-1.55
						c-0.26-0.58-0.38-1.27-0.38-2.06c0-1.49,0.54-2.64,1.62-3.48s2.57-1.25,4.46-1.25c1.67,0,3.37,0.39,5.11,1.16l-1.34,3.37
						c-1.51-0.69-2.81-1.04-3.91-1.04c-0.57,0-0.98,0.1-1.24,0.3c-0.26,0.2-0.39,0.45-0.39,0.74c0,0.32,0.16,0.6,0.49,0.85
						c0.33,0.25,1.22,0.71,2.66,1.37c1.39,0.63,2.36,1.3,2.9,2.01C314.05,160.07,314.33,160.98,314.33,162.07z"/>
					<path class="st28" d="M326.4,166.97h-9.58v-16.13h9.58v3.5h-5.22v2.54h4.83v3.5h-4.83v3.05h5.22V166.97z"/>
					<path class="st28" d="M339.12,166.97l-0.79-3.02h-5.24l-0.82,3.02h-4.79l5.26-16.2h5.82l5.33,16.2H339.12z M337.42,160.37
						l-0.7-2.65c-0.16-0.59-0.36-1.35-0.59-2.28c-0.23-0.93-0.38-1.6-0.46-2.01c-0.07,0.38-0.2,0.99-0.39,1.85
						c-0.19,0.86-0.63,2.56-1.3,5.09H337.42z"/>
					<path class="st28" d="M349.99,161.1v5.87h-4.36v-16.13h5.29c4.38,0,6.58,1.59,6.58,4.77c0,1.87-0.91,3.31-2.74,4.34l4.7,7.03
						h-4.94l-3.42-5.87H349.99z M349.99,157.82h0.82c1.52,0,2.28-0.67,2.28-2.02c0-1.11-0.75-1.67-2.24-1.67h-0.86V157.82z"/>
					<path class="st28" d="M368.12,154.18c-1.04,0-1.85,0.42-2.43,1.27c-0.58,0.85-0.87,2.02-0.87,3.51c0,3.11,1.18,4.66,3.54,4.66
						c0.71,0,1.4-0.1,2.07-0.3c0.67-0.2,1.34-0.44,2.02-0.72v3.69c-1.35,0.6-2.87,0.89-4.57,0.89c-2.44,0-4.3-0.71-5.6-2.12
						c-1.3-1.41-1.95-3.45-1.95-6.13c0-1.67,0.32-3.14,0.94-4.4c0.63-1.27,1.54-2.24,2.71-2.92c1.18-0.68,2.57-1.02,4.17-1.02
						c1.74,0,3.41,0.38,5,1.14l-1.34,3.43c-0.6-0.28-1.19-0.51-1.79-0.71C369.44,154.27,368.8,154.18,368.12,154.18z"/>
					<path class="st28" d="M389.43,166.97h-4.38v-6.58h-5.07v6.58h-4.38v-16.13h4.38v5.98h5.07v-5.98h4.38V166.97z"/>
				</g>
				<g>
					<path class="st29" d="M233.16,188.02h2.23v3.19c-0.35,0.11-0.7,0.19-1.06,0.25c-0.36,0.06-0.78,0.09-1.25,0.09
						c-0.99,0-1.77-0.3-2.32-0.89s-0.83-1.42-0.83-2.49c0-0.68,0.14-1.28,0.41-1.79c0.27-0.51,0.67-0.91,1.18-1.18
						s1.12-0.41,1.81-0.41c0.7,0,1.35,0.13,1.96,0.39l-0.3,0.67c-0.59-0.25-1.16-0.38-1.71-0.38c-0.8,0-1.42,0.24-1.87,0.71
						c-0.45,0.48-0.67,1.14-0.67,1.98c0,0.89,0.22,1.56,0.65,2.02c0.43,0.46,1.07,0.69,1.91,0.69c0.45,0,0.9-0.05,1.33-0.16v-2.02
						h-1.47V188.02z"/>
					<path class="st29" d="M237.73,188.73v2.73h-0.76v-6.56h1.8c0.8,0,1.4,0.15,1.78,0.46c0.38,0.31,0.58,0.77,0.58,1.39
						c0,0.87-0.44,1.45-1.32,1.76l1.78,2.95h-0.9l-1.59-2.73H237.73z M237.73,188.07h1.05c0.54,0,0.93-0.11,1.19-0.32
						c0.25-0.21,0.38-0.54,0.38-0.96c0-0.43-0.13-0.75-0.38-0.94c-0.26-0.19-0.67-0.29-1.23-0.29h-0.99V188.07z"/>
					<path class="st29" d="M246.78,191.46l-0.82-2.09h-2.63l-0.81,2.09h-0.77l2.6-6.59h0.64l2.58,6.59H246.78z M245.72,188.68
						l-0.76-2.03c-0.1-0.26-0.2-0.57-0.3-0.95c-0.07,0.29-0.16,0.6-0.28,0.95l-0.77,2.03H245.72z"/>
					<path class="st29" d="M252.63,186.81c0,0.66-0.23,1.18-0.68,1.53c-0.45,0.36-1.1,0.54-1.95,0.54h-0.77v2.58h-0.76v-6.56h1.7
						C251.81,184.89,252.63,185.53,252.63,186.81z M249.23,188.22h0.69c0.68,0,1.17-0.11,1.47-0.33c0.3-0.22,0.45-0.57,0.45-1.05
						c0-0.43-0.14-0.76-0.43-0.97c-0.28-0.21-0.73-0.32-1.33-0.32h-0.85V188.22z"/>
					<path class="st29" d="M258.99,191.46h-0.76v-3.09h-3.46v3.09H254v-6.56h0.76v2.79h3.46v-2.79h0.76V191.46z"/>
					<path class="st29" d="M260.79,191.46v-6.56h0.76v6.56H260.79z"/>
					<path class="st29" d="M266.16,185.48c-0.72,0-1.29,0.24-1.71,0.72c-0.42,0.48-0.63,1.14-0.63,1.97c0,0.86,0.2,1.52,0.6,1.99
						c0.4,0.47,0.98,0.7,1.72,0.7c0.46,0,0.98-0.08,1.57-0.25v0.67c-0.45,0.17-1.02,0.26-1.68,0.26c-0.97,0-1.71-0.29-2.24-0.88
						c-0.53-0.59-0.79-1.42-0.79-2.5c0-0.68,0.13-1.27,0.38-1.78c0.25-0.51,0.62-0.9,1.1-1.18c0.48-0.28,1.04-0.41,1.68-0.41
						c0.69,0,1.29,0.13,1.81,0.38l-0.32,0.65C267.15,185.6,266.66,185.48,266.16,185.48z"/>
					<path class="st29" d="M276.78,188.11c0,1.08-0.29,1.91-0.88,2.48c-0.59,0.57-1.43,0.86-2.54,0.86h-1.82v-6.56h2.01
						c1.02,0,1.81,0.28,2.38,0.85C276.49,186.31,276.78,187.1,276.78,188.11z M275.97,188.14c0-0.86-0.21-1.5-0.64-1.94
						c-0.43-0.43-1.07-0.65-1.92-0.65h-1.11v5.24h0.93c0.91,0,1.59-0.22,2.05-0.67S275.97,189.02,275.97,188.14z"/>
					<path class="st29" d="M281.9,191.46h-3.66v-6.56h3.66v0.68H279v2.11h2.72v0.67H279v2.42h2.89V191.46z"/>
					<path class="st29" d="M287.06,189.71c0,0.58-0.21,1.03-0.63,1.35c-0.42,0.32-0.99,0.48-1.71,0.48c-0.78,0-1.38-0.1-1.8-0.3
						v-0.74c0.27,0.11,0.56,0.2,0.88,0.27c0.32,0.07,0.63,0.1,0.94,0.1c0.51,0,0.89-0.1,1.15-0.29c0.26-0.19,0.39-0.46,0.39-0.81
						c0-0.23-0.05-0.41-0.14-0.56s-0.24-0.28-0.46-0.4c-0.21-0.12-0.54-0.26-0.98-0.42c-0.61-0.22-1.05-0.48-1.31-0.78
						c-0.26-0.3-0.39-0.69-0.39-1.17c0-0.51,0.19-0.91,0.57-1.21c0.38-0.3,0.88-0.45,1.51-0.45c0.65,0,1.25,0.12,1.8,0.36
						l-0.24,0.66c-0.54-0.23-1.07-0.34-1.58-0.34c-0.4,0-0.72,0.09-0.95,0.26c-0.23,0.17-0.34,0.41-0.34,0.72
						c0,0.23,0.04,0.41,0.12,0.56s0.23,0.28,0.42,0.4c0.2,0.12,0.5,0.26,0.91,0.4c0.69,0.25,1.16,0.51,1.42,0.79
						C286.93,188.9,287.06,189.26,287.06,189.71z"/>
					<path class="st29" d="M288.4,191.46v-6.56h0.76v6.56H288.4z"/>
					<path class="st29" d="M293.85,188.02h2.23v3.19c-0.35,0.11-0.7,0.19-1.06,0.25c-0.36,0.06-0.78,0.09-1.25,0.09
						c-0.99,0-1.77-0.3-2.32-0.89c-0.55-0.59-0.83-1.42-0.83-2.49c0-0.68,0.14-1.28,0.41-1.79c0.27-0.51,0.67-0.91,1.18-1.18
						s1.12-0.41,1.81-0.41c0.7,0,1.35,0.13,1.96,0.39l-0.3,0.67c-0.59-0.25-1.16-0.38-1.71-0.38c-0.8,0-1.42,0.24-1.87,0.71
						c-0.45,0.48-0.67,1.14-0.67,1.98c0,0.89,0.22,1.56,0.65,2.02c0.43,0.46,1.07,0.69,1.91,0.69c0.45,0,0.9-0.05,1.33-0.16v-2.02
						h-1.47V188.02z"/>
					<path class="st29" d="M302.78,191.46h-0.87l-3.59-5.51h-0.04c0.05,0.65,0.07,1.24,0.07,1.78v3.73h-0.7v-6.56h0.86l3.58,5.49
						h0.04c-0.01-0.08-0.02-0.34-0.04-0.78c-0.02-0.44-0.03-0.75-0.02-0.94v-3.77h0.71V191.46z"/>
					<path class="st29" d="M308.25,191.46h-3.66v-6.56h3.66v0.68h-2.89v2.11h2.72v0.67h-2.72v2.42h2.89V191.46z"/>
					<path class="st29" d="M310.47,188.73v2.73h-0.76v-6.56h1.8c0.8,0,1.4,0.15,1.78,0.46c0.38,0.31,0.58,0.77,0.58,1.39
						c0,0.87-0.44,1.45-1.32,1.76l1.78,2.95h-0.9l-1.59-2.73H310.47z M310.47,188.07h1.05c0.54,0,0.93-0.11,1.19-0.32
						c0.25-0.21,0.38-0.54,0.38-0.96c0-0.43-0.13-0.75-0.38-0.94c-0.26-0.19-0.67-0.29-1.23-0.29h-0.99V188.07z"/>
				</g>
			</g>
			<g>
				<g>
					<linearGradient id="SVGID_29_" gradientUnits="userSpaceOnUse" x1="152.1414" y1="235.582" x2="152.1414" y2="-3.592">
						<stop  offset="0.0112" style="stop-color:#1E1548"/>
						<stop  offset="0.9944" style="stop-color:#2E99B0"/>
					</linearGradient>
					<path class="st30" d="M96.75,38.2v184.49c0,5.52,4.48,10,10,10h90.78c5.52,0,10-4.48,10-10V38.2c0-5.52-4.48-10-10-10h-90.78
						C101.23,28.2,96.75,32.68,96.75,38.2z"/>
					<linearGradient id="SVGID_30_" gradientUnits="userSpaceOnUse" x1="152.1414" y1="374.7372" x2="152.1414" y2="51.9308">
						<stop  offset="0" style="stop-color:#2E99B0"/>
						<stop  offset="1" style="stop-color:#FFFFFF"/>
					</linearGradient>
					<path class="st31" d="M101.57,40.74v179.1c0,1.1,0.9,2,2,2h97.14c1.1,0,2-0.9,2-2V40.74c0-1.1-0.9-2-2-2h-97.14
						C102.47,38.74,101.57,39.64,101.57,40.74z"/>
				</g>
				<g>
					<path class="st28" d="M121.3,79.09c-0.94,0-1.84-0.09-2.69-0.28v-4.03c0.28,0.05,0.58,0.11,0.89,0.18
						c0.31,0.07,0.66,0.1,1.02,0.1c0.86,0,1.47-0.26,1.84-0.77c0.37-0.52,0.55-1.4,0.55-2.65V53.88h5.21v17.31
						c0,2.6-0.57,4.56-1.71,5.9S123.57,79.09,121.3,79.09z"/>
					<path class="st28" d="M150.22,63.45c0,3.23-0.79,5.68-2.38,7.36c-1.58,1.68-3.9,2.52-6.95,2.52c-3.01,0-5.32-0.84-6.92-2.53
						c-1.61-1.69-2.41-4.15-2.41-7.37c0-3.19,0.8-5.63,2.39-7.32c1.6-1.68,3.92-2.53,6.96-2.53c3.05,0,5.37,0.84,6.94,2.51
						C149.43,57.76,150.22,60.21,150.22,63.45z M137.02,63.45c0,3.71,1.29,5.56,3.87,5.56c1.31,0,2.29-0.45,2.92-1.35
						c0.63-0.9,0.95-2.31,0.95-4.21c0-1.92-0.32-3.33-0.96-4.25c-0.64-0.91-1.6-1.37-2.88-1.37
						C138.32,57.83,137.02,59.71,137.02,63.45z"/>
					<path class="st28" d="M153.69,53.88h6.69c2.61,0,4.54,0.39,5.81,1.16c1.26,0.77,1.9,1.98,1.9,3.62c0,1.08-0.28,1.99-0.83,2.76
						s-1.28,1.25-2.18,1.47v0.13c1.19,0.31,2.05,0.84,2.59,1.57c0.53,0.73,0.8,1.69,0.8,2.86c0,1.74-0.65,3.11-1.96,4.11
						c-1.31,1-3.09,1.5-5.35,1.5h-7.47V53.88z M158.87,61.25h1.56c0.74,0,1.32-0.15,1.73-0.46c0.41-0.31,0.61-0.76,0.61-1.36
						c0-1.08-0.81-1.61-2.44-1.61h-1.46V61.25z M158.87,65.04v4.03h1.82c1.62,0,2.43-0.68,2.43-2.05c0-0.64-0.22-1.13-0.65-1.47
						c-0.43-0.34-1.06-0.51-1.88-0.51H158.87z"/>
					<path class="st28" d="M184.34,67.24c0,1.19-0.3,2.25-0.91,3.17s-1.47,1.64-2.61,2.15c-1.14,0.51-2.47,0.77-4,0.77
						c-1.28,0-2.35-0.09-3.21-0.27c-0.87-0.18-1.77-0.49-2.7-0.94v-4.62c0.99,0.51,2.02,0.9,3.08,1.19
						c1.07,0.28,2.05,0.43,2.94,0.43c0.77,0,1.33-0.13,1.69-0.4c0.36-0.27,0.54-0.61,0.54-1.03c0-0.26-0.07-0.49-0.22-0.69
						c-0.14-0.2-0.38-0.4-0.7-0.6c-0.32-0.2-1.17-0.61-2.55-1.23c-1.25-0.57-2.19-1.12-2.81-1.65c-0.63-0.53-1.09-1.15-1.39-1.84
						c-0.3-0.69-0.45-1.51-0.45-2.45c0-1.77,0.64-3.15,1.93-4.13s3.05-1.48,5.3-1.48c1.99,0,4.01,0.46,6.08,1.38l-1.59,4
						c-1.79-0.82-3.34-1.23-4.65-1.23c-0.67,0-1.16,0.12-1.47,0.35c-0.31,0.24-0.46,0.53-0.46,0.88c0,0.38,0.19,0.71,0.58,1.01
						c0.39,0.3,1.45,0.84,3.17,1.63c1.65,0.74,2.8,1.54,3.44,2.39C184.02,64.87,184.34,65.95,184.34,67.24z"/>
				</g>
				<g>
					<linearGradient id="SVGID_31_" gradientUnits="userSpaceOnUse" x1="152.1414" y1="123.3164" x2="152.1414" y2="95.4584">
						<stop  offset="0.0112" style="stop-color:#F4EEFF"/>
						<stop  offset="0.9944" style="stop-color:#FFFFFF"/>
					</linearGradient>
					<path class="st32" d="M113.89,97.5v11.28c0,2.21,1.79,4,4,4h68.5c2.21,0,4-1.79,4-4V97.5c0-2.21-1.79-4-4-4h-68.5
						C115.68,93.5,113.89,95.29,113.89,97.5z"/>
					<linearGradient id="SVGID_32_" gradientUnits="userSpaceOnUse" x1="152.1414" y1="152.8878" x2="152.1414" y2="125.4517">
						<stop  offset="0.0112" style="stop-color:#F4EEFF"/>
						<stop  offset="0.9944" style="stop-color:#FFFFFF"/>
					</linearGradient>
					<path class="st33" d="M113.89,127.3v11.28c0,2.21,1.79,4,4,4h68.5c2.21,0,4-1.79,4-4V127.3c0-2.21-1.79-4-4-4h-68.5
						C115.68,123.3,113.89,125.09,113.89,127.3z"/>
					<linearGradient id="SVGID_33_" gradientUnits="userSpaceOnUse" x1="152.1414" y1="182.4592" x2="152.1414" y2="155.191">
						<stop  offset="0.0112" style="stop-color:#F4EEFF"/>
						<stop  offset="0.9944" style="stop-color:#FFFFFF"/>
					</linearGradient>
					<path class="st34" d="M113.89,157.1v11.28c0,2.21,1.79,4,4,4h68.5c2.21,0,4-1.79,4-4V157.1c0-2.21-1.79-4-4-4h-68.5
						C115.68,153.1,113.89,154.89,113.89,157.1z"/>
					<linearGradient id="SVGID_34_" gradientUnits="userSpaceOnUse" x1="152.1414" y1="201.9592" x2="152.1414" y2="174.3031">
						<stop  offset="0.0112" style="stop-color:#F4EEFF"/>
						<stop  offset="0.9944" style="stop-color:#FFFFFF"/>
					</linearGradient>
					<path class="st35" d="M113.89,186.9v11.28c0,2.21,1.79,4,4,4h68.5c2.21,0,4-1.79,4-4V186.9c0-2.21-1.79-4-4-4h-68.5
						C115.68,182.9,113.89,184.69,113.89,186.9z"/>
					<g>
						<g>
							<linearGradient id="SVGID_35_" gradientUnits="userSpaceOnUse" x1="152.1416" y1="110.909" x2="152.1416" y2="94.6737">
								<stop  offset="5.586592e-03" style="stop-color:#95BFB7"/>
								<stop  offset="0.9944" style="stop-color:#BCD3CF"/>
							</linearGradient>
							<rect x="117.87" y="98.08" class="st36" width="68.55" height="1"/>
						</g>
						<g>
							<linearGradient id="SVGID_36_" gradientUnits="userSpaceOnUse" x1="152.1416" y1="110.909" x2="152.1416" y2="94.6737">
								<stop  offset="5.586592e-03" style="stop-color:#95BFB7"/>
								<stop  offset="0.9944" style="stop-color:#BCD3CF"/>
							</linearGradient>
							<rect x="117.87" y="102.64" class="st37" width="68.55" height="1"/>
						</g>
						<g>
							<linearGradient id="SVGID_37_" gradientUnits="userSpaceOnUse" x1="140.4951" y1="110.909" x2="140.4951" y2="94.6737">
								<stop  offset="5.586592e-03" style="stop-color:#95BFB7"/>
								<stop  offset="0.9944" style="stop-color:#BCD3CF"/>
							</linearGradient>
							<rect x="117.87" y="107.19" class="st38" width="45.25" height="1"/>
						</g>
					</g>
					<g>
						<g>
							<linearGradient id="SVGID_38_" gradientUnits="userSpaceOnUse" x1="152.1416" y1="140.7095" x2="152.1416" y2="124.4742">
								<stop  offset="5.586592e-03" style="stop-color:#95BFB7"/>
								<stop  offset="0.9944" style="stop-color:#BCD3CF"/>
							</linearGradient>
							<rect x="117.87" y="127.88" class="st39" width="68.55" height="1"/>
						</g>
						<g>
							<linearGradient id="SVGID_39_" gradientUnits="userSpaceOnUse" x1="152.1416" y1="140.7095" x2="152.1416" y2="124.4742">
								<stop  offset="5.586592e-03" style="stop-color:#95BFB7"/>
								<stop  offset="0.9944" style="stop-color:#BCD3CF"/>
							</linearGradient>
							<rect x="117.87" y="132.44" class="st40" width="68.55" height="1"/>
						</g>
						<g>
							<linearGradient id="SVGID_40_" gradientUnits="userSpaceOnUse" x1="140.4951" y1="140.7095" x2="140.4951" y2="124.4742">
								<stop  offset="5.586592e-03" style="stop-color:#95BFB7"/>
								<stop  offset="0.9944" style="stop-color:#BCD3CF"/>
							</linearGradient>
							<rect x="117.87" y="137" class="st41" width="45.25" height="1"/>
						</g>
					</g>
					<g>
						<g>
							<linearGradient id="SVGID_41_" gradientUnits="userSpaceOnUse" x1="152.1416" y1="170.51" x2="152.1416" y2="154.2747">
								<stop  offset="5.586592e-03" style="stop-color:#95BFB7"/>
								<stop  offset="0.9944" style="stop-color:#BCD3CF"/>
							</linearGradient>
							<rect x="117.87" y="157.68" class="st42" width="68.55" height="1"/>
						</g>
						<g>
							<linearGradient id="SVGID_42_" gradientUnits="userSpaceOnUse" x1="152.1416" y1="170.51" x2="152.1416" y2="154.2747">
								<stop  offset="5.586592e-03" style="stop-color:#95BFB7"/>
								<stop  offset="0.9944" style="stop-color:#BCD3CF"/>
							</linearGradient>
							<rect x="117.87" y="162.24" class="st43" width="68.55" height="1"/>
						</g>
						<g>
							<linearGradient id="SVGID_43_" gradientUnits="userSpaceOnUse" x1="140.4951" y1="170.51" x2="140.4951" y2="154.2747">
								<stop  offset="5.586592e-03" style="stop-color:#95BFB7"/>
								<stop  offset="0.9944" style="stop-color:#BCD3CF"/>
							</linearGradient>
							<rect x="117.87" y="166.8" class="st44" width="45.25" height="1"/>
						</g>
					</g>
					<g>
						<g>
							<linearGradient id="SVGID_44_" gradientUnits="userSpaceOnUse" x1="152.1416" y1="200.3105" x2="152.1416" y2="184.0752">
								<stop  offset="5.586592e-03" style="stop-color:#95BFB7"/>
								<stop  offset="0.9944" style="stop-color:#BCD3CF"/>
							</linearGradient>
							<rect x="117.87" y="187.49" class="st45" width="68.55" height="1"/>
						</g>
						<g>
							<linearGradient id="SVGID_45_" gradientUnits="userSpaceOnUse" x1="152.1416" y1="200.3105" x2="152.1416" y2="184.0752">
								<stop  offset="5.586592e-03" style="stop-color:#95BFB7"/>
								<stop  offset="0.9944" style="stop-color:#BCD3CF"/>
							</linearGradient>
							<rect x="117.87" y="192.04" class="st46" width="68.55" height="1"/>
						</g>
						<g>
							<linearGradient id="SVGID_46_" gradientUnits="userSpaceOnUse" x1="140.4951" y1="200.3105" x2="140.4951" y2="184.0752">
								<stop  offset="5.586592e-03" style="stop-color:#95BFB7"/>
								<stop  offset="0.9944" style="stop-color:#BCD3CF"/>
							</linearGradient>
							<rect x="117.87" y="196.6" class="st47" width="45.25" height="1"/>
						</g>
					</g>
				</g>
			</g>
			<g>
				
					<linearGradient id="SVGID_47_" gradientUnits="userSpaceOnUse" x1="629.6648" y1="257.5598" x2="629.6648" y2="207.8927" gradientTransform="matrix(1 0 0 1 -335.3311 15.0898)">
					<stop  offset="0.0112" style="stop-color:#1E1548"/>
					<stop  offset="0.9944" style="stop-color:#2E99B0"/>
				</linearGradient>
				<path class="st48" d="M300.24,213.76v54.25c0,3.26-2.64,5.91-5.91,5.91h0c-3.26,0-5.91-2.64-5.91-5.91v-54.25H300.24z"/>
				<g>
					<linearGradient id="SVGID_48_" gradientUnits="userSpaceOnUse" x1="205.7085" y1="143.8258" x2="184.6023" y2="194.6726">
						<stop  offset="5.586592e-03" style="stop-color:#FFC7A7"/>
						<stop  offset="0.9944" style="stop-color:#ED9264"/>
					</linearGradient>
					<path class="st49" d="M162.98,160.72c6.02-12.94,22.33-18.09,36.51-16.52c6.95,0.77,14.46,3.36,17.73,9.53
						c1.64,3.09,1.98,6.68,2.29,10.17c0.97,10.81,2.86,23.07-0.48,33.65c-1.85,5.85-6.16,11.31-12.11,12.8
						c-1.99,0.5-4.42,0.77-5.35,2.61c-0.37,0.73-0.4,1.59-0.46,2.41c-0.18,2.69-0.64,5.37-1.39,7.96c-0.18,0.64-0.4,1.29-0.84,1.78
						c-0.58,0.64-1.46,0.92-2.29,1.13c-7.83,2.04-16.23,1.81-23.95-0.63c-0.47-0.15-0.97-0.33-1.22-0.75
						c-0.22-0.37-0.2-0.84-0.16-1.27c0.36-4.42-0.12-8.9-0.01-13.38c0.02-0.75,0.04-1.53-0.21-2.24c-0.31-0.91-1.01-1.62-1.64-2.34
						c-5.63-6.36-5.81-13.29-6.55-21.16c-0.8-8.57-2.48-16.58,0.92-24.91"/>
				</g>
				<linearGradient id="SVGID_49_" gradientUnits="userSpaceOnUse" x1="203.2967" y1="184.6337" x2="179.7921" y2="203.8211">
					<stop  offset="5.586592e-03" style="stop-color:#FFC7A7"/>
					<stop  offset="0.9944" style="stop-color:#ED9264"/>
				</linearGradient>
				<path class="st50" d="M219.51,163.9c-0.31-3.48-0.66-7.08-2.29-10.17c-1.36-2.57-3.47-4.52-5.96-5.97
					c1.89,6.39,5.38,19.93,5.74,34.02c0.35,13.72-3.09,21.95-6.38,27.03c4.04-2.39,6.98-6.7,8.41-11.26
					C222.37,186.97,220.49,174.71,219.51,163.9z"/>
				<g>
					<linearGradient id="SVGID_50_" gradientUnits="userSpaceOnUse" x1="288.5384" y1="231.9529" x2="309.7646" y2="203.8913">
						<stop  offset="5.586592e-03" style="stop-color:#FFC7A7"/>
						<stop  offset="0.9944" style="stop-color:#ED9264"/>
					</linearGradient>
					<path class="st51" d="M308.73,228.99c-0.36,1.54-1.09,2.99-2.19,4.12c-2.68,2.75-6.47,4.15-9.27,6.79
						c-1.81,1.71-2.78,3.17-3.75,5.28c-1.02,2.22-1.81,3.95-4.38,4.82c-2.29,0.78-4.86,0.41-7.03-0.64
						c-2.17-1.05-3.99-2.73-5.53-4.59c-0.14-0.16-0.27-0.34-0.31-0.55c-0.05-0.27,0.08-0.55,0.2-0.8c1.76-3.63,3.49-8.4,3.27-12.5
						c-0.18-3.49-1.24-6.68-0.32-10.28c0.68-2.67,2.83-5.21,4.39-7.46c0.63-0.92,1.3-1.84,2.23-2.46c1.84-1.21,4.15-0.93,6.24-1.11
						c2.43-0.21,4.3-1.73,6.58-2.49c2.25-0.75,4.73-0.83,7.03-0.22c0.78,0.21,1.6,0.54,1.97,1.25c0.66,1.26-0.47,2.78-0.21,4.18
						c0.21,1.16,1.3,1.91,2,2.86c1.02,1.37,1.23,3.29,0.53,4.84c-0.26,0.57-0.62,1.08-0.86,1.65c-0.65,1.57-0.29,3.36-0.31,5.06
						C308.99,227.51,308.9,228.26,308.73,228.99z"/>
				</g>
				<linearGradient id="SVGID_51_" gradientUnits="userSpaceOnUse" x1="281.0511" y1="256.6369" x2="301.9174" y2="224.1381">
					<stop  offset="5.586592e-03" style="stop-color:#FFC7A7"/>
					<stop  offset="0.9944" style="stop-color:#ED9264"/>
				</linearGradient>
				<path class="st52" d="M307.65,212.34c-0.26-1.4,0.87-2.92,0.21-4.18c-0.15-0.29-0.39-0.51-0.67-0.69
					c-1.02,3.1-3.61,7.19-5.05,9.48c-2.16,3.44-1.3,10.16-3.53,14c-2.23,3.84-9.79,4.02-13.61,5.29c-1.71,0.57-4.71,4.92-7.5,9.56
					c1.33,1.44,2.85,2.72,4.61,3.57c2.17,1.05,4.75,1.41,7.03,0.64c2.57-0.87,3.35-2.6,4.38-4.82c0.97-2.11,1.93-3.56,3.75-5.28
					c2.8-2.64,6.59-4.04,9.27-6.79c1.1-1.13,1.83-2.58,2.19-4.12c0.17-0.73,0.26-1.48,0.27-2.23c0.02-1.7-0.34-3.49,0.31-5.06
					c0.24-0.57,0.6-1.09,0.86-1.65c0.7-1.55,0.49-3.48-0.53-4.84C308.94,214.26,307.86,213.5,307.65,212.34z"/>
				<g>
					<linearGradient id="SVGID_52_" gradientUnits="userSpaceOnUse" x1="153.3265" y1="421.868" x2="141.814" y2="470.3164">
						<stop  offset="5.586592e-03" style="stop-color:#0B1321"/>
						<stop  offset="0.9944" style="stop-color:#142133"/>
					</linearGradient>
					<path class="st53" d="M133.42,438.26c6.46,1.02,13.05,2.33,19.57,3.18c2.36,0.31,25.27,2.88,25.66,0.74
						c5.19-28.46,8.94-58.07,15.68-86.03c-3.85,0.03-55.25-0.38-55.16-1.59c-2.05,27.81-5.96,55.62-7.52,83.43
						C132.24,438.08,132.83,438.17,133.42,438.26z"/>
				</g>
				<linearGradient id="SVGID_53_" gradientUnits="userSpaceOnUse" x1="181.3883" y1="388.2132" x2="174.193" y2="424.1897">
					<stop  offset="5.586592e-03" style="stop-color:#0B1321"/>
					<stop  offset="0.9944" style="stop-color:#142133"/>
				</linearGradient>
				<path class="st54" d="M172.15,405.55c-6.24,12.47-4.45,14.01-7.2,25.42c-0.92,3.84-1.45,7.85-1.74,11.5
					c7.08,0.59,15.2,0.97,15.43-0.29c2.89-15.84,5.33-32.03,8.09-48.09C180.88,396.44,174.89,400.07,172.15,405.55z"/>
				<g>
					<linearGradient id="SVGID_54_" gradientUnits="userSpaceOnUse" x1="205.477" y1="405.1325" x2="195.8833" y2="465.573">
						<stop  offset="5.586592e-03" style="stop-color:#0B1321"/>
						<stop  offset="0.9944" style="stop-color:#142133"/>
					</linearGradient>
					<path class="st55" d="M232.09,438.68c-0.1,0.7-0.2,1.39-0.31,2.08c-0.08,0.51-0.18,1.06-0.53,1.37
						c-0.27,0.24-0.63,0.29-0.96,0.32c-3.35,0.31-45.96,1.48-46.02-0.27c-0.98-28.46-0.36-58.07-2.97-86.03
						c3.84,0.03,55.3-0.38,55.39-1.59C234.64,382.24,236.04,411.3,232.09,438.68z"/>
				</g>
				<linearGradient id="SVGID_55_" gradientUnits="userSpaceOnUse" x1="241.3366" y1="349.0683" x2="230.7835" y2="401.8338">
					<stop  offset="5.586592e-03" style="stop-color:#0B1321"/>
					<stop  offset="0.9944" style="stop-color:#142133"/>
				</linearGradient>
				<path class="st56" d="M219.2,442.86c5.7-0.14,10.1-0.31,11.09-0.4c0.34-0.03,0.69-0.07,0.96-0.32c0.34-0.31,0.45-0.87,0.53-1.37
					c0.11-0.69,0.21-1.39,0.31-2.08c3.84-26.62,2.63-54.82,4.44-81.8c-11.64,2.47-7.67,26.6-7.04,32.36
					c0.74,6.72-3.14,12.47-5.02,30.22C223.63,427.47,221.4,435.95,219.2,442.86z"/>
				<g>
					<linearGradient id="SVGID_56_" gradientUnits="userSpaceOnUse" x1="187.1533" y1="215.6081" x2="181.3971" y2="243.4299">
						<stop  offset="5.586592e-03" style="stop-color:#C11435"/>
						<stop  offset="0.9944" style="stop-color:#FF2E4C"/>
					</linearGradient>
					<path class="st57" d="M204.99,230.83c-6.34,1.68-12.12,4.89-19.09,5.68c-8.37,0.95-16.99,0.22-24.78-3.13
						c-0.18-4.12,1.65-8.29,4.8-10.95c5.04-4.25,12.75-4.53,19.01-4.73c5.31-0.17,15.73-1.99,19.15,3.36
						c0.4,0.63,0.64,1.34,0.87,2.05c0.76,2.37,1.64,4.84,1.9,7.28C206.23,230.52,205.61,230.66,204.99,230.83z"/>
				</g>
				<g>
					<linearGradient id="SVGID_57_" gradientUnits="userSpaceOnUse" x1="193.2526" y1="162.9624" x2="232.8268" y2="113.7946">
						<stop  offset="5.586592e-03" style="stop-color:#0B1321"/>
						<stop  offset="0.9944" style="stop-color:#142133"/>
					</linearGradient>
					<path class="st58" d="M223.14,165.4c-1.93,1.81-5.08,2.11-6.62,4.26c-2.78,3.91,1.56,11.09-2.61,13.46
						c-0.12-2.28-0.28-4.7-1.64-6.53c-1.36-1.83-4.37-2.61-5.91-0.93c-0.96,1.04-1.03,2.6-1,4.02c0.18,6.9,1,12.87-1.26,19.76
						c-1.61,4.9-4.68,9.52-9.26,11.9c-3.72,1.93-8.06,2.21-12.25,2.31c-6.52,0.16-11.13,0.33-13.91-5.97
						c-2.97-6.74-9.56-11.7-11.86-18.72c-2.16-6.58-3.53-15.54,0.31-21.77c0.83-1.34,1.88-2.56,2.45-4.03
						c0.7-1.79,0.6-3.78,0.74-5.7c0.75-10.14,9.14-19.2,19.19-20.73c5.25-0.8,10.59,0.27,15.79,1.33c4.37,0.89,9.18,2.54,13.64,2.39
						c3.83-0.13,7.99-1.19,11.48,1.16c2.7,1.82,3.67,5.34,3.98,8.58C224.9,155.21,227.39,161.43,223.14,165.4z"/>
				</g>
				<g>
					<linearGradient id="SVGID_58_" gradientUnits="userSpaceOnUse" x1="184.8728" y1="391.9099" x2="214.6134" y2="244.6462">
						<stop  offset="5.586592e-03" style="stop-color:#C11435"/>
						<stop  offset="0.9944" style="stop-color:#FF2E4C"/>
					</linearGradient>
					<path class="st59" d="M278.27,299.42c-3.41,7.35-7.7,14.72-15.09,17.65c-7.85,3.12-16.85,0.15-24.01-4.34
						c1.39,0.87-0.16,17.21-0.17,19.15c-0.03,7.4-0.06,14.81-0.09,22.21c-0.05,12.61,1.62,25.44-2.41,37.64
						c-1.12-5.04-2.83-9.96-5.07-14.61c-10.45,2.48-18.12,11.45-28.07,15.49c-4.16,1.69-8.65,2.48-13.12,2.88
						c-17.22,1.55-33.08-2.98-48.23-10.83c-2.48-1.29-6.37-2.49-7.37-5.06c-1.19-3.07,0.97-10.42,1.3-13.76
						c0-9.44,1.65-19.29,1.95-28.83c0.02-0.49,0.02-1.02-0.28-1.4c-0.18-0.23-0.45-0.38-0.71-0.52c-4.3-2.34-8.63-4.81-11.94-8.42
						c-4.78-5.21-5.54-12.12-4.59-18.84c2.48-17.51,6.34-34.83,11.53-51.74c4.57-14.89,10.88-22.34,25.75-27.39
						c11.07-3.76,23.01-3.55,34.56-3.53c11.54,0.02,22.47-0.22,33.88,1.98c1.49,0.29,2.99,0.62,4.35,1.3
						c1.45,0.73,2.67,1.82,3.88,2.9c11.56,10.34,17.45,23.86,21.32,38.75c3.42-6.08,6.83-12.17,10.25-18.25
						c1.31-2.34,2.35-5.08,3.74-7.31c1.01-1.62,5.96-5.39,5.96-7.12c0.4-0.48,0.85-0.99,1.46-1.13c0.51-0.12,1.05,0.04,1.54,0.21
						c5.87,2.02,11.23,5.54,15.42,10.12c0.67,0.74,1.34,1.55,1.54,2.53c0.2,1-0.13,2.02-0.45,2.99c-3.09,9.26-6.19,18.52-9.28,27.78
						c-1.9,5.7-3.82,11.2-6.25,16.69C279.13,297.53,278.7,298.48,278.27,299.42z"/>
				</g>
				<linearGradient id="SVGID_59_" gradientUnits="userSpaceOnUse" x1="230.3226" y1="324.5465" x2="189.5492" y2="335.5793">
					<stop  offset="5.586592e-03" style="stop-color:#C11435"/>
					<stop  offset="0.9944" style="stop-color:#FF2E4C"/>
				</linearGradient>
				<path class="st60" d="M227.86,287.55c-0.55-6.24-4.39-32.14-4.87-29.74c-0.48,2.4-0.11,26.86,2.58,40.77
					c2.69,13.91,5.25,19.19,5.41,25.9c0.16,6.72,0.42,52.64,0.42,52.64c2.25,4.65,3.95,9.56,5.07,14.61
					c4.03-12.2,2.36-25.03,2.41-37.64c0.03-7.4,0.06-14.81,0.09-22.21c0.01-1.71,1.21-14.55,0.55-18.21l-0.38-0.94
					C234.99,310.1,228.41,293.79,227.86,287.55z"/>
				<linearGradient id="SVGID_60_" gradientUnits="userSpaceOnUse" x1="271.787" y1="266.0639" x2="218.2149" y2="280.5599">
					<stop  offset="5.586592e-03" style="stop-color:#C11435"/>
					<stop  offset="0.9944" style="stop-color:#FF2E4C"/>
				</linearGradient>
				<path class="st61" d="M276.26,269.32c0.24-9.4-1.4-21.42,0.01-25.1c0.58-1.52,2.08-4.38,3.63-7.22
					c-0.44-0.17-0.89-0.35-1.34-0.51c-0.5-0.17-1.03-0.33-1.54-0.21c-0.61,0.14-1.06,0.65-1.46,1.13c0,1.73-4.95,5.5-5.96,7.12
					c-1.39,2.23-2.43,4.97-3.74,7.31c-3.42,6.08-6.84,12.17-10.25,18.25c1.92,6.91,7.71,21.87,10.81,25.18
					C269.53,298.58,276.02,278.73,276.26,269.32z"/>
				<linearGradient id="SVGID_61_" gradientUnits="userSpaceOnUse" x1="125.1344" y1="342.2006" x2="111.2235" y2="392.5677">
					<stop  offset="5.586592e-03" style="stop-color:#C11435"/>
					<stop  offset="0.9944" style="stop-color:#FF2E4C"/>
				</linearGradient>
				<path class="st62" d="M137.55,260.69c-3.29,15.35-7.07,37.9-5.9,46.05c1.17,8.15-0.22,25.19-0.22,25.19l0,0
					c1.77,1.13,3.61,2.16,5.44,3.16c0.26,0.14,0.53,0.29,0.71,0.52c0.15,0.19,0.22,0.42,0.25,0.65c-0.12-3.72-0.6-20.78,0.02-34.8
					c0.71-15.83,1.92-38.05,3.11-51.05S140.84,245.34,137.55,260.69z"/>
				<linearGradient id="SVGID_62_" gradientUnits="userSpaceOnUse" x1="166.7668" y1="199.0473" x2="192.6699" y2="162.1114">
					<stop  offset="5.586592e-03" style="stop-color:#0B1321"/>
					<stop  offset="0.9944" style="stop-color:#142133"/>
				</linearGradient>
				<path class="st63" d="M220.43,141.61c-3.49-2.35-7.65-1.29-11.48-1.16c-4.47,0.15-9.27-1.5-13.64-2.39
					c-5.2-1.06-10.54-2.13-15.79-1.33c-0.82,0.12-1.61,0.31-2.4,0.53c8.16,2.6,13.29,10.55,28.61,10.5
					c18.3-0.06,14.33,1.4,15.2,8.84c0.37,3.2,1.29,6.31,2.21,8.81c0,0,0.01,0,0.01-0.01c4.24-3.97,1.76-10.2,1.27-15.21
					C224.1,146.94,223.14,143.43,220.43,141.61z"/>
				<path class="st64" d="M298.43,196.04v15.22c0,2.26-1.83,4.09-4.09,4.09l0,0c-2.26,0-4.09-1.83-4.09-4.09v-15.22H298.43z"/>
				
					<linearGradient id="SVGID_63_" gradientUnits="userSpaceOnUse" x1="464.7042" y1="282.2139" x2="464.7042" y2="185.9688" gradientTransform="matrix(0 1 1 0 80.042 -310.2642)">
					<stop  offset="5.586592e-03" style="stop-color:#DCD6F7"/>
					<stop  offset="0.9944" style="stop-color:#F4EEFF"/>
				</linearGradient>
				<path class="st65" d="M250.52,154.44c0-24.2,19.62-43.82,43.82-43.82c24.2,0,43.82,19.62,43.82,43.82
					c0,24.2-19.62,43.82-43.82,43.82C270.13,198.26,250.52,178.64,250.52,154.44z"/>
				
					<linearGradient id="SVGID_64_" gradientUnits="userSpaceOnUse" x1="445.2038" y1="194.7916" x2="463.2825" y2="212.8703" gradientTransform="matrix(0 1 1 0 80.042 -310.2642)">
					<stop  offset="5.586592e-03" style="stop-color:#FFFFFF"/>
					<stop  offset="0.9944" style="stop-color:#FFFFFF;stop-opacity:0"/>
				</linearGradient>
				<path class="st66" d="M270.37,130.47c13.24-13.24,34.7-13.24,47.93,0l-47.93,47.93C257.13,165.17,257.13,143.71,270.37,130.47z"
					/>
				<path class="st64" d="M246.64,154.44c0,26.34,21.35,47.69,47.7,47.69c26.34,0,47.69-21.35,47.69-47.69
					c0-26.34-21.35-47.69-47.69-47.69C267.99,106.75,246.64,128.1,246.64,154.44z M253.74,154.44c0-22.42,18.17-40.59,40.59-40.59
					c22.42,0,40.59,18.17,40.59,40.59c0,22.42-18.17,40.59-40.59,40.59C271.92,195.03,253.74,176.86,253.74,154.44z"/>
			</g>
			<g>
				<g>
					<linearGradient id="SVGID_65_" gradientUnits="userSpaceOnUse" x1="505.5372" y1="592.6658" x2="505.5372" y2="244.5466">
						<stop  offset="0" style="stop-color:#2E99B0"/>
						<stop  offset="1" style="stop-color:#FFFFFF"/>
					</linearGradient>
					<rect x="441.44" y="153.36" class="st67" width="128.2" height="171.31"/>
					<g>
						<g>
							<path class="st68" d="M466.57,181.62h-2.59l-1.45-5.62c-0.05-0.2-0.15-0.61-0.27-1.24c-0.13-0.63-0.2-1.05-0.22-1.26
								c-0.03,0.26-0.1,0.69-0.22,1.27c-0.12,0.58-0.21,1-0.27,1.25l-1.44,5.61h-2.58l-2.73-10.7h2.23l1.37,5.84
								c0.24,1.08,0.41,2.01,0.52,2.8c0.03-0.28,0.1-0.71,0.2-1.29c0.11-0.58,0.2-1.04,0.3-1.36l1.56-6h2.15l1.56,6
								c0.07,0.27,0.15,0.68,0.26,1.23c0.1,0.55,0.18,1.02,0.23,1.42c0.05-0.38,0.13-0.86,0.23-1.42c0.11-0.57,0.21-1.03,0.29-1.38
								l1.36-5.84h2.23L466.57,181.62z"/>
							<path class="st68" d="M476.8,181.62h-6.16v-10.7h6.16v1.86h-3.89v2.35h3.62v1.86h-3.62v2.76h3.89V181.62z"/>
							<path class="st68" d="M480.66,170.91l0.1,0.16c-0.24,0.96-0.67,2.13-1.29,3.51h-1.6c0.34-1.44,0.58-2.67,0.73-3.67H480.66z"
								/>
							<path class="st68" d="M484.56,177.51v4.11h-2.27v-10.7h3.12c1.45,0,2.53,0.27,3.23,0.79c0.7,0.53,1.05,1.33,1.05,2.41
								c0,0.63-0.17,1.19-0.52,1.68c-0.35,0.49-0.84,0.87-1.47,1.15c1.61,2.41,2.66,3.96,3.15,4.66h-2.52l-2.55-4.11H484.56z
								 M484.56,175.66h0.73c0.72,0,1.25-0.12,1.59-0.36c0.34-0.24,0.51-0.62,0.51-1.13c0-0.51-0.17-0.87-0.52-1.08
								c-0.35-0.21-0.89-0.32-1.62-0.32h-0.69V175.66z"/>
							<path class="st68" d="M498.35,181.62h-6.16v-10.7h6.16v1.86h-3.89v2.35h3.62v1.86h-3.62v2.76h3.89V181.62z"/>
							<path class="st68" d="M513.25,181.62h-2.26V177h-4.24v4.62h-2.27v-10.7h2.27v4.2h4.24v-4.2h2.26V181.62z"/>
							<path class="st68" d="M515.95,181.62v-10.7h2.27v10.7H515.95z"/>
							<path class="st68" d="M523.19,177.51v4.11h-2.27v-10.7h3.12c1.45,0,2.53,0.27,3.23,0.79c0.7,0.53,1.05,1.33,1.05,2.41
								c0,0.63-0.17,1.19-0.52,1.68c-0.35,0.49-0.84,0.87-1.47,1.15c1.61,2.41,2.66,3.96,3.15,4.66h-2.52l-2.55-4.11H523.19z
								 M523.19,175.66h0.73c0.72,0,1.25-0.12,1.59-0.36c0.34-0.24,0.51-0.62,0.51-1.13c0-0.51-0.17-0.87-0.52-1.08
								c-0.35-0.21-0.89-0.32-1.62-0.32h-0.69V175.66z"/>
							<path class="st68" d="M530.81,181.62v-10.7h2.27v10.7H530.81z"/>
							<path class="st68" d="M545.27,181.62h-2.89l-4.66-8.1h-0.07c0.09,1.43,0.14,2.45,0.14,3.06v5.04h-2.03v-10.7h2.86l4.65,8.02
								h0.05c-0.07-1.39-0.11-2.37-0.11-2.95v-5.07h2.04V181.62z"/>
							<path class="st68" d="M552.03,175.61h4.25v5.55c-0.69,0.22-1.34,0.38-1.94,0.47c-0.61,0.09-1.23,0.14-1.86,0.14
								c-1.62,0-2.85-0.47-3.7-1.42c-0.85-0.95-1.28-2.31-1.28-4.09c0-1.73,0.49-3.07,1.48-4.04c0.99-0.97,2.36-1.45,4.11-1.45
								c1.1,0,2.16,0.22,3.18,0.66l-0.75,1.82c-0.78-0.39-1.59-0.59-2.44-0.59c-0.98,0-1.77,0.33-2.36,0.99
								c-0.59,0.66-0.89,1.54-0.89,2.66c0,1.16,0.24,2.05,0.71,2.66c0.48,0.61,1.17,0.92,2.08,0.92c0.47,0,0.95-0.05,1.44-0.15
								v-2.23h-2.03V175.61z"/>
						</g>
						<rect x="452.21" y="186.22" class="st68" width="106.66" height="6.13"/>
						<g>
							<g>
								<rect x="452.21" y="200.13" class="st68" width="106.66" height="0.91"/>
							</g>
							<g>
								<rect x="452.21" y="208.2" class="st68" width="106.66" height="0.91"/>
							</g>
							<g>
								<rect x="452.21" y="216.27" class="st68" width="106.66" height="0.91"/>
							</g>
							<g>
								<rect x="452.21" y="224.34" class="st68" width="106.66" height="0.91"/>
							</g>
							<g>
								<rect x="452.21" y="232.41" class="st68" width="106.66" height="0.91"/>
							</g>
							<g>
								<rect x="452.21" y="240.48" class="st68" width="106.66" height="0.91"/>
							</g>
							<g>
								<rect x="452.21" y="248.55" class="st68" width="106.66" height="0.91"/>
							</g>
							<g>
								<rect x="452.21" y="256.62" class="st68" width="106.66" height="0.91"/>
							</g>
							<g>
								<rect x="452.21" y="264.69" class="st68" width="106.66" height="0.91"/>
							</g>
							<g>
								<rect x="452.21" y="272.76" class="st68" width="106.66" height="0.91"/>
							</g>
						</g>
					</g>
				</g>
				<g>
					<linearGradient id="SVGID_66_" gradientUnits="userSpaceOnUse" x1="473.7221" y1="721.8801" x2="473.7221" y2="358.8253">
						<stop  offset="0" style="stop-color:#2E99B0"/>
						<stop  offset="1" style="stop-color:#FFFFFF"/>
					</linearGradient>
					<rect x="409.62" y="239.01" class="st69" width="128.2" height="171.31"/>
					<g>
						<g>
							<path class="st68" d="M434.75,267.27h-2.59l-1.45-5.62c-0.05-0.2-0.15-0.61-0.27-1.24c-0.13-0.63-0.2-1.05-0.22-1.26
								c-0.03,0.26-0.1,0.69-0.22,1.27c-0.12,0.58-0.21,1-0.27,1.25l-1.44,5.61h-2.58l-2.73-10.7h2.23l1.37,5.84
								c0.24,1.08,0.41,2.01,0.52,2.8c0.03-0.28,0.1-0.71,0.2-1.29c0.11-0.58,0.2-1.04,0.3-1.36l1.56-6h2.15l1.56,6
								c0.07,0.27,0.15,0.68,0.26,1.23c0.1,0.55,0.18,1.02,0.23,1.42c0.05-0.38,0.13-0.86,0.23-1.42s0.21-1.03,0.29-1.38l1.36-5.84
								h2.23L434.75,267.27z"/>
							<path class="st68" d="M444.99,267.27h-6.16v-10.7h6.16v1.86h-3.89v2.35h3.62v1.86h-3.62v2.76h3.89V267.27z"/>
							<path class="st68" d="M448.85,256.57l0.1,0.16c-0.24,0.96-0.67,2.13-1.29,3.51h-1.6c0.34-1.44,0.58-2.67,0.73-3.67H448.85z"
								/>
							<path class="st68" d="M452.74,263.17v4.11h-2.27v-10.7h3.12c1.45,0,2.53,0.27,3.23,0.79c0.7,0.53,1.05,1.33,1.05,2.41
								c0,0.63-0.17,1.19-0.52,1.68c-0.35,0.49-0.84,0.87-1.47,1.15c1.61,2.41,2.66,3.96,3.15,4.66h-2.52l-2.55-4.11H452.74z
								 M452.74,261.32h0.73c0.72,0,1.25-0.12,1.59-0.36c0.34-0.24,0.51-0.62,0.51-1.13c0-0.51-0.17-0.87-0.52-1.08
								c-0.35-0.21-0.89-0.32-1.62-0.32h-0.69V261.32z"/>
							<path class="st68" d="M466.54,267.27h-6.16v-10.7h6.16v1.86h-3.89v2.35h3.62v1.86h-3.62v2.76h3.89V267.27z"/>
							<path class="st68" d="M481.44,267.27h-2.26v-4.62h-4.24v4.62h-2.27v-10.7h2.27v4.2h4.24v-4.2h2.26V267.27z"/>
							<path class="st68" d="M484.14,267.27v-10.7h2.27v10.7H484.14z"/>
							<path class="st68" d="M491.37,263.17v4.11h-2.27v-10.7h3.12c1.45,0,2.53,0.27,3.23,0.79c0.7,0.53,1.05,1.33,1.05,2.41
								c0,0.63-0.17,1.19-0.52,1.68c-0.35,0.49-0.84,0.87-1.47,1.15c1.61,2.41,2.66,3.96,3.15,4.66h-2.52l-2.55-4.11H491.37z
								 M491.37,261.32h0.73c0.72,0,1.25-0.12,1.59-0.36c0.34-0.24,0.51-0.62,0.51-1.13c0-0.51-0.17-0.87-0.52-1.08
								c-0.35-0.21-0.89-0.32-1.62-0.32h-0.69V261.32z"/>
							<path class="st68" d="M499,267.27v-10.7h2.27v10.7H499z"/>
							<path class="st68" d="M513.46,267.27h-2.89l-4.66-8.1h-0.07c0.09,1.43,0.14,2.45,0.14,3.06v5.04h-2.03v-10.7h2.86l4.65,8.02
								h0.05c-0.07-1.39-0.11-2.37-0.11-2.95v-5.07h2.04V267.27z"/>
							<path class="st68" d="M520.22,261.26h4.25v5.55c-0.69,0.22-1.34,0.38-1.94,0.47c-0.61,0.09-1.23,0.14-1.86,0.14
								c-1.62,0-2.85-0.47-3.7-1.42s-1.28-2.31-1.28-4.09c0-1.73,0.49-3.07,1.48-4.04c0.99-0.97,2.36-1.45,4.11-1.45
								c1.1,0,2.16,0.22,3.18,0.66l-0.75,1.82c-0.78-0.39-1.59-0.59-2.44-0.59c-0.98,0-1.77,0.33-2.36,0.99
								c-0.59,0.66-0.89,1.54-0.89,2.66c0,1.16,0.24,2.05,0.71,2.66c0.48,0.61,1.17,0.92,2.08,0.92c0.47,0,0.95-0.05,1.44-0.15
								v-2.23h-2.03V261.26z"/>
						</g>
						<rect x="420.39" y="271.87" class="st68" width="106.66" height="6.13"/>
						<g>
							<g>
								<rect x="420.39" y="285.79" class="st68" width="106.66" height="0.91"/>
							</g>
							<g>
								<rect x="420.39" y="293.86" class="st68" width="106.66" height="0.91"/>
							</g>
							<g>
								<rect x="420.39" y="301.93" class="st68" width="106.66" height="0.91"/>
							</g>
							<g>
								<rect x="420.39" y="310" class="st68" width="106.66" height="0.91"/>
							</g>
							<g>
								<rect x="420.39" y="318.07" class="st68" width="106.66" height="0.91"/>
							</g>
							<g>
								<rect x="420.39" y="326.14" class="st68" width="106.66" height="0.91"/>
							</g>
							<g>
								<rect x="420.39" y="334.21" class="st68" width="106.66" height="0.91"/>
							</g>
							<g>
								<rect x="420.39" y="342.28" class="st68" width="106.66" height="0.91"/>
							</g>
							<g>
								<rect x="420.39" y="350.35" class="st68" width="106.66" height="0.91"/>
							</g>
							<g>
								<rect x="420.39" y="358.42" class="st68" width="106.66" height="0.91"/>
							</g>
						</g>
					</g>
				</g>
			</g>
		</g>
	</g>
</g>
</svg>
