<?xml version="1.0" encoding="utf-8"?>
<!-- Generator: Adobe Illustrator 24.0.0, SVG Export Plug-In . SVG Version: 6.00 Build 0)  -->
<svg version="1.1" id="Слой_1" xmlns="http://www.w3.org/2000/svg" xmlns:xlink="http://www.w3.org/1999/xlink" x="0px" y="0px"
	 viewBox="0 0 3026.82 1787.71" style="enable-background:new 0 0 3026.82 1787.71;" xml:space="preserve">
<style type="text/css">
	.st0{fill:#9EC8FF;}
	.st1{fill:#FFFFFF;}
	.st2{opacity:0.8;}
	.st3{fill:#F37168;}
	.st4{fill:#CCE2FF;}
	.st5{fill:#99BBEB;}
	.st6{fill:#9BD6E8;}
	.st7{fill:#3A384D;}
	.st8{fill:#F09959;}
	.st9{fill:#E38540;}
	.st10{fill:#7A4E34;}
	.st11{fill:#D54A41;}
	.st12{opacity:0.2;fill:#99BBEB;}
	.st13{fill:#2E2D3D;}
	.st14{fill:#D5E1E8;}
	.st15{fill:#BDCCD4;}
	.st16{fill:#2E5B9A;}
	.st17{fill:#6791C9;}
	.st18{fill:#75A1DE;}
	.st19{fill:#F2E5DE;}
	.st20{fill:#303C60;}
	.st21{fill:#74B570;}
	.st22{fill:#9CD499;}
</style>
<g>
	<g>
		<g>
			<path class="st0" d="M1819.12,409.89c1.41-12.57,2.15-25.35,2.15-38.29c0-6.83-0.22-13.61-0.62-20.34l-63.28-20.47
				c-3.89-26.68-11.54-52.13-22.4-75.82l41.96-51.63c-9.7-17.08-20.83-33.24-33.24-48.31l-63.29,20.65
				c-18.45-18.84-39.52-35.09-62.65-48.16l3.6-66.49c-17.66-8.04-36.13-14.62-55.24-19.58l-39.08,53.93
				c-15.23-2.56-30.87-3.92-46.83-3.92c-10.88,0-21.61,0.64-32.17,1.85l-36.18-55.92c-19.38,3.94-38.17,9.53-56.21,16.61l0.08,66.59
				c-23.83,11.84-45.73,26.96-65.11,44.79l-62.09-23.96c-13.19,14.42-25.17,29.96-35.75,46.49l39.18,53.79
				c-12.13,23.13-21.13,48.15-26.41,74.52l-64.26,17.1c-1.41,12.57-2.15,25.35-2.15,38.29c0,6.83,0.22,13.61,0.62,20.34l63.28,20.47
				c3.9,26.68,11.55,52.13,22.4,75.82l-41.96,51.63c9.7,17.08,20.83,33.24,33.24,48.31l63.29-20.65
				c18.44,18.84,39.52,35.1,62.65,48.16l-3.6,66.49c17.66,8.04,36.13,14.62,55.24,19.58l39.08-53.93
				c15.23,2.56,30.87,3.92,46.83,3.92c10.88,0,21.61-0.64,32.17-1.85l36.18,55.92c19.38-3.94,38.17-9.53,56.21-16.61l-0.08-66.59
				c23.83-11.84,45.73-26.96,65.11-44.79l62.08,23.96c13.19-14.42,25.17-29.96,35.75-46.49l-39.18-53.79
				c12.13-23.13,21.13-48.15,26.42-74.52L1819.12,409.89z M1480.2,505.37c-73.88,0-133.78-59.89-133.78-133.77
				c0-73.88,59.89-133.78,133.78-133.78s133.78,59.89,133.78,133.78C1613.98,445.48,1554.08,505.37,1480.2,505.37z"/>
			<g>
				<path class="st1" d="M1662.66,524.17c-1.13,0-2.26-0.38-3.19-1.16c-2.12-1.77-2.41-4.92-0.65-7.04
					c33.62-40.43,52.14-91.7,52.14-144.37c0-25.22-4.13-49.99-12.26-73.61c-0.9-2.61,0.49-5.46,3.1-6.36
					c2.61-0.9,5.46,0.49,6.36,3.1c8.5,24.67,12.81,50.54,12.81,76.87c0,55-19.34,108.55-54.45,150.77
					C1665.52,523.55,1664.09,524.17,1662.66,524.17z"/>
			</g>
			<g>
				<path class="st1" d="M1643.29,208.42c-1.23,0-2.46-0.45-3.43-1.36c-22.59-21.27-48.76-37.4-77.78-47.93
					c-2.6-0.94-3.94-3.81-3-6.41c0.94-2.6,3.81-3.94,6.41-2.99c30.31,11,57.64,27.83,81.23,50.04c2.01,1.89,2.11,5.06,0.21,7.07
					C1645.95,207.9,1644.62,208.42,1643.29,208.42z"/>
			</g>
			<g>
				<path class="st1" d="M1428.31,152.67c-2.24,0-4.27-1.51-4.84-3.78c-0.68-2.68,0.95-5.4,3.62-6.07
					c18.83-4.75,38.32-7.16,57.92-7.16c2.76,0,5,2.24,5,5c0,2.76-2.24,5-5,5c-18.78,0-37.44,2.31-55.47,6.86
					C1429.13,152.62,1428.72,152.67,1428.31,152.67z"/>
			</g>
		</g>
		<g>
			<path class="st0" d="M743.93,1256.93c0.97-8.71,1.49-17.55,1.49-26.52c0-4.73-0.16-9.43-0.43-14.09l-43.83-14.18
				c-2.7-18.48-8-36.11-15.52-52.51l29.06-35.76c-6.72-11.83-14.43-23.02-23.02-33.46l-43.83,14.3
				c-12.78-13.05-27.38-24.31-43.39-33.35l2.49-46.05c-12.23-5.57-25.02-10.13-38.26-13.56l-27.07,37.35
				c-10.55-1.78-21.38-2.71-32.44-2.71c-7.54,0-14.97,0.44-22.28,1.28l-25.06-38.73c-13.43,2.73-26.44,6.6-38.93,11.5l0.06,46.12
				c-16.5,8.2-31.67,18.67-45.1,31.02l-43-16.59c-9.14,9.99-17.43,20.75-24.77,32.2l27.14,37.25c-8.4,16.02-14.63,33.35-18.3,51.61
				l-44.51,11.84c-0.97,8.71-1.49,17.56-1.49,26.52c0,4.73,0.16,9.43,0.43,14.09l43.83,14.18c2.7,18.48,8,36.11,15.52,52.51
				l-29.06,35.76c6.72,11.83,14.43,23.02,23.02,33.46l43.83-14.3c12.78,13.05,27.38,24.31,43.39,33.35l-2.49,46.05
				c12.23,5.57,25.02,10.13,38.26,13.56l27.07-37.35c10.55,1.78,21.38,2.71,32.44,2.71c7.54,0,14.97-0.45,22.28-1.28l25.06,38.73
				c13.43-2.73,26.44-6.6,38.93-11.5l-0.06-46.12c16.5-8.2,31.67-18.67,45.1-31.02l43,16.59c9.14-9.99,17.43-20.75,24.77-32.2
				l-27.14-37.25c8.4-16.02,14.63-33.35,18.3-51.61L743.93,1256.93z M509.18,1323.06c-51.17,0-92.66-41.48-92.66-92.66
				s41.48-92.66,92.66-92.66c51.17,0,92.66,41.48,92.66,92.66S560.35,1323.06,509.18,1323.06z"/>
			<g>
				<path class="st1" d="M635.55,1337.62c-1.13,0-2.26-0.38-3.19-1.16c-2.12-1.77-2.41-4.92-0.65-7.04
					c23.06-27.73,35.76-62.89,35.76-99.02c0-17.3-2.83-34.29-8.41-50.49c-0.9-2.61,0.49-5.46,3.1-6.36c2.61-0.9,5.46,0.49,6.36,3.1
					c5.94,17.25,8.95,35.33,8.95,53.74c0,38.46-13.52,75.89-38.07,105.41C638.41,1337,636.99,1337.62,635.55,1337.62z"/>
			</g>
			<g>
				<path class="st1" d="M622.14,1118.92c-1.23,0-2.46-0.45-3.43-1.36c-15.5-14.59-33.44-25.65-53.35-32.87
					c-2.6-0.94-3.94-3.81-3-6.41c0.94-2.6,3.81-3.94,6.41-3c21.19,7.69,40.3,19.46,56.79,34.99c2.01,1.89,2.11,5.06,0.21,7.07
					C624.8,1118.39,623.47,1118.92,622.14,1118.92z"/>
			</g>
			<g>
				<path class="st1" d="M473.24,1080.3c-2.24,0-4.27-1.51-4.84-3.78c-0.68-2.68,0.95-5.4,3.62-6.07
					c13.17-3.32,26.79-5.01,40.5-5.01c2.76,0,5,2.24,5,5s-2.24,5-5,5c-12.88,0-25.68,1.58-38.05,4.7
					C474.05,1080.25,473.64,1080.3,473.24,1080.3z"/>
			</g>
		</g>
		<path class="st0" d="M2023.37,664.65c0-2.58-0.08-5.15-0.21-7.7l32.84-26.37c-2.57-13.16-6.6-25.79-11.93-37.72l-42.4-3.21
			c-9.64-15.21-22.12-28.44-36.7-38.95l-0.14-42.25c-11.81-6.19-24.4-11.1-37.6-14.5l-28.98,31.19c-5-0.54-10.07-0.82-15.21-0.82
			c-12.77,0-25.14,1.72-36.9,4.91l-33.23-26.32c-12.54,5.45-24.33,12.3-35.15,20.38l6.29,41.89c-12.39,12.33-22.48,26.96-29.6,43.2
			l-41.34,9.58c-3.49,12.76-5.59,26.1-6.11,39.85l36.41,21.05c1.85,18.44,7.28,35.82,15.57,51.45l-18.23,38.18
			c7.82,10.69,16.81,20.48,26.79,29.15l39.04-15.29c15.35,9.99,32.77,17.06,51.48,20.42l18.4,37.89c2.19,0.08,4.39,0.14,6.61,0.14
			c11.03,0,21.82-1.02,32.29-2.96l12.41-40.13c18.08-6.07,34.5-15.73,48.45-28.12l41.03,9.22c8.42-9.88,15.76-20.7,21.86-32.29
			l-23.78-34.93C2020.53,696.91,2023.37,681.12,2023.37,664.65z M1881.5,726.48c-32.64,0-59.11-26.46-59.11-59.11
			c0-32.64,26.46-59.11,59.11-59.11c32.64,0,59.11,26.46,59.11,59.11C1940.6,700.02,1914.14,726.48,1881.5,726.48z"/>
	</g>
	<g>
		<g class="st2">
			<path class="st0" d="M2569.76,324.13h-50.8c-19.62,0-35.58-15.96-35.58-35.58v-50.8c0-19.62,15.96-35.58,35.58-35.58h50.8
				c19.62,0,35.58,15.96,35.58,35.58v50.8C2605.33,308.17,2589.37,324.13,2569.76,324.13z M2518.96,216.18
				c-11.9,0-21.58,9.68-21.58,21.58v50.8c0,11.9,9.68,21.58,21.58,21.58h50.8c11.9,0,21.58-9.68,21.58-21.58v-50.8
				c0-11.9-9.68-21.58-21.58-21.58H2518.96z"/>
		</g>
		<g class="st2">
			<path class="st0" d="M2330.72,324.13h-50.8c-19.62,0-35.58-15.96-35.58-35.58v-50.8c0-19.62,15.96-35.58,35.58-35.58h50.8
				c19.62,0,35.58,15.96,35.58,35.58v50.8C2366.3,308.17,2350.34,324.13,2330.72,324.13z M2279.92,216.18
				c-11.9,0-21.58,9.68-21.58,21.58v50.8c0,11.9,9.68,21.58,21.58,21.58h50.8c11.9,0,21.58-9.68,21.58-21.58v-50.8
				c0-11.9-9.68-21.58-21.58-21.58H2279.92z"/>
		</g>
		<g>
			<path class="st3" d="M2308.5,294.56c-0.1,0-0.19,0-0.29-0.01c-1.76-0.09-3.4-0.94-4.47-2.34l-36.51-47.63
				c-2.02-2.63-1.52-6.4,1.11-8.41c2.63-2.01,6.39-1.52,8.41,1.11l32.2,42l84.07-90.07c2.26-2.42,6.06-2.55,8.48-0.29
				c2.42,2.26,2.55,6.06,0.29,8.48l-88.9,95.25C2311.74,293.87,2310.15,294.56,2308.5,294.56z"/>
		</g>
	</g>
	<path class="st4" d="M2737.68,1636.07c-207.97-10.17-915.46,7.06-1130.63,13.77c-215.17,6.71-464.93-8.86-594.67-31.76
		c-129.74-22.9-879.67,1.95-845.64,63.53c34.03,61.58,334.13,27.55,674.45,52.3c340.32,24.75,1105.7-3.09,1278.34,0
		c172.65,3.09,330.96-6.19,553.45-18.56S2858.23,1641.97,2737.68,1636.07z"/>
	<g>
		<rect x="177.19" y="348.41" class="st5" width="434.74" height="712.57"/>
		<rect x="199.96" y="362.93" class="st1" width="397.68" height="670.89"/>
		<g>
			<g>
				<path class="st6" d="M318.91,631.96c14.97-32.2,40.3-42.51,81.9-42.51c49.53,0,75.25,17.94,82.54,44.07
					C394.65,634.73,318.91,631.96,318.91,631.96z"/>
				<path class="st7" d="M383.51,432.83c-20.97,5.89-20.05,17.67-27.04,28.61c-6.99,10.94-22.18,18.23-24,25.52
					c-1.82,7.29,4.68,22.48-3.04,30.99c-7.71,8.51-10.33,12.76-7.29,21.26c3.04,8.51,9.72,21.87,10.33,23.69
					c0.61,1.82,9.11,14.58,19.44,16.4s29.77,4.86,39.49,9.11c9.72,4.25,40.98-5.44,58.33-4.84c17.35,0.61,29.16-12.17,27.95-20.68
					c-1.21-8.51,12.79-25.52,12.76-40.1c-0.04-15.66-18.23-27.34-23.09-37.67c-4.86-10.33,0.61-28.56-17.62-39.35
					c-11.52-6.82-19.44-6.22-28.56-9.25C412.07,433.49,396.88,429.08,383.51,432.83z"/>
				<path class="st8" d="M409.03,615.15c-4.74,7-8.22,7.29-13.37,0c-4.09-5.8-12.15-18.97-12.15-25.65v-66.7
					c0-6.68,5.47-12.15,12.15-12.15h13.37c6.68,0,12.15,5.47,12.15,12.15v66.7C421.18,596.18,413.28,608.87,409.03,615.15z"/>
				<path class="st9" d="M409.03,510.65h-13.37c-6.68,0-12.15,5.47-12.15,12.15v59.51c15.01,4.78,28.71-4.72,37.67-15.42V522.8
					C421.18,516.12,415.71,510.65,409.03,510.65z"/>
				<ellipse class="st8" cx="402.35" cy="511.32" rx="40.4" ry="55.05"/>
				<path class="st7" d="M421.18,467.51c-25.52,43.14-63.19,38.88-63.19,38.88s0.91-57.11,30.83-60.15
					c29.92-3.04,47.54,8.97,53.62,28.79c6.08,19.82,0,32.88,0,32.88s-9.72-7.59-14.58-19.75C423,476.02,421.18,467.51,421.18,467.51
					z"/>
				
					<ellipse transform="matrix(0.9033 -0.429 0.429 0.9033 -186.4868 202.7382)" class="st8" cx="356.47" cy="515.04" rx="10.63" ry="15.95"/>
				<path class="st8" d="M436.79,510.48c-3.78,7.96-2.54,16.45,2.76,18.97c5.3,2.52,12.67-1.89,16.45-9.84
					c3.78-7.96,2.54-16.45-2.76-18.97C447.93,498.11,440.57,502.52,436.79,510.48z"/>
				<path class="st1" d="M417.54,541.18c0,0-6.8,8.82-15.19,8.82c-8.39,0-15.19-8.82-15.19-8.82H417.54z"/>
			</g>
			<path class="st5" d="M450.44,719.29H348.41c-6.52,0-11.86-5.34-11.86-11.86c0-6.53,5.34-11.86,11.86-11.86h102.03
				c6.52,0,11.86,5.34,11.86,11.86C462.3,713.95,456.97,719.29,450.44,719.29z"/>
			<path class="st5" d="M469.12,755.74H329.73c-6.52,0-11.86-5.34-11.86-11.86c0-6.53,5.34-11.86,11.86-11.86h139.39
				c6.52,0,11.86,5.34,11.86,11.86C480.99,750.41,475.65,755.74,469.12,755.74z"/>
			<path class="st5" d="M568.96,886.84H229.89c-3.79,0-6.88-3.1-6.88-6.88c0-3.79,3.1-6.88,6.88-6.88h339.08
				c3.79,0,6.88,3.1,6.88,6.88C575.85,883.74,572.75,886.84,568.96,886.84z"/>
			<path class="st5" d="M568.96,918.84H229.89c-3.79,0-6.88-3.1-6.88-6.88c0-3.79,3.1-6.88,6.88-6.88h339.08
				c3.79,0,6.88,3.1,6.88,6.88C575.85,915.74,572.75,918.84,568.96,918.84z"/>
			<path class="st5" d="M568.96,950.83H229.89c-3.79,0-6.88-3.1-6.88-6.88c0-3.79,3.1-6.88,6.88-6.88h339.08
				c3.79,0,6.88,3.1,6.88,6.88C575.85,947.73,572.75,950.83,568.96,950.83z"/>
			<g>
				<path class="st5" d="M521.54,639.87H277.31c-6.78,0-12.29-5.51-12.29-12.29V402.49c0-6.78,5.51-12.29,12.29-12.29h244.23
					c6.78,0,12.29,5.51,12.29,12.29v225.09C533.83,634.36,528.32,639.87,521.54,639.87z M277.31,400.2c-1.24,0-2.29,1.05-2.29,2.29
					v225.09c0,1.24,1.05,2.29,2.29,2.29h244.23c1.24,0,2.29-1.05,2.29-2.29V402.49c0-1.24-1.05-2.29-2.29-2.29H277.31z"/>
			</g>
			<g>
				<polygon class="st5" points="312.55,786.7 319.62,801.02 335.44,803.32 323.99,814.47 326.7,830.22 312.55,822.78 
					298.41,830.22 301.11,814.47 289.67,803.32 305.48,801.02 				"/>
				<polygon class="st5" points="370.47,786.7 377.54,801.02 393.35,803.32 381.91,814.47 384.61,830.22 370.47,822.78 
					356.33,830.22 359.03,814.47 347.59,803.32 363.4,801.02 				"/>
				<polygon class="st5" points="428.38,786.7 435.45,801.02 451.26,803.32 439.82,814.47 442.52,830.22 428.38,822.78 
					414.24,830.22 416.94,814.47 405.5,803.32 421.31,801.02 				"/>
				<polygon class="st5" points="486.3,786.7 493.37,801.02 509.18,803.32 497.74,814.47 500.44,830.22 486.3,822.78 472.16,830.22 
					474.86,814.47 463.42,803.32 479.23,801.02 				"/>
			</g>
		</g>
	</g>
	<g>
		<rect x="1146.4" y="348.41" class="st5" width="434.74" height="712.57"/>
		<rect x="1169.17" y="362.93" class="st1" width="397.68" height="670.89"/>
		<g>
			<g>
				<path class="st10" d="M1307.01,507.69c0,31.92,19.22,83.41,64.55,81.76c45.33-1.65,55.36-50.74,57.11-64.59
					C1430.43,511.01,1307.01,507.69,1307.01,507.69z"/>
				<path class="st11" d="M1288.12,631.96c14.97-32.2,40.3-42.51,81.9-42.51c49.53,0,75.25,17.94,82.54,44.07
					C1363.86,634.73,1288.12,631.96,1288.12,631.96z"/>
				<path class="st8" d="M1378.24,615.15c-4.74,7-8.22,7.29-13.37,0c-4.09-5.8-12.15-18.97-12.15-25.65v-66.7
					c0-6.68,5.47-12.15,12.15-12.15h13.37c6.68,0,12.15,5.47,12.15,12.15v66.7C1390.39,596.18,1382.5,608.87,1378.24,615.15z"/>
				<path class="st9" d="M1378.24,510.65h-13.37c-6.68,0-12.15,5.47-12.15,12.15v59.51c15.01,4.78,28.71-4.72,37.67-15.42V522.8
					C1390.39,516.12,1384.93,510.65,1378.24,510.65z"/>
				<ellipse class="st8" cx="1371.56" cy="511.32" rx="40.4" ry="55.05"/>
				<path class="st10" d="M1393.77,469.48c-4.8,16.93-15.32,16.73-29.99,22.29c-14.67,5.56-21.68,11.15-26.48,21.98
					c-6.12,13.81,2.78,54.08,2.78,54.08s-37.15-27.8-32.85-71.51c4.3-43.72,30.07-60.65,54.33-60.65
					c24.26,0,33.48,14.78,33.48,14.78s12.92,0.05,25.14,14.53c16.43,19.46,11.37,66.71,0,83.64c-11.37,16.93-18.95,22.24-18.7,21.48
					c0.25-0.76,10.61-39.64,5.05-63.68C1400.97,482.39,1393.77,469.48,1393.77,469.48z"/>
				<path class="st1" d="M1386.75,541.18c0,0-6.8,8.82-15.19,8.82s-15.19-8.82-15.19-8.82H1386.75z"/>
			</g>
			<path class="st5" d="M1419.65,719.29h-102.03c-6.53,0-11.86-5.34-11.86-11.86c0-6.53,5.34-11.86,11.86-11.86h102.03
				c6.53,0,11.86,5.34,11.86,11.86C1431.52,713.95,1426.18,719.29,1419.65,719.29z"/>
			<path class="st5" d="M1438.34,755.74h-139.39c-6.53,0-11.86-5.34-11.86-11.86c0-6.53,5.34-11.86,11.86-11.86h139.39
				c6.53,0,11.86,5.34,11.86,11.86C1450.2,750.41,1444.86,755.74,1438.34,755.74z"/>
			<path class="st5" d="M1538.18,886.84H1199.1c-3.79,0-6.88-3.1-6.88-6.88c0-3.79,3.1-6.88,6.88-6.88h339.08
				c3.79,0,6.88,3.1,6.88,6.88C1545.06,883.74,1541.96,886.84,1538.18,886.84z"/>
			<path class="st5" d="M1538.18,918.84H1199.1c-3.79,0-6.88-3.1-6.88-6.88c0-3.79,3.1-6.88,6.88-6.88h339.08
				c3.79,0,6.88,3.1,6.88,6.88C1545.06,915.74,1541.96,918.84,1538.18,918.84z"/>
			<path class="st5" d="M1538.18,950.83H1199.1c-3.79,0-6.88-3.1-6.88-6.88c0-3.79,3.1-6.88,6.88-6.88h339.08
				c3.79,0,6.88,3.1,6.88,6.88C1545.06,947.73,1541.96,950.83,1538.18,950.83z"/>
			<g>
				<path class="st5" d="M1490.75,639.87h-244.23c-6.78,0-12.29-5.51-12.29-12.29V402.49c0-6.78,5.51-12.29,12.29-12.29h244.23
					c6.78,0,12.29,5.51,12.29,12.29v225.09C1503.04,634.36,1497.53,639.87,1490.75,639.87z M1246.52,400.2
					c-1.24,0-2.29,1.05-2.29,2.29v225.09c0,1.24,1.05,2.29,2.29,2.29h244.23c1.24,0,2.29-1.05,2.29-2.29V402.49
					c0-1.24-1.05-2.29-2.29-2.29H1246.52z"/>
			</g>
			<g>
				<polygon class="st5" points="1281.77,786.7 1288.84,801.02 1304.65,803.32 1293.21,814.47 1295.91,830.22 1281.77,822.78 
					1267.63,830.22 1270.33,814.47 1258.89,803.32 1274.7,801.02 				"/>
				<polygon class="st5" points="1339.68,786.7 1346.75,801.02 1362.56,803.32 1351.12,814.47 1353.82,830.22 1339.68,822.78 
					1325.54,830.22 1328.24,814.47 1316.8,803.32 1332.61,801.02 				"/>
				<polygon class="st5" points="1397.6,786.7 1404.67,801.02 1420.48,803.32 1409.04,814.47 1411.74,830.22 1397.6,822.78 
					1383.45,830.22 1386.16,814.47 1374.71,803.32 1390.53,801.02 				"/>
				<polygon class="st5" points="1455.51,786.7 1462.58,801.02 1478.39,803.32 1466.95,814.47 1469.65,830.22 1455.51,822.78 
					1441.37,830.22 1444.07,814.47 1432.63,803.32 1448.44,801.02 				"/>
			</g>
		</g>
	</g>
	<polygon class="st12" points="1195.27,1053.85 509.18,1053.85 557.71,351.06 1220.01,351.06 	"/>
	<g>
		<rect x="581.25" y="218.06" class="st5" width="593.79" height="973.26"/>
		<rect x="612.34" y="237.9" class="st1" width="543.18" height="916.34"/>
		<g>
			<g>
				<path class="st13" d="M833.31,430.37c-0.38-1.14-9.89-55.72-11.03-76.95c-1.14-21.23,34.11-24.26,34.11-24.26
					s28.81-15.54,49.66-7.58c20.85,7.96,35.04,21.35,44.51,38.03c9.48,16.68-8.34,68.66-8.34,68.66L833.31,430.37z"/>
				<path class="st14" d="M767.96,605.74c-0.13-0.9,2.43-22.38,2.53-23.25c4.8-45.23,60.56-57.96,116.2-57.96
					c65.37,0,109.72,11.96,116.79,58.97c0.21,1.38,3.98,22.91,3.79,24.36C886.11,609.53,767.96,605.74,767.96,605.74z"/>
				<path class="st8" d="M897.91,559.65c-6.48,9.56-11.23,9.96-18.26,0c-5.59-7.92-24.26-25.98-24.26-35.11l7.66-91.03
					c0-9.13,7.47-16.6,16.6-16.6h18.26c9.13,0,16.6,7.47,16.6,16.6l3.56,91.03C918.06,533.67,903.71,551.07,897.91,559.65z"/>
				<path class="st9" d="M897.91,416.92h-18.26c-9.13,0-16.6,7.47-16.6,16.6l-6.65,80.75c20.5,6.53,48.18-6.74,60.42-21.35
					l-2.32-59.4C914.5,424.38,907.03,416.92,897.91,416.92z"/>
				<path class="st15" d="M826.12,531.18l29.27,54.1c0,0,15.67-12.89,17.18-10.36c1.52,2.53-2.78,34.42-2.78,34.42
					s34.87,0.47,36.39-1.04c1.52-1.52-7.08-34.64-3.54-34.64c3.54,0,14.18,9.6,14.18,9.6l32.68-52.08l-7.18-1.75l-53.54,28.81
					l-57.27-28.18L826.12,531.18z"/>
				<polygon class="st11" points="859.6,556.1 881.33,570.69 874.6,609.4 903.91,607.76 896.59,572.55 914.6,556.1 906.14,548.13 
					868.06,548.13 				"/>
				<path class="st14" d="M856.91,504.66l-26.88,25.58c0,0,27.39,48.71,28.91,48.71c1.52,0,23.24-26.86,23.24-26.86l13.91-0.24
					l21.98,23.06l25.54-45.18l-26.04-27.6c0,0-22.24,42.96-26.28,43.97c-4.04,1.01-4.07,1.52-7.34-1.01
					C880.66,542.57,856.91,504.66,856.91,504.66z"/>
				<ellipse class="st8" cx="888.78" cy="417.84" rx="55.18" ry="75.19"/>
				<path class="st8" d="M839.24,416.68c5.16,10.87,3.47,22.47-3.77,25.91c-7.24,3.44-17.3-2.58-22.46-13.45
					c-5.16-10.87-3.47-22.47,3.77-25.91C824.02,399.79,834.08,405.81,839.24,416.68z"/>
				<path class="st8" d="M935.82,416.68c-5.16,10.87-3.47,22.47,3.77,25.91c7.24,3.44,17.3-2.58,22.46-13.45
					c5.16-10.87,3.47-22.47-3.77-25.91C951.04,399.79,940.98,405.81,935.82,416.68z"/>
				<path class="st1" d="M913.26,448.69c0,0-10.96,17.75-24.48,17.75c-13.52,0-24.48-17.75-24.48-17.75H913.26z"/>
				<path class="st13" d="M856.4,366.69c22.74-15.92,32.98-13.27,50.03,12.89c17.06,26.15,37.53,26.62,37.53,26.62l2.65-27.12
					c0,0-25.41-49.15-59.52-42.71c-34.11,6.44-53.51,37.15-53.51,37.15s-1.66,57.55,3.1,59.51c4.76,1.96,5.31-18.57,8.72-22.74
					c3.41-4.17-3.41-23.88,1.14-32.98C851.1,368.2,856.4,366.69,856.4,366.69z"/>
				<path class="st13" d="M929.56,396.25c7.94,8.69,4.93,43.21,9.1,42.83c4.17-0.38,5.69-32.98,4.55-36.39
					C942.07,399.29,929.56,396.25,929.56,396.25z"/>
			</g>
			<path class="st5" d="M1011.53,724.63H758.05c-8.91,0-16.2-7.29-16.2-16.2c0-8.91,7.29-16.2,16.2-16.2h253.48
				c8.91,0,16.2,7.29,16.2,16.2C1027.73,717.34,1020.44,724.63,1011.53,724.63z"/>
			<path class="st5" d="M979.98,774.42H789.59c-8.91,0-16.2-7.29-16.2-16.2c0-8.91,7.29-16.2,16.2-16.2h190.39
				c8.91,0,16.2,7.29,16.2,16.2C996.19,767.13,988.9,774.42,979.98,774.42z"/>
			<path class="st5" d="M1116.35,953.48H653.22c-5.17,0-9.4-4.23-9.4-9.4c0-5.17,4.23-9.4,9.4-9.4h463.13c5.17,0,9.4,4.23,9.4,9.4
				C1125.76,949.25,1121.52,953.48,1116.35,953.48z"/>
			<path class="st5" d="M1116.35,997.18H653.22c-5.17,0-9.4-4.23-9.4-9.4c0-5.17,4.23-9.4,9.4-9.4h463.13c5.17,0,9.4,4.23,9.4,9.4
				C1125.76,992.95,1121.52,997.18,1116.35,997.18z"/>
			<path class="st5" d="M1116.35,1040.88H653.22c-5.17,0-9.4-4.23-9.4-9.4s4.23-9.4,9.4-9.4h463.13c5.17,0,9.4,4.23,9.4,9.4
				S1121.52,1040.88,1116.35,1040.88z"/>
			<g>
				<path class="st5" d="M1051.58,614.33H718c-8.25,0-14.96-6.71-14.96-14.96V291.93c0-8.25,6.71-14.96,14.96-14.96h333.58
					c8.25,0,14.96,6.71,14.96,14.96v307.44C1066.54,607.62,1059.83,614.33,1051.58,614.33z M718,286.97c-2.73,0-4.96,2.22-4.96,4.96
					v307.44c0,2.73,2.22,4.96,4.96,4.96h333.58c2.73,0,4.96-2.22,4.96-4.96V291.93c0-2.73-2.22-4.96-4.96-4.96H718z"/>
			</g>
			<g>
				<polygon class="st5" points="725.96,816.7 735.61,836.26 757.21,839.4 741.58,854.63 745.27,876.14 725.96,865.99 
					706.64,876.14 710.33,854.63 694.7,839.4 716.3,836.26 				"/>
				<polygon class="st5" points="805.06,816.7 814.72,836.26 836.31,839.4 820.68,854.63 824.37,876.14 805.06,865.99 
					785.74,876.14 789.43,854.63 773.81,839.4 795.4,836.26 				"/>
				<polygon class="st5" points="884.16,816.7 893.82,836.26 915.41,839.4 899.79,854.63 903.48,876.14 884.16,865.99 
					864.85,876.14 868.53,854.63 852.91,839.4 874.5,836.26 				"/>
				<polygon class="st5" points="963.26,816.7 972.92,836.26 994.52,839.4 978.89,854.63 982.58,876.14 963.26,865.99 
					943.95,876.14 947.64,854.63 932.01,839.4 953.6,836.26 				"/>
				<polygon class="st5" points="1043.62,816.7 1053.28,836.26 1074.87,839.4 1059.25,854.63 1062.94,876.14 1043.62,865.99 
					1024.31,876.14 1027.99,854.63 1012.37,839.4 1033.96,836.26 				"/>
			</g>
		</g>
	</g>
	<path class="st16" d="M2128.7,1160.05h-761.96c-4.58,0-8.29-3.71-8.29-8.29v-12.43c0-4.58,3.71-8.29,8.29-8.29h761.96
		c4.58,0,8.29,3.71,8.29,8.29v12.43C2136.99,1156.33,2133.28,1160.05,2128.7,1160.05z"/>
	<g>
		<path class="st8" d="M2324.9,742.22c10.32,36.4-14.89,73.91-42.67,81.79c-27.78,7.88-47.6-16.85-57.92-53.25
			c-10.32-36.4,3.82-72.29,31.6-80.17C2283.68,682.7,2314.57,705.82,2324.9,742.22z"/>
		<path class="st8" d="M2169.16,1447.52c0,0,71.19,110.57,80.8,115.38c9.61,4.81,33.65,6.01,24.64,24.04
			c-9.01,18.03-12.62,88.94-21.03,92.54c-8.41,3.61-80.52,12.02-69.71,0c10.82-12.02,17.47-6.01,22.93-27.64
			c5.46-21.63,13.13-62.5,2.91-70.91c-10.22-8.41-72.71-84.13-72.71-84.13L2169.16,1447.52z"/>
		<path class="st8" d="M1810.86,1495.01c0,0-86.54,142.63-102.56,155.45c-16.03,12.82-68.91,32.05-25.64,35.26
			c43.27,3.2,64.1-14.42,91.34-22.44s60.9-12.82,48.08-33.65c-12.82-20.83-7.5-66.31,20.14-95.16
			C1869.85,1505.62,1810.86,1495.01,1810.86,1495.01z"/>
		<path class="st17" d="M2252.47,1164.28c0,0-214.22-5.6-299.15,64.1c-49.68,75.32-169.86,297.55-179.2,322.04
			c6.41,6.41,42.47,17.98,58.49,16.37c47.27-56.37,109.76-105.1,134.61-149.32c30.63-54.49,40.06-81.73,89.74-86.54
			c49.68-4.81,161.86-20.83,195.51-20.83C2286.12,1310.11,2252.47,1164.28,2252.47,1164.28z"/>
		<polygon class="st16" points="2439.27,1686.09 2428.05,1686.09 2347.52,1350.14 2372.23,1350.14 		"/>
		<polygon class="st16" points="2102.9,1686.09 2114.13,1686.09 2206.53,1338.26 2181.82,1338.26 		"/>
		<path class="st18" d="M2374.51,1149.6l-124.55,21.5c0,0-165.51,1.52-241.16,15.61c-68.83,12.82-78.97,91.03,0,198.71
			c44.86,61.17,82.79,109.97,160.36,164.99c19.73-14.49,27.28-19.97,32.73-54.82c-5.61-7.7-20.15-55.87-24.66-65.3
			c-42.9-89.68-100.17-122.3-100.96-131.12c9.61-15.62,254.68,81.44,303.41,24.34C2426.2,1269.01,2374.51,1149.6,2374.51,1149.6z"/>
		<path class="st3" d="M2379.68,867.64c-32.8-4.6-66.21,1.63-97.45,24.25c-27.3,27.83-58.2,73.73-56.3,149.43
			c2.4,96.15-14.88,102.32,3.15,128.76c75.19,31.05,203.78,164.45,173.5,21.43c-21.93-103.56,48.09-180.75-8.39-295.62
			C2389.58,886.55,2383.84,877.49,2379.68,867.64z"/>
		<path class="st11" d="M2225.9,1077.51c-1.46,50.12-8.54,64.89-3.13,80.6c30.65,3.13,86.72,15.4,100.73,35.01
			c16.03,22.43,32.05,25.64,24.57,9.08c-7.48-16.56-27.24-40.06,3.21-120.72c30.45-80.66,44.87-135.15,14.96-191.23L2225.9,1077.51z
			"/>
		<path class="st8" d="M2379.68,867.64c-20.2-47.82-25.16-101.54-25.16-101.54l-52.88,15.62c0,0,30.05,67.3,1.2,91.34
			c-6.13,5.11-13.24,11.31-20.62,18.83C2313.47,869.27,2346.88,863.04,2379.68,867.64z"/>
		<path class="st9" d="M2356.11,778.84c-3.13-2.79-7.05-6.27-11.17-9.9l-43.13,12.74c-0.03,0.08-0.06,0.16-0.09,0.23
			c1.04,2.38,12.03,28.02,13.47,52.68c12.85-7.8,26.93-20.51,43.02-42.72C2357.34,786.94,2356.65,782.54,2356.11,778.84z"/>
		<path class="st8" d="M2342.5,882.68c-54.46,19.05-48.42,76.43-98.55,161.05c-25.94,43.79-50.04,43.14-50.04,43.14
			s-60.84,0.49-134.43-8.51c-46.08-5.63-49.01,8.08-16.96,19.54c64.64,23.11,131.71,47.98,185.8,41.97
			c54.08-6.01,146.58-144,151.35-179.92C2386.28,910.28,2369.93,873.09,2342.5,882.68z"/>
		<g>
			<path class="st16" d="M2314.45,1364.14c-3.39,0-6.85-0.04-10.41-0.13c-44.39-1.1-74.6-7.24-98.88-12.17
				c-28.35-5.76-43.96-8.93-62.14-0.25c-6.98,3.33-15.33,0.38-18.67-6.6c-3.33-6.98-0.38-15.33,6.6-18.67
				c26.63-12.73,48.93-8.2,79.78-1.92c23.2,4.72,52.08,10.58,94,11.62c46.92,1.17,75.53-5.79,90.03-21.87
				c12.92-14.33,16.7-38.4,11.9-75.75c-1.64-12.78-3.29-23.42-4.74-32.8c-4.09-26.47-6.8-43.95-3.45-70.98
				c3.11-25.1,11.42-58.54,30.67-123.37c2.2-7.41,9.99-11.63,17.41-9.44c7.41,2.2,11.64,9.99,9.44,17.41
				c-35.87,120.81-34.05,132.58-26.4,182.1c1.48,9.55,3.15,20.37,4.84,33.51c5.92,46.07-0.07,77.23-18.87,98.08
				C2396.2,1354.36,2364.78,1364.14,2314.45,1364.14z"/>
		</g>
		<path class="st11" d="M1816.74,1615.21c-57.42,28.08-88.32,44.17-106.73,42.64c-4.35-0.36-7.95-0.81-10.97-1.28
			c-20.48,12.1-53.16,26.4-16.39,29.13c43.27,3.2,64.1-14.42,91.34-22.44s60.9-12.82,48.08-33.65
			C1819.62,1625.63,1817.84,1620.73,1816.74,1615.21z"/>
		<path class="st11" d="M2256.22,1565.25c-1.4,45.46-7.65,90.51-35.46,99.02c-7.37,2.26-14.09,2.58-20.03,1.79
			c-4.37,5.41-9.71,5.47-16.87,13.42c-10.82,12.02,61.29,3.61,69.71,0c8.41-3.61,12.02-74.51,21.03-92.54
			C2282,1572.13,2267.11,1568.67,2256.22,1565.25z"/>
		<g>
			<path class="st18" d="M2035.05,1135.01h-182.41c-5.45,0-10.4-3.16-12.7-8.1l-73.72-158.65c-3.26-7.01-0.21-15.34,6.8-18.6
				c7.02-3.26,15.34-0.21,18.6,6.8l69.95,150.55h173.48c7.73,0,14,6.27,14,14S2042.78,1135.01,2035.05,1135.01z"/>
		</g>
		<path class="st8" d="M2073.21,1079.95c-36.86-0.53-73.41-22.5-91.58-19.3c-18.16,3.21-77.46,44.34-69.98,45.94
			s54.49-22.76,56.09-23.13c1.6-0.37,11.75,16.87,36.86,23.21c25.11,6.33,0.18-18.82,78,4.69
			C2133.21,1126.63,2073.21,1079.95,2073.21,1079.95z"/>
		<path class="st19" d="M2374.26,824.01l5.42,43.64c0,0-47.7,2.84-71.43,16.19c-23.73,13.35-58.76,51.94-58.76,51.94l28.62-49.27
			l4.12-31.52L2374.26,824.01z"/>
		<path class="st19" d="M2353.96,877.42c-35.43-6.64-51.81,25.11-74.78,76.92c-22.97,51.82-62.18,114.75-69.98,122.86
			c-7.8,8.11-131.41,0-131.41,0s-3.74,35.79,0,40.06c3.74,4.27,25.11,3.74,25.11,3.74s8.55,6.82,16.56,12.23
			c8.01,5.4,75.85,15.55,107.37,13.95s60.36-4.27,64.63-9.08c4.27-4.81,90.28-137.28,95.62-184.83
			C2392.42,905.74,2372.04,880.81,2353.96,877.42z"/>
		<path class="st20" d="M2249.49,659.48c-67,3.21-56.49,104-56.49,104s17.4,5.37,53.86-0.64c-2.8-10.82-1.6-38.46-1.6-38.46
			s4.24,22.44,9.61,36.06c7.71,3.53,16.43,0.4,31.25-3.18c7.61,32.03,29.12,45.56,43.85,50.19c16.27,5.12,33.5,11.22,52.73,1.6
			c19.23-9.62,8.66-107.9-1.56-127.67c-15.33-29.67-40.8-56.22-84.87-42.2C2274.17,646.21,2249.49,659.48,2249.49,659.48z"/>
		<path class="st20" d="M2366.01,779.19l27.39,40.01c0,0-30.36,75.85,57.94,110.22c69.15,26.91,61.01,74.34,29.76,122.03
			c-31.25,47.69,18.7,89.34,18.7,89.34s7.62-52.83,74.8-62.8c91.61-13.6,117.55-136.59,49.13-198.09
			c-56.62-50.89-73.85-8.75-112.18-54.42c-38.33-45.67-110.68-14.82-110.68-14.82l-26.52-38.67L2366.01,779.19z"/>
		<g>
			<path class="st20" d="M2655.23,1003.79c-0.4,0-0.8-0.1-1.17-0.3c-1.18-0.65-1.61-2.13-0.97-3.31
				c23.04-42.1,4.24-93.1-5.21-106.92c-1-1.46-1.95-2.95-2.96-4.52c-9.29-14.5-20.85-32.54-82.53-43.65
				c-14.86-2.67-26.89-11.5-39.62-20.85c-26.3-19.31-56.12-41.2-120.89-11.38c-1.23,0.56-2.67,0.03-3.23-1.19
				c-0.56-1.22-0.03-2.67,1.19-3.23c67.38-31.01,98.43-8.23,125.81,11.88c12.27,9,23.85,17.51,37.6,19.99
				c63.78,11.48,75.97,30.52,85.77,45.81c0.99,1.54,1.92,2.99,2.88,4.4c9.9,14.47,29.6,67.91,5.47,112.01
				C2656.93,1003.33,2656.09,1003.79,2655.23,1003.79z"/>
		</g>
		<g>
			<path class="st20" d="M2351.38,820.19c-4.38,0-9.13-0.38-14.23-1.15c-23.44-3.51-54.89-16.83-57.35-91.64
				c-0.04-1.34,1.01-2.47,2.35-2.51c1.37-0.03,2.47,1.01,2.51,2.35c1.02,30.83,7.13,53.65,18.18,67.81
				c8.39,10.76,19.52,16.85,35.03,19.17c21.69,3.25,36.07-0.76,42.73-11.91c0.69-1.15,2.19-1.53,3.34-0.84
				c1.15,0.69,1.53,2.19,0.84,3.34C2378.68,815.04,2367.47,820.19,2351.38,820.19z"/>
		</g>
	</g>
	<polygon class="st16" points="1440.12,1686.09 1458.12,1686.09 1528.15,1150.79 1488.55,1150.79 	"/>
	<polygon class="st16" points="2050.97,1686.09 2032.97,1686.09 1962.94,1150.79 2002.54,1150.79 	"/>
	<g>
		<path class="st21" d="M2756.92,1234.25c31.14,28.44,17.6,56.87-5.42,109.68s-27.08,247.81-27.08,247.81l18.96-2.71
			c0,0-2.71-200.41,23.02-254.58c25.73-54.17,36.56-81.25,59.58-63.64S2756.92,1234.25,2756.92,1234.25z"/>
		<path class="st22" d="M2739.81,1197.43c3.78-16.85,26.25-35.09,56.28-50.56c-4.47,24.86-18.79,65.5-3.97,73.83
			c19.99,11.24,1.95-45.5,9.66-76.69c28.21-13.77,62.13-25.03,93.38-30.63c-0.04,0.12-0.08,0.23-0.13,0.34
			c-17.6,44.69-40.62,62.29-31.14,69.06c7.13,5.09,30.36-46.53,61.03-72.99c23.02-1.23,42.5,1.89,54.02,11.02
			c17.81,14.1,29.76,26.61,11.85,69.54c-10.23,7.31-23.49,12.55-38.89,14.09c-40.62,4.06-59.58,5.42-31.15,18.96
			c13.93,6.63,37.27-0.38,56.19-4.64c-6.14,11.31-13.69,24.12-22.86,38.7c-5.82,9.25-12.22,17.28-19.03,24.22
			c-13.09,2.51-24.51,2.54-30.55-0.05c-18.96-8.13-67.71-33.85-79.89-23.02c-11.93,10.6,90.28,17.32,83.2,44.26
			c-49.54,28.54-106.23,14.96-116.25-11.25C2778.12,1256.44,2728.42,1248.15,2739.81,1197.43z"/>
		<path class="st21" d="M2842.23,1389.97c-54.17-40.63-109.69-2.71-138.12,40.62c-28.44,43.33-8.13,140.83-8.13,140.83
			s10.83,0,10.83-4.06c0-4.06-29.79-115.1,40.62-165.21c44.05-31.34,75.83-16.25,79.89-1.35c4.06,14.9-17.6,41.98-17.6,41.98
			L2842.23,1389.97z"/>
		<path class="st22" d="M2717.65,1306.46c54.17,0,71.77,83.96,56.87,132.71c-14.9,48.75-35.21,139.48-35.21,139.48l-13.54-13.54
			c0,0,51.46-127.29,39.27-184.16c-12.19-56.87-41.98-66.35-47.4-66.35C2712.24,1314.59,2717.65,1306.46,2717.65,1306.46z"/>
		<path class="st21" d="M2763.08,1439.55c3.81-5.05,8.52-9.22,14.26-11.98c-0.75,4.03-1.69,7.92-2.81,11.6
			c-6.79,22.21-14.7,53.13-21.3,80.22c-0.6-3.47-1.52-8.81-2.95-17.06c-0.34-1.95-0.6-4.06-0.79-6.3
			C2754.79,1477.99,2759.8,1458.33,2763.08,1439.55z"/>
		<path class="st22" d="M2777.89,1439.95c102.91-43.33,48.69-102.79,139.42-63.53c6.39,2.77,14.18,9.74,21.98,19.36
			c-8.08,2.29-17.87,3.94-28.75,2.31c-27.08-4.06-17.6,17.6,27.08,23.02c8.42,1.02,15.26,2.43,20.94,4.42
			c21.29,40.89,30.88,94.69-14.17,113.39c-8.88,3.69-19.85,5.79-32.06,6.58c-13.9-11.05,3.39-74.99-18.04-66.16
			c-20.58,8.47,6.45,54.81,2.75,66.49c-20.31-0.37-42.8-3.69-64.29-9.01c-8.5-4.77-15-11.16-17-19.56
			c-6.77-28.44,37.92-46.04,39.27-70.42c1.25-22.41-16.38,49.3-63.07,59.85C2749.73,1486.97,2729.78,1460.21,2777.89,1439.95z"/>
		<path class="st22" d="M2704.56,1363.34c10.83-23.02-17.6-28.44-16.25-10.83c1.2,15.6,1.33,53.52-14.67,63.84
			c-27.59-2.99-65.13-14.11-93.51-31.05c-0.36-2.29-0.01-4.65,1.19-7.06c12.19-24.38,90.73-44.69,66.35-52.81
			c-19.41-6.47-53.43,31.72-80.84,50.96c-16.46-12.49-27.49-27.38-27.49-44c0-22.5,27.33-47.96,62.68-60.13
			c15.91,1.6,30.69,10.3,53.77,23.38c34.1,19.32,26.21-11.92-6.03-30.46c27.83,1.44,55.58,13.33,76.05,41.74
			c0,0-1.94,12.14,10.92,30.93c35.06,51.25-5.4,81.16-53.77,79.22C2685.72,1403.55,2697.08,1379.24,2704.56,1363.34z"/>
		<path class="st21" d="M2838.97,1387.67c26.48,20.46,55.9,44.39,92.01,60.64c36.11,16.25,28.89,69.21,28.89,69.21
			s5.42-45.74-24.68-61.39c-30.09-15.65-49.96-34.31-72.83-37.92s-35.51-7.22-35.51-7.22s7.22-14.45,3.01-19.86
			S2838.97,1387.67,2838.97,1387.67z"/>
		<path class="st21" d="M2969.5,1147.38c-96.9,25.88-167.92,87.87-181.16,102.92c-13.24,15.05-13.24,19.26-13.24,19.26l10.23,19.26
			l4.81-2.41c0,0-7.82-16.25,12.64-37.32c35.29-36.33,78.24-65,107.73-77.64C2940.01,1158.81,2969.5,1147.38,2969.5,1147.38z"/>
		<path class="st18" d="M2702.03,1683.74h37.02c26.33,0,47.67-21.34,47.67-47.67v-85.06h-132.35v85.06
			C2654.36,1662.4,2675.7,1683.74,2702.03,1683.74z"/>
		<rect x="2654.36" y="1566.22" class="st1" width="132.35" height="9.32"/>
		<rect x="2654.36" y="1583.21" class="st1" width="132.35" height="5.48"/>
	</g>
	<g>
		<path class="st0" d="M287.67,1567.95h31.58c6.67,0,12.08-5.41,12.08-12.08v-26.01c0-6.67-5.41-12.08-12.08-12.08h-31.58
			c-6.67,0-12.08,5.41-12.08,12.08v26.01C275.59,1562.54,281,1567.95,287.67,1567.95z"/>
		<path class="st0" d="M186.34,1567.95h31.58c6.67,0,12.08-5.41,12.08-12.08v-26.01c0-6.67-5.41-12.08-12.08-12.08h-31.58
			c-6.67,0-12.08,5.41-12.08,12.08v26.01C174.26,1562.54,179.67,1567.95,186.34,1567.95z"/>
		<path class="st0" d="M85.01,1567.95h31.58c6.67,0,12.08-5.41,12.08-12.08v-26.01c0-6.67-5.41-12.08-12.08-12.08H85.01
			c-6.67,0-12.08,5.41-12.08,12.08v26.01C72.93,1562.54,78.34,1567.95,85.01,1567.95z"/>
	</g>
	<g>
		<path class="st0" d="M2968.71,633.23v-31.58c0-6.67-5.41-12.08-12.07-12.08h-26.01c-6.67,0-12.08,5.41-12.08,12.08v31.58
			c0,6.67,5.41,12.08,12.08,12.08h26.01C2963.3,645.31,2968.71,639.9,2968.71,633.23z"/>
		<path class="st0" d="M2968.71,734.56v-31.58c0-6.67-5.41-12.08-12.07-12.08h-26.01c-6.67,0-12.08,5.41-12.08,12.08v31.58
			c0,6.67,5.41,12.08,12.08,12.08h26.01C2963.3,746.64,2968.71,741.23,2968.71,734.56z"/>
		<path class="st0" d="M2968.71,835.89v-31.58c0-6.67-5.41-12.07-12.07-12.07h-26.01c-6.67,0-12.08,5.41-12.08,12.07v31.58
			c0,6.67,5.41,12.07,12.08,12.07h26.01C2963.3,847.97,2968.71,842.56,2968.71,835.89z"/>
	</g>
</g>
</svg>
