<?xml version="1.0" encoding="utf-8"?>
<!-- Generator: Adobe Illustrator 24.0.0, SVG Export Plug-In . SVG Version: 6.00 Build 0)  -->
<svg version="1.1" id="_x2018_лой_x5F_1" xmlns="http://www.w3.org/2000/svg" xmlns:xlink="http://www.w3.org/1999/xlink"
	 x="0px" y="0px" viewBox="0 0 3200 1707.24" style="enable-background:new 0 0 3200 1707.24;" xml:space="preserve">
<style type="text/css">
	.st0{fill:#233862;}
	.st1{fill:#203E7A;}
	.st2{fill:#2B478B;}
	.st3{fill:#FFB27D;}
	.st4{fill:#ADC8FE;}
	.st5{fill:#E8945B;}
	.st6{fill:#8CB0EA;}
	.st7{fill:#ED7D2B;}
	.st8{fill:#A1BACE;}
	.st9{fill:#F99746;}
	.st10{fill:#9DB0F4;}
	.st11{fill:#8CA3E5;}
	.st12{fill:#AEC3FF;}
	.st13{fill:#163560;}
	.st14{fill:#FFFFFF;}
	.st15{fill:#D7E6FF;}
	.st16{fill:#F8FBFF;}
	.st17{fill:#22407A;}
	.st18{fill:#E4EEF9;}
	.st19{fill:#F2A16B;}
	.st20{opacity:0.3;fill:#8CB0EA;}
	.st21{fill:#F2CCAA;}
</style>
<g>
	<g>
		<path class="st0" d="M3154.41,1652.82h-147.55c-1.16-0.25-2.04-0.52-2.62-0.8c-9.83-4.91-6.76-42.48-5.55-54.12
			c0.22-2.15,0.38-3.42,0.38-3.42s51.72-41.37,58.82-9.69c0.22,0.99,0.47,1.94,0.77,2.9c8.94,29.65,49.1,43.12,72.28,46.87
			C3148.53,1637.42,3153.19,1647.63,3154.41,1652.82z"/>
		<path class="st1" d="M3016.59,1652.82h-147.55c-1.16-0.25-2.04-0.52-2.62-0.8c-9.83-4.91-6.76-42.48-5.55-54.12
			c0.22-2.15,1.98-25.21,1.98-25.21s50.12-19.58,57.22,12.1c0.22,0.99,0.47,1.94,0.77,2.9c8.94,29.65,49.1,43.12,72.28,46.87
			C3010.71,1637.42,3015.37,1647.63,3016.59,1652.82z"/>
		<path class="st0" d="M3100.56,791.73c0,0-20.49,585.41-21.98,622.65c-2.58,64.66-12.94,168.09-12.94,168.09
			s-24.55,24.57-73.7,14.22c0,0-43.79-147.65-56.3-303.87c-0.19-2.56-0.39-5.14-0.58-7.72c-11.64-159.03-29.73-493.91-29.73-493.91
			L3100.56,791.73z"/>
		<path class="st2" d="M3113.74,757l-182.69,833.67c0,0-41.31,9.97-76.92-4.27c0,0-9.97-330.48-5.7-428.77
			c4.27-98.29-3.21-369.65,12.82-404.91C2877.27,717.48,3113.74,757,3113.74,757z"/>
		<path class="st3" d="M3050.47,315.03c-55.33,17.45-151.05-29.66-151.05-29.66s51.01-38.28,48.34-117.88l42.19,33.99l29.65,23.9
			c0,0-0.14,16.32-4.2,44.55c-0.66,4.57-1.41,9.45-2.3,14.64C3036.86,297.63,3050.47,315.03,3050.47,315.03z"/>
		<path class="st4" d="M3127.7,828.95c-1.67,1.39-3.61,2.22-5.81,2.22c-14.66-0.21-49.08,5.45-86.07,6.97
			c-15.49,0.66-31.43,0.58-46.56-0.98c-32.86-3.14-62.84-11.3-93.4-23.14c-9.61-3.72-19.29-7.8-29.14-12.22
			c-5.45-2.44-18.01-9.15-17.74-15.24c0.19-6.69,0.85-16.37,1.69-28.57c2.91-42.39,7.97-257.05,7.91-272.35
			c-0.43-114.01,15.9-187.92,61.32-221.88c3.89-2.78,26.58-1.78,48.46,9.01c20.23,9.98,41.6,21.74,60.71,17.87l19.1,16.9
			c23.29,21.6,48.76,50.98,59.85,95.58c9.42,37.95,14.96,106.39,18.01,177.3c1.39,32.14,2.5,64.55,2.78,95.32v1.09
			c0.28,3.06,0.28,6.39,0.28,9.44C3130.2,765.23,3129.08,827.84,3127.7,828.95z"/>
		<path class="st5" d="M3019.59,225.38c0,0-0.14,16.32-4.2,44.55c-43.09-10.11-67.72-64.02-67.72-64.02l42.27-4.43L3019.59,225.38z"
			/>
		<path class="st3" d="M3036.51,224.07c0,0-91.38,15.18-99.96-41.87c-8.58-57.05-26.15-93.52,31.83-105.63
			c57.98-12.11,72.62,7.96,80.12,26.3C3055.99,121.22,3060.06,218.65,3036.51,224.07z"/>
		<path class="st0" d="M3048.5,102.88c0,0-38.6,10.43-59.24,10.94c-20.65,0.51-15.22,31.73-20.35,33.27
			c-5.13,1.54-15.93-15.33-25.41-4.31c-4.4,5.11,0.26,22.5,5.54,31.44c11.35,19.24-6.52,41.06-6.52,41.06s-67.5-45.09-57.76-115.31
			c9.74-70.22,88.24-68.05,115.92-60.36c27.68,7.69,71.26,10.46,69.44,26.18C3068.33,81.19,3066.45,99.28,3048.5,102.88z"/>
		<path class="st6" d="M3035.82,838.14c-15.49,0.66-31.43,0.58-46.56-0.98c-32.86-3.14-62.84-11.3-93.4-23.14
			c-13.65-40.49-31.13-124.69-22.33-191.09c5.88-44.34,49.68-190.7,49.68-190.7l95.08,82.26c0,0-16.73,87.43-19.94,117.88
			C2990.93,702.84,3029.07,818.41,3035.82,838.14z"/>
		<g>
			<path class="st7" d="M2850.53,1076.61l245.61-40.16c13.6-2.22,22.9-15.17,20.68-28.76l-15.8-96.63
				c-2.22-13.6-15.17-22.9-28.76-20.68l-245.61,40.16c-13.6,2.22-22.9,15.17-20.68,28.76l15.8,96.63
				C2824,1069.53,2836.94,1078.83,2850.53,1076.61z"/>
			<g>
				<path class="st7" d="M2972.59,858.2c-4.69-1.11-9.66-1.33-14.71-0.5l-30.09,4.93l-3.14,0.51
					c-20.71,3.38-34.81,22.99-31.42,43.71l2.03,12.48l3.81,23.34c3.39,20.71,23,34.81,43.71,31.42l33.23-5.44
					c20.71-3.38,34.81-22.98,31.43-43.7l-3.81-23.34l-2.05-12.47C2999.03,873.45,2987.17,861.56,2972.59,858.2z M2992.56,927.37
					c2.04,12.51-6.47,24.33-18.96,26.39l-33.24,5.43c-12.5,2.06-24.33-6.45-26.39-18.96l-3.81-23.34l-2.05-12.47
					c-2.04-12.49,6.47-24.33,18.98-26.38l6.07-0.99l27.15-4.45c1.78-0.29,3.54-0.37,5.26-0.26c10.42,0.72,19.38,8.5,21.13,19.22
					l2.05,12.49L2992.56,927.37z"/>
			</g>
		</g>
		<path class="st3" d="M2956.6,798.67c0,0,3.38,21.05,5.47,28.98c4.6,17.46,25.24,36.06-5.74,58.49c0,0-17.78,15.74-20.3,3.34
			c-1.87-9.21,2.45-12.18-5.88-28.04c-8.32-15.87-5.07-36.32-0.46-39.63l6.49-12.72L2956.6,798.67z"/>
		<path class="st4" d="M2944.82,825.11c17.32-2.5,34.46-9.92,34.46-9.92s-3.78-165.55-2.33-181.3
			c1.45-15.75,82.13-224.34,82.13-224.34l-106.8-122.74c0,0-61.68,298.86-64.58,338.84c-4.79,66.07,31.52,197.76,31.52,197.76
			S2931.21,827.07,2944.82,825.11z"/>
		<path class="st3" d="M2965.24,836.77c0,0,12.11,18.87,13.89,21.72c1.78,2.85-2.67,4.09-7.66-0.71
			C2966.48,852.98,2965.24,836.77,2965.24,836.77z"/>
		<path class="st6" d="M2908.98,272.68c0,0,16.74-25.28,24.57-32.05l91.88,43.09l15.31,16.74
			C3040.74,300.46,2923.93,269.12,2908.98,272.68z"/>
	</g>
	<g>
		<g>
			<path class="st2" d="M324.22,1141.9c0,0,16.9,60.85,10.83,78.75c-6.07,17.9-14.39,71.33-14.39,71.33s85.6-45.99,88.89-56.8
				c3.29-10.81,2.38-82.4-20.94-104.3C365.29,1108.97,324.22,1141.9,324.22,1141.9z"/>
			<path class="st0" d="M344.46,1207.8c-5.19-16.6,4.05-34.27,20.65-39.46c16.6-5.19,34.27,4.05,39.46,20.65
				c5.19,16.6-4.05,34.27-20.65,39.46C367.33,1233.64,349.66,1224.39,344.46,1207.8z"/>
			<path class="st8" d="M372.74,1593.53c0,0,10.69,39.85,18.96,41.28c8.26,1.43,29.67-1.71,24.53-7.39
				c-24.6-27.18-23.07-63.59-23.07-63.59L372.74,1593.53z"/>
			<path class="st7" d="M426.05,1212.78c5.78,24.86-1.57,148.18-14.25,250.31c-9.74,78.57-22.62,144.6-35.08,143.6
				c-28.65-2.31-68.02-283.35-61.39-330.62c0,0,10.45-11.16,24.97-24.8C370.76,1222.59,419.11,1182.96,426.05,1212.78z"/>
			<path class="st2" d="M362.06,1654.38c0,0,14.23-36.17,31.09-41.23c16.85-5.06,50.06,19.05,58.19,20.33
				c8.13,1.28,36.89,4.97,33.82,20.43L362.06,1654.38z"/>
			<path class="st9" d="M426.05,1212.78c5.78,24.86-1.57,148.18-14.25,250.31c-38.13-52.8-61.72-159.37-71.51-211.83
				C370.76,1222.59,419.11,1182.96,426.05,1212.78z"/>
			<g>
				<path class="st10" d="M411.4,721.63c38.3,129.29,15.92,332.09,4.05,390.67c-0.07,0.39-0.16,0.79-0.24,1.17
					c-12.98,62.7-27.24,73.44-66.93,61.15c-39.68-12.32-194.19-341.58-118.08-459.51c34.49-53.44,72.14-64.64,103.02-60.9
					c6.04,0.73,11.88,2.04,17.5,3.91C379.74,667.71,402.51,691.6,411.4,721.63z"/>
				<path class="st10" d="M411.4,721.63c38.3,129.29,15.92,332.09,4.05,390.67c-57.26-89.66-149.88-328.39-87.5-425.09
					c7.48-11.6,15.11-21.19,22.78-29.09C379.74,667.71,402.51,691.6,411.4,721.63z"/>
				<path class="st10" d="M247.23,809.23c-19.24-34.42-6.94-77.93,27.48-97.17c34.42-19.25,77.93-6.94,97.17,27.48
					c19.24,34.42,6.94,77.93-27.48,97.17C309.98,855.96,266.47,843.65,247.23,809.23z"/>
				<path class="st10" d="M246.07,807.16c-18.25-32.63-6.58-73.88,26.05-92.12c32.63-18.25,73.88-6.58,92.12,26.05
					c18.24,32.63,6.58,73.88-26.05,92.12C305.56,851.46,264.31,839.8,246.07,807.16z"/>
			</g>
		</g>
		<g>
			<path class="st11" d="M247.78,270.43L247.78,270.43c0.2-0.19,19.85-19.43,21.3-32.79c0.5-4.62,1.71-35.93,1.19-51.79l2.47-0.05
				c0.06,1.88,1.52,46.24,0.86,52.32C271.98,253.12,248.64,269.6,247.78,270.43z"/>
		</g>
		<g>
			<path class="st11" d="M313.53,265.93l-1.82-1.47c0.12-0.15,11.81-14.69,13.76-23.75c1.56-7.22-6.59-27.4-10.59-33.64l1.94-0.04
				c1.58,2.46,15.33,24.3,13.1,34.63C327.74,251.79,314.04,265.3,313.53,265.93z"/>
		</g>
		<path class="st11" d="M202.46,545.16c0,0,71.93,141.74,73.17,272.56l108.86-58.4c0,0,23.5-59.83,45.94-188.03
			C438.87,523.04,202.46,545.16,202.46,545.16z"/>
		<path class="st2" d="M273.78,201.43c0,0,12.11,44.62-10.79,76.36L309.44,267c0,0,10.76-49.12,2.63-67.04
			C303.94,182.04,273.78,201.43,273.78,201.43z"/>
		<path class="st10" d="M354.81,211.71c0,0-0.02,0-0.04,0c-0.32,0.06-2.38,0.43-5.68,0.85c-20.5,2.67-89.5,7.77-97.95-41.99
			c-1.28-7.56-2.72-14.75-4.1-21.58c0,0,0,0,0-0.02c-8.97-44.12-16.29-73.22,28.32-86.04c2.05-0.58,4.21-1.15,6.48-1.66
			c1.17-0.27,2.31-0.51,3.44-0.75c5.12-1.09,9.9-1.92,14.35-2.5c44.88-5.95,57.94,12.06,65.15,28.77
			C372.86,105.51,378.94,205.68,354.81,211.71z"/>
		<path class="st12" d="M354.81,211.71c0,0-0.02,0-0.04,0c-22.45-4.82-44.25-17.89-48.84-49.45c-1.31-8.99-2.77-17.53-4.17-25.63
			c0,0,0,0,0-0.02c-5.87-33.74-11.03-60.09-2.11-78.59c44.88-5.95,57.94,12.06,65.15,28.77
			C372.86,105.51,378.94,205.68,354.81,211.71z"/>
		<path class="st11" d="M271.98,122.83c-14.62,5.59-24.53,25.36-24.93,26.14c-8.97-44.12-16.29-73.22,28.32-86.04l0,0.02
			c0,0-14.16,6.26-6.57,21.04C276.41,98.77,286.89,117.12,271.98,122.83z"/>
		<g>
			<path class="st2" d="M184.32,1137.37c0,0,12.49,61.9,5.14,79.32c-7.34,17.42-19.47,70.11-19.47,70.11s88.69-39.72,92.74-50.27
				c4.05-10.55,8.29-82.02-13.39-105.54C227.65,1107.48,184.32,1137.37,184.32,1137.37z"/>
			<path class="st0" d="M199.77,1204.55c-3.99-16.93,6.5-33.89,23.43-37.88c16.93-3.99,33.89,6.5,37.88,23.43
				c3.99,16.93-6.5,33.89-23.43,37.88C220.72,1231.97,203.76,1221.48,199.77,1204.55z"/>
			<path class="st8" d="M200.26,1591.31c0,0,7.8,40.52,15.94,42.53c8.14,2.02,29.71,0.43,25-5.61
				c-22.58-28.88-18.44-65.08-18.44-65.08L200.26,1591.31z"/>
			<path class="st7" d="M280.79,1215.38c3.98,25.21-12.21,147.69-32.2,248.64c-15.36,77.67-32.95,142.6-45.31,140.7
				c-28.41-4.36-47.48-287.5-37.48-334.18c0,0,11.22-10.38,26.69-22.95C224.94,1221.19,276.01,1185.14,280.79,1215.38z"/>
			<path class="st2" d="M186.3,1654.83c0,0,14.75-35.96,31.68-40.78c16.92-4.82,49.78,19.77,57.89,21.17
				c8.11,1.4,36.81,5.5,33.52,20.91L186.3,1654.83z"/>
			<path class="st9" d="M280.79,1215.38c3.98,25.21-12.21,147.69-32.2,248.64c-34.24-55.41-50.11-163.39-56.1-216.42
				C224.94,1221.19,276.01,1185.14,280.79,1215.38z"/>
			<g>
				<path class="st12" d="M387.25,756.48c-0.17,134.85-79.46,322.84-107.55,375.59c-0.18,0.35-0.38,0.71-0.56,1.05
					c-30.33,56.39-47.06,62.63-81.59,39.52c-34.51-23.13-88.69-382.78,17.89-474.1c48.3-41.38,87.58-41.38,116.11-28.98
					c5.59,2.42,10.8,5.35,15.66,8.74C372.28,695.77,387.29,725.16,387.25,756.48z"/>
				<path class="st12" d="M387.25,756.48c-0.17,134.85-79.46,322.84-107.55,375.59c-29.31-102.27-49.99-357.5,37.38-432.38
					c10.48-8.99,20.53-16,30.13-21.38C372.28,695.77,387.29,725.16,387.25,756.48z"/>
				<path class="st11" d="M204.91,793.62c-8.63-38.48,15.57-76.67,54.05-85.3c38.48-8.63,76.67,15.57,85.3,54.05
					c8.63,38.48-15.57,76.67-54.05,85.3C251.72,856.3,213.53,832.1,204.91,793.62z"/>
				<path class="st10" d="M204.39,791.3c-8.18-36.48,14.76-72.68,51.25-80.86c36.48-8.18,72.69,14.76,80.86,51.24
					c8.18,36.48-14.76,72.68-51.25,80.86C248.77,850.73,212.57,827.79,204.39,791.3z"/>
			</g>
		</g>
		<g>
			<path class="st12" d="M455.22,583.14c-7.77,50.3-38.45-2.79-56.12,9.95c-12.6,9.1-30.1,16.63-49.91,22.38
				c-49.36,14.32-113.03,17.6-150.97,6.5c-12.77-3.72-19.93-59.91-22.85-96.71c-1.12-14.25-1.6-25.59-1.54-29.86
				c0.58-33.83,6.56-98.54,15.48-150.08c7.18-41.46,16.29-74.39,26.05-75.77c0,0,163.6-26.57,197.75,7.67
				C447.28,311.46,463.02,532.86,455.22,583.14z"/>
			<path class="st10" d="M349.19,615.47c-49.36,14.32-113.03,17.6-150.97,6.5c-12.77-3.72-19.93-59.91-22.85-96.71
				c-2.24-65.21-15.48-84.09,24.24-166.05c0,0,162.67-27.08,175.15,81.63C382.24,505.48,380.88,572.43,349.19,615.47z"/>
			<path class="st9" d="M380.93,285.08c0,0-66.46-0.89-71.79,1.35c-5.33,2.25,72.41,63.5,82.03,62.11
				C400.8,347.16,393.1,290.54,380.93,285.08z"/>
		</g>
		
			<rect x="169.75" y="555.27" transform="matrix(0.7071 0.7071 -0.7071 0.7071 578.7773 12.3781)" class="st13" width="209.4" height="299.14"/>
		<g>
			<path class="st11" d="M80.29,548.59c0,0,9.72,33.75,51.75,57.79l24.94-25.47c0,0-41.81-38.83-42.95-60.95
				C112.88,497.83,80.29,548.59,80.29,548.59z"/>
			<g>
				<path class="st2" d="M297.24,761.18c0,0,21.25,13.21,24.4,8.7c3.15-4.51-8.55-22.29-14-23.2
					C302.2,745.78,291.41,754.2,297.24,761.18z"/>
				<path class="st7" d="M314.55,743.01c3.52,4.76,5.48,7.46,5.48,7.46c-2.84,23.25-25.14,16.12-25.14,16.12
					s-128.99-85.57-161.48-121.2c-32.5-35.64-30.48-62.73,4.02-81.12c0.3-0.16,0.6-0.3,0.92-0.42
					C170.28,551.02,287.74,706.74,314.55,743.01z"/>
				<path class="st9" d="M314.55,743.01c-22.61-15.15-128.23-86.58-157.19-118.34c-22.12-24.26-28.26-44.55-19.02-60.81
					C170.28,551.02,287.74,706.74,314.55,743.01z"/>
				<path class="st2" d="M328.08,753.09c0,0,27.41-5.44,32.99-1.13c5.58,4.31-24.08,10.21-30.32,7.49
					C324.51,756.73,328.08,753.09,328.08,753.09z"/>
				<path class="st7" d="M327.93,753.24c0,0-15.87,16.33-17.15,26.61c-1.28,10.27,21.01,33.81,32.93,31.83
					c11.92-1.98,27.06-28.25,27.4-32.52C371.46,774.88,363.13,759.67,327.93,753.24z"/>
			</g>
		</g>
		<path class="st12" d="M43.74,554.06c0,0,99.89-279.59,172.69-285.39s-21.05,242.05-62.89,287.04
			C111.7,600.69,18.47,609.74,43.74,554.06z"/>
	</g>
	<g>
		<path class="st3" d="M2555.96,893.54c0,0,10.16,36.98,2.41,51.98c-7.76,15-22.65,27.89-29.81,19.39
			c-7.17-8.51,6.8-62.71,6.8-62.71L2555.96,893.54z"/>
		<path class="st13" d="M2438.26,156.52c0,0-39.01-4.11-73.62,18.45c-34.6,22.57-30.86,80.74-60.86,94.53
			c-30,13.78-78.79,58.49-74.05,99.91c4.74,41.42,19.03,54.64-0.06,79.4c-19.09,24.76,14.47,86.29,69.85,67.51
			c55.38-18.78,227.98-76.38,245.28-109c17.29-32.62,8.39-70.67-9.08-101.87C2518.25,274.25,2556.49,163.2,2438.26,156.52z"/>
		<path class="st5" d="M2493.03,1115.3c-27.67,178.15-50.24,370.08-39.51,471.02c8.55,28.23,34.58,37.52,57.56,41.07l-15.69,17.3
			l-44.43,2.77l-59.43-23.06c0,0,3.37-11.73,5.99-32.18c3.03-23.76-8.26-77.98-8.26-77.98s-29.91-187.29-13.66-229.47
			c4.61-11.98,7.62-25.69,9.44-40.56v-0.01c4.65-37.88,1.7-83.39-1.72-127.61c-3.71-48.04-7.97-94.57-3.6-128.19
			c19.93-153.47,19.48-286.11,19.48-286.11l116.38-0.61c0,0,33.47,93.51,18.51,173.91C2521.4,943.94,2506.59,1027.96,2493.03,1115.3
			z"/>
		<path class="st4" d="M2505.99,407.9c0,0,25.39,6.42,37.66,36.28c12.26,29.85,17.72,257.74,19.99,282.3
			c2.27,24.56-5.31,177.73-5.31,177.73s-17.95,6.33-31.36-3.93c-48.66-37.23-26.38-243.63-26.38-243.63L2505.99,407.9z"/>
		<path class="st6" d="M2539.77,792.48c0,0,13.13-179.2,5.95-225.63c-2.54-16.43-31.99,12.1-35.33,54.14
			C2507.04,663.02,2539.77,792.48,2539.77,792.48z"/>
		<path class="st0" d="M2440.15,1653.97c25.88-3.35,19.07,3.3,55.37,3.33c36.3,0.03,48.65-12.13,50.34-17.34
			c1.51-4.62-16.02-8.26-34.78-12.57l-0.67,0.47c0,0-22.75,12.72-52.68,10.11c-24.39-2.12-49.38-11.96-66.21-13.57
			c-1,5.52-2,11.17-1.5,16.86C2391.43,1657.44,2414.27,1657.31,2440.15,1653.97z"/>
		<path class="st3" d="M2427.4,1097.2c-27.67,178.14-71.45,389.52-60.72,490.46c8.55,28.23,34.58,37.52,57.56,41.07l-15.69,17.3
			l-44.43,2.77l-59.43-23.06c0,0,3.36-11.73,5.99-32.18c3.03-23.76-8.26-77.98-8.26-77.98s-29.9-187.29-13.66-229.47
			c4.61-11.98,7.62-25.69,9.44-40.56v-0.02c4.65-37.88,1.7-83.39-1.72-127.61c-3.71-48.04-7.97-94.57-3.6-128.2
			c19.93-153.47,19.48-286.11,19.48-286.11l116.38-0.61c0,0,33.47,93.51,18.51,173.91C2434.56,945.28,2440.96,1009.86,2427.4,1097.2
			z"/>
		<path class="st0" d="M2353.31,1655.31c25.88-3.35,19.08,3.3,55.37,3.33c36.3,0.03,48.65-12.13,50.34-17.34
			c1.51-4.62-16.02-8.26-34.78-12.57l-0.67,0.48c0,0-22.75,12.72-52.68,10.1c-24.39-2.12-49.38-11.96-66.21-13.56
			c-1,5.52-2,11.17-1.5,16.86C2304.59,1658.78,2327.43,1658.66,2353.31,1655.31z"/>
		<path class="st4" d="M2280.95,527.35c0,0-2.06,31.36,0.36,68.96c1.61,24.93,27.01,58.2,30.63,66.44
			c9.09,20.67,19.23,23.99,19.23,23.99l78.44,18.79l27.58,6.6l86.73-26.4c0,0,38.99-110.64,22.78-172.72
			c-16.21-62.08-40.71-105.13-40.71-105.13s-100-25.45-177.25-2.46L2280.95,527.35z"/>
		<path class="st2" d="M2541.2,901.11c-9.04,117.61-19.88,216.69-19.88,216.69s-54.63,37.22-132.17,42.33l-0.01,0.01h-0.01
			c-35.43,2.33-75.64-2.04-117.6-19.72c0,0-17.44-283.83-7.52-329.1c9.93-45.28,54.6-107.74,54.6-107.74l202.45,6.77
			C2521.06,710.35,2550.24,783.48,2541.2,901.11z"/>
		<path class="st0" d="M2525.25,681.83c0,0-17.2,13.75-51.5,14.62c-40.97,1.04-142.57-9.71-142.57-9.71s-4.45,12.63-4.19,25.94
			c0,0,124.18,30.64,195.89,3.55C2522.87,716.23,2532.05,698.75,2525.25,681.83z"/>
		<g>
			<path class="st14" d="M2464.95,710.65c-0.06-11.67,8.28-21.21,18.59-21.26c10.31-0.06,18.75,9.39,18.81,21.07
				c0.06,11.67-8.28,21.21-18.59,21.26C2473.45,731.76,2465.01,722.32,2464.95,710.65z M2471.15,710.61
				c0.04,8.25,5.69,14.94,12.58,14.9c6.89-0.04,12.47-6.78,12.42-15.03c-0.04-8.25-5.69-14.94-12.58-14.9
				C2476.68,695.62,2471.11,702.36,2471.15,710.61z"/>
		</g>
		
			<rect x="2252.62" y="560.08" transform="matrix(-0.7576 -0.6528 0.6528 -0.7576 3666.3396 2712.4358)" class="st7" width="168.47" height="230.62"/>
		<path class="st3" d="M2359.94,707.32c0,0,46.58,5.2,46.49,16.25c-0.09,11.05-11.43,33.81-17.17,34.85
			c-5.74,1.04-38.05-30.5-38.05-30.5L2359.94,707.32z"/>
		<path class="st4" d="M2342.79,402.86c0,0-62.13,4.68-85.65,62.72c-23.52,58.04-68.22,155.52-68.13,171.88
			c0.09,16.36,25.6,66.66,161.36,94.94c0,0,13.95-14.83,13.04-26.49c0,0-85.03-72.27-84.85-80.77
			c0.35-16.08,13.68-37.37,87.62-112.1C2386.27,492.73,2342.79,402.86,2342.79,402.86z"/>
		<path class="st3" d="M2352.54,399.81c12.58-2.86,22.96-11.76,27.23-23.93c5.15-14.66,9.19-36.29,8.95-63.38l3.94,0.75l66.2,12.75
			c0,0-1.4,20.82-1.34,40.43c0,0.16,0,0.33,0,0.49c0.01,17.03,11.26,32,27.64,36.64c8.37,2.37-39.49,66.06-45.01,64.84
			C2428.68,465.86,2348.55,400.72,2352.54,399.81z"/>
		<path class="st5" d="M2458.87,326.01c0,0-1.4,20.82-1.34,40.43c-37.01-0.85-56.75-34.51-64.86-53.18L2458.87,326.01z"/>
		<path class="st3" d="M2471.32,344.51c0,0-87.55,1.9-87.9-52.64c-0.34-54.54-11.88-91.03,44.01-94.55
			c55.88-3.52,66.88,17.22,71.42,35.4C2503.4,250.9,2494.09,342.61,2471.32,344.51z"/>
		<path class="st13" d="M2467.31,195.78c0,0-23.64,64.11-60.38,73.76c-36.74,9.65-52.75-0.12-52.75-0.12s28.1-22.57,33.76-61.73
			C2387.93,207.69,2449.06,165.42,2467.31,195.78z"/>
		<path class="st13" d="M2461.39,201.01c0,0,17.81,6.55,25.2,19.48c7.22,12.64,13.4,29.4,12.1,50.01c0,0,17.83-43.59-2.59-68.08
			C2474.43,176.44,2461.39,201.01,2461.39,201.01z"/>
		<path class="st15" d="M2440.16,468.4c0,0-59.55-62.95-61.91-88.8c0,0-15.08,4.27-32.75,21.65c0,0,14.42,35.58,31.47,47.25
			c0,0,12.36-1.8,22.08-5.86c0,0-6.13,10.29-11,16.44C2388.06,459.07,2414.97,474.15,2440.16,468.4z"/>
		<path class="st15" d="M2460.47,381.6c0,0,23.58,42.57-20.3,86.8c0,0,27.65-5.44,41.78-25.03c0,0-4.47-10.45-8.23-12.86
			c0,0,8.3-3.35,13.54,1.47c0,0,3.04-22.91-0.16-29.87C2483.9,395.16,2467.32,381.33,2460.47,381.6z"/>
		<path class="st0" d="M2435.75,468.42c-0.01-2.44,1.95-4.42,4.39-4.44c2.44-0.01,4.42,1.95,4.43,4.39
			c0.01,2.44-1.95,4.42-4.39,4.44C2437.75,472.82,2435.76,470.86,2435.75,468.42z"/>
		<path class="st0" d="M2459.6,530.84c-0.01-2.44,1.95-4.42,4.39-4.43c2.44-0.01,4.42,1.95,4.44,4.39c0.01,2.44-1.95,4.42-4.39,4.43
			C2461.6,535.24,2459.62,533.27,2459.6,530.84z"/>
		<path class="st0" d="M2464.4,604.15c-0.01-2.44,1.95-4.42,4.39-4.44c2.44-0.01,4.42,1.95,4.43,4.39c0.01,2.44-1.95,4.42-4.39,4.43
			C2466.4,608.55,2464.41,606.59,2464.4,604.15z"/>
	</g>
	<g>
		<g>
			<g>
				<path class="st9" d="M1830.95,1162.94l192.16-44.52c25.01-5.79,40.73-31,34.94-56.01l-19.3-83.28
					c-5.79-25.01-31-40.73-56.01-34.94l-192.16,44.52c-25.01,5.8-40.73,31-34.94,56.01l19.3,83.27
					C1780.74,1153.02,1805.94,1168.74,1830.95,1162.94z"/>
				<path class="st7" d="M2002.13,963.75L2002.13,963.75c-10.08-10.84-25.04-16.68-40.37-14.69l-0.01,0c-0.01,0-0.02,0.01-0.04,0
					c-1.5,0.2-3,0.46-4.52,0.81l-38.26,8.87l-4.17-17.97c-0.92-4.01-3.37-7.43-6.88-9.62c-3.51-2.18-7.66-2.88-11.67-1.95
					l-9.98,2.31l-40.18,9.31l-7.24,1.68c-8.29,1.93-13.5,10.24-11.57,18.55l4.17,17.97l-66.05,15.3
					c-25.1,5.82-40.88,31.11-35.07,56.21l19.53,84.24c5.82,25.1,31.11,40.88,56.21,35.06l191.82-44.44c3.39-0.78,6.59-1.92,9.6-3.37
					l0.01,0c0.01,0,0.01,0,0.02-0.01c4.83-2.3,9.13-5.4,12.8-9.07c11.08-11.07,16.4-27.46,12.63-43.77l-19.51-84.23
					C2011.5,976.74,2007.52,969.54,2002.13,963.75z M1836.69,958.88c-0.58-2.51,0.59-5.04,2.71-6.28c0.49-0.29,1.02-0.51,1.61-0.65
					l8.53-1.98l31.62-7.32l17.24-3.99c3.1-0.72,6.21,1.22,6.92,4.31l4.17,17.97l-68.64,15.89L1836.69,958.88z"/>
			</g>
			<g>
				<path class="st3" d="M1865.15,853.84c0,0,2.66,25.69,5.99,31.68c14.37,25.9,44.3,57.34-16.21,64.18c0,0,0.97-7.25-5.41-19.31
					c-1.34-2.54-6.65-7.68-9.12-10.77c-18.5-23.02-19.28-15.12-11.06-38.3L1829,856.7L1865.15,853.84z"/>
				<path class="st3" d="M1826.83,888c0,0-5.63,15.54,0.11,30.19c5.74,14.65,5.77,23.33,9.2,19.96c3.43-3.37,8.07-23.16,8.07-23.16
					L1826.83,888z"/>
			</g>
		</g>
		<path class="st3" d="M1702.82,246.38l-0.04,8.14l-0.15,33.61l-0.06,13.95l-0.04,10.3c0,0,2.41,32.2-31.82,36.9
			c-34.23,4.72-62.29,4.1-61.37-20.75c3.1-19.25,8.61-49.1,8.85-65.04c0.09-5.9-0.28-12.18-1.22-19.27l66.32-1.54L1702.82,246.38z"
			/>
		<path class="st0" d="M1819.33,1624.82c0.24,11.94,1.74,23.23,6.07,27.69h173.54c-2.2-6.28-8.45-15.72-26.27-18.61
			c-20.24-3.28-51.8-13.02-70.22-32.5c-6.57-6.92-11.46-15.08-13.6-24.62c-8.16-36.35-67.51,11.14-67.51,11.14
			S1818.95,1607.05,1819.33,1624.82z"/>
		<path class="st0" d="M1557.94,1624.82c0.24,11.94,1.74,23.23,6.07,27.69h173.54c-2.2-6.28-8.45-15.72-26.27-18.61
			c-20.24-3.28-51.8-13.02-70.22-32.5c-6.57-6.92-11.46-15.08-13.6-24.62c-8.16-36.35-67.51,11.14-67.51,11.14
			S1557.55,1607.05,1557.94,1624.82z"/>
		<path class="st2" d="M1703.9,1231.88c2.42,13.31,3.95,24.23,4.35,32.06c5.52,107.61,90.58,353.65,105.8,359.39
			c23.54,8.89,61.76-8.18,79.09-18.85c6.94-4.27,14.38-8.01,12.59-16.23c-42.13-193.66-57.61-472.52-63.24-637.62
			c-2.85-83.16-17.12-140.6-17.12-140.6s-207.47-55.36-208.7,14.67C1615.59,886.65,1685.4,1129.66,1703.9,1231.88z"/>
		<path class="st0" d="M1703.9,1231.88l138.6-281.26c-2.85-83.16-17.12-140.6-17.12-140.6s-207.47-55.36-208.7,14.67
			C1615.59,886.65,1685.4,1129.66,1703.9,1231.88z"/>
		<path class="st2" d="M1750.07,824.93l-103.53,779.54c0,0-56.55,19.97-94.02,10.68c0,0-29.87-415.77-27.19-517.97
			c2.68-102.21-23.05-273.49,5.87-292.38C1560.11,785.92,1750.07,824.93,1750.07,824.93z"/>
		<path class="st16" d="M1592.58,342.35l25.25,541.81c0,0,210.75,3.44,204.74-44.25c-6.02-47.69-75.97-480.96-75.97-480.96
			L1592.58,342.35z"/>
		<path class="st17" d="M1655.62,928.04c0,0-35.49,1.52-74.32-1.5c-23.8-1.84-48.82-5.38-67.69-12.01
			c-10.15-3.57-18.52-8.01-23.95-13.57c0,0,2.07-37.86,4.53-85c1.05-20.81,2.2-43.42,3.27-65.38c2.33-48.29,4.27-93.42,4.27-109.38
			c0-13.93-1.07-32.89-2.78-54.06c-2.56-32.09-6.52-69.25-10.3-101.62c-3.42-29.62-0.38-78.57,2.11-108.72
			c1.33-15.94,12.07-29.53,27.29-34.47l61.96-20.15l82.03,359.54C1662.05,681.74,1662.73,813.36,1655.62,928.04z"/>
		<path class="st17" d="M1854.51,902.39c2.59-1.04-50.92,6.54-50.92,3.92c0-0.35-24.04-342.94-24.04-342.94
			c-21.57-132.02-58-240.08-58-240.08c52.66,18.39,80.5,39.55,85.77,50.98C1838.12,440.99,1854.07,902.57,1854.51,902.39z"/>
		<path class="st18" d="M1586.6,321.55c-0.26-5.17,24.23-12.32,24.23-12.32s28.03,38.87,74.22,39.54c0,0-13.16,25.61-28.67,32.25
			C1656.38,381.02,1588.13,352.26,1586.6,321.55z"/>
		<path class="st18" d="M1685.05,347.87c0,0,24.47-14.5,24.55-30.23c0,0,15.8-1.98,22.7,5.68c0,0,5.8,26.95-1.89,42.6
			C1730.42,365.92,1695.18,360.56,1685.05,347.87z"/>
		<path class="st9" d="M1668.45,345.54l33.18-7.95c0,0,4.33,0.38,4.21,5.78c-0.12,5.4-9.34,21.19-13.43,22.46
			C1688.32,367.08,1660.6,356.47,1668.45,345.54z"/>
		<path class="st16" d="M1595.79,324.99c-0.26-5.17,17.63-22.7,17.63-22.7s25.45,38.27,71.64,38.94c0,0-13.16,25.61-28.67,32.25
			C1656.38,373.48,1597.32,355.7,1595.79,324.99z"/>
		<path class="st16" d="M1685.05,341.23c0,0,17.35-14.94,17.44-30.66c0,0,22.33,8.39,29.23,16.06c0,0,6.39,17.01-1.31,32.66
			C1730.42,359.29,1695.18,353.92,1685.05,341.23z"/>
		<g>
			<path class="st9" d="M1777.21,792.53c-0.1,15.59-4.93,30.52-13.55,41.89l-13.55,17.86c-3.4,4.49-9.22,4.42-12.63-0.13
				l-20.03-26.7c-5.37-7.16-8.29-16.56-8.19-26.24c0.28-21.56,0.7-63.09,0.58-103.13c-0.08-32.44-0.51-63.93-1.66-83.01
				c-3.65-60.91-26.38-254.17-26.38-254.17l11.94-0.28c0,0,34.53,72.76,56.79,173.92c5.49,24.9,10.22,51.51,13.53,79.2
				C1764.07,611.74,1777.63,722.07,1777.21,792.53z"/>
		</g>
		<path class="st0" d="M1611.25,304.39c0,0,61.22,273.78,50.77,377.42c0,0-24.15-110.75-82.27-201.46c0,0,21.21-18.65,20.06-25.53
			c0,0-15.74-4.67-31.02-1.52c0,0,1.69-118.59,11.21-131.12C1589.53,309.65,1611.25,304.39,1611.25,304.39z"/>
		<path class="st0" d="M1710.11,313.37c0.26,0.26,16.64,31.2,28.85,79.06c21.44,84.05,44.45,213.02,47.99,267.76
			c0,0-6.58-153.32-5.94-197.5c0,0-20.42-16.76-20.42-21.83c0-5.07,22.24-16.45,22.24-16.45s-24.74-86.22-34.8-96.62
			C1737.97,317.39,1710.11,313.37,1710.11,313.37z"/>
		<path class="st19" d="M1702.78,254.53l-0.15,33.61c-0.23-0.02-0.47-0.02-0.7-0.04c-55.55-2.5-75.15-24-75.15-24L1702.78,254.53z"
			/>
		<path class="st3" d="M1604.87,231.86c8.91,47.98,70.83,46.41,97.59,43.39c7.53-0.84,12.27-1.8,12.27-1.8
			c8.49-2.27,13.23-15.64,15.43-33.16c4.37-34.67-1.15-85.55-7-98.57c-8.82-19.58-25.42-40.77-87.77-25.48
			C1573.02,131.53,1593.43,170.38,1604.87,231.86z"/>
		<path class="st0" d="M1725.55,149.23c-17.13,5.4-53.36-0.11-68.51,12.14c-15.15,12.27-0.71,32.46-18.03,39.67l-0.07,0.03
			c-3.5,1.45-7.58,0.47-9.95-2.49c-4.79-5.99-11.43-11.95-17.49-9.48c-4.97,2.04-5.23,8.46-3.03,14.71
			c1.85,5.25,1.33,11.15-1.86,15.71c-1.38,1.98-2.28,4.14-1.88,6.33c1.44,7.92,5.37,18.22,6.81,23.49c0,0-32.85-6.11-46.74-49.56
			c-6.08-19.02-25.64-86.71,38.71-108.38c-0.17-0.14-0.31-0.27-0.39-0.44c-0.89-1.58-3.36-1.23-3.36-1.23c3.53-1.58,9-0.58,9-0.58
			c-0.12-0.09,0.1-0.34,0.6-0.72c0.72-4.79,5.54-8.21,5.54-8.21c-1.64,2.37-2.33,4.74-2.62,6.47c10.77-5.67,43.91-18.25,70.18-6.82
			c17.77,7.72,34.05,11.84,45.13,13.98c9.11,1.76,15.58,9.89,15.24,19.17C1742.35,126.05,1737.82,144.76,1725.55,149.23z"/>
		<path class="st17" d="M1807.33,374.27c0,0,34.9,69.44,46.3,190.52c11.4,121.08,32.05,296.29,32.05,296.29l-42.73,9.97
			L1807.33,374.27z"/>
		<path class="st0" d="M1581.3,926.54c-23.8-1.84-48.82-5.38-67.69-12.01c-5.98-30.92-14.55-74.06-19.42-98.57
			c-2.33-11.58-3.8-19-3.8-19l7.07-46.39l30.49-102.28C1527.95,648.3,1533.06,852.06,1581.3,926.54z"/>
		<g>
			<path class="st3" d="M1524.21,890.28c0,0,16.03,54.84,13.18,73.36c-2.85,18.52-19.94,47.01-32.76,45.58
				c-12.82-1.42-6.77-33.83-12.46-45.23c-4.69-9.38-12.44-21.88-1.69-51.37c2.37-6.51-3.28-15.41-1.51-24.48
				C1498.93,836.86,1524.21,890.28,1524.21,890.28z"/>
			<path class="st3" d="M1530.98,919.48c0,0,9.97,21.99,15.05,27.33c5.08,5.34-6.68,5.61-12.02-0.53
				C1528.66,940.14,1530.98,919.48,1530.98,919.48z"/>
		</g>
		<path class="st17" d="M1518.06,342.34c0,0-26.61,7.36-43.71,55.79c-17.09,48.43-48.08,270.65-48.08,310.53
			c0,39.89,50.57,215.1,50.57,215.1s29.91,7.84,57.69-10.68c6.7-4.47-8.55-178.77-5.7-208.68
			C1531.69,674.47,1518.06,342.34,1518.06,342.34z"/>
	</g>
	<g>
		<path class="st13" d="M899.1,483.8c-5.49-10.58,119.74-48.7,121.72,55.76c0,0,234.59-5.77,122.58-136.52
			c-38.78-45.27-34.79-82.69-33.63-117.53c1.18-34.84-24.15-136.11-110.98-125.91c0,0-22.74-9.25-51.12,5.47
			C883.14,198.55,738.57,522.33,899.1,483.8z"/>
		<path class="st3" d="M1126.72,889.82c0,0,0.09,18.22,3.55,27.01c3.46,8.79,13.83,20.51,17.28,20.51c3.46,0-3.17-18.31-1.44-17.95
			c1.73,0.36,10.07,30.48,16.12,31.21c6.05,0.73,11.54-33.77,8.37-47.33c-3.17-13.55-16.85-29.8-16.85-29.8L1126.72,889.82z"/>
		<path class="st14" d="M1072.35,422.26c0,0,42.56,10.44,55.02,64.78c15.23,66.41-7.59,219.04,5.09,263.7
			c12.68,44.66,28.53,126.28,28.53,126.28s-17.89,14.38-36.85,13.48c0,0-96.95-142-97.81-180.36
			C1025.48,671.77,1072.35,422.26,1072.35,422.26z"/>
		<path class="st20" d="M1114.26,574.42c0,0-19.92,123.08-9.11,157c10.82,33.92-3.22,85.45-3.22,85.45l-86.61-137.93L1114.26,574.42
			z"/>
		<path class="st0" d="M740.39,1538.02c0,0-26.29,23.99-21.16,41.03c5.13,17.05,28.85,28.41,32.06,49.24
			c3.21,20.83,16.03,32.2,27.57,32.2c11.54,0,55.02,0,55.02,0s8.5-14.66-12.02-19.08c-20.52-4.42-28.25-28.9-26.97-51.63
			c1.28-22.73-1.92-53.03-1.92-53.03l-43.6-10.1L740.39,1538.02z"/>
		<path class="st0" d="M962.88,1548.21c0,0-9.46,101.63,2.08,107.31l147.69-0.3c0,0,0-17.05-23.72-20.83
			c-23.72-3.79-65.4-17.68-72.45-48.61C1009.43,1554.84,962.88,1548.21,962.88,1548.21z"/>
		<path class="st3" d="M857.63,819.12c30.39-68.16,48.99-87.72,45.44-108.88c-2.64-15.74,8.05-293.57,8.05-293.57
			c3.61-1.12,10.83-2.12,14.79-3c12.47-2.77,22.78-11.52,27.08-23.55c5.17-14.49,9.29-35.88,9.19-62.68l3.89,0.77l65.46,12.96
			c0,0-1.49,20.6-1.53,40.01c0,0.16,0,0.32,0,0.48c-0.08,16.85,10.98,31.73,27.17,36.41c8.27,2.39,15.46,4.43,15.46,4.43
			s24.04,68.63,28.63,139.13c4.59,70.5-43.71,101.13,0.36,242.01C1146.61,947.51,840.84,856.78,857.63,819.12z"/>
		<path class="st5" d="M1031.52,341.17c0,0-1.49,20.6-1.53,40.01c-36.63-1.03-55.99-34.45-63.93-52.97L1031.52,341.17z"/>
		<path class="st3" d="M1043.76,359.54c0,0-86.67,1.43-86.73-52.56c-0.06-53.99-11.29-90.16,44.05-93.36
			c55.33-3.2,66.11,17.39,70.51,35.41C1075.99,267.05,1066.3,357.78,1043.76,359.54z"/>
		<path class="st13" d="M1040.55,212.31c0,0-23.73,63.34-60.15,72.7c-36.42,9.36-52.21-0.39-52.21-0.39s27.93-22.19,33.73-60.93
			C961.92,223.69,1022.65,182.16,1040.55,212.31z"/>
		<path class="st13" d="M1034.67,217.45c0,0,17.6,6.58,24.84,19.41c7.08,12.55,13.12,29.17,11.72,49.56c0,0,17.88-43.05-2.21-67.4
			C1047.7,193.2,1034.67,217.45,1034.67,217.45z"/>
		<path class="st14" d="M849.26,539.57c0,0-2.2,31.03,0,68.26c1.46,24.68,26.43,57.74,29.97,65.92
			c8.89,20.51,18.91,23.85,18.91,23.85l77.55,19.01l27.27,6.67l85.98-25.68c0,0,39.16-109.31,23.44-170.84
			c-15.73-61.53-39.75-104.26-39.75-104.26s-70.16,68.7-161.52-5.83L849.26,539.57z"/>
		<path class="st21" d="M871.96,617.9c1.46,24.68,3.73,47.67,7.28,55.85c8.89,20.51,18.91,23.85,18.91,23.85l77.55,19.01l33.68-9.9
			c0,0-112.43-17.04-99.97-113.77L871.96,617.9z"/>
		<path class="st0" d="M1083.47,714.19c0,0,42.58,132.54,45.32,177.66c2.74,45.12-81.39,641.03-84.78,661.83
			c-3.19,19.6-27.53,32.09-27.53,32.09s-11.19,6.6-27.17,2.09c-22.17-6.26-29.17-13.75-29.17-13.75s-33.14-425-12.63-576.82
			c20.51-151.82,20.75-283.11,20.75-283.11H1083.47z"/>
		<path class="st2" d="M903.07,710.24c0,0-64.95,87.15-71.01,146.06c-6.06,58.91-9.5,265.85-22.4,323.28
			c-12.9,57.43-60.3,167.95-60.3,347.09c0,0,4.93,10.27,20.14,15.74c4.86,1.75,11.38,3.45,17.71,4.9
			c12.54,2.88,25.42-3.25,31.14-14.78c32.04-64.52,134.12-272.61,139.35-315.8c3.7-30.57,35.93-232.88,106.23-351.59
			c16.88-28.5-10.36-141.84-10.36-141.84L903.07,710.24z"/>
		<path class="st0" d="M1090.28,693.73c0,0-17.09,13.52-51.05,14.2c-40.56,0.82-141.07-10.34-141.07-10.34s-4.47,12.48-4.28,25.65
			c0,0,122.76,30.96,193.88,4.52C1087.75,727.77,1096.92,710.51,1090.28,693.73z"/>
		<g>
			<path class="st14" d="M1030.45,721.94c0-11.55,8.3-20.95,18.51-20.95c10.21,0,18.51,9.4,18.51,20.95
				c0,11.55-8.3,20.95-18.51,20.95C1038.75,742.89,1030.45,733.49,1030.45,721.94z M1036.58,721.94c0,8.17,5.55,14.81,12.37,14.81
				c6.82,0,12.38-6.64,12.38-14.81c0-8.17-5.55-14.81-12.38-14.81C1042.13,707.13,1036.58,713.77,1036.58,721.94z"/>
		</g>
		
			<rect x="820.46" y="572.25" transform="matrix(-0.7542 -0.6567 0.6567 -0.7542 1134.7417 1797.5701)" class="st7" width="166.76" height="228.27"/>
		<path class="st3" d="M926.52,718.11c0,0,46.08,5.39,45.94,16.33c-0.14,10.94-11.48,33.41-17.17,34.41
			c-5.69,1-37.5-30.39-37.5-30.39L926.52,718.11z"/>
		<path class="st14" d="M911.11,416.66c0,0-61.52,4.31-85.11,61.64c-23.58,57.33-68.33,153.58-68.33,169.78
			c0,16.19,24.99,66.11,159.23,94.81c0,0,13.88-14.61,13.04-26.16c0,0-83.79-71.97-83.57-80.38c0.43-15.91,13.74-36.91,87.3-110.51
			C953.69,505.84,911.11,416.66,911.11,416.66z"/>
	</g>
</g>
</svg>
