<?xml version="1.0" encoding="utf-8"?>
<!-- Generator: Adobe Illustrator 24.0.0, SVG Export Plug-In . SVG Version: 6.00 Build 0)  -->
<svg version="1.1" id="Слой_1" xmlns="http://www.w3.org/2000/svg" xmlns:xlink="http://www.w3.org/1999/xlink" x="0px" y="0px"
	 viewBox="0 0 3000 1759.06" style="enable-background:new 0 0 3000 1759.06;" xml:space="preserve">
<style type="text/css">
	.st0{fill:#B7D3F3;}
	.st1{fill:#D2E3FC;}
	.st2{fill:#C5DCF8;}
	.st3{fill:#FFB27D;}
	.st4{fill:#1C468A;}
	.st5{fill:#163560;}
	.st6{fill:#B5453C;}
	.st7{fill:#ED975D;}
	.st8{fill:#FFFFFF;}
	.st9{fill:#ED7D2B;}
	.st10{fill:#F99746;}
	.st11{fill:#F9DDBF;}
	.st12{fill:#ED893E;}
	.st13{fill:#95C0F4;}
	.st14{fill:#78ACEA;}
	.st15{fill:#AEC3FF;}
	.st16{fill:#A02E2E;}
	.st17{fill:#BC3F3F;}
	.st18{fill:#9DB0F4;}
	.st19{fill:#233862;}
	.st20{fill:#2B478B;}
	.st21{fill:#E2915A;}
	.st22{fill:#2A4E96;}
	.st23{fill:#DCEAFF;}
	.st24{fill:#ED985F;}
	.st25{fill:#2C3A64;}
</style>
<g>
	<g>
		<g>
			<g>
				<g>
					<path class="st0" d="M701.48,1401.29c-1.97-48.45-6.22-90.61-11.3-119.99c-8.1-46.86-15.4-73.81-15.49-74.09
						c-1.07-4.12-16.49-20.79-50.77-20.29c-34.28,0.52-31.03,22.38-31.03,22.38l0,0c0,0.73,0.1,1.42,0.24,1.94
						c0.32,1.13,31.81,115.24,30.44,262.57c-0.01,2.07-0.25,5.64-0.1,8.02c0,0.01,79.45,2.05,79.47,0
						C705.71,1468.95,704.36,1433.28,701.48,1401.29z"/>
					<path class="st1" d="M711.47,1473.07c-0.03,2.05-1.11,3.7-2.43,3.7h-0.03c-1.32-0.03-2.38-1.67-2.39-3.7h-68.09
						c-0.03,2.05-1.11,3.7-2.43,3.7h-0.03c-1.35-0.03-2.42-1.73-2.39-3.81c0.39-42.17-2.01-81.56-5.66-116.31
						c-9.05-86.68-25.79-144.61-26.02-145.41c-0.15-0.52-0.24-1.21-0.24-1.94c0,0-3.25-21.86,31.03-22.38
						c34.3-0.52,49.71,16.16,50.78,20.29c0.06,0.21,4.19,15.47,9.68,42.92c1.81,9.09,3.78,19.51,5.8,31.17
						c5.08,29.4,9.33,71.55,11.3,119.99C713.23,1433.28,714.24,1460.2,711.47,1473.07z"/>
					<path class="st2" d="M628.64,1476.77h266.94c0,0-6.22-25.15-160.8-21.41C625.38,1458.02,628.64,1476.77,628.64,1476.77z"/>
					<g>
						<path class="st0" d="M606.92,1739.54c30.95-156.68,22.99-252.83,22.96-254.04c-0.08-2.41,4.37-4.6,6.77-4.68
							c2.42-0.04,13.11-0.72,14.33,1.35c1.62,2.7,7.85,121.16-38.28,257.38H606.92z"/>
					</g>
					<g>
						<path class="st0" d="M856.15,1739.54c-30.95-156.68-22.99-252.83-22.96-254.04c0.08-2.41-4.36-4.6-6.77-4.68
							c-2.42-0.04-13.11-0.72-14.33,1.35c-1.62,2.7-7.85,121.16,38.28,257.38H856.15z"/>
					</g>
					<g>
						<path class="st0" d="M905.55,1739.54c-30.95-156.68-22.99-252.83-22.96-254.04c0.08-2.41-4.37-4.6-6.77-4.68
							c-2.42-0.04-13.11-0.72-14.33,1.35c-1.62,2.7-7.85,121.16,38.28,257.38H905.55z"/>
					</g>
					<g>
						<path class="st0" d="M656.65,1739.54c30.95-156.68,22.99-252.83,22.96-254.04c-0.08-2.41,4.37-4.6,6.77-4.68
							c2.42-0.04,13.11-0.72,14.33,1.35c1.62,2.7,7.85,121.16-38.28,257.38H656.65z"/>
					</g>
					<path class="st0" d="M895.74,1484.8H628.81c-3.01,0-5.47-2.46-5.47-5.47v-3.59c0-3.01,2.46-5.47,5.47-5.47h266.94
						c3.01,0,5.47,2.46,5.47,5.47v3.59C901.21,1482.34,898.75,1484.8,895.74,1484.8z"/>
					<g>
						<path class="st3" d="M886.37,1243.73l88.74-19.22l5.22,12.73c0,0-97.91,58.25-107.08,55.41
							C864.07,1289.8,886.37,1243.73,886.37,1243.73z"/>
						<path class="st3" d="M805.69,1645.05c-2.22,2.55-2.5,5.39-1.41,8.43c0,0.01,0.01,0.03,0.03,0.04
							c2.04,5.63,8.75,11.9,16.56,18.16c1,0.8,1.89,1.53,2.66,2.22c0.2,0.18,0.41,0.35,0.59,0.53c0.15,0.14,0.31,0.28,0.46,0.41
							c7.27,6.71,4.54,8.24,17.61,21.86c14.91,15.52,25.18,15.8,28.09,14.38c2.48-1.21-2.55-9.44-8.12-18.68
							c-0.27-0.45-0.53-0.9-0.82-1.35c-0.75-1.22-1.48-2.48-2.21-3.71c-6.51-11.13-4.84-16.36-3.31-32.92
							c1.25-13.46,20.95-75.2,20.95-75.2l-28.57-4.92c0,0-8.61,49.17-18.09,56.73c-5.06,4.04-10.75,4.09-15.61,7.08
							c-0.34,0.21-0.68,0.42-1.01,0.65C810.74,1640.59,807.93,1642.49,805.69,1645.05z"/>
						<path class="st4" d="M805.69,1645.05c-2.22,2.55-2.5,5.39-1.41,8.43c0,0.01,0.01,0.03,0.03,0.04
							c2.49,5.61,9.05,11.86,16.59,18.1c0.98,0.82,1.86,1.58,2.63,2.28c0.2,0.18,0.41,0.35,0.59,0.53c0.15,0.14,0.31,0.28,0.46,0.41
							c7.27,6.71,4.54,8.24,17.61,21.86c14.91,15.52,25.18,15.8,28.09,14.38c2.48-1.21-2.55-9.44-8.12-18.68
							c-2.9-1.07-16.39-6.54-26.57-19.58c-8.97-11.45-14.97-26.18-21.09-34.7c-0.34,0.21-0.68,0.42-1.01,0.65
							C810.74,1640.59,807.93,1642.49,805.69,1645.05z"/>
						<path class="st3" d="M1036.1,1627.19c1.76,8.82,14.33,7.34,28.39,3.91c14.05-3.43,10.71,0.65,30.69-1.56
							c19.99-2.21,26.05-9.66,26.66-12.65c0.55-2.64-9.33-3.57-19.93-4.78c-1.34-0.15-2.67-0.31-4.01-0.48
							c-11.96-1.51-20.72-9.21-31.6-15.56c-10.3-6.01-25.66-30.47-25.66-30.47l-27.42,2.17c0,0,14.39,21.85,19.95,31.36
							c3.28,5.58,3.09,12.97,2.69,18.68C1035.68,1620.92,1035.48,1624.09,1036.1,1627.19z"/>
						<path class="st4" d="M1064.49,1631.1c14.05-3.43,10.71,0.65,30.69-1.56c19.99-2.21,26.05-9.66,26.66-12.65
							c0.55-2.64-9.33-3.57-19.93-4.78l-0.1,0.2c0,0-11.99,8.5-28.63,8.9c-13.56,0.32-27.92-3.56-37.29-3.4
							c-0.21,3.09-0.41,6.27,0.21,9.38C1037.86,1636.01,1050.43,1634.54,1064.49,1631.1z"/>
						<path class="st3" d="M975.1,1224.52c0,0,6.53-16.01,13.72-16.66c7.19-0.65,30.05-4.25,31.68-0.98c1.63,3.26,0,15.02-4.9,19.27
							c-4.9,4.25-35.27,11.1-35.27,11.1L975.1,1224.52z"/>
						<path class="st5" d="M931.03,1451.89l-59.08,159.02c0,0-9.07,0.89-17.78-1.63c-8-2.31-17.19-8.37-17.19-8.37
							s14.66-152.69,41.53-184.44C905.39,1384.7,931.03,1451.89,931.03,1451.89z"/>
						<path class="st4" d="M697.33,1387.56c0,0,169.78-57.41,207.65-45.2s151.56,238.41,151.56,238.41s-2.56,3.42-9.57,6.04
							c-6.51,2.45-22.28,2.29-22.28,2.29s-102.61-87.95-114.82-113.59c-12.21-25.64-17.11-50.08-29.32-47.63
							c-12.21,2.45-157.57,59.86-190.54,25.64c-32.97-34.2-24.35-78.64-24.35-78.64L697.33,1387.56z"/>
						<path class="st6" d="M794.13,982.74c-7.34-4.16-16.14-4.63-22.28-4.26c1.59-1.63,4.7-2.24,4.7-2.24
							c-3.81-0.56-12.32,3.22-12.32,3.22c-53.06-20.44-61.4,57.69-60.29,75.84c1.11,18.15,1.24,39.04-25.25,55.33
							c-52.12,32.03-8.14,87.95-8.14,87.95c0.41,0.24,24.25,40.67,24.25,40.67c-1.34-14.67,66.34-92.07,101.65-115.25
							c8.6-12.66,11.65-35.01,11.87-36.77c-1.48,17.72-4.52,27.67-7.23,33.27C830.98,1092.97,813.58,993.8,794.13,982.74z"/>
						<path class="st3" d="M794.34,1125.14c0.18,0.08-17.05,9.02-30.01,5.49c-12.18-3.32-20.14-19.13-19.99-19.16
							c5.16-1.03,6.65-8.12,6.54-38.6l2.34,0.46l39.23,7.77c0,0-0.89,12.35-0.91,23.97C791.51,1114.83,792.1,1124.1,794.34,1125.14z
							"/>
						<path class="st7" d="M792.45,1081.09c0,0-0.89,12.35-0.91,23.97c-21.96-0.62-33.56-20.65-38.32-31.75L792.45,1081.09z"/>
						<path class="st6" d="M749.17,1069.06c0,0-11.51-18.18-14.26-33.72c-1.97-11.1,3.69-52.23,45.02-46.31c0,0,12,1.18,23.3,8.81
							c8.97,6.06,21.93,19.15,7.44,55.05l-3.76,12.13L749.17,1069.06z"/>
						<path class="st3" d="M799.78,1092.1c0,0-51.94,0.86-51.98-31.5s-6.77-54.03,26.4-55.95c33.16-1.91,39.61,10.42,42.26,21.21
							C819.11,1036.67,813.3,1091.05,799.78,1092.1z"/>
						<path class="st6" d="M797.87,1003.87c0,0-14.22,37.95-36.05,43.57c-21.83,5.61-31.3-0.24-31.3-0.24s16.74-13.29,20.21-36.52
							C750.74,1010.69,787.14,985.79,797.87,1003.87z"/>
						<path class="st6" d="M794.34,1006.95c0,0,10.62,8.47,13.21,16.71s3.76,25.19,8.69,24.62c0,0,10.72-25.8-1.32-40.4
							C802.16,992.4,794.34,1006.95,794.34,1006.95z"/>
						<path class="st4" d="M678.68,1264.88c-5.12-21.48,12.31-63.16,30.5-97.68c16.5-31.29,33.63-56.65,35.18-55.75
							c43.54,25.84,47.46,4.36,47.46,4.36l0,0c0.01,0,39.54,5.25,50.74,24.52c13.88,23.91,28.89,90.73,43.81,103.4
							c-2.29,7.01-1.31,10.73,1.13,19.41c0.52,1.86,1.1,3.63,1.73,5.3c2.25,6.11,5.05,11.06,7.48,15.36
							c-7.58,4.6-22.21,13.36-32.99,7.06c-16.43-9.62-29.26-38.9-36.48-50.56c-0.03-0.04-0.06-0.08-0.08-0.13
							c-15.69,88.78,5.64,109.01-5.15,118.36c-11.39,9.89-27.68-4.71-63.51,10.82c-23.51,10.2-56.11,24.94-78.07,27.5
							c-11.52,1.35-20.1-0.65-22.9-8.43C649.36,1365.85,688.45,1305.84,678.68,1264.88z"/>
						<path class="st8" d="M788.25,1072.49c0,0,0.97,4.11,11.2,3.47c0,0,8.58-0.53,8.33-5.05
							C807.76,1070.91,799.43,1067.71,788.25,1072.49z"/>
						<path class="st5" d="M657.51,1388.46c2.8,7.78,11.39,9.78,22.9,8.43c15.19-6.63,80.85-32.06,80.11-49.28
							c-1.1-25.52-12.62-26.33-4.47-57.82c6.54-25.28-54.12-72.31-63.8-82.52c-18.19,34.51-18.7,36.14-13.58,57.62
							C688.45,1305.84,649.36,1365.85,657.51,1388.46z"/>
						<path class="st4" d="M650.08,1296.43c11.65-16.35,23.77-25,31.75-29.34c-1.84-4.73,48.97-67.02,48.97-76.67
							c0-9.78,13.56-78.97,13.56-78.97s-42.33,2.62-56.99,23.06C669.04,1160.07,630.96,1258.45,650.08,1296.43z"/>
						<path class="st3" d="M681.83,1267.1l84.59,22.07l-7.93,14.25c0,0-102.94-0.72-108.4-6.99
							C644.62,1290.17,681.83,1267.1,681.83,1267.1z"/>
						<path class="st5" d="M827.23,1240.33c7.22,11.66,20.03,40.94,36.48,50.56c10.78,6.29,25.41-2.46,32.99-7.06
							c-2.42-4.3-5.23-9.26-7.48-15.36c-6.05,1.38-13.42,3.15-18.19,4.59C861.76,1275.83,827.23,1240.33,827.23,1240.33z"/>
						<path class="st3" d="M766.41,1289.17c0,0,26.56-7.51,32.89-5.75c6.33,1.76,28.01,16.11,24.96,20.02
							c-3.05,3.9-22.14-2.34-30.93-1.15c-8.79,1.18-15.59,5.51-21.92,4.57c-6.33-0.94-12.94-3.42-12.94-3.42L766.41,1289.17z"/>
						<path class="st3" d="M766.41,1289.17c0,0,13-6.68,16.7-10.48c0.46-0.48,1.25-0.38,1.62,0.18c0.98,1.56,1.91,4.59-2.64,7.58
							C775.53,1290.77,766.41,1289.17,766.41,1289.17z"/>
					</g>
				</g>
				<g>
					<path class="st9" d="M889.18,1326.55H765.25l0,0c0-5.46,4.42-9.88,9.88-9.88h114.06V1326.55z"/>
					<polygon class="st9" points="888.83,1191.56 1080.44,1191.56 1034.48,1326.55 841.62,1326.55 					"/>
					<polygon class="st10" points="1083.27,1191.57 1037.3,1326.53 844.45,1326.53 891.66,1191.57 					"/>
					<path class="st11" d="M979.96,1257.8c-1.2,5.16-6.33,9.34-11.49,9.34s-8.37-4.18-7.19-9.34c1.2-5.16,6.33-9.34,11.49-9.34
						S981.15,1252.65,979.96,1257.8z"/>
					<path class="st12" d="M1083.27,1191.57l-45.97,134.98H909.58c84.6-28.88,107.12-116.93,110.91-134.98H1083.27z"/>
				</g>
			</g>
			<g>
				<g>
					<g>
						<path class="st13" d="M526.99,1739.54c2.42,0,4.5-1.7,4.91-4.02l24.07-136.41l34.62-196.18l9.68-54.86l-24.66-0.7l-4.28,31.85
							L541.29,1603l-17.81,132.66C523.2,1737.71,524.85,1739.54,526.99,1739.54z"/>
					</g>
					<path class="st14" d="M571.33,1379.2c15.98,7.05,19.26,23.72,19.26,23.72l9.68-54.86l-24.66-0.7L571.33,1379.2z"/>
				</g>
				<g>
					<g>
						<path class="st13" d="M1140.24,1739.54c-2.42,0-4.5-1.7-4.91-4.02l-24.07-136.41l-34.62-196.18l-9.68-54.86l24.66-0.7
							l4.28,31.85l30.03,223.8l17.81,132.66C1144.02,1737.71,1142.38,1739.54,1140.24,1739.54z"/>
					</g>
					<path class="st14" d="M1095.9,1379.2c-15.97,7.05-19.26,23.72-19.26,23.72l-9.68-54.86l24.66-0.7L1095.9,1379.2z"/>
				</g>
				<path class="st14" d="M510.53,1369.59h631.38c8.27,0,15.04-6.77,15.04-15.04v-13c0-8.27-6.77-15.04-15.04-15.04H510.53
					c-8.27,0-15.04,6.77-15.04,15.04v13C495.49,1362.83,502.26,1369.59,510.53,1369.59z"/>
			</g>
		</g>
		<g>
			<path class="st3" d="M2078.83,1303.56c0,0-16.37,20.31-11.25,23.08c5.12,2.77,18.65,7.95,21.85,4.68
				c3.19-3.26,4.19-27.21,4.19-27.21L2078.83,1303.56z"/>
			<path class="st3" d="M2079.49,1303.9c0,0-6.7,2.32-9.33,5.81c-2.63,3.49-8.45,8.79-7.03,10.27c1.42,1.48,9.79-5.04,9.79-5.04
				L2079.49,1303.9z"/>
			<path class="st15" d="M2140.74,1032.3c0,0-18.46,171.86-20.1,176.76c-0.35,1.07-1.8,6.5-3.84,14.33
				c-2.91,11.18-7.01,27.25-10.9,42.51c-5.88,23.07-11.27,44.37-11.27,44.37l-16.02-5.28c0,0-0.83-83.52,3.29-102.75
				c4.14-19.24,17.32-137.4,23.97-153.29C2112.52,1033.05,2140.74,1032.3,2140.74,1032.3z"/>
			<g>
				<path class="st16" d="M2102.35,1444.42l-100.68-26.4c-13.1-3.43-21.02-16.97-17.58-30.08l11.44-43.64
					c3.43-13.11,16.97-21.02,30.08-17.58l100.68,26.4c13.1,3.43,21.02,16.97,17.57,30.08l-11.44,43.64
					C2128.99,1439.94,2115.46,1447.85,2102.35,1444.42z"/>
				<path class="st17" d="M2008.81,1347.76l-11.58,44.14c-2.24,8.55,0.32,17.27,5.99,23.28c1.89,2,4.11,3.7,6.61,4.98
					c0,0,0,0,0.01,0l0,0c1.56,0.82,3.24,1.46,5.01,1.93l100.51,26.35c13.15,3.45,26.73-4.49,30.19-17.64l11.58-44.14
					c3.45-13.15-4.49-26.74-17.64-30.19l-34.61-9.07l2.48-9.41c1.14-4.35-1.48-8.82-5.82-9.96l-3.8-1l-21.04-5.51l-5.23-1.36
					c-2.1-0.55-4.3-0.25-6.19,0.84s-3.22,2.87-3.77,4.97l-2.48,9.41l-20.05-5.26c-0.8-0.21-1.59-0.37-2.38-0.49
					c-0.01,0-0.01,0-0.01,0l0,0c-8.06-1.28-16.04,1.58-21.52,7.13l0,0C2012.16,1339.71,2009.94,1343.46,2008.81,1347.76z
					 M2099.96,1346.1l-35.97-9.43l2.48-9.41c0.42-1.62,2.1-2.6,3.71-2.17l9.03,2.36l16.57,4.35l4.47,1.17
					c0.31,0.08,0.59,0.21,0.84,0.37c1.1,0.69,1.67,2.04,1.34,3.35L2099.96,1346.1z"/>
			</g>
			<path class="st3" d="M2088.39,1331.78c0,0,4.47-7.53,2.8-10.16c-1.67-2.63-7.71,7.81-7.71,7.81s4.12-8.96,2.59-10.44
				s-7.85,8.82-7.85,8.82s3.93-8.71,2.55-9c-1.38-0.3-6.06,7.31-6.06,7.31s2.43-6.51,0.21-6.2s-7.03,6.26-7.03,6.26L2088.39,1331.78
				z"/>
			<path class="st18" d="M2116.8,1223.38c-2.91,11.18-7.01,27.25-10.9,42.51c-2.52-7.06-5.7-18.3-7.72-33.71
				c-3.71-28.44,7.69-89.03,7.69-89.03L2116.8,1223.38z"/>
			<path class="st3" d="M2327.99,1296.48c0,0,17.85,14.5,20.06,19.03c2.21,4.53,7.75,21.3,7.46,26.7
				c-0.3,5.4-13.67-12.37-17.61-13.8s4.11,7.3,3.21,9.17c-0.9,1.87-9.27-4.25-12.48-6.25c-3.19-2-5.44-15.56-10.2-22.94
				C2313.67,1301.03,2327.99,1296.48,2327.99,1296.48z"/>
			<path class="st19" d="M2093.77,1730.66h88.99c6.37-4.32-1.72-46.61-1.72-46.61s-24.29-9.21-28.49,9.52
				c-4.21,18.72-30.93,24.69-45.09,26.97C2097.79,1722.13,2094.72,1727.45,2093.77,1730.66z"/>
			<path class="st19" d="M2225.75,1730.66h88.99c6.37-4.32-1.72-46.61-1.72-46.61s-24.29-9.21-28.49,9.52
				c-4.21,18.72-30.93,24.69-45.09,26.97C2229.78,1722.13,2226.72,1727.45,2225.75,1730.66z"/>
			<path class="st20" d="M2117.71,1299.37c0,0,4,49.91,8.71,109.89c6.39,81.49,23.62,283.54,23.62,283.54s11.3,9.64,36.32,4.36
				c0,0,21.3-69.7,27.67-149.27c0.1-1.31,0.2-2.62,0.3-3.92c5.92-80.99,15.14-251.54,15.14-251.54L2117.71,1299.37z"/>
			<path class="st19" d="M2116.35,1282.12c0,0,5.36,67.16,10.07,127.14l87.63,138.65c0.1-1.31,0.2-2.62,0.3-3.92
				c5.92-80.99,15.14-251.54,15.14-251.54L2116.35,1282.12z"/>
			<path class="st20" d="M2141.88,1282.12c0,0,63.56,158.2,83.87,218.16c14.48,42.72,55.28,192.55,55.28,192.55
				s17.75,5.4,32.66-5.04c0,0,15.18-153.09-15.49-196.25c-16.28-22.9-4.05-238.08-70.03-239.92
				C2162.21,1249.8,2141.88,1282.12,2141.88,1282.12z"/>
			<path class="st15" d="M2262.98,1296.48c-26.5,14.95-140.03,14.62-145.29,2.88c-11.75-26.21-14.69-159.35-9.14-200.21
				c0,0,2.87-62.77,9.14-60c41.94-19.27,109.81-1.77,109.81-1.77c18.3,5.39,16.73,47.21,21.83,105.94
				c0.66,7.57,1.38,15.46,2.19,23.6c3.62,36.27,8.86,77.93,16.85,121.88C2268.93,1291.72,2266.92,1294.28,2262.98,1296.48z"/>
			<path class="st3" d="M2196.15,1030.34c-0.7,11.23-15.35,9.96-32.96,5.94c-17.6-4.01-11.23-14.39-11.23-14.39
				s0.25-7.98,1.38-17.53c0.41-3.47,0.91-7.17,1.59-10.76c0.31-1.76,0.66-3.49,1.06-5.16c2.29-9.88,35.17-0.35,34.93,2.31
				C2190.27,997.92,2195.46,1021.52,2196.15,1030.34z"/>
			<polygon class="st19" points="2158.42,1049.94 2157.03,1034.42 2176.51,1038.11 2169.01,1051.95 			"/>
			<path class="st18" d="M2152.39,1014.59l-11.65,17.71c0,0,0,10.89,10.1,18.79l15.92-14.83
				C2166.78,1036.27,2156.48,1032.34,2152.39,1014.59z"/>
			<path class="st18" d="M2166.78,1036.27c0,0,3.31,11.84,9.68,17.27c0,0,24.86-6.68,30.79-19.43l-12.96-16.71
				C2194.29,1017.4,2193.66,1030.05,2166.78,1036.27z"/>
			<path class="st21" d="M2191.1,996.33c0,0-15.83,10.52-37.76,8.03c0.41-3.47,0.91-7.17,1.59-10.76c4.33-1.05,7.95-1.7,7.95-1.7
				L2191.1,996.33z"/>
			<path class="st3" d="M2201.14,984.37c-7.74,21.28-35.96,15.85-47.98,12.44c-3.39-0.96-5.49-1.76-5.49-1.76
				c-3.71-1.69-4.87-8.17-4.54-16.36c0.65-16.21,7.03-39.08,10.72-44.59c5.53-8.3,14.74-16.73,42.12-4.98
				C2223.37,940.86,2211.06,957.1,2201.14,984.37z"/>
			<path class="st19" d="M2222.29,973.44c-8.64,7.05-27.21,20.09-27.21,20.09s2.07-2.45,4.59-9.48c0.28-0.8,0.38-1.97,0.34-3.21
				c-0.11-3.45,0.73-6.89,2.53-9.83c1.13-1.84,1.55-3.74,0.11-5.09c-2.35-2.22-6.36-0.18-8.98,1.62c-1.73,1.18-4.01,1.25-5.8,0.14
				c-0.01,0-0.03-0.01-0.03-0.01c-7.39-4.63,0.76-12.77-5.23-19.54c-6.01-6.77-31.98-7.69-30.93-11.93
				c-8.86-5.01-3.28-23.49-3.11-24.48c0,0,12.73,1.13,28.61-2.84c12.9-3.24,27.12,5.05,31.62,8.45c0-0.82-0.14-1.96-0.72-3.15
				c0,0,1.96,1.93,1.91,4.18c0.2,0.2,0.28,0.34,0.23,0.37c0,0,2.57-0.06,4.07,0.94c0,0-1.1-0.35-1.62,0.31
				c-0.06,0.07-0.14,0.13-0.23,0.17C2229.71,932.35,2229.46,967.58,2222.29,973.44z"/>
			<path class="st8" d="M2160.32,981.29c0,0-1.39,2.69-8.37,0.46c0,0-5.87-1.87-4.9-4.95
				C2147.05,976.79,2153.38,976.02,2160.32,981.29z"/>
			<path class="st22" d="M2158.42,1049.94c0,0-15.54,196.49-15.33,212.87c0.21,16.37,17.23,33.69,17.23,33.69
				s13.56-14.84,16.21-30.5c2.64-15.66-7.5-214.03-7.5-214.03L2158.42,1049.94z"/>
			<path class="st15" d="M2227.52,1037.41c0,0,25.1,6.01,44.95,44.13c19.85,38.12,35.52,115,44.99,135.3
				c9.48,20.3,15.97,84.21,15.97,84.21l-15,7.36c0,0-36.22-65.5-41.57-86.98c-2.9-11.62-47.18-104.65-47.18-104.65L2227.52,1037.41z
				"/>
			<path class="st18" d="M2262.98,1296.48c-0.01,0-0.01,0-0.03,0c-47.27-6.79-33.72-163.22-30.01-163.84
				c3.71-0.62,17.3,27.97,17.3,27.97l1.29,6.34c3.62,36.27,8.86,77.93,16.85,121.88
				C2268.93,1291.72,2266.92,1294.28,2262.98,1296.48z"/>
		</g>
		<g>
			<g>
				<path class="st19" d="M2852.69,1638.19c0,0,19.68,17.96,15.84,30.72c-3.84,12.76-21.59,21.27-24,36.87
					c-2.41,15.6-12,24.1-20.64,24.1s-41.19,0-41.19,0s-6.36-10.97,9-14.28c15.36-3.31,21.16-21.64,20.19-38.64
					c-0.96-17.01,1.43-39.7,1.43-39.7l32.64-7.57L2852.69,1638.19z"/>
				<path class="st19" d="M2611.26,1684.64c0,0,3.53,40.87-5.11,45.13l-110.57-0.23c0,0,0-12.76,17.77-15.6
					c17.75-2.84,48.95-13.24,54.24-36.39C2572.86,1654.4,2611.26,1684.64,2611.26,1684.64z"/>
				<path class="st22" d="M2517.91,1107.31c0,0,5.84,71.65,12.69,157.77c9.31,116.98,20.52,260.68,21.62,287.9
					c1.91,47.27,9.61,122.88,9.61,122.88s18.23,17.96,54.72,10.4c0,0,32.51-107.94,41.79-222.15c0.14-1.87,0.3-3.76,0.44-5.64
					c8.64-116.27,22.07-361.08,22.07-361.08L2517.91,1107.31z"/>
				<path class="st19" d="M2517.91,1107.31c0,0,5.84,71.65,12.69,157.77l127.75,199.04c0.14-1.87,0.3-3.76,0.44-5.64
					c8.64-116.27,22.07-361.08,22.07-361.08L2517.91,1107.31z"/>
				<path class="st22" d="M2544.54,1115.82c0,0,105.11,259.46,174.24,381.39c69.13,121.94,90.72,155.96,90.72,155.96
					s39.6-15.6,43.2-26.24c0,0-26.43-235.4-72.71-292.78c-26.15-32.43-48.71-104.37-47.58-138.41c1.94-58.7-20.1-126.73-20.1-126.73
					L2544.54,1115.82z"/>
			</g>
			<path class="st3" d="M2460.6,1119.63c0,0-19.62,26.57-21.07,33.66s-3.14,32.41-0.79,39.82c2.35,7.41,14.59-22.11,19.54-25.52
				c4.95-3.4-3.09,11.62-1.17,13.91c1.93,2.28,11.38-9.23,15.11-13.17c3.73-3.92,1.98-23.6,5.95-35.58
				C2482.14,1120.8,2460.6,1119.63,2460.6,1119.63z"/>
			<path class="st8" d="M2547.16,733.42c0,0-26.52,246.9-28.88,253.93c-0.52,1.53-2.59,9.34-5.53,20.59
				c-4.18,16.06-10.07,39.14-15.67,61.08c-8.44,33.14-17.56,61.81-17.56,61.81s-4.01,2.59-13.66,1.77
				c-6.58-0.56-10.14-6.19-10.14-6.19s0.97-121.22,6.88-148.85c5.94-27.64,24.87-197.38,34.45-220.22
				C2506.6,734.49,2547.16,733.42,2547.16,733.42z"/>
			<path class="st23" d="M2512.75,1007.95c-4.18,16.06-10.07,39.14-15.67,61.08c-3.6-10.14-8.19-26.29-11.08-48.42
				c-5.33-40.85,11.06-127.9,11.06-127.9L2512.75,1007.95z"/>
			<path class="st8" d="M2722.77,1112.98c-38.07,21.48-201.16,21-208.72,4.14c-16.88-37.64-21.1-228.93-13.14-287.61
				c0,0,4.12-90.17,13.14-86.19c60.24-27.67,157.75-2.55,157.75-2.55c26.29,7.75,24.03,67.82,31.37,152.19
				c0.94,10.87,1.98,22.21,3.17,33.92c5.19,52.11,12.73,111.95,24.21,175.08C2731.33,1106.11,2728.43,1109.8,2722.77,1112.98z"/>
			<path class="st3" d="M2626.77,730.63c-1.01,16.14-22.04,14.31-47.34,8.52c-25.28-5.75-16.14-20.68-16.14-20.68
				s0.37-11.46,1.97-25.19c0.59-4.99,1.31-10.3,2.28-15.46c0.45-2.52,0.94-5.01,1.51-7.41c3.31-14.19,50.53-0.49,50.19,3.32
				C2618.31,684.05,2625.77,717.95,2626.77,730.63z"/>
			<polygon class="st19" points="2572.55,758.77 2570.55,736.49 2598.55,741.77 2587.77,761.67 			"/>
			<path class="st23" d="M2563.88,707.98l-16.73,25.45c0,0,0,15.66,14.52,27.01l22.87-21.3
				C2584.55,739.14,2569.76,733.5,2563.88,707.98z"/>
			<path class="st23" d="M2584.55,739.14c0,0,4.74,17.01,13.9,24.81c0,0,35.72-9.61,44.23-27.9l-18.6-24.01
				C2624.08,712.03,2623.18,730.2,2584.55,739.14z"/>
			<path class="st21" d="M2619.49,681.76c0,0-22.73,15.12-54.23,11.54c0.59-4.99,1.31-10.3,2.28-15.46
				c6.22-1.51,11.42-2.45,11.42-2.45L2619.49,681.76z"/>
			<path class="st3" d="M2633.93,664.58c-11.11,30.58-51.67,22.78-68.93,17.87c-4.87-1.38-7.88-2.52-7.88-2.52
				c-5.33-2.42-6.99-11.73-6.53-23.49c0.91-23.28,10.11-56.14,15.39-64.06c7.93-11.92,21.17-24.03,60.52-7.16
				C2665.84,602.06,2648.18,625.39,2633.93,664.58z"/>
			<path class="st17" d="M2664.31,648.87c-12.42,10.13-39.09,28.87-39.09,28.87s2.97-3.5,6.6-13.62c0.41-1.15,0.55-2.83,0.49-4.61
				c-0.16-4.95,1.04-9.9,3.64-14.12c1.63-2.64,2.21-5.37,0.15-7.32c-3.38-3.19-9.13-0.27-12.9,2.32c-2.49,1.7-5.75,1.8-8.31,0.21
				c-0.01-0.01-0.03-0.01-0.04-0.03c-10.61-6.64,1.1-18.34-7.51-28.06c-8.64-9.72-45.94-11.04-44.45-17.15
				c-12.75-7.19-4.71-33.75-4.47-35.15c0,0,18.27,1.62,41.1-4.08c18.53-4.66,38.95,7.24,45.42,12.15c0-1.17-0.2-2.81-1.03-4.53
				c0,0,2.8,2.77,2.76,6.01c0.28,0.28,0.41,0.48,0.32,0.53c0,0,3.7-0.07,5.85,1.35c0,0-1.58-0.49-2.32,0.45
				c-0.08,0.11-0.2,0.18-0.32,0.25C2674.97,589.84,2674.61,640.45,2664.31,648.87z"/>
			<path class="st8" d="M2575.28,660.16c0,0-2,3.85-12.01,0.66c0,0-8.43-2.69-7.02-7.12
				C2556.23,653.69,2565.32,652.58,2575.28,660.16z"/>
			<path class="st22" d="M2572.55,758.77c0,0-22.34,282.29-22.03,305.81c0.31,23.52,24.74,48.39,24.74,48.39
				s19.47-21.31,23.28-43.82c3.8-22.51-10.78-307.48-10.78-307.48L2572.55,758.77z"/>
			<path class="st23" d="M2722.77,1112.98c-0.01,0-0.01,0-0.04,0c-67.9-9.78-48.45-234.49-43.12-235.37
				c5.33-0.89,24.86,40.16,24.86,40.16l1.87,9.12c5.19,52.11,12.73,111.95,24.21,175.08
				C2731.33,1106.11,2728.43,1109.8,2722.77,1112.98z"/>
			<g>
				<path class="st16" d="M2922.38,1280.38l-143.59,41.78c-18.68,5.44-38.43-5.4-43.86-24.08l-18.1-62.22
					c-5.44-18.68,5.4-38.43,24.08-43.86l143.59-41.78c18.68-5.44,38.43,5.4,43.86,24.08l18.1,62.22
					C2951.9,1255.2,2941.07,1274.93,2922.38,1280.38z"/>
				<path class="st17" d="M2735.74,1230.3l18.32,62.94c3.54,12.18,13.15,21.04,24.58,24.27c3.78,1.07,7.78,1.52,11.83,1.25
					c0.01,0,0.01,0,0.01,0h0.01c2.52-0.15,5.06-0.59,7.6-1.32l143.32-41.71c18.75-5.46,29.64-25.26,24.18-44.02l-18.32-62.95
					c-5.47-18.75-25.28-29.64-44.03-24.18l-49.35,14.36l-3.91-13.43c-1.8-6.2-8.33-9.78-14.53-7.98l-5.42,1.58l-30.02,8.74
					l-7.46,2.17c-3,0.87-5.49,2.87-6.99,5.61c-1.51,2.76-1.86,5.92-0.98,8.92l3.91,13.43l-28.58,8.31
					c-1.14,0.32-2.22,0.72-3.29,1.14c0,0.01-0.01,0.01-0.03,0.01h-0.01c-10.87,4.37-18.61,13.77-21.26,24.67v0.01
					C2733.93,1217.92,2733.96,1224.15,2735.74,1230.3z M2846.85,1160.96l-51.29,14.93l-3.91-13.43c-0.68-2.31,0.66-4.74,2.98-5.42
					l12.89-3.74l23.62-6.88l6.37-1.86c0.44-0.13,0.87-0.18,1.31-0.17c1.86,0.03,3.57,1.27,4.12,3.15L2846.85,1160.96z"/>
			</g>
			<path class="st3" d="M2803.83,1120.78c0,0-4.46,37.24,3.9,36.7c8.36-0.53,28.77-4.54,30.17-10.94
				c1.39-6.41-15.64-36.32-15.64-36.32L2803.83,1120.78z"/>
			<path class="st3" d="M2804.9,1120.68c0,0-6.39,7.93-6.94,14.18c-0.55,6.25-3.6,17.16-0.73,17.87c2.86,0.7,8.09-13.59,8.09-13.59
				L2804.9,1120.68z"/>
			<path class="st8" d="M2671.82,740.77c0,0,36.07,8.64,64.57,63.4c28.51,54.76,51.02,165.22,64.64,194.38
				c13.62,29.15,23.97,116.63,23.97,116.63s-2.12,4.35-9.45,5.94c-5.7,1.24-11.54,0.75-11.54,0.75s-53.61-85.88-61.31-116.73
				c-4.16-16.7-67.78-150.34-67.78-150.34L2671.82,740.77z"/>
		</g>
		<g>
			<polygon class="st3" points="296.86,1694.25 291.46,1655.33 314.15,1636.37 321.31,1687.89 			"/>
			<path class="st19" d="M372.23,1729.01H279.7c0,0-2.22-14.1,2.62-24.8c4.63-10.27,11.84-16.6,12.49-24.46
				c5.88,6.05,13.11,9.95,26.49,8.15c1.65,2.66,10.58,16.88,16.05,20.81C343.41,1713.05,370.38,1711.5,372.23,1729.01z"/>
			<path class="st10" d="M353.64,1168.75c-6.05,48.67-11,94.57-15.02,137.34c-21.54,227.91-17.3,367.2-17.3,367.2
				s-1.56,4.12-14.91,4.18c-7.54,0.04-14.94-1.6-14.94-1.6s-48.21-148.82-44.5-233.5c0.45-10.18,1.65-19.44,3.76-27.42
				c11.56-43.33-42.81-209.03,16.3-270.74C326.12,1082.51,356.42,1146.41,353.64,1168.75z"/>
			<path class="st9" d="M353.64,1168.75c-6.05,48.67-11,94.57-15.02,137.34l-91.65,136.27c0.45-10.18,1.65-19.44,3.76-27.42
				c11.56-43.33-42.81-209.03,16.3-270.74C326.12,1082.51,356.42,1146.41,353.64,1168.75z"/>
			<path class="st3" d="M426.46,704.43c0,0-2.24-11.13-4.74-19.61c-1.11-3.76,6.64-28.42,12-31.45
				c5.36-3.04,19.33,13.58,15.38,26.33c-2.03,6.56-5.36,27.87-5.36,27.87L426.46,704.43z"/>
			<path class="st3" d="M426.46,704.43c0,0-2.91-6.44-5.54-7.5c-2.63-1.04-5.46-11.59-7.39-15.77c0,0,1.87-2.73,5.13,0.79
				c2,2.15,6.43,8.44,6.43,8.44L426.46,704.43z"/>
			<path class="st3" d="M44.48,741.84c-0.56,1.17-1.35,3.26-2.05,5.23c-0.01-0.53-0.01-1.07-0.03-1.59
				c-0.04-3.91-14.66-25.24-20.68-26.57s-14.5,18.64-6.99,29.68c3.85,5.67,13.28,25.08,13.28,25.08l15.59-8.05
				c0,0,0.9-7.02,3.11-8.79c2.21-1.77,1.81-12.67,2.45-17.25C49.16,739.59,46.57,737.52,44.48,741.84z"/>
			<path class="st3" d="M141.68,1682.58c-1.31-12.48-1.63-45.3-1.63-45.3s33.44-10.69,32.21-3.35c-6.05,36.08-4.4,53.95-4.4,53.95
				l-13.52,8.07L141.68,1682.58z"/>
			<path class="st10" d="M325.71,1166.43c0,0-129.18,354.12-154.61,507.72c0,0-5.89,4.05-16.88,2.7
				c-12.46-1.52-15.88-10.18-15.88-10.18s-23.34-184.1,23.04-248.02c31.86-43.9-13.74-236.77,60.48-252.23
				C296.09,1150.97,325.71,1166.43,325.71,1166.43z"/>
			<path class="st5" d="M302.77,825.79C302.77,825.78,302.77,825.78,302.77,825.79c-0.03-0.17-0.06-0.32-0.11-0.46
				c-0.76-3.12-1.58-6.19-2.46-9.23c0-0.01,0-0.01,0-0.01c-2.7-9.31-5.92-18.18-9.4-26.01c-2-4.49-4.07-8.65-6.19-12.35
				c-0.32-0.58-0.63-1.11-0.94-1.65l-0.01-0.01c-4.99-8.38-10.13-14.19-14.76-15.98c-8.44-3.26-17.84-2.35-24.31-1.01
				c1.42-1.98,4.64-3.11,4.64-3.11c-4.14,0-12.58,5.35-12.58,5.35c-59.5-13.31-56.02,70.86-51.96,89.93
				c4.04,19.08-15.12,28.35-42.13,47.87c-51.56,37.25-50.7,76.72-50.7,76.72c0.46,0.2,0.97,0.42,1.51,0.69
				c2.07-5.11,6.47-14.77,11.09-16.82c-0.13,0.45-3.88,12.98-4.95,19.99c7.85,4.33,18.72,11.03,30.53,18.6c0,0,0,0,0.01,0.01
				c15.8,10.1,33.21,21.73,47.18,31.17c-0.66-3.84-1.32-9.33-0.35-12.42l4.45,13.79l0.58,1.8c8.92,6.03,15.95,10.87,19.51,13.35
				c0.37,0.25,0.69,0.48,0.98,0.68c1.04,0.72,1.6,1.11,1.6,1.11c-1.18-4.87,4.01-17.57,12.75-33.58c0.6-1.11,1.24-2.25,1.89-3.4
				c2.81-5.06,5.96-10.4,9.35-15.9c1.22-1.98,2.45-3.98,3.73-5.99c0-0.01,0.01-0.01,0.01-0.01c1.03-1.63,2.07-3.25,3.14-4.9
				l0.01-0.01c2.53-3.91,5.15-7.85,7.82-11.79c6.92-10.21,14.24-20.36,21.48-29.65c10.51-13.55,20.82-25.32,29.46-33.02
				c0.28-0.58,0.55-1.18,0.79-1.77c1.35-3.14,2.39-6.63,3.19-10.17c0.25-1.07,0.48-2.14,0.68-3.21c2.15-11.32,2.19-22.56,2.17-25.24
				c0.69,10.94,0.42,19.2-0.31,25.43c-0.17,1.36-0.35,2.63-0.55,3.81v0.01c-0.46,2.66-0.98,4.87-1.56,6.7
				c1.41-1.76,2.66-3.67,3.76-5.78c0.72-1.36,1.38-2.81,1.96-4.32C310.67,877.18,308.8,850.66,302.77,825.79z"/>
			<path class="st3" d="M291.59,911.07c0.2,0.06-16.66,12.25-30.96,10.55c-13.45-1.6-24.39-17.11-24.21-17.16
				c5.32-1.9,5.77-9.66,0.84-41.96l2.55,0.11l42.84,2.05c0,0,1,13.24,2.81,25.57C286.97,900.57,289.05,910.31,291.59,911.07z"/>
			<path class="st7" d="M282.65,864.65c0,0,1,13.24,2.81,25.57c-23.38,2.81-38.84-16.6-45.63-27.63L282.65,864.65z"/>
			<path class="st5" d="M234.84,858.71c0,0-15.07-17.46-20.45-33.51c-3.84-11.45-4.33-55.97,40.43-56.21c0,0,12.91-0.65,26.09,5.67
				c10.48,5.01,26.28,16.85,16.59,57.2l-2.08,13.45L234.84,858.71z"/>
			<path class="st8" d="M359.04,1159.64c0,0-55.73,33.13-125.72,16.09c-0.83-0.2-57.62-9.27-57.62-9.27
				c0.97-2.67,8.31-46.55,9.27-49c12.42-32.03,35.1-205.92,54.06-214.5c4.84,5.28,18.68,8.88,30.51,7.84
				c13.63-1.21,18.2-7.09,17.06-13.43c15.09,7.13,26.69,13.77,26.69,13.77C327.09,931.79,359.04,1159.64,359.04,1159.64z"/>
			<path class="st3" d="M292.16,875.17c0,0-54.95,9.1-60.1-25.21c-5.13-34.31-15.7-56.24,19.17-63.5s43.67,4.81,48.17,15.84
				C303.89,813.34,306.31,871.92,292.16,875.17z"/>
			<path class="st5" d="M276.2,781.89c0,0-9.09,42.5-31.36,51.89c-22.25,9.4-33.23,4.68-33.23,4.68s15.66-16.74,15.69-41.91
				C227.3,796.56,261.97,764.43,276.2,781.89z"/>
			<path class="st5" d="M272.95,785.71c0,0,12.6,7.31,16.64,15.64c4.05,8.33,7.96,26.14,13.11,24.74c0,0,7.29-29.05-7.78-42.62
				C278.94,769.07,272.95,785.71,272.95,785.71z"/>
			<path class="st20" d="M444.1,705.22c-2.24-0.79-5.53-2.64-9.82-3.04c-3.83-0.34-8.64,0.9-8.64,0.9s-15.5,96.38-16.66,101.48
				s-66.5,78.72-84.11,78.43c-15.91-0.27-34.76,12.01-38.25,14.38c0,0,37.05,78.34,38.9,93.06c2.01,16.01,21.19,262.61,21.19,262.61
				s-1.14,11.48,20.3,5.3c21.44-6.16,26.8-11.27,26.8-11.27S374.12,1052.94,370,992.56c-0.55-8.1-1.87-15.6-3.76-22.52
				c-1.81-6.67-0.38-13.81,3.69-19.4c27.09-37.19,69.89-97.47,72.28-110.27C445.68,821.53,444.1,705.22,444.1,705.22z"/>
			<path class="st19" d="M218.77,1729.01h-92.54c0,0-2.22-14.1,2.62-24.8c4.63-10.27,11.84-16.6,12.49-24.46
				c5.88,6.05,13.11,9.95,26.49,8.15c1.65,2.66,10.58,16.88,16.05,20.81C189.95,1713.05,216.92,1711.5,218.77,1729.01z"/>
			<path class="st20" d="M282.34,998.03c-3.12-19.19-42.93-96.25-42.93-96.25s-25.17-7.53-41.74-1.52
				c-16.57,6.01-102.28-42.4-105.03-46.84c-2.74-4.46-48.66-90-48.66-90s-3.81-2.21-9.9,0.97c-6.03,3.15-6.06,9.28-6.06,9.28
				s35.44,107.71,44.86,124.37c5.68,10.04,53.47,45.03,90.52,71.22c7.08,5.01,10.79,13.52,9.62,22.1
				c-4.98,36.83-6.25,57.58-11.99,120.77c-4.75,52.43-6.57,153.92-6.57,153.92s41.46,14.35,70.08,16.25
				c28.61,1.9,34.84-28.26,34.84-28.26S285.55,1017.77,282.34,998.03z"/>
			<path class="st8" d="M274.16,858.2c0,0,6.68,3.92,14.56,2.74c5.4-0.82,6.63-7.22,6.63-7.22s-3.76-1.18-9.75,0.01
				C279.6,854.95,274.16,858.2,274.16,858.2z"/>
		</g>
		<g>
			<path class="st3" d="M2029.28,204.21c0,0-25.72-45.69,0-54.99c25.72-9.3,37.35-0.72,38.57,9.68c1.22,10.41-9.79,51.43-9.79,51.43
				L2029.28,204.21z"/>
			<path class="st10" d="M2049.88,496.45c-46.89,8.45-89.99,12.37-128.89,13.24c-36.93,0.83-70.07-1.08-99.08-4.46
				c-7.79-0.9-15.26-1.9-22.45-2.98c-75.91-11.51-117.81-31.92-117.81-31.92s69.35-145.18,125.37-139.6
				c65.72,6.56,177.11,65.53,188.18,49c12.46-18.64,22.9-178.46,22.9-178.46c29.15-19.96,46.53,1.08,46.53,1.08
				S2121.56,483.52,2049.88,496.45z"/>
			<path class="st9" d="M2049.88,496.45c-46.89,8.45-89.99,12.37-128.89,13.24c-36.93,0.83-70.07-1.08-99.08-4.46
				c-17.49-55.61-30.06-112.41,5.11-78.17C1889.07,487.46,2049.88,496.45,2049.88,496.45z"/>
			<path class="st19" d="M1676.39,1668.57c0,0-4.99,57.7,7.22,63.71l156.12-0.32c0,0,0-18.02-25.08-22.02
				c-25.08-4.01-69.13-18.68-76.58-51.39C1730.6,1625.86,1676.39,1668.57,1676.39,1668.57z"/>
			<path class="st22" d="M1791.01,970.09c-0.77,37.74-2.59,76.67-6.13,111.64c-16.87,165.99-22.79,366.57-25.21,405.22
				c-4.21,67.13-17.46,174.36-17.46,174.36s-26.31,24.97-77.57,13.05c0,0-42.48-154.45-51.96-317.08c-0.14-2.67-0.3-5.35-0.42-8.03
				c-1.1-21.51-2.25-46.08-3.43-72.6c-7.81-177.57-16.29-441.35-16.29-441.35l195.92-46
				C1788.42,789.31,1792.94,876.01,1791.01,970.09z"/>
			<path class="st19" d="M1791.01,970.09c-49.64,85.66-144.29,243.48-182.2,306.57c-7.81-177.57-16.29-441.35-16.29-441.35
				l195.92-46C1788.42,789.31,1792.94,876.01,1791.01,970.09z"/>
			<path class="st3" d="M1294.95,804.16c0,0-31.88,37.49-34.75,47.89c-2.87,10.4-7.98,47.84-5.23,59.1
				c2.73,11.25,23.93-31.38,31.64-35.93c7.71-4.56-5.78,16.95-3.15,20.55c2.63,3.59,17.85-12.56,23.79-18.02
				c5.94-5.46,5.35-34.87,12.48-52.26C1326.86,808.09,1294.95,804.16,1294.95,804.16z"/>
			<path class="st19" d="M1287.48,1602.98c0,0-27.78,25.36-22.37,43.37c5.42,18.02,30.5,30.03,33.89,52.05
				c3.39,22.02,16.94,34.03,29.15,34.03c12.2,0,58.15,0,58.15,0s8.97-15.5-12.7-20.17c-21.69-4.67-29.86-30.55-28.51-54.57
				c1.35-24.03-2.04-56.06-2.04-56.06l-46.08-10.68L1287.48,1602.98z"/>
			<path class="st22" d="M1757.56,839.34c0,0-183.4,392.39-281,564.56s-128.1,220.22-128.1,220.22s-55.92-22.03-61-37.04
				c0,0,37.32-332.38,102.68-413.41c36.93-45.79,80.31-183.18,82.35-231.22c2.04-48.05,44.87-162.73,44.87-162.73L1757.56,839.34z"
				/>
			<path class="st10" d="M1811.17,857.84c0,0-72.93,48.76-176.15,44.23c-45.3-1.98-135.16-14.83-149.66-50.85
				c-3.4-8.45-0.91-19.19,4.21-35.67c13.25-42.82,44.16-124.37,34.83-305.18c-0.87-16.82-0.39-32.64,1.21-47.45
				c9.72-89.06,60.76-141.8,110.09-159.03c120.3-42.05,160.41,16.21,160.41,16.21s53.17,42.13,61.19,130.05
				C1873.32,626.03,1811.17,857.84,1811.17,857.84z"/>
			<path class="st3" d="M1670.95,293.81c0,0,55.2,33.58,115.07,24.08c0,0,11.83-3.01,6.02-16.91c3.64-11.21,3.21-10.2,5.32-18.54
				c5.25-19.17,6.85-30.24,6.85-30.24l-33.97-35.72l-32.19-34.13C1729.16,263.91,1670.95,293.81,1670.95,293.81z"/>
			<path class="st24" d="M1732.9,213.28c0,0,18.48,49.42,64.46,69.16c5.25-19.17,8.67-39.25,8.67-39.25l-35.79-26.71L1732.9,213.28z
				"/>
			<path class="st3" d="M1842.33,250.46c0,0-105.36,13.17-112.76-51.58c-7.4-64.75-25.98-106.66,40.99-117.8
				c66.96-11.14,82.88,12.13,90.69,33.16C1869.04,135.25,1869.55,245.37,1842.33,250.46z"/>
			<path class="st25" d="M1696.29,70.56c-0.91-1.13-3.07-2.08-7.93-2.53c0,0,4-2.29,9.21-2.22c1.28-6.75,5.35-18.63,17.13-21.1
				c0,0-6.4,3.11-7.5,10.3c14.05-13.38,43.41-22.4,123.44-13.03c105.45,12.35,68.03,78.75,54.03,86.3
				c-14,7.55-47.63-15.88-73.22-14.83c-25.59,1.06-31.83,37.74-40.68,42.47c-8.85,4.73-5.11-4.08-16.61-9.82
				c-11.51-5.74-13.36,13.63-10.45,26.38c2.91,12.75-13.81,28.78-13.81,28.78s0,0-15.6-18.13c-15.6-18.13-28.12-92.87-20.13-108.4
				C1694.87,73.34,1695.58,71.95,1696.29,70.56z"/>
			<g>
				<polygon class="st22" points="2018.1,173.9 1839.22,175.5 1837.99,148.59 2016.31,134.76 				"/>
				<polygon class="st22" points="2153.13,178.4 1958.37,181.21 1956.15,132.28 2150.35,117.23 				"/>
				<polygon class="st19" points="2284.45,182.24 2120.21,182.43 2117.22,116.39 2280.79,101.51 				"/>
				<path class="st19" d="M2286.8,193.38L2286.8,193.38c5.06-0.23,8.99-4.53,8.76-9.59l-3.85-84.85c-0.23-5.06-4.53-8.99-9.59-8.75
					l0,0c-5.06,0.23-8.99,4.53-8.75,9.59l3.85,84.85C2277.44,189.69,2281.74,193.62,2286.8,193.38z"/>
				<path class="st22" d="M1838.66,181.24L1838.66,181.24c-4.5,0.21-8.33-3.28-8.52-7.78l-1-22.02c-0.21-4.5,3.28-8.31,7.78-8.52
					l0,0c4.5-0.21,8.33,3.28,8.52,7.78l1,22.02C1846.65,177.22,1843.16,181.03,1838.66,181.24z"/>
			</g>
			<path class="st9" d="M1489.56,815.55c13.25-42.82,44.16-124.37,34.83-305.18c-0.87-16.82-0.39-32.64,1.21-47.45h0.01
				c39.59-3.4,100.12,39.4,100.12,39.4S1588.45,729.57,1489.56,815.55z"/>
			<path class="st10" d="M1670.95,293.81c0,0-101.52,17.46-154.47,82.1c-52.95,64.64-138.13,155.78-158.26,187.7
				c-20.14,31.92-76.05,249.13-76.05,249.13s3.69,6.98,19.1,11.04c14.76,3.88,25.46-2.14,25.46-2.14s74.06-126.76,101.95-190.09
				c11.58-26.31,211.88-130.5,287.19-119.71C1745.45,516.07,1670.95,293.81,1670.95,293.81z"/>
			<path class="st3" d="M2017.03,127.05c0,0,21.83,13.35,34.9,7.71c13.07-5.66,11.92-10.82,11.92-10.82
				S2024.37,112.98,2017.03,127.05z"/>
			<path class="st17" d="M1769.46,364.61c0,0-44.55,281.28-360.66,363.18l-34.44,67.93l60.49,10.24c0,0,359.87-104.25,355.03-446.33
				L1769.46,364.61z"/>
			<polygon class="st16" points="1762.55,319.72 1747.96,321.14 1747.96,342.27 1769.46,364.61 1789.9,359.64 1789.9,330.33 
				1775.2,319.72 			"/>
			<path class="st9" d="M1705.3,263.79c0,0-14.12,3.19-46.41,30.02c0,0,32.12,68.17,99.86,76.33c0,0-1.1-31.64,3.8-50.4
				C1762.55,319.72,1708.86,300.49,1705.3,263.79z"/>
			<path class="st9" d="M1762.55,319.72c0,0,33.06,17.56,35.51,44.9c0,0,12.63-20.02,8.97-33.89c-3.67-13.87-15-29.75-15-29.75
				S1793.16,317.68,1762.55,319.72z"/>
		</g>
	</g>
</g>
</svg>
