<?xml version="1.0" encoding="utf-8"?>
<!-- Generator: Adobe Illustrator 24.0.0, SVG Export Plug-In . SVG Version: 6.00 Build 0)  -->
<svg version="1.1" id="Слой_2" xmlns="http://www.w3.org/2000/svg" xmlns:xlink="http://www.w3.org/1999/xlink" x="0px" y="0px"
	 viewBox="0 0 3200 1482.76" style="enable-background:new 0 0 3200 1482.76;" xml:space="preserve">
<style type="text/css">
	.st0{fill:#2C3A64;}
	.st1{fill:#AFCDFB;}
	.st2{fill:#2B478B;}
	.st3{fill:#233862;}
	.st4{fill:#FFB27D;}
	.st5{fill:#F99746;}
	.st6{fill:#ED985F;}
	.st7{fill:#ED7D2B;}
	.st8{fill:#88ADD8;}
	.st9{fill:#98B9EA;}
	.st10{fill:#F9DDBF;}
	.st11{fill:#E5C1A1;}
	.st12{fill:#A8D29F;}
	.st13{fill:#9DC993;}
	.st14{fill:#82B378;}
	.st15{fill:#DB6A1D;}
	.st16{fill:#EA863B;}
	.st17{fill:#FFB93E;}
	.st18{fill:#FFA412;}
	.st19{fill:#E2810E;}
	.st20{fill:#ED975D;}
	.st21{fill:#A9453D;}
	.st22{fill:#1E3D70;}
	.st23{fill:#2A4E96;}
	.st24{fill:#EA8E50;}
	.st25{fill:#FFB07B;}
	.st26{fill:#FFC299;}
	.st27{fill:#B5453C;}
	.st28{fill:#699FF0;}
</style>
<g>
	<g>
		<path class="st0" d="M2279.81,93.13c0.09-2.5,2.03-29.49,43.14-30.9c0,0-20.22,2.41-23.71,11.3c0,0,13.76-10.98,24.97-7.45
			c11.21,3.53,17.79,23.17,17.86,29.63c0.07,6.46-6.16,27.28-13.28,29.05c-2.69,0.67-5.8,0.49-8.62,0.01
			c1.89,2.96,3.75,6.22,5.52,9.86c16.4,33.67-0.51,66.58-14.4,62.95c-8.91-2.33-11.43,12.87-11.43,12.87l-86.53-70.05
			C2213.34,140.38,2245.12,74.62,2279.81,93.13z"/>
		<path class="st1" d="M1866.34,611.84l-2,12.7c-2.07,4.69-3.83,9.54-5.33,14.5h-16.68C1855.92,622.4,1866.34,611.84,1866.34,611.84
			z"/>
		<path class="st2" d="M2249.68,1085.14l18.38,6.84c0,0,79.83-110.72,89.66-208.14c1.76-17.39,1.17-34.24-2.62-49.8
			c0,0,0.78-4.46,2.15-12.33c0.63-3.68,1.41-8.1,2.3-13.17c2.6-14.87,6.17-35.22,10.25-58.39c9.39-53.32,21.56-121.47,31.02-171.57
			l-4.95-1.59l-53.58-17.29l-11.07-35.17l-39.9-10.5c0,0-8.91,17.44-16.88,99.8c-1.47,10.8-2.8,22.72-3.81,35.64
			c-3.11,39.43-3.33,88.35,3.8,144.28c1.83,14.32,4.14,29.1,7.01,44.28c2.1,11.13,2.42,26.3,1.53,43.73
			C2278.91,961.38,2249.68,1085.14,2249.68,1085.14z"/>
		<path class="st3" d="M2270.6,649.46l86.64,172.25c0.63-3.68,1.41-8.1,2.3-13.17c2.6-14.87,6.17-35.22,10.25-58.39
			c9.39-53.32,21.56-121.47,31.02-171.57l-4.95-1.59l-53.58-17.29l-11.07-35.17l-39.9-10.5c0,0-8.91,17.44-16.88,99.8
			C2272.94,624.63,2271.6,636.54,2270.6,649.46z"/>
		<path class="st2" d="M2308.71,536.13l2-17.2c33.6,8.93,123.39-24.94,123.39-24.94s32.55,28.61,28.28,97.21
			c-2.09,33.48-5.9,175.74-9.88,217.84c-1.44,15.26-2.7,26.12-3.21,30.45c-0.01,0.02-0.01,0.03-0.01,0.04
			c-0.16,1.32,0.31,2.57,0.98,3.73c5.86,9.94,10.71,20.3,14.69,30.89c39.06,104.1-6.02,232.29-6.02,232.29l-11.7-4.72
			c0,0-25.65-142.67-46.5-205.69c-3.54-10.69-6.93-19.09-10.04-24.11c-9.06-14.63-17.47-38.53-25.11-66.95
			c-14.43-53.74-26.04-123.66-33.77-177.62C2330.75,627.4,2308.71,536.13,2308.71,536.13z"/>
		<path class="st4" d="M2067.49,478.97l2.5,16.83c0,0,1.11,0,3.06-0.14c6.12-0.42,21-1.25,37.83-3.06
			c25.32-2.5,55.36-6.95,67.32-14.32c18.22-11.13,48.13-45.2,67.6-79.28c0.56-0.83,0.97-1.67,1.39-2.5
			c10.15-18.08,17.25-36.03,17.8-50.35c0.42-8.76-0.56-16.27-2.36-22.81c-2.36-8.62-6.26-15.44-10.29-20.59
			c-0.56-0.84-1.11-1.67-1.95-2.37c-6.68-7.93-13.21-11.27-13.21-11.27c-3.34-1.39-6.95,0.28-10.71,4.31v0.14
			c-3.06,3.2-6.4,8.07-9.6,14.19c-0.14,0.14-0.28,0.28-0.28,0.42c-0.7,1.25-1.39,2.64-2.23,4.17c-0.28,0.28-0.42,0.7-0.56,0.97
			c-1.53,3.2-3.06,6.54-4.59,10.01c-17.11,37.28-35.33,93.75-50.49,110.58c-6.54,7.23-36.44,21.42-60.23,31.99
			C2081.4,473.4,2067.49,478.97,2067.49,478.97z"/>
		<path class="st4" d="M2244.52,327.51c10.55,4.89,23.29,8.22,38.7,9.06c57.77,3.17,70.88-47.48,73.27-81.09
			c-8.33-3.02-15.62-2.73-19.82-2.51c-4.1,0.23-8.37,0.65-11.9,1.08c-7.07-3.69-19.76-21.62-27.1-51.62l-2.49,1.16l-41.69,19.6
			c0,0,4.43,13.57,7.7,26.54c2.55,10.16,4.38,19.97,2.85,22.72c-3.29,1.34-5.25,2.18-5.25,2.18s0,0.02-0.02,0.05
			C2258.35,275.74,2249.29,298.83,2244.52,327.51z"/>
		<path class="st5" d="M2230.07,365.41c0.44,1.16,0.91,2.28,1.44,3.44c14.63,31.51,41.72,162.04,41.72,162.04
			c-3.86,23.47,176.37-4.61,176.84-25.97c6.35-22.66-22.52-59.06-38.8-77.32c-2.04-2.3-3.87-4.76-5.46-7.35
			c-4.02-6.51-6.57-13.87-7.38-21.55c-3.2-30.29-1.98-58.68-2.25-75.94c0,0,0,0,0,0c-3.18-2.36-6.26-4.53-9.12-6.6
			c-4.38-3.2-8.25-6.18-11.1-9.21c-3.14-3.3-5.1-6.68-5.33-10.49c-0.16-2.88-0.08-5.84,0.23-8.79c0.13-1.4,0.31-2.79,0.53-4.19
			c2.25-14.66,8.37-27.96,8.37-27.96c-15.5-6.27-43.07-2.54-43.07-2.54s0.03,1.53,0.05,4.04c0.09,10.07,0,35.92-3.23,40.81
			c-4.04,6.09-77.88,32.79-81.78,24.52c-3.84-8.13,6.68-46.23,7.07-47.67c0.02-0.03,0.02-0.05,0.02-0.05
			c-24.73,9.71-33.57,17.86-33.57,17.86C2240.12,302.15,2218.54,334.84,2230.07,365.41z"/>
		<path class="st6" d="M2253.49,223.2c0,0,4.43,13.55,7.7,26.54c24.37-6.8,31.77-32.41,33.99-46.14L2253.49,223.2z"/>
		<path class="st4" d="M2248.36,237.55c0,0,58.29-13.49,49.33-49.66c-8.96-36.17-7.47-62.28-45.07-55.19
			c-37.6,7.08-41.38,22.67-41.33,35.47C2211.35,180.96,2232.96,240.12,2248.36,237.55z"/>
		<path class="st0" d="M2208.02,147.62c6.27-13.11,13.64-12.41,18.26-10.09c27.39-25.34,54.26-4.64,54.26-4.64
			c10.34,24.98,32.75,35.19,32.75,35.19s-8.96,9.17-34.91,8.97c-7.93-0.06-15.9-3.7-23.15-8.72c13.99,14.09,30.4,22.67,30.4,22.67
			c-32.49-6.22-54.28-43.83-56.51-47.83c-2.75,4.06-8.02,12.72-8.46,20.02c-0.6,9.93,2.81,29.21-2.87,29.94
			C2217.77,193.14,2198.62,167.29,2208.02,147.62z"/>
		<path class="st5" d="M2225.21,292.48c0,0-14.04,24.48-16.14,30.78c0,0,18.2-0.7,25.55,13.3
			C2234.63,336.56,2236.39,295.78,2225.21,292.48z"/>
		<path class="st7" d="M2321.75,487.03c35.55-0.38,65.65-37.29,84.05-66.79c-4.02-6.51-6.57-13.87-7.38-21.55
			c-3.2-30.29-1.98-58.68-2.25-75.94c0,0,0,0,0,0c-3.18-2.36-6.26-4.53-9.12-6.6c-4.38-3.2-8.25-6.18-11.1-9.21
			C2346.82,356.14,2273.55,487.54,2321.75,487.03z"/>
		<path class="st3" d="M2390.92,1116h92.57c0,0,2.22-14.11-2.62-24.81c-4.63-10.27-11.89-14.94-10.15-27.37
			c-5.88,6.06-15.47,12.84-28.85,11.04c-1.64,2.66-10.59,16.89-16.06,20.82C2419.76,1100.03,2392.78,1098.48,2390.92,1116z"/>
		<path class="st3" d="M2192.16,1116h92.57c0,0,3.46-14.76-2.62-24.81c-5.38-8.89-3.32-13.95,0.67-21.31
			c-4.19,1.72-9.62,3.28-15.59,2.94c-4.61-0.26-9.49-2.36-13.77-4.84c-3.98,4.54-21.04,23.88-26.38,27.71
			C2221,1100.03,2194.02,1098.48,2192.16,1116z"/>
		<g>
			<path class="st4" d="M2064.66,478.59c0,0-17.15-3.34-21.07,0s-22.51,22.24-18.53,28.44c3.98,6.2,23.07-5.14,27.04-6.2
				c3.97-1.07,15.07-5.4,15.07-5.4L2064.66,478.59z"/>
			<path class="st8" d="M2189.41,455.86c-1.32-2.82-2.95-5.38-4.86-7.71l0,0l-0.02-0.02c-1.42-1.73-3-3.32-4.72-4.79l-7.13-7.23
				l-1.88,1.38c-36.48-17.86-111.83,1.07-188.04,50.83c-92.11,60.14-151.25,142.94-134.19,186.95l-2.6,1.92l10.25,10.21
				c0.49,0.52,0.99,1.02,1.51,1.51l0.29,0.29l0.09,0.06c2.59,2.38,5.56,4.43,8.86,6.17l0.05,0.04l0.01-0.01
				c36.02,18.87,112.17,0.08,189.22-50.22C2150.08,583.98,2209.7,499.19,2189.41,455.86z"/>
			<path class="st1" d="M1971.8,477.36c93.84-61.26,186.36-75.8,206.65-32.47c20.29,43.33-39.33,128.12-133.17,189.38
				c-93.84,61.26-186.36,75.8-206.65,32.47C1818.35,623.42,1877.97,538.63,1971.8,477.36z"/>
			<g>
				<path class="st9" d="M1904.43,673.23c-7.62,0-14.55-0.86-20.65-2.61c-11.7-3.37-19.82-9.85-24.13-19.25
					c-8.46-18.45-0.63-45.84,22.07-77.13c22.17-30.57,56.01-61.57,95.29-87.3l0,0c60.32-39.5,121.68-58.58,156.31-48.61
					c11.7,3.37,19.82,9.85,24.13,19.25c8.46,18.45,0.62,45.84-22.07,77.13c-22.17,30.57-56.01,61.57-95.29,87.3
					C1990.4,654.55,1940.01,673.23,1904.43,673.23z M2112.88,442.63c-34.03,0-84,18.57-132.11,50.07
					c-38.6,25.27-71.8,55.67-93.49,85.58c-20.86,28.77-28.66,54.36-21.38,70.22c3.44,7.5,10.09,12.71,19.78,15.5
					c5.42,1.56,11.65,2.32,18.53,2.32c34.03,0,84-18.57,132.11-50.07c38.59-25.27,71.8-55.67,93.49-85.58
					c20.86-28.77,28.66-54.36,21.39-70.22c-3.44-7.5-10.1-12.71-19.78-15.5C2125.98,443.39,2119.75,442.63,2112.88,442.63z"/>
			</g>
			<g>
				<path class="st9" d="M1970.74,578.16c2.9-1.27,5.47-2.67,7.73-4.18c2.26-1.52,4.35-3.29,6.26-5.32
					c1.91-2.03,3.72-4.36,5.43-6.99c1.71-2.63,3.42-5.68,5.14-9.14c3.02-5.99,6.13-11.58,9.3-16.78c3.18-5.2,6.73-10.02,10.66-14.46
					c3.93-4.44,8.42-8.51,13.47-12.23c5.05-3.72,10.95-7.06,17.71-10.03c5.86-2.57,11.14-4.23,15.83-4.96
					c4.69-0.73,8.7-0.59,12.04,0.42c3.34,1.01,5.95,2.82,7.84,5.43c1.89,2.62,2.93,6.02,3.12,10.22l22.14-9.73l-1.15,11.92
					l-22.45,9.86c-1.24,4.63-3.31,9.25-6.19,13.85c-2.89,4.6-6.48,9.01-10.79,13.23c-4.31,4.22-9.3,8.21-14.98,11.96
					c-5.68,3.75-11.97,7.15-18.86,10.18l2.09-21.53c8.27-3.63,14.58-7.58,18.93-11.84c4.34-4.26,6.71-8.45,7.11-12.58
					c0.22-2.23-0.06-3.95-0.84-5.16c-0.77-1.21-1.92-1.97-3.44-2.31c-1.52-0.33-3.36-0.26-5.52,0.21c-2.16,0.47-4.51,1.27-7.07,2.39
					c-2.55,1.12-4.88,2.38-7,3.79c-2.12,1.4-4.11,3.1-5.99,5.09c-1.88,1.99-3.69,4.33-5.43,7.02c-1.75,2.69-3.59,5.89-5.54,9.6
					c-3.16,6-6.34,11.59-9.55,16.78c-3.21,5.19-6.8,10.01-10.76,14.46c-3.96,4.45-8.47,8.54-13.52,12.25
					c-5.05,3.72-10.92,7.04-17.61,9.98c-6.07,2.67-11.45,4.35-16.14,5.06c-4.69,0.71-8.67,0.54-11.94-0.5
					c-3.27-1.04-5.8-2.91-7.58-5.62c-1.78-2.71-2.77-6.17-2.96-10.36l-20.59,9.04l1.15-11.84l20.48-9c1.02-4.4,2.75-8.97,5.19-13.73
					c2.44-4.76,5.76-9.48,9.94-14.17c4.18-4.69,9.33-9.23,15.43-13.63c6.1-4.39,13.29-8.41,21.57-12.04l-2.09,21.53
					c-4.9,2.15-9.03,4.41-12.39,6.76c-3.36,2.36-6.11,4.74-8.22,7.14s-3.66,4.76-4.65,7.07c-0.98,2.31-1.57,4.48-1.77,6.52
					c-0.23,2.33,0.02,4.19,0.75,5.56c0.72,1.37,1.82,2.3,3.3,2.8c1.47,0.5,3.26,0.56,5.38,0.21
					C1965.86,580.02,1968.19,579.28,1970.74,578.16z"/>
			</g>
		</g>
		<path class="st4" d="M2187.98,508.54l4.27,15.63c0,0,6.12-1.11,15.86-2.92c2.92-0.56,4.59-0.97,4.59-0.97
			c7.79-1.53,17.11-3.62,27.26-5.84h0.14c17.39-4.17,36.86-9.18,53.27-14.74c11.54-4.03,21.56-8.34,28.37-12.66
			c0.7-0.42,1.25-0.84,1.95-1.39c16.28-11.82,35.61-46.59,50.63-83.87c2.09-5.15,4.03-10.29,5.98-15.3
			c6.96-18.64,12.52-37,15.86-52.86c2.09-9.46,3.48-18.08,3.76-25.18c0.14-2.5,0.28-4.87,0.14-7.09
			c-0.28-40.33-20.31-45.9-20.31-45.9c-0.42-0.14-0.83-0.28-1.39-0.42c-3.48-0.56-7.09,1.81-10.85,6.4
			c-4.73,5.7-9.74,15.02-14.88,26.29c-7.93,17.94-16.27,41.17-24.06,64.26c-4.31,12.66-8.48,25.31-12.66,37
			c-2.37,7.09-4.73,13.77-6.96,19.89c-4.31,11.68-8.21,21.14-11.68,27.12c-2.22,3.9-8.62,9.32-17.11,15.44
			c-14.74,10.71-36.3,23.65-55.08,34.22c-7.79,4.45-13.56,9.78-19.68,13.11C2195.52,504.18,2187.98,508.54,2187.98,508.54z"/>
		<path class="st5" d="M2352.67,287.77c26.78-7.38,47.43,13.53,47.43,13.53c-0.34-40.27-20.38-45.78-20.38-45.78
			C2371.66,252.17,2362.31,266.14,2352.67,287.77z"/>
		<path class="st4" d="M2192.25,524.17c0,0-14.65,23.12-21.38,27.61c-6.73,4.48-16.49,13.16-19.9,11.06
			c-3.41-2.1,12.95-23.84,12.73-28.1c-0.22-4.26-0.67-7.62-0.67-7.62s-10.37,6.09-16.14,2.69c0,0,4.48-2.24,8.07-4.48
			c3.59-2.24,6.58-9.86,14.61-10.54c8.03-0.67,18.41-6.24,18.41-6.24L2192.25,524.17z"/>
	</g>
	<g>
		<path class="st10" d="M1522.51,161.96c0,0-52.26,88.53-100.16,89.76c-47.91,1.23-120.79-41.03-120.79-41.03
			s-43.99-117.97-14.15-164.14c0,0,29.92-15.8,61.21,12.1c5.37,4.82,10.83,10.87,16.2,18.67c7.59,10.98,16.11,17.23,25.15,20.52
			c34.18,12.52,74.76-16.93,89.93,11.49c8.87,16.52,18.5,28.93,26.43,37.65C1515.69,157.04,1522.51,161.96,1522.51,161.96z"/>
		<path class="st10" d="M772.95,1456.45c0,0-128.31-1125.67,585.47-1204.73c0,0,553.87,131.89,415.74,1204.73H772.95z"/>
		<path class="st5" d="M1267.34,268.17c0,0,133.26,35.66,174.37,14.7c0,0,6.21-67.05-49.91-57.65
			c-38.41,6.44-63.43-15.78-78.14-24.79C1292.84,187.68,1261.8,240.12,1267.34,268.17z"/>
		<path class="st11" d="M1383.31,167.09c-8.52,7.69-34.69-108.43-34.69-108.43c5.37,4.82,10.83,10.87,16.2,18.67
			c7.59,10.98,16.11,17.23,25.15,20.52C1390.04,101.23,1391.58,159.6,1383.31,167.09z"/>
		<path class="st11" d="M1506.32,146.98c-1.88,1.33-63.51,45.75-71.86,45.75c-8.52,0,45.44-83.4,45.44-83.4
			C1488.76,125.85,1498.39,138.26,1506.32,146.98z"/>
	</g>
	<path class="st11" d="M1147.7,389.56c0,0,186.36,381.1,390.35,324.74c203.99-56.36,89.74,234.92,89.74,234.92
		s-454.73-2.64-456.75-10.77C1169.02,930.33,1147.7,389.56,1147.7,389.56z"/>
	<g>
		<path class="st1" d="M2173.93,1418.52v29.26c0,2.33-0.71,4.5-1.93,6.3c-1.28,1.9-3.13,3.38-5.29,4.22
			c-0.66,0.26-1.35,0.46-2.06,0.58c-0.65,0.12-1.31,0.18-1.99,0.18h-466.12c-6.01,0-10.96-4.76-11.27-10.7
			c-0.01-0.19-0.01-0.39-0.01-0.58v-29.26c0-0.19,0.01-0.39,0.01-0.58c0.31-5.94,5.26-10.7,11.27-10.7h466.12
			c0.68,0,1.34,0.06,1.99,0.18c0.71,0.12,1.4,0.32,2.06,0.58c2.16,0.84,4.01,2.33,5.29,4.22
			C2173.21,1414.02,2173.93,1416.19,2173.93,1418.52z"/>
		<path class="st9" d="M1914.37,1407.24h-219.05c-5.36,0-9.78,4.76-10.06,10.7c-0.01,0.19-0.01,0.39-0.01,0.58v29.26
			c0,0.19,0.01,0.39,0.01,0.58c0.27,5.94,4.7,10.7,10.06,10.7h161.19v0h5.3v0h39.38v0h5.3v0h38.55
			C1926.02,1443.59,1917.87,1422.5,1914.37,1407.24z"/>
		<rect x="2111.91" y="1407.24" class="st9" width="5.3" height="51.82"/>
		<rect x="2093.98" y="1407.24" class="st9" width="5.3" height="51.82"/>
		<rect x="2072.47" y="1407.24" class="st9" width="5.3" height="51.82"/>
		<rect x="2039.51" y="1407.24" class="st9" width="5.3" height="51.82"/>
		<rect x="2004.65" y="1407.24" class="st9" width="5.3" height="51.82"/>
		<rect x="1951.22" y="1407.24" class="st9" width="5.3" height="51.82"/>
		<rect x="2128.98" y="1407.24" class="st9" width="5.3" height="51.82"/>
		<rect x="2140.26" y="1407.24" class="st9" width="5.3" height="51.82"/>
		<rect x="2151.15" y="1407.24" class="st9" width="5.3" height="51.82"/>
		<path class="st9" d="M2159.34,1407.24v51.82h3.31c0.68,0,1.34-0.06,1.99-0.18v-51.46c-0.65-0.12-1.31-0.18-1.99-0.18H2159.34z"/>
		<path class="st9" d="M2166.7,1408v50.3c2.16-0.84,4.01-2.32,5.29-4.22v-41.86C2170.71,1410.33,2168.86,1408.84,2166.7,1408z"/>
		<path class="st1" d="M2152.69,1366.7v29.26c0,2.33-0.71,4.5-1.93,6.3c-1.29,1.9-3.13,3.39-5.29,4.22
			c-0.66,0.26-1.35,0.46-2.06,0.58c-0.65,0.12-1.31,0.18-1.99,0.18h-466.12c-6.01,0-10.96-4.76-11.27-10.7
			c-0.01-0.19-0.01-0.39-0.01-0.58v-29.26c0-0.19,0.01-0.39,0.01-0.58c0.31-5.94,5.26-10.7,11.27-10.7h466.12
			c0.68,0,1.34,0.06,1.99,0.18c0.71,0.12,1.4,0.32,2.06,0.58c2.16,0.84,4.01,2.33,5.29,4.22
			C2151.98,1362.2,2152.69,1364.37,2152.69,1366.7z"/>
		<path class="st9" d="M1893.13,1355.42h-219.05c-5.36,0-9.78,4.76-10.06,10.7c-0.01,0.19-0.01,0.39-0.01,0.58v29.26
			c0,0.19,0.01,0.39,0.01,0.58c0.27,5.94,4.69,10.7,10.06,10.7h161.19v0h5.3v0h39.38v0h5.3v0h38.55
			C1904.79,1391.77,1896.63,1370.68,1893.13,1355.42z"/>
		<rect x="2090.67" y="1355.42" class="st9" width="5.3" height="51.82"/>
		<rect x="2072.74" y="1355.42" class="st9" width="5.3" height="51.82"/>
		<rect x="2051.24" y="1355.42" class="st9" width="5.3" height="51.82"/>
		<rect x="2018.28" y="1355.42" class="st9" width="5.3" height="51.82"/>
		<rect x="1983.42" y="1355.42" class="st9" width="5.3" height="51.82"/>
		<rect x="1929.98" y="1355.42" class="st9" width="5.3" height="51.82"/>
		<rect x="2107.74" y="1355.42" class="st9" width="5.3" height="51.82"/>
		<rect x="2119.02" y="1355.42" class="st9" width="5.3" height="51.82"/>
		<rect x="2129.91" y="1355.42" class="st9" width="5.3" height="51.82"/>
		<path class="st9" d="M2138.1,1355.42v51.82h3.31c0.68,0,1.34-0.06,1.99-0.18v-51.46c-0.65-0.12-1.31-0.18-1.99-0.18H2138.1z"/>
		<path class="st9" d="M2145.47,1356.18v50.3c2.16-0.84,4.01-2.33,5.29-4.22v-41.86
			C2149.48,1358.51,2147.63,1357.02,2145.47,1356.18z"/>
		<path class="st1" d="M2176.97,1314.63v29.26c0,2.33-0.71,4.5-1.93,6.3c-1.29,1.9-3.13,3.39-5.29,4.22
			c-0.66,0.26-1.35,0.46-2.06,0.58c-0.65,0.12-1.31,0.18-1.99,0.18h-466.12c-6.01,0-10.96-4.76-11.27-10.7
			c-0.01-0.19-0.01-0.39-0.01-0.58v-29.26c0-0.19,0.01-0.39,0.01-0.58c0.31-5.94,5.26-10.7,11.27-10.7h466.12
			c0.68,0,1.34,0.06,1.99,0.18c0.71,0.12,1.4,0.32,2.06,0.58c2.16,0.84,4.01,2.33,5.29,4.22
			C2176.26,1310.14,2176.97,1312.3,2176.97,1314.63z"/>
		<path class="st9" d="M1917.41,1303.36h-219.05c-5.36,0-9.78,4.76-10.06,10.7c-0.01,0.19-0.01,0.39-0.01,0.58v29.26
			c0,0.19,0.01,0.39,0.01,0.58c0.27,5.94,4.69,10.7,10.06,10.7h161.19v0h5.3v0h39.38v0h5.3v0h38.55
			C1929.07,1339.71,1920.91,1318.61,1917.41,1303.36z"/>
		<rect x="2114.95" y="1303.36" class="st9" width="5.3" height="51.82"/>
		<rect x="2097.02" y="1303.36" class="st9" width="5.3" height="51.82"/>
		<rect x="2075.52" y="1303.36" class="st9" width="5.3" height="51.82"/>
		<rect x="2042.55" y="1303.36" class="st9" width="5.3" height="51.82"/>
		<rect x="2007.7" y="1303.36" class="st9" width="5.3" height="51.82"/>
		<rect x="1954.26" y="1303.36" class="st9" width="5.3" height="51.82"/>
		<rect x="2132.02" y="1303.36" class="st9" width="5.3" height="51.82"/>
		<rect x="2143.3" y="1303.36" class="st9" width="5.3" height="51.82"/>
		<rect x="2154.19" y="1303.36" class="st9" width="5.3" height="51.82"/>
		<path class="st9" d="M2162.38,1303.36v51.82h3.31c0.68,0,1.34-0.06,1.99-0.18v-51.46c-0.65-0.12-1.31-0.18-1.99-0.18H2162.38z"/>
		<path class="st9" d="M2169.74,1304.12v50.3c2.16-0.84,4.01-2.33,5.29-4.22v-41.86
			C2173.75,1306.44,2171.91,1304.95,2169.74,1304.12z"/>
		<path class="st1" d="M2152.69,1262.82v29.26c0,2.33-0.71,4.5-1.93,6.3c-1.29,1.9-3.13,3.39-5.29,4.22
			c-0.66,0.26-1.35,0.46-2.06,0.58c-0.65,0.12-1.31,0.18-1.99,0.18h-466.12c-6.01,0-10.96-4.76-11.27-10.7
			c-0.01-0.19-0.01-0.39-0.01-0.58v-29.26c0-0.19,0.01-0.39,0.01-0.58c0.31-5.94,5.26-10.7,11.27-10.7h466.12
			c0.68,0,1.34,0.06,1.99,0.18c0.71,0.12,1.4,0.32,2.06,0.58c2.16,0.84,4.01,2.33,5.29,4.22
			C2151.98,1258.32,2152.69,1260.48,2152.69,1262.82z"/>
		<path class="st9" d="M1893.13,1251.54h-219.05c-5.36,0-9.78,4.76-10.06,10.7c-0.01,0.19-0.01,0.39-0.01,0.58v29.26
			c0,0.19,0.01,0.39,0.01,0.58c0.27,5.94,4.69,10.7,10.06,10.7h161.19v0h5.3v0h39.38v0h5.3v0h38.55
			C1904.79,1287.89,1896.63,1266.79,1893.13,1251.54z"/>
		<rect x="2090.67" y="1251.54" class="st9" width="5.3" height="51.82"/>
		<rect x="2072.74" y="1251.54" class="st9" width="5.3" height="51.82"/>
		<rect x="2051.24" y="1251.54" class="st9" width="5.3" height="51.82"/>
		<rect x="2018.28" y="1251.54" class="st9" width="5.3" height="51.82"/>
		<rect x="1983.42" y="1251.54" class="st9" width="5.3" height="51.82"/>
		<rect x="1929.98" y="1251.54" class="st9" width="5.3" height="51.82"/>
		<rect x="2107.74" y="1251.54" class="st9" width="5.3" height="51.82"/>
		<rect x="2119.02" y="1251.54" class="st9" width="5.3" height="51.82"/>
		<rect x="2129.91" y="1251.54" class="st9" width="5.3" height="51.82"/>
		<path class="st9" d="M2138.1,1251.54v51.82h3.31c0.68,0,1.34-0.06,1.99-0.18v-51.46c-0.65-0.12-1.31-0.18-1.99-0.18H2138.1z"/>
		<path class="st9" d="M2145.47,1252.3v50.3c2.16-0.84,4.01-2.33,5.29-4.22v-41.86C2149.48,1254.62,2147.63,1253.13,2145.47,1252.3z
			"/>
		<path class="st1" d="M2152.69,1210.75v29.26c0,2.33-0.71,4.5-1.93,6.3c-1.29,1.9-3.13,3.39-5.29,4.22
			c-0.66,0.26-1.35,0.46-2.06,0.58c-0.65,0.12-1.31,0.18-1.99,0.18h-466.12c-6.01,0-10.96-4.76-11.27-10.7
			c-0.01-0.19-0.01-0.39-0.01-0.58v-29.26c0-0.19,0.01-0.39,0.01-0.58c0.31-5.94,5.26-10.7,11.27-10.7h466.12
			c0.68,0,1.34,0.06,1.99,0.18c0.71,0.12,1.4,0.32,2.06,0.58c2.16,0.84,4.01,2.33,5.29,4.22
			C2151.98,1206.25,2152.69,1208.42,2152.69,1210.75z"/>
		<path class="st9" d="M1893.13,1199.47h-219.05c-5.36,0-9.78,4.76-10.06,10.7c-0.01,0.19-0.01,0.39-0.01,0.58v29.26
			c0,0.19,0.01,0.39,0.01,0.58c0.27,5.94,4.69,10.7,10.06,10.7h161.19v0h5.3v0h39.38v0h5.3v0h38.55
			C1904.79,1235.82,1896.63,1214.73,1893.13,1199.47z"/>
		<rect x="2090.67" y="1199.47" class="st9" width="5.3" height="51.82"/>
		<rect x="2072.74" y="1199.47" class="st9" width="5.3" height="51.82"/>
		<rect x="2051.24" y="1199.47" class="st9" width="5.3" height="51.82"/>
		<rect x="2018.28" y="1199.47" class="st9" width="5.3" height="51.82"/>
		<rect x="1983.42" y="1199.47" class="st9" width="5.3" height="51.82"/>
		<rect x="1929.98" y="1199.47" class="st9" width="5.3" height="51.82"/>
		<rect x="2107.74" y="1199.47" class="st9" width="5.3" height="51.82"/>
		<rect x="2119.02" y="1199.47" class="st9" width="5.3" height="51.82"/>
		<rect x="2129.91" y="1199.47" class="st9" width="5.3" height="51.82"/>
		<path class="st9" d="M2138.1,1199.47v51.82h3.31c0.68,0,1.34-0.06,1.99-0.18v-51.46c-0.65-0.12-1.31-0.18-1.99-0.18H2138.1z"/>
		<path class="st9" d="M2145.47,1200.23v50.3c2.16-0.84,4.01-2.33,5.29-4.22v-41.86
			C2149.48,1202.56,2147.63,1201.07,2145.47,1200.23z"/>
		<path class="st1" d="M2124.32,1158.68v29.26c0,2.33-0.71,4.5-1.93,6.3c-1.28,1.9-3.13,3.39-5.29,4.22
			c-0.66,0.26-1.35,0.46-2.06,0.58c-0.65,0.12-1.31,0.18-1.99,0.18h-466.12c-6.01,0-10.96-4.76-11.27-10.7
			c-0.01-0.19-0.01-0.39-0.01-0.58v-29.26c0-0.19,0.01-0.39,0.01-0.58c0.31-5.93,5.26-10.7,11.27-10.7h466.12
			c0.68,0,1.34,0.06,1.99,0.18c0.71,0.13,1.4,0.32,2.06,0.58c2.16,0.84,4.01,2.33,5.29,4.22
			C2123.61,1154.19,2124.32,1156.35,2124.32,1158.68z"/>
		<path class="st9" d="M1864.76,1147.41h-219.05c-5.36,0-9.78,4.76-10.06,10.7c-0.01,0.19-0.01,0.39-0.01,0.58v29.26
			c0,0.19,0.01,0.39,0.01,0.58c0.27,5.94,4.7,10.7,10.06,10.7h161.19v0h5.3v0h39.38v0h5.3v0h38.55
			C1876.41,1183.76,1868.26,1162.66,1864.76,1147.41z"/>
		<rect x="2062.3" y="1147.41" class="st9" width="5.3" height="51.82"/>
		<rect x="2044.37" y="1147.41" class="st9" width="5.3" height="51.82"/>
		<rect x="2022.87" y="1147.41" class="st9" width="5.3" height="51.82"/>
		<rect x="1989.9" y="1147.41" class="st9" width="5.3" height="51.82"/>
		<rect x="1955.05" y="1147.41" class="st9" width="5.3" height="51.82"/>
		<rect x="1901.61" y="1147.41" class="st9" width="5.3" height="51.82"/>
		<rect x="2079.37" y="1147.41" class="st9" width="5.3" height="51.82"/>
		<rect x="2090.65" y="1147.41" class="st9" width="5.3" height="51.82"/>
		<rect x="2101.54" y="1147.41" class="st9" width="5.3" height="51.82"/>
		<path class="st9" d="M2109.73,1147.41v51.82h3.31c0.68,0,1.34-0.06,1.99-0.18v-51.46c-0.65-0.12-1.31-0.18-1.99-0.18H2109.73z"/>
		<path class="st9" d="M2117.09,1148.17v50.3c2.16-0.84,4.01-2.33,5.29-4.22v-41.86C2121.1,1150.49,2119.26,1149,2117.09,1148.17z"
			/>
		<path class="st1" d="M2139.77,1106.62v29.26c0,2.33-0.71,4.5-1.93,6.3c-1.28,1.89-3.13,3.38-5.29,4.22
			c-0.66,0.26-1.35,0.46-2.06,0.58c-0.65,0.12-1.31,0.18-1.99,0.18h-466.12c-6.01,0-10.96-4.76-11.27-10.7
			c-0.01-0.19-0.01-0.39-0.01-0.58v-29.26c0-0.19,0.01-0.39,0.01-0.58c0.31-5.93,5.25-10.7,11.27-10.7h466.12
			c0.68,0,1.34,0.06,1.99,0.18c0.71,0.13,1.4,0.32,2.06,0.58c2.16,0.84,4.01,2.33,5.29,4.22
			C2139.06,1102.12,2139.77,1104.29,2139.77,1106.62z"/>
		<path class="st9" d="M1880.21,1095.34h-219.05c-5.36,0-9.78,4.76-10.06,10.7c-0.01,0.19-0.01,0.39-0.01,0.58v29.26
			c0,0.19,0.01,0.39,0.01,0.58c0.27,5.94,4.69,10.7,10.06,10.7h161.19v0h5.3v0h39.38v0h5.3v0h38.55
			C1891.86,1131.69,1883.71,1110.59,1880.21,1095.34z"/>
		<rect x="2077.75" y="1095.34" class="st9" width="5.3" height="51.82"/>
		<rect x="2059.82" y="1095.34" class="st9" width="5.3" height="51.82"/>
		<rect x="2038.31" y="1095.34" class="st9" width="5.3" height="51.82"/>
		<rect x="2005.35" y="1095.34" class="st9" width="5.3" height="51.82"/>
		<rect x="1970.49" y="1095.34" class="st9" width="5.3" height="51.82"/>
		<rect x="1917.06" y="1095.34" class="st9" width="5.3" height="51.82"/>
		<rect x="2094.82" y="1095.34" class="st9" width="5.3" height="51.82"/>
		<rect x="2106.1" y="1095.34" class="st9" width="5.3" height="51.82"/>
		<rect x="2116.99" y="1095.34" class="st9" width="5.3" height="51.82"/>
		<path class="st9" d="M2125.18,1095.34v51.82h3.31c0.68,0,1.34-0.06,1.99-0.18v-51.46c-0.65-0.12-1.31-0.18-1.99-0.18H2125.18z"/>
		<path class="st9" d="M2132.54,1096.1v50.3c2.16-0.84,4.01-2.33,5.29-4.22v-41.86C2136.55,1098.42,2134.71,1096.93,2132.54,1096.1z
			"/>
		<path class="st1" d="M2173.93,1054.8v29.26c0,2.33-0.71,4.5-1.93,6.3c-1.28,1.89-3.13,3.38-5.29,4.22
			c-0.66,0.26-1.35,0.46-2.06,0.58c-0.65,0.12-1.31,0.18-1.99,0.18h-466.12c-6.01,0-10.96-4.76-11.27-10.7
			c-0.01-0.19-0.01-0.39-0.01-0.58v-29.26c0-0.19,0.01-0.39,0.01-0.58c0.31-5.94,5.26-10.7,11.27-10.7h466.12
			c0.68,0,1.34,0.06,1.99,0.18c0.71,0.12,1.4,0.32,2.06,0.58c2.16,0.84,4.01,2.33,5.29,4.22
			C2173.21,1050.3,2173.93,1052.47,2173.93,1054.8z"/>
		<path class="st9" d="M1914.37,1043.52h-219.05c-5.36,0-9.78,4.76-10.06,10.7c-0.01,0.19-0.01,0.39-0.01,0.58v29.26
			c0,0.19,0.01,0.39,0.01,0.58c0.27,5.94,4.7,10.7,10.06,10.7h161.19v0h5.3v0h39.38v0h5.3v0h38.55
			C1926.02,1079.87,1917.87,1058.78,1914.37,1043.52z"/>
		<rect x="2111.91" y="1043.52" class="st9" width="5.3" height="51.82"/>
		<rect x="2093.98" y="1043.52" class="st9" width="5.3" height="51.82"/>
		<rect x="2072.47" y="1043.52" class="st9" width="5.3" height="51.82"/>
		<rect x="2039.51" y="1043.52" class="st9" width="5.3" height="51.82"/>
		<rect x="2004.65" y="1043.52" class="st9" width="5.3" height="51.82"/>
		<rect x="1951.22" y="1043.52" class="st9" width="5.3" height="51.82"/>
		<rect x="2128.98" y="1043.52" class="st9" width="5.3" height="51.82"/>
		<rect x="2140.26" y="1043.52" class="st9" width="5.3" height="51.82"/>
		<rect x="2151.15" y="1043.52" class="st9" width="5.3" height="51.82"/>
		<path class="st9" d="M2159.34,1043.52v51.82h3.31c0.68,0,1.34-0.06,1.99-0.18v-51.46c-0.65-0.12-1.31-0.18-1.99-0.18H2159.34z"/>
		<path class="st9" d="M2166.7,1044.28v50.3c2.16-0.84,4.01-2.33,5.29-4.22v-41.86C2170.71,1046.61,2168.86,1045.12,2166.7,1044.28z
			"/>
		<path class="st1" d="M2152.69,1002.98v29.26c0,2.33-0.71,4.5-1.93,6.3c-1.29,1.9-3.13,3.39-5.29,4.22
			c-0.66,0.26-1.35,0.46-2.06,0.58c-0.65,0.12-1.31,0.18-1.99,0.18h-466.12c-6.01,0-10.96-4.76-11.27-10.7
			c-0.01-0.19-0.01-0.39-0.01-0.58v-29.26c0-0.19,0.01-0.39,0.01-0.58c0.31-5.94,5.26-10.7,11.27-10.7h466.12
			c0.68,0,1.34,0.06,1.99,0.18c0.71,0.12,1.4,0.32,2.06,0.58c2.16,0.84,4.01,2.33,5.29,4.22
			C2151.98,998.48,2152.69,1000.65,2152.69,1002.98z"/>
		<path class="st9" d="M1893.13,991.7h-219.05c-5.36,0-9.78,4.76-10.06,10.7c-0.01,0.19-0.01,0.39-0.01,0.58v29.26
			c0,0.19,0.01,0.39,0.01,0.58c0.27,5.94,4.69,10.7,10.06,10.7h161.19v0h5.3v0h39.38v0h5.3v0h38.55
			C1904.79,1028.05,1896.63,1006.96,1893.13,991.7z"/>
		<rect x="2090.67" y="991.7" class="st9" width="5.3" height="51.82"/>
		<rect x="2072.74" y="991.7" class="st9" width="5.3" height="51.82"/>
		<rect x="2051.24" y="991.7" class="st9" width="5.3" height="51.82"/>
		<rect x="2018.28" y="991.7" class="st9" width="5.3" height="51.82"/>
		<rect x="1983.42" y="991.7" class="st9" width="5.3" height="51.82"/>
		<rect x="1929.98" y="991.7" class="st9" width="5.3" height="51.82"/>
		<rect x="2107.74" y="991.7" class="st9" width="5.3" height="51.82"/>
		<rect x="2119.02" y="991.7" class="st9" width="5.3" height="51.82"/>
		<rect x="2129.91" y="991.7" class="st9" width="5.3" height="51.82"/>
		<path class="st9" d="M2138.1,991.7v51.82h3.31c0.68,0,1.34-0.06,1.99-0.18v-51.46c-0.65-0.12-1.31-0.18-1.99-0.18H2138.1z"/>
		<path class="st9" d="M2145.47,992.46v50.3c2.16-0.84,4.01-2.33,5.29-4.22v-41.86C2149.48,994.79,2147.63,993.29,2145.47,992.46z"
			/>
		<path class="st1" d="M2176.97,950.91v29.26c0,2.33-0.71,4.5-1.93,6.3c-1.29,1.9-3.13,3.38-5.29,4.22
			c-0.66,0.26-1.35,0.46-2.06,0.58c-0.65,0.12-1.31,0.18-1.99,0.18h-466.12c-6.01,0-10.96-4.76-11.27-10.7
			c-0.01-0.19-0.01-0.39-0.01-0.58v-29.26c0-0.19,0.01-0.39,0.01-0.58c0.31-5.94,5.26-10.7,11.27-10.7h466.12
			c0.68,0,1.34,0.06,1.99,0.18c0.71,0.12,1.4,0.32,2.06,0.58c2.16,0.84,4.01,2.33,5.29,4.22
			C2176.26,946.42,2176.97,948.58,2176.97,950.91z"/>
		<path class="st9" d="M1917.41,939.63h-219.05c-5.36,0-9.78,4.76-10.06,10.7c-0.01,0.19-0.01,0.39-0.01,0.58v29.26
			c0,0.19,0.01,0.39,0.01,0.58c0.27,5.93,4.69,10.7,10.06,10.7h161.19v0h5.3v0h39.38v0h5.3v0h38.55
			C1929.07,975.99,1920.91,954.89,1917.41,939.63z"/>
		<rect x="2114.95" y="939.64" class="st9" width="5.3" height="51.82"/>
		<rect x="2097.02" y="939.64" class="st9" width="5.3" height="51.82"/>
		<rect x="2075.52" y="939.64" class="st9" width="5.3" height="51.82"/>
		<rect x="2042.55" y="939.64" class="st9" width="5.3" height="51.82"/>
		<rect x="2007.7" y="939.64" class="st9" width="5.3" height="51.82"/>
		<rect x="1954.26" y="939.64" class="st9" width="5.3" height="51.82"/>
		<rect x="2132.02" y="939.64" class="st9" width="5.3" height="51.82"/>
		<rect x="2143.3" y="939.64" class="st9" width="5.3" height="51.82"/>
		<rect x="2154.19" y="939.64" class="st9" width="5.3" height="51.82"/>
		<path class="st9" d="M2162.38,939.63v51.82h3.31c0.68,0,1.34-0.06,1.99-0.18v-51.46c-0.65-0.12-1.31-0.18-1.99-0.18H2162.38z"/>
		<path class="st9" d="M2169.74,940.4v50.3c2.16-0.84,4.01-2.32,5.29-4.22v-41.86C2173.75,942.72,2171.91,941.23,2169.74,940.4z"/>
		<path class="st1" d="M2152.69,899.09v29.26c0,2.33-0.71,4.49-1.93,6.3c-1.29,1.9-3.13,3.38-5.29,4.22
			c-0.66,0.26-1.35,0.45-2.06,0.58c-0.65,0.12-1.31,0.18-1.99,0.18h-466.12c-6.01,0-10.96-4.76-11.27-10.7
			c-0.01-0.19-0.01-0.39-0.01-0.58v-29.26c0-0.19,0.01-0.39,0.01-0.58c0.31-5.94,5.26-10.7,11.27-10.7h466.12
			c0.68,0,1.34,0.06,1.99,0.18c0.71,0.12,1.4,0.32,2.06,0.58c2.16,0.84,4.01,2.33,5.29,4.22
			C2151.98,894.6,2152.69,896.76,2152.69,899.09z"/>
		<path class="st9" d="M1893.13,887.82h-219.05c-5.36,0-9.78,4.76-10.06,10.7c-0.01,0.19-0.01,0.39-0.01,0.58v29.26
			c0,0.19,0.01,0.39,0.01,0.58c0.27,5.93,4.69,10.7,10.06,10.7h161.19v0h5.3v0h39.38v0h5.3v0h38.55
			C1904.79,924.17,1896.63,903.07,1893.13,887.82z"/>
		<rect x="2090.67" y="887.82" class="st9" width="5.3" height="51.82"/>
		<rect x="2072.74" y="887.82" class="st9" width="5.3" height="51.82"/>
		<rect x="2051.24" y="887.82" class="st9" width="5.3" height="51.82"/>
		<rect x="2018.28" y="887.82" class="st9" width="5.3" height="51.82"/>
		<rect x="1983.42" y="887.82" class="st9" width="5.3" height="51.82"/>
		<rect x="1929.98" y="887.82" class="st9" width="5.3" height="51.82"/>
		<rect x="2107.74" y="887.82" class="st9" width="5.3" height="51.82"/>
		<rect x="2119.02" y="887.82" class="st9" width="5.3" height="51.82"/>
		<rect x="2129.91" y="887.82" class="st9" width="5.3" height="51.82"/>
		<path class="st9" d="M2138.1,887.82v51.82h3.31c0.68,0,1.34-0.06,1.99-0.18V888c-0.65-0.12-1.31-0.18-1.99-0.18H2138.1z"/>
		<path class="st9" d="M2145.47,888.58v50.3c2.16-0.84,4.01-2.33,5.29-4.22V892.8C2149.48,890.9,2147.63,889.41,2145.47,888.58z"/>
		<path class="st1" d="M2152.69,847.03v29.26c0,2.33-0.71,4.5-1.93,6.3c-1.29,1.9-3.13,3.39-5.29,4.22
			c-0.66,0.26-1.35,0.46-2.06,0.58c-0.65,0.12-1.31,0.18-1.99,0.18h-466.12c-6.01,0-10.96-4.76-11.27-10.7
			c-0.01-0.19-0.01-0.39-0.01-0.58v-29.26c0-0.19,0.01-0.39,0.01-0.58c0.31-5.94,5.26-10.7,11.27-10.7h466.12
			c0.68,0,1.34,0.06,1.99,0.18c0.71,0.12,1.4,0.32,2.06,0.58c2.16,0.84,4.01,2.33,5.29,4.22
			C2151.98,842.53,2152.69,844.7,2152.69,847.03z"/>
		<path class="st9" d="M1893.13,835.75h-219.05c-5.36,0-9.78,4.76-10.06,10.7c-0.01,0.19-0.01,0.39-0.01,0.58v29.26
			c0,0.19,0.01,0.39,0.01,0.58c0.27,5.94,4.69,10.7,10.06,10.7h161.19v0h5.3v0h39.38v0h5.3v0h38.55
			C1904.79,872.1,1896.63,851,1893.13,835.75z"/>
		<rect x="2090.67" y="835.75" class="st9" width="5.3" height="51.82"/>
		<rect x="2072.74" y="835.75" class="st9" width="5.3" height="51.82"/>
		<rect x="2051.24" y="835.75" class="st9" width="5.3" height="51.82"/>
		<rect x="2018.28" y="835.75" class="st9" width="5.3" height="51.82"/>
		<rect x="1983.42" y="835.75" class="st9" width="5.3" height="51.82"/>
		<rect x="1929.98" y="835.75" class="st9" width="5.3" height="51.82"/>
		<rect x="2107.74" y="835.75" class="st9" width="5.3" height="51.82"/>
		<rect x="2119.02" y="835.75" class="st9" width="5.3" height="51.82"/>
		<rect x="2129.91" y="835.75" class="st9" width="5.3" height="51.82"/>
		<path class="st9" d="M2138.1,835.75v51.82h3.31c0.68,0,1.34-0.06,1.99-0.18v-51.46c-0.65-0.12-1.31-0.18-1.99-0.18H2138.1z"/>
		<path class="st9" d="M2145.47,836.51v50.3c2.16-0.84,4.01-2.33,5.29-4.22v-41.86C2149.48,838.84,2147.63,837.35,2145.47,836.51z"
			/>
		<path class="st1" d="M2124.32,794.96v29.26c0,2.33-0.71,4.5-1.93,6.3c-1.28,1.9-3.13,3.39-5.29,4.22
			c-0.66,0.26-1.35,0.46-2.06,0.58c-0.65,0.12-1.31,0.18-1.99,0.18h-466.12c-6.01,0-10.96-4.76-11.27-10.7
			c-0.01-0.19-0.01-0.39-0.01-0.58v-29.26c0-0.19,0.01-0.39,0.01-0.58c0.31-5.94,5.26-10.7,11.27-10.7h466.12
			c0.68,0,1.34,0.06,1.99,0.18c0.71,0.12,1.4,0.32,2.06,0.58c2.16,0.84,4.01,2.33,5.29,4.22
			C2123.61,790.47,2124.32,792.63,2124.32,794.96z"/>
		<path class="st9" d="M1864.76,783.68h-219.05c-5.36,0-9.78,4.76-10.06,10.7c-0.01,0.19-0.01,0.39-0.01,0.58v29.26
			c0,0.19,0.01,0.39,0.01,0.58c0.27,5.94,4.7,10.7,10.06,10.7h161.19v0h5.3v0h39.38v0h5.3v0h38.55
			C1876.41,820.04,1868.26,798.94,1864.76,783.68z"/>
		<rect x="2062.3" y="783.69" class="st9" width="5.3" height="51.82"/>
		<rect x="2044.37" y="783.69" class="st9" width="5.3" height="51.82"/>
		<rect x="2022.87" y="783.69" class="st9" width="5.3" height="51.82"/>
		<rect x="1989.9" y="783.69" class="st9" width="5.3" height="51.82"/>
		<rect x="1955.05" y="783.69" class="st9" width="5.3" height="51.82"/>
		<rect x="1901.61" y="783.69" class="st9" width="5.3" height="51.82"/>
		<rect x="2079.37" y="783.69" class="st9" width="5.3" height="51.82"/>
		<rect x="2090.65" y="783.69" class="st9" width="5.3" height="51.82"/>
		<rect x="2101.54" y="783.69" class="st9" width="5.3" height="51.82"/>
		<path class="st9" d="M2109.73,783.68v51.82h3.31c0.68,0,1.34-0.06,1.99-0.18v-51.46c-0.65-0.12-1.31-0.18-1.99-0.18H2109.73z"/>
		<path class="st9" d="M2117.09,784.44v50.3c2.16-0.84,4.01-2.33,5.29-4.22v-41.86C2121.1,786.77,2119.26,785.28,2117.09,784.44z"/>
		<path class="st1" d="M2139.77,742.89v29.26c0,2.33-0.71,4.5-1.93,6.3c-1.28,1.9-3.13,3.39-5.29,4.22
			c-0.66,0.26-1.35,0.46-2.06,0.58c-0.65,0.12-1.31,0.18-1.99,0.18h-466.12c-6.01,0-10.96-4.76-11.27-10.7
			c-0.01-0.19-0.01-0.39-0.01-0.58v-29.26c0-0.19,0.01-0.39,0.01-0.58c0.31-5.93,5.25-10.7,11.27-10.7h466.12
			c0.68,0,1.34,0.06,1.99,0.18c0.71,0.12,1.4,0.32,2.06,0.58c2.16,0.84,4.01,2.33,5.29,4.22
			C2139.06,738.4,2139.77,740.56,2139.77,742.89z"/>
		<path class="st9" d="M1880.21,731.62h-219.05c-5.36,0-9.78,4.76-10.06,10.7c-0.01,0.19-0.01,0.39-0.01,0.58v29.26
			c0,0.19,0.01,0.39,0.01,0.58c0.27,5.94,4.69,10.7,10.06,10.7h161.19v0h5.3v0h39.38v0h5.3v0h38.55
			C1891.86,767.97,1883.71,746.87,1880.21,731.62z"/>
		<rect x="2077.75" y="731.62" class="st9" width="5.3" height="51.82"/>
		<rect x="2059.82" y="731.62" class="st9" width="5.3" height="51.82"/>
		<rect x="2038.31" y="731.62" class="st9" width="5.3" height="51.82"/>
		<rect x="2005.35" y="731.62" class="st9" width="5.3" height="51.82"/>
		<rect x="1970.49" y="731.62" class="st9" width="5.3" height="51.82"/>
		<rect x="1917.06" y="731.62" class="st9" width="5.3" height="51.82"/>
		<rect x="2094.82" y="731.62" class="st9" width="5.3" height="51.82"/>
		<rect x="2106.1" y="731.62" class="st9" width="5.3" height="51.82"/>
		<rect x="2116.99" y="731.62" class="st9" width="5.3" height="51.82"/>
		<path class="st9" d="M2125.18,731.62v51.82h3.31c0.68,0,1.34-0.06,1.99-0.18V731.8c-0.65-0.12-1.31-0.18-1.99-0.18H2125.18z"/>
		<path class="st9" d="M2132.54,732.38v50.3c2.16-0.84,4.01-2.33,5.29-4.22V736.6C2136.55,734.7,2134.71,733.21,2132.54,732.38z"/>
	</g>
	<g>
		<polygon class="st12" points="1466.91,1279.9 925.65,1454.29 693.18,732.7 693.18,732.68 595.22,428.64 1136.47,254.27 
			1319.37,821.96 		"/>
		<path class="st13" d="M1466.91,1279.9l-541.26,174.39L693.18,732.7c0,0,279.84,180.89,626.2,89.27L1466.91,1279.9z"/>
		<g>
			<path class="st14" d="M1387.5,1240.76l-420.21,135.38l-297-921.87l420.21-135.38L1387.5,1240.76z M1014.73,1346.73l316.9-102.1
				c21.51-6.93,33.33-29.99,26.4-51.5l-263.43-817.66c-7.06-21.9-30.53-33.93-52.42-26.88L726.54,450.29
				c-21.72,7-33.65,30.27-26.65,51.99l263.6,818.19C970.38,1341.87,993.32,1353.63,1014.73,1346.73z"/>
		</g>
		<path class="st14" d="M915.83,883.95c-20.12-62.44,14.19-129.36,76.63-149.48c62.44-20.12,129.36,14.19,149.48,76.63
			c20.12,62.44-14.19,129.36-76.63,149.48C1002.87,980.69,935.95,946.38,915.83,883.95z"/>
	</g>
	<g>
		<g>
			<path class="st7" d="M1506.89,580.21c-152.27,0-276.73,121.42-281.61,272.52c-0.01,0.26-0.01,0.51-0.03,0.77
				c3.69-0.51,7.45-0.77,11.3-0.77h30.32c4.88-128.2,110.68-230.94,240.02-230.94c129.37,0,235.15,102.74,240.03,230.94h41.58
				C1783.61,701.62,1659.17,580.21,1506.89,580.21z"/>
		</g>
		<path class="st7" d="M1724.54,1455.56h-567.37c-33.97,0-60.8-28.79-58.43-62.67l7.51-107.04l3.52-50.3l23-328.36
			c2.15-30.68,27.67-54.47,58.43-54.47h494.18c30.52,0,55.93,23.43,58.38,53.86l39.16,485.69
			C1785.68,1426.37,1758.75,1455.56,1724.54,1455.56z"/>
		<path class="st5" d="M1847.73,1455.55h-567.38c-33.96,0-60.8-28.79-58.43-62.67l34.04-485.69c2.15-30.69,27.67-54.48,58.43-54.48
			h494.18c30.52,0,55.93,23.44,58.38,53.86l39.16,485.69C1908.86,1426.37,1881.94,1455.55,1847.73,1455.55z"/>
		<g>
			<path class="st15" d="M1653.96,1205.34c0,46.35-37.57,83.92-83.92,83.92c-4.45,0-8.82-0.35-13.09-1.02
				c-40.13-6.28-70.83-41-70.83-82.9c0-36.65,23.5-67.8,56.25-79.24V978.09c0-9.39,6.13-17.43,14.58-20.29
				c2.15-0.74,4.45-1.14,6.84-1.14h12.5c11.78,0,21.42,9.65,21.42,21.43v148.01C1630.46,1137.54,1653.96,1168.69,1653.96,1205.34z"
				/>
			<path class="st16" d="M1627.79,1205.34c0,41.9-30.7,76.62-70.83,82.9c-40.13-6.28-70.83-41-70.83-82.9
				c0-36.65,23.5-67.8,56.25-79.24V978.09c0-9.39,6.13-17.43,14.58-20.29c8.45,2.86,14.58,10.9,14.58,20.29v148.01
				C1604.29,1137.54,1627.79,1168.69,1627.79,1205.34z"/>
		</g>
	</g>
	<g>
		<g>
			<g>
				<path class="st17" d="M2793.44,1423.45v25.7c0,2.05-0.74,3.95-2.02,5.53c-1.34,1.66-3.27,2.97-5.54,3.71
					c-0.69,0.23-1.42,0.4-2.16,0.51c-0.68,0.1-1.37,0.16-2.08,0.16h-487.53c-6.29,0-11.46-4.18-11.78-9.4
					c-0.01-0.17-0.01-0.34-0.01-0.51v-25.7c0-0.17,0.01-0.34,0.01-0.51c0.32-5.21,5.5-9.4,11.78-9.4h487.53
					c0.71,0,1.4,0.06,2.08,0.16c0.74,0.11,1.47,0.28,2.16,0.51c2.26,0.73,4.19,2.04,5.54,3.71
					C2792.7,1419.5,2793.44,1421.4,2793.44,1423.45z"/>
				<path class="st18" d="M2554.04,1459.06h-261.19c-5.61,0-10.23-4.18-10.52-9.4c-0.01-0.17-0.01-0.34-0.01-0.51v-25.7
					c0-0.17,0.01-0.34,0.01-0.51c0.29-5.21,4.91-9.4,10.52-9.4h229.11C2525.62,1426.95,2534.15,1445.48,2554.04,1459.06z"/>
				<g>
					<rect x="2728.58" y="1413.55" class="st18" width="5.54" height="45.51"/>
					<rect x="2709.82" y="1413.55" class="st18" width="5.54" height="45.51"/>
					<rect x="2687.33" y="1413.55" class="st18" width="5.54" height="45.51"/>
					<rect x="2652.85" y="1413.55" class="st18" width="5.54" height="45.51"/>
					<rect x="2616.4" y="1413.55" class="st18" width="5.54" height="45.51"/>
					<rect x="2560.51" y="1413.55" class="st18" width="5.54" height="45.51"/>
					<rect x="2508.17" y="1413.55" class="st18" width="5.54" height="45.51"/>
					<rect x="2461.45" y="1413.55" class="st18" width="5.54" height="45.51"/>
					<rect x="2746.43" y="1413.55" class="st18" width="5.54" height="45.51"/>
					<rect x="2758.23" y="1413.55" class="st18" width="5.54" height="45.51"/>
					<rect x="2769.62" y="1413.55" class="st18" width="5.54" height="45.51"/>
					<path class="st18" d="M2783.73,1413.71v45.2c-0.68,0.1-1.37,0.16-2.08,0.16h-3.46v-45.51h3.46
						C2782.36,1413.55,2783.05,1413.6,2783.73,1413.71z"/>
					<path class="st18" d="M2791.42,1417.92v36.76c-1.34,1.66-3.27,2.97-5.54,3.71v-44.18
						C2788.15,1414.95,2790.08,1416.26,2791.42,1417.92z"/>
				</g>
			</g>
			<g>
				<path class="st17" d="M2741.32,1377.94v25.7c0,2.05-0.74,3.95-2.02,5.53c-1.34,1.67-3.27,2.97-5.54,3.71
					c-0.69,0.23-1.42,0.4-2.16,0.51c-0.68,0.1-1.37,0.16-2.08,0.16h-487.54c-6.28,0-11.46-4.18-11.78-9.4
					c-0.01-0.17-0.01-0.34-0.01-0.51v-25.7c0-0.17,0.01-0.34,0.01-0.51c0.32-5.21,5.5-9.4,11.78-9.4h487.54
					c0.31,0,0.63,0.01,0.93,0.03c0.13,0.01,0.27,0.02,0.4,0.03c0.14,0.01,0.29,0.03,0.44,0.05c0.11,0.01,0.21,0.03,0.31,0.04
					c0.74,0.11,1.47,0.28,2.16,0.51c0.1,0.03,0.2,0.07,0.31,0.1c0.1,0.03,0.2,0.07,0.3,0.11c0.2,0.08,0.4,0.16,0.59,0.24
					c0.11,0.05,0.23,0.1,0.34,0.16c0.1,0.05,0.2,0.09,0.3,0.15c0.19,0.09,0.37,0.19,0.55,0.3c0.21,0.12,0.41,0.25,0.61,0.38
					c0.16,0.1,0.31,0.2,0.46,0.31c0.01,0.01,0.02,0.01,0.03,0.02c0.1,0.07,0.2,0.15,0.3,0.22c0.3,0.23,0.59,0.48,0.86,0.74
					c0.08,0.08,0.16,0.15,0.23,0.23c0.08,0.08,0.15,0.16,0.23,0.24c0.15,0.16,0.3,0.33,0.44,0.5
					C2740.57,1373.99,2741.32,1375.89,2741.32,1377.94z"/>
				<path class="st18" d="M2501.91,1413.55h-261.19c-5.61,0-10.23-4.18-10.52-9.4c-0.01-0.17-0.01-0.34-0.01-0.51v-25.7
					c0-0.17,0.01-0.34,0.01-0.51c0.29-5.21,4.9-9.4,10.52-9.4h229.11c0.1,0.37,0.21,0.75,0.32,1.12
					C2473.98,1382.45,2482.57,1400.34,2501.91,1413.55z"/>
				<g>
					<rect x="2676.45" y="1368.03" class="st18" width="5.54" height="45.51"/>
					<rect x="2657.7" y="1368.03" class="st18" width="5.54" height="45.51"/>
					<rect x="2635.2" y="1368.03" class="st18" width="5.54" height="45.51"/>
					<rect x="2600.73" y="1368.03" class="st18" width="5.54" height="45.51"/>
					<rect x="2564.27" y="1368.03" class="st18" width="5.54" height="45.51"/>
					<rect x="2508.38" y="1368.03" class="st18" width="5.54" height="45.51"/>
					<rect x="2456.05" y="1368.03" class="st18" width="5.54" height="45.51"/>
					<rect x="2409.32" y="1368.03" class="st18" width="5.54" height="45.51"/>
					<rect x="2694.31" y="1368.03" class="st18" width="5.54" height="45.51"/>
					<rect x="2706.1" y="1368.03" class="st18" width="5.54" height="45.51"/>
					<rect x="2717.49" y="1368.03" class="st18" width="5.54" height="45.51"/>
					<path class="st18" d="M2731.6,1368.19v45.2c-0.68,0.1-1.37,0.16-2.08,0.16h-3.46v-45.51h3.46
						C2730.23,1368.03,2730.92,1368.09,2731.6,1368.19z"/>
					<path class="st18" d="M2739.29,1372.41v36.76c-1.34,1.67-3.27,2.97-5.54,3.71v-44.18
						C2736.02,1369.43,2737.95,1370.74,2739.29,1372.41z"/>
				</g>
			</g>
			<g>
				<path class="st17" d="M2766.51,1333.55v25.7c0,2.05-0.74,3.95-2.02,5.53c-1.34,1.67-3.27,2.97-5.54,3.71
					c-0.69,0.23-1.41,0.4-2.16,0.51c-0.68,0.1-1.37,0.16-2.08,0.16h-487.54c-1.96,0-3.81-0.41-5.44-1.12
					c-3.45-1.52-5.91-4.43-6.31-7.83c-0.02-0.15-0.03-0.3-0.04-0.44c-0.01-0.17-0.01-0.34-0.01-0.51v-25.7
					c0-0.17,0.01-0.34,0.01-0.51c0.32-5.21,5.5-9.4,11.78-9.4h487.54c0.71,0,1.4,0.05,2.08,0.16c0.74,0.11,1.47,0.28,2.16,0.51
					c2.26,0.73,4.19,2.04,5.54,3.71C2765.76,1329.6,2766.51,1331.5,2766.51,1333.55z"/>
				<path class="st18" d="M2527.1,1369.15h-261.19c-1.75,0-3.4-0.41-4.85-1.12c-3.08-1.52-5.28-4.43-5.63-7.83
					c-0.02-0.15-0.03-0.3-0.04-0.44c-0.01-0.17-0.01-0.34-0.01-0.51v-25.7c0-0.17,0.01-0.34,0.01-0.51c0.29-5.21,4.91-9.4,10.52-9.4
					h229.12c3.56,13.03,11.72,30.92,30.47,44.39C2526.03,1368.41,2526.56,1368.78,2527.1,1369.15z"/>
				<g>
					<rect x="2701.64" y="1323.64" class="st18" width="5.54" height="45.51"/>
					<rect x="2682.89" y="1323.64" class="st18" width="5.54" height="45.51"/>
					<rect x="2660.39" y="1323.64" class="st18" width="5.54" height="45.51"/>
					<rect x="2625.92" y="1323.64" class="st18" width="5.54" height="45.51"/>
					<rect x="2589.46" y="1323.64" class="st18" width="5.54" height="45.51"/>
					<rect x="2533.57" y="1323.64" class="st18" width="5.54" height="45.51"/>
					<rect x="2481.24" y="1323.64" class="st18" width="5.54" height="45.51"/>
					<rect x="2434.51" y="1323.64" class="st18" width="5.54" height="45.51"/>
					<rect x="2719.5" y="1323.64" class="st18" width="5.54" height="45.51"/>
					<rect x="2731.29" y="1323.64" class="st18" width="5.54" height="45.51"/>
					<rect x="2742.68" y="1323.64" class="st18" width="5.54" height="45.51"/>
					<path class="st18" d="M2756.79,1323.8v45.2c-0.68,0.1-1.37,0.16-2.08,0.16h-3.46v-45.51h3.46
						C2755.42,1323.64,2756.11,1323.69,2756.79,1323.8z"/>
					<path class="st18" d="M2764.49,1328.01v36.76c-1.34,1.66-3.27,2.97-5.54,3.71v-44.18
						C2761.21,1325.04,2763.14,1326.35,2764.49,1328.01z"/>
				</g>
			</g>
			<g>
				<path class="st17" d="M2778.19,1288.03v25.7c0,2.05-0.74,3.95-2.02,5.53c-1.34,1.66-3.27,2.97-5.54,3.71
					c-0.69,0.23-1.41,0.4-2.16,0.51c-0.68,0.1-1.37,0.16-2.08,0.16h-487.53c-6.29,0-11.46-4.18-11.78-9.4
					c-0.01-0.17-0.01-0.34-0.01-0.51v-25.7c0-0.17,0.01-0.34,0.01-0.51c0.29-4.82,4.75-8.76,10.39-9.32
					c0.46-0.05,0.92-0.07,1.4-0.07h487.53c0.71,0,1.4,0.06,2.08,0.16c0.74,0.11,1.47,0.28,2.16,0.51c2.26,0.73,4.19,2.04,5.54,3.71
					C2777.44,1284.08,2778.19,1285.98,2778.19,1288.03z"/>
				<path class="st18" d="M2538.78,1323.64h-261.19c-5.61,0-10.23-4.18-10.52-9.4c-0.01-0.17-0.01-0.34-0.01-0.51v-25.7
					c0-0.17,0.01-0.34,0.01-0.51c0.26-4.82,4.24-8.76,9.27-9.32c0.4-0.05,0.82-0.07,1.25-0.07h229.12c0.01,0.02,0.01,0.05,0.02,0.07
					C2510.4,1291.59,2518.92,1310.08,2538.78,1323.64z"/>
				<g>
					<rect x="2713.32" y="1278.13" class="st18" width="5.54" height="45.51"/>
					<rect x="2694.56" y="1278.13" class="st18" width="5.54" height="45.51"/>
					<rect x="2672.07" y="1278.13" class="st18" width="5.54" height="45.51"/>
					<rect x="2637.59" y="1278.13" class="st18" width="5.54" height="45.51"/>
					<rect x="2601.14" y="1278.13" class="st18" width="5.54" height="45.51"/>
					<rect x="2545.25" y="1278.13" class="st18" width="5.54" height="45.51"/>
					<rect x="2492.92" y="1278.13" class="st18" width="5.54" height="45.51"/>
					<rect x="2446.19" y="1278.13" class="st18" width="5.54" height="45.51"/>
					<rect x="2731.17" y="1278.13" class="st18" width="5.54" height="45.51"/>
					<rect x="2742.97" y="1278.13" class="st18" width="5.54" height="45.51"/>
					<rect x="2754.36" y="1278.13" class="st18" width="5.54" height="45.51"/>
					<path class="st18" d="M2768.47,1278.28v45.2c-0.68,0.1-1.37,0.16-2.08,0.16h-3.46v-45.52h3.46
						C2767.1,1278.12,2767.79,1278.18,2768.47,1278.28z"/>
					<path class="st18" d="M2776.16,1282.5v36.76c-1.34,1.67-3.27,2.97-5.54,3.71v-44.18
						C2772.89,1279.53,2774.82,1280.84,2776.16,1282.5z"/>
				</g>
			</g>
			<g>
				<path class="st17" d="M2742.34,1242.59v25.7c0,2.05-0.74,3.95-2.02,5.53c-1.34,1.67-3.27,2.97-5.54,3.71
					c-0.69,0.23-1.42,0.4-2.16,0.51c-0.23,0.03-0.46,0.07-0.68,0.09c-0.12,0.01-0.26,0.02-0.38,0.03c-0.12,0.01-0.25,0.02-0.38,0.02
					c-0.21,0.01-0.42,0.02-0.63,0.02h-487.53c-6.28,0-11.46-4.18-11.78-9.4c-0.01-0.17-0.01-0.34-0.01-0.51v-25.7
					c0-0.17,0.01-0.34,0.01-0.51c0.01-0.14,0.02-0.28,0.03-0.42c0.47-4.19,4.1-7.65,8.84-8.67c0.12-0.03,0.24-0.05,0.36-0.07
					c0.82-0.15,1.68-0.24,2.55-0.24h487.53c0.36,0,0.71,0.02,1.06,0.04c0.16,0.02,0.31,0.03,0.47,0.04h0.01
					c0.18,0.02,0.36,0.05,0.55,0.08c0.74,0.11,1.47,0.28,2.16,0.51c2.26,0.73,4.19,2.04,5.54,3.71
					C2741.6,1238.64,2742.34,1240.54,2742.34,1242.59z"/>
				<path class="st18" d="M2502.94,1278.2h-261.19c-5.61,0-10.23-4.18-10.52-9.4c-0.01-0.17-0.01-0.34-0.01-0.51v-25.7
					c0-0.17,0.01-0.34,0.01-0.51c0.01-0.14,0.02-0.28,0.03-0.42c0.42-4.29,3.79-7.8,8.17-8.73c0.15-0.04,0.3-0.07,0.45-0.09
					c0.61-0.1,1.23-0.16,1.87-0.16h229.11c0.03,0.11,0.06,0.21,0.09,0.32c3.7,13.35,12.23,31.65,31.88,45.12
					C2502.86,1278.15,2502.9,1278.17,2502.94,1278.2z"/>
				<g>
					<rect x="2677.48" y="1232.68" class="st18" width="5.54" height="45.51"/>
					<rect x="2658.72" y="1232.68" class="st18" width="5.54" height="45.51"/>
					<rect x="2636.23" y="1232.68" class="st18" width="5.54" height="45.51"/>
					<rect x="2601.75" y="1232.68" class="st18" width="5.54" height="45.51"/>
					<rect x="2565.29" y="1232.68" class="st18" width="5.54" height="45.51"/>
					<rect x="2509.4" y="1232.68" class="st18" width="5.54" height="45.51"/>
					<rect x="2457.07" y="1232.68" class="st18" width="5.54" height="45.51"/>
					<rect x="2410.34" y="1232.68" class="st18" width="5.54" height="45.51"/>
					<rect x="2695.33" y="1232.68" class="st18" width="5.54" height="45.51"/>
					<rect x="2707.12" y="1232.68" class="st18" width="5.54" height="45.51"/>
					<rect x="2718.51" y="1232.68" class="st18" width="5.54" height="45.51"/>
					<path class="st18" d="M2732.63,1232.84v45.2c-0.68,0.1-1.37,0.16-2.08,0.16h-3.46v-45.51h3.46
						C2731.26,1232.68,2731.95,1232.74,2732.63,1232.84z"/>
					<path class="st18" d="M2740.32,1237.06v36.76c-1.34,1.66-3.27,2.97-5.54,3.71v-44.18
						C2737.05,1234.08,2738.98,1235.39,2740.32,1237.06z"/>
				</g>
			</g>
			<g>
				<path class="st17" d="M2741.32,1197.4v25.7c0,2.05-0.74,3.95-2.02,5.53c-1.34,1.66-3.27,2.97-5.54,3.71
					c-0.54,0.18-1.11,0.32-1.68,0.43h-0.01c-0.16,0.03-0.31,0.06-0.46,0.08c-0.68,0.1-1.37,0.16-2.08,0.16h-487.54
					c-0.51,0-1.03-0.03-1.53-0.09c-0.19-0.02-0.39-0.04-0.58-0.08c-5.3-0.8-9.4-4.62-9.68-9.23c-0.01-0.17-0.01-0.34-0.01-0.51
					v-25.7c0-0.17,0.01-0.34,0.01-0.51c0.32-5.21,5.5-9.4,11.78-9.4h487.54c0.31,0,0.63,0.01,0.93,0.03
					c0.13,0.01,0.27,0.02,0.4,0.03c0.14,0.01,0.29,0.03,0.44,0.05c0.11,0.01,0.21,0.03,0.31,0.04c0.74,0.11,1.47,0.28,2.16,0.51
					c0.1,0.03,0.2,0.07,0.31,0.1c0.1,0.03,0.2,0.07,0.3,0.11c0.2,0.08,0.4,0.16,0.59,0.24c0.22,0.1,0.43,0.2,0.64,0.31
					c0.19,0.09,0.37,0.19,0.55,0.3c0.21,0.12,0.41,0.25,0.61,0.38c0.16,0.1,0.31,0.2,0.46,0.31c0.01,0.01,0.02,0.01,0.03,0.02
					c0.1,0.07,0.2,0.15,0.3,0.23c0.3,0.23,0.59,0.48,0.86,0.74c0.08,0.08,0.16,0.15,0.23,0.23c0.08,0.08,0.15,0.16,0.23,0.24
					c0.15,0.16,0.3,0.33,0.44,0.5C2740.57,1193.45,2741.32,1195.35,2741.32,1197.4z"/>
				<path class="st18" d="M2501.91,1233.01h-261.19c-0.21,0-0.42-0.01-0.62-0.02c-0.23-0.01-0.45-0.03-0.67-0.06
					c-5.02-0.58-8.97-4.51-9.23-9.32c-0.01-0.17-0.01-0.34-0.01-0.51v-25.7c0-0.17,0.01-0.34,0.01-0.51c0.29-5.21,4.9-9.4,10.52-9.4
					h229.11c0.1,0.37,0.21,0.74,0.32,1.12c3.79,13.19,12.28,30.89,31.29,44.07C2501.6,1232.79,2501.76,1232.9,2501.91,1233.01z"/>
				<g>
					<rect x="2676.45" y="1187.49" class="st18" width="5.54" height="45.51"/>
					<rect x="2657.7" y="1187.49" class="st18" width="5.54" height="45.51"/>
					<rect x="2635.2" y="1187.49" class="st18" width="5.54" height="45.51"/>
					<rect x="2600.73" y="1187.49" class="st18" width="5.54" height="45.51"/>
					<rect x="2564.27" y="1187.49" class="st18" width="5.54" height="45.51"/>
					<rect x="2508.38" y="1187.49" class="st18" width="5.54" height="45.51"/>
					<rect x="2456.05" y="1187.49" class="st18" width="5.54" height="45.51"/>
					<rect x="2409.32" y="1187.49" class="st18" width="5.54" height="45.51"/>
					<rect x="2694.31" y="1187.49" class="st18" width="5.54" height="45.51"/>
					<rect x="2706.1" y="1187.49" class="st18" width="5.54" height="45.51"/>
					<rect x="2717.49" y="1187.49" class="st18" width="5.54" height="45.51"/>
					<path class="st18" d="M2731.6,1187.65v45.2c-0.68,0.1-1.37,0.16-2.08,0.16h-3.46v-45.51h3.46
						C2730.23,1187.49,2730.92,1187.55,2731.6,1187.65z"/>
					<path class="st18" d="M2739.29,1191.87v36.76c-1.34,1.67-3.27,2.97-5.54,3.71v-44.18
						C2736.02,1188.89,2737.95,1190.2,2739.29,1191.87z"/>
				</g>
			</g>
			<g>
				<path class="st17" d="M2766.51,1153.01v25.7c0,2.05-0.74,3.95-2.02,5.53c-1.34,1.66-3.27,2.97-5.54,3.71
					c-0.69,0.23-1.41,0.4-2.16,0.51c-0.68,0.1-1.37,0.16-2.08,0.16h-487.54c-1.96,0-3.81-0.41-5.44-1.12
					c-3.45-1.52-5.91-4.43-6.31-7.83c-0.02-0.15-0.03-0.3-0.04-0.44c-0.01-0.17-0.01-0.34-0.01-0.51v-25.7
					c0-0.17,0.01-0.34,0.01-0.51c0.32-5.21,5.5-9.4,11.78-9.4h487.54c0.71,0,1.4,0.05,2.08,0.16c0.74,0.11,1.47,0.28,2.16,0.51
					c2.26,0.73,4.19,2.04,5.54,3.71C2765.76,1149.06,2766.51,1150.96,2766.51,1153.01z"/>
				<path class="st18" d="M2527.1,1188.61h-261.19c-1.75,0-3.4-0.41-4.85-1.12c-3.08-1.52-5.28-4.43-5.63-7.83
					c-0.02-0.15-0.03-0.3-0.04-0.44c-0.01-0.17-0.01-0.34-0.01-0.51v-25.7c0-0.17,0.01-0.34,0.01-0.51c0.29-5.21,4.91-9.4,10.52-9.4
					h229.12c3.56,13.03,11.72,30.92,30.47,44.39C2526.03,1187.87,2526.56,1188.24,2527.1,1188.61z"/>
				<g>
					<rect x="2701.64" y="1143.1" class="st18" width="5.54" height="45.51"/>
					<rect x="2682.89" y="1143.1" class="st18" width="5.54" height="45.51"/>
					<rect x="2660.39" y="1143.1" class="st18" width="5.54" height="45.51"/>
					<rect x="2625.92" y="1143.1" class="st18" width="5.54" height="45.51"/>
					<rect x="2589.46" y="1143.1" class="st18" width="5.54" height="45.51"/>
					<rect x="2533.57" y="1143.1" class="st18" width="5.54" height="45.51"/>
					<rect x="2481.24" y="1143.1" class="st18" width="5.54" height="45.51"/>
					<rect x="2434.51" y="1143.1" class="st18" width="5.54" height="45.51"/>
					<rect x="2719.5" y="1143.1" class="st18" width="5.54" height="45.51"/>
					<rect x="2731.29" y="1143.1" class="st18" width="5.54" height="45.51"/>
					<rect x="2742.68" y="1143.1" class="st18" width="5.54" height="45.51"/>
					<path class="st18" d="M2756.79,1143.26v45.2c-0.68,0.1-1.37,0.16-2.08,0.16h-3.46v-45.52h3.46
						C2755.42,1143.1,2756.11,1143.16,2756.79,1143.26z"/>
					<path class="st18" d="M2764.49,1147.48v36.76c-1.34,1.67-3.27,2.97-5.54,3.71v-44.18
						C2761.21,1144.5,2763.14,1145.81,2764.49,1147.48z"/>
				</g>
			</g>
			<g>
				<path class="st17" d="M2806.35,1107.49v25.7c0,2.05-0.74,3.95-2.02,5.53c-1.34,1.67-3.27,2.97-5.54,3.71
					c-0.69,0.23-1.42,0.4-2.16,0.51c-0.68,0.1-1.37,0.16-2.08,0.16h-487.53c-6.29,0-11.46-4.18-11.78-9.4
					c-0.01-0.17-0.01-0.34-0.01-0.51v-25.7c0-0.17,0.01-0.34,0.01-0.51c0.29-4.82,4.75-8.76,10.39-9.32
					c0.46-0.05,0.93-0.07,1.4-0.07h487.53c0.71,0,1.4,0.06,2.08,0.16c0.74,0.11,1.47,0.28,2.16,0.51c2.26,0.73,4.19,2.04,5.54,3.71
					C2805.6,1103.54,2806.35,1105.44,2806.35,1107.49z"/>
				<path class="st18" d="M2566.94,1143.1h-261.19c-5.61,0-10.23-4.18-10.52-9.4c-0.01-0.17-0.01-0.34-0.01-0.51v-25.7
					c0-0.17,0.01-0.34,0.01-0.51c0.26-4.82,4.24-8.76,9.27-9.32c0.4-0.05,0.82-0.07,1.25-0.07h229.11c0.01,0.02,0.01,0.05,0.02,0.07
					C2538.56,1111.05,2547.09,1129.54,2566.94,1143.1z"/>
				<g>
					<rect x="2741.48" y="1097.59" class="st18" width="5.54" height="45.51"/>
					<rect x="2722.73" y="1097.59" class="st18" width="5.54" height="45.51"/>
					<rect x="2700.24" y="1097.59" class="st18" width="5.54" height="45.51"/>
					<rect x="2665.76" y="1097.59" class="st18" width="5.54" height="45.51"/>
					<rect x="2629.3" y="1097.59" class="st18" width="5.54" height="45.51"/>
					<rect x="2573.41" y="1097.59" class="st18" width="5.54" height="45.51"/>
					<rect x="2521.08" y="1097.59" class="st18" width="5.54" height="45.51"/>
					<rect x="2474.35" y="1097.59" class="st18" width="5.54" height="45.51"/>
					<rect x="2759.34" y="1097.59" class="st18" width="5.54" height="45.51"/>
					<rect x="2771.13" y="1097.59" class="st18" width="5.54" height="45.51"/>
					<rect x="2782.52" y="1097.59" class="st18" width="5.54" height="45.51"/>
					<path class="st18" d="M2796.63,1097.74v45.2c-0.68,0.1-1.37,0.16-2.08,0.16h-3.46v-45.52h3.46
						C2795.26,1097.59,2795.96,1097.64,2796.63,1097.74z"/>
					<path class="st18" d="M2804.33,1101.96v36.77c-1.34,1.66-3.27,2.97-5.54,3.71v-44.18
						C2801.05,1098.99,2802.99,1100.3,2804.33,1101.96z"/>
				</g>
			</g>
			<g>
				<path class="st17" d="M2742.34,1062.05v25.7c0,2.05-0.74,3.95-2.02,5.53c-1.34,1.67-3.27,2.97-5.54,3.71
					c-0.69,0.23-1.42,0.4-2.16,0.51c-0.23,0.03-0.46,0.07-0.68,0.09c-0.18,0.02-0.37,0.03-0.55,0.04c-0.09,0.01-0.18,0.01-0.27,0.02
					c-0.19,0.01-0.38,0.01-0.57,0.01h-487.53c-6.28,0-11.46-4.18-11.78-9.4c-0.01-0.17-0.01-0.34-0.01-0.51v-25.7
					c0-0.17,0.01-0.34,0.01-0.51c0.32-5.21,5.5-9.4,11.78-9.4h487.53c0.21,0,0.42,0.01,0.63,0.02c0.5,0.02,0.98,0.07,1.45,0.14
					c0.74,0.11,1.47,0.28,2.16,0.51c0.35,0.11,0.7,0.24,1.02,0.38c0.21,0.09,0.41,0.17,0.61,0.27c0.02,0.01,0.05,0.02,0.06,0.03
					c0.2,0.1,0.4,0.2,0.59,0.31c0.04,0.02,0.07,0.04,0.1,0.06c0.18,0.1,0.36,0.21,0.53,0.32c0.42,0.26,0.81,0.55,1.17,0.86
					c0.12,0.09,0.23,0.19,0.33,0.29c0.02,0.02,0.04,0.03,0.06,0.06c0.07,0.06,0.14,0.12,0.2,0.19c0.01,0.01,0.03,0.03,0.04,0.04
					c0.12,0.12,0.24,0.24,0.35,0.36c0.16,0.17,0.32,0.35,0.47,0.54C2741.6,1058.1,2742.34,1060,2742.34,1062.05z"/>
				<path class="st18" d="M2502.94,1097.66h-261.19c-5.61,0-10.23-4.18-10.52-9.4c-0.01-0.17-0.01-0.34-0.01-0.51v-25.7
					c0-0.17,0.01-0.34,0.01-0.51c0.29-5.21,4.91-9.4,10.52-9.4h229.11c0.09,0.34,0.19,0.69,0.3,1.05
					c3.8,13.28,12.37,31.16,31.67,44.39C2502.86,1097.61,2502.9,1097.64,2502.94,1097.66z"/>
				<g>
					<rect x="2677.48" y="1052.14" class="st18" width="5.54" height="45.51"/>
					<rect x="2658.72" y="1052.14" class="st18" width="5.54" height="45.51"/>
					<rect x="2636.23" y="1052.14" class="st18" width="5.54" height="45.51"/>
					<rect x="2601.75" y="1052.14" class="st18" width="5.54" height="45.51"/>
					<rect x="2565.29" y="1052.14" class="st18" width="5.54" height="45.51"/>
					<rect x="2509.4" y="1052.14" class="st18" width="5.54" height="45.51"/>
					<rect x="2457.07" y="1052.14" class="st18" width="5.54" height="45.51"/>
					<rect x="2410.34" y="1052.14" class="st18" width="5.54" height="45.51"/>
					<rect x="2695.33" y="1052.14" class="st18" width="5.54" height="45.51"/>
					<rect x="2707.12" y="1052.14" class="st18" width="5.54" height="45.51"/>
					<rect x="2718.51" y="1052.14" class="st18" width="5.54" height="45.51"/>
					<path class="st18" d="M2732.63,1052.3v45.2c-0.68,0.1-1.37,0.16-2.08,0.16h-3.46v-45.51h3.46
						C2731.26,1052.14,2731.95,1052.2,2732.63,1052.3z"/>
					<path class="st18" d="M2740.32,1056.52v36.76c-1.34,1.67-3.27,2.97-5.54,3.71v-44.18
						C2737.05,1053.54,2738.98,1054.85,2740.32,1056.52z"/>
				</g>
			</g>
			<g>
				<path class="st17" d="M2778.19,1017.59v25.7c0,2.05-0.74,3.95-2.02,5.53c-1.34,1.66-3.27,2.97-5.54,3.71
					c-0.69,0.23-1.41,0.4-2.16,0.51c-0.68,0.1-1.37,0.16-2.08,0.16h-487.53c-1.89,0-3.68-0.38-5.27-1.05
					c-3.55-1.5-6.1-4.47-6.48-7.94c-0.01-0.13-0.03-0.27-0.03-0.4c-0.01-0.17-0.01-0.34-0.01-0.51v-25.7c0-0.17,0.01-0.34,0.01-0.51
					c0.29-4.82,4.75-8.76,10.39-9.32c0.46-0.05,0.92-0.07,1.4-0.07h487.53c0.71,0,1.4,0.06,2.08,0.16c0.74,0.11,1.47,0.28,2.16,0.51
					c2.26,0.73,4.19,2.04,5.54,3.71C2777.44,1013.64,2778.19,1015.54,2778.19,1017.59z"/>
				<path class="st18" d="M2538.78,1053.19h-261.19c-1.69,0-3.29-0.38-4.7-1.05c-3.17-1.5-5.44-4.47-5.78-7.94
					c-0.01-0.13-0.03-0.27-0.03-0.4c-0.01-0.17-0.01-0.34-0.01-0.51v-25.7c0-0.17,0.01-0.34,0.01-0.51
					c0.26-4.82,4.24-8.76,9.27-9.32c0.4-0.05,0.82-0.07,1.25-0.07h229.12c0.01,0.02,0.01,0.05,0.02,0.07
					c3.57,13.05,11.77,30.94,30.56,44.39C2537.77,1052.5,2538.27,1052.85,2538.78,1053.19z"/>
				<g>
					<rect x="2713.32" y="1007.68" class="st18" width="5.54" height="45.51"/>
					<rect x="2694.56" y="1007.68" class="st18" width="5.54" height="45.51"/>
					<rect x="2672.07" y="1007.68" class="st18" width="5.54" height="45.51"/>
					<rect x="2637.59" y="1007.68" class="st18" width="5.54" height="45.51"/>
					<rect x="2601.14" y="1007.68" class="st18" width="5.54" height="45.51"/>
					<rect x="2545.25" y="1007.68" class="st18" width="5.54" height="45.51"/>
					<rect x="2492.92" y="1007.68" class="st18" width="5.54" height="45.51"/>
					<rect x="2446.19" y="1007.68" class="st18" width="5.54" height="45.51"/>
					<rect x="2731.17" y="1007.68" class="st18" width="5.54" height="45.51"/>
					<rect x="2742.97" y="1007.68" class="st18" width="5.54" height="45.51"/>
					<rect x="2754.36" y="1007.68" class="st18" width="5.54" height="45.51"/>
					<path class="st18" d="M2768.47,1007.84v45.2c-0.68,0.1-1.37,0.16-2.08,0.16h-3.46v-45.51h3.46
						C2767.1,1007.68,2767.79,1007.73,2768.47,1007.84z"/>
					<path class="st18" d="M2776.16,1012.05v36.76c-1.34,1.66-3.27,2.97-5.54,3.71v-44.18
						C2772.89,1009.08,2774.82,1010.39,2776.16,1012.05z"/>
				</g>
			</g>
			<g>
				<path class="st17" d="M2793.44,972.14v25.7c0,2.05-0.74,3.95-2.02,5.53c-1.34,1.67-3.27,2.97-5.54,3.71
					c-0.69,0.23-1.42,0.4-2.16,0.51c-0.23,0.03-0.46,0.07-0.69,0.09c-0.12,0.01-0.25,0.02-0.39,0.03c-0.12,0.01-0.25,0.02-0.38,0.02
					c-0.21,0.01-0.42,0.02-0.63,0.02h-487.53c-6.29,0-11.46-4.18-11.78-9.4c-0.01-0.17-0.01-0.34-0.01-0.51v-25.7
					c0-0.17,0.01-0.34,0.01-0.51c0.32-5.21,5.5-9.4,11.78-9.4h487.53c0.71,0,1.4,0.06,2.08,0.16c0.74,0.11,1.47,0.28,2.16,0.51
					c2.26,0.73,4.19,2.04,5.54,3.71C2792.7,968.19,2793.44,970.09,2793.44,972.14z"/>
				<path class="st18" d="M2554.04,1007.75h-261.19c-5.61,0-10.23-4.18-10.52-9.4c-0.01-0.17-0.01-0.34-0.01-0.51v-25.7
					c0-0.17,0.01-0.34,0.01-0.51c0.29-5.21,4.91-9.4,10.52-9.4h229.11c3.65,13.38,12.15,31.86,31.97,45.44
					C2553.97,1007.7,2554.01,1007.73,2554.04,1007.75z"/>
				<g>
					<rect x="2728.58" y="962.24" class="st18" width="5.54" height="45.51"/>
					<rect x="2709.82" y="962.24" class="st18" width="5.54" height="45.51"/>
					<rect x="2687.33" y="962.24" class="st18" width="5.54" height="45.51"/>
					<rect x="2652.85" y="962.24" class="st18" width="5.54" height="45.51"/>
					<rect x="2616.4" y="962.24" class="st18" width="5.54" height="45.51"/>
					<rect x="2560.51" y="962.24" class="st18" width="5.54" height="45.51"/>
					<rect x="2508.17" y="962.24" class="st18" width="5.54" height="45.51"/>
					<rect x="2461.45" y="962.24" class="st18" width="5.54" height="45.51"/>
					<rect x="2746.43" y="962.24" class="st18" width="5.54" height="45.51"/>
					<rect x="2758.23" y="962.24" class="st18" width="5.54" height="45.51"/>
					<rect x="2769.62" y="962.24" class="st18" width="5.54" height="45.51"/>
					<path class="st18" d="M2783.73,962.39v45.2c-0.68,0.1-1.37,0.16-2.08,0.16h-3.46v-45.51h3.46
						C2782.36,962.23,2783.05,962.29,2783.73,962.39z"/>
					<path class="st18" d="M2791.42,966.61v36.76c-1.34,1.67-3.27,2.97-5.54,3.71V962.9
						C2788.15,963.64,2790.08,964.95,2791.42,966.61z"/>
				</g>
			</g>
		</g>
		<g>
			
				<ellipse transform="matrix(0.7071 -0.7071 0.7071 0.7071 -207.7568 1953.3691)" class="st19" cx="2254.05" cy="1227.47" rx="231.71" ry="231.71"/>
			
				<ellipse transform="matrix(0.7071 -0.7071 0.7071 0.7071 -213.6773 1939.0759)" class="st17" cx="2233.83" cy="1227.47" rx="231.71" ry="231.71"/>
			<g>
				<path class="st18" d="M2233.83,1441.32c-56.39,0-109.4-21.96-149.28-61.83c-39.87-39.87-61.83-92.89-61.83-149.28
					c0-56.39,21.96-109.4,61.83-149.28c39.87-39.87,92.89-61.83,149.28-61.83c56.39,0,109.4,21.96,149.28,61.83
					c39.87,39.87,61.83,92.89,61.83,149.28c0,56.39-21.96,109.4-61.83,149.28C2343.24,1419.36,2290.22,1441.32,2233.83,1441.32z
					 M2233.83,1031.69c-109.46,0-198.52,89.05-198.52,198.52c0,109.46,89.05,198.52,198.52,198.52
					c109.46,0,198.52-89.05,198.52-198.52C2432.35,1120.75,2343.29,1031.69,2233.83,1031.69z"/>
			</g>
			<g>
				<path class="st18" d="M2262.9,1291.48c0.54-4.55,0.37-8.64-0.5-12.26c-0.87-3.62-2.6-7.02-5.18-10.18
					c-2.58-3.16-6.04-6.21-10.36-9.15c-4.33-2.93-9.68-5.93-16.06-8.99c-10.96-5.37-20.85-10.8-29.66-16.3
					c-8.82-5.5-16.21-11.51-22.18-18.05c-5.97-6.54-10.34-13.87-13.1-22c-2.76-8.13-3.51-17.51-2.25-28.13
					c1.09-9.21,3.72-17.42,7.89-24.62c4.17-7.2,9.62-13.26,16.36-18.17c6.74-4.92,14.54-8.63,23.42-11.15
					c8.88-2.52,18.63-3.64,29.25-3.37l4.13-34.8l28.01,3.32l-4.19,35.28c9.88,2.49,18.67,6.23,26.36,11.21
					c7.69,4.98,14.02,11.01,18.98,18.08c4.96,7.08,8.47,15.16,10.52,24.25c2.06,9.09,2.44,19.06,1.16,29.9l-50.59-6
					c1.54-13.01-0.19-23.08-5.2-30.22c-5.01-7.13-12.36-11.28-22.05-12.43c-5.25-0.62-9.86-0.43-13.83,0.59
					c-3.97,1.01-7.33,2.65-10.08,4.9c-2.75,2.26-4.92,5.05-6.5,8.38c-1.58,3.33-2.6,7-3.08,11.01c-0.48,4.01-0.32,7.71,0.46,11.1
					c0.78,3.39,2.44,6.64,4.97,9.74c2.53,3.1,6.01,6.15,10.45,9.15c4.44,3,10,6.22,16.7,9.65c10.82,5.57,20.6,11.13,29.35,16.67
					c8.75,5.55,16.11,11.61,22.07,18.2c5.96,6.59,10.33,13.95,13.09,22.08c2.76,8.14,3.52,17.46,2.27,27.97
					c-1.13,9.54-3.81,17.91-8.04,25.1c-4.23,7.2-9.7,13.2-16.43,18c-6.72,4.81-14.57,8.39-23.55,10.73
					c-8.97,2.34-18.77,3.38-29.39,3.11l-3.84,32.36l-27.83-3.3l3.82-32.19c-9.57-2.12-18.69-5.35-27.34-9.67
					c-8.66-4.33-16.12-9.96-22.4-16.92c-6.27-6.95-10.96-15.34-14.05-25.16c-3.1-9.82-3.87-21.24-2.33-34.24l50.59,6
					c-0.91,7.7-0.6,14.25,0.95,19.65c1.55,5.41,3.95,9.87,7.2,13.39c3.25,3.52,7.11,6.18,11.57,7.97c4.46,1.79,9.08,2.97,13.87,3.54
					c5.48,0.65,10.38,0.52,14.69-0.4c4.31-0.92,8.01-2.46,11.11-4.62c3.1-2.16,5.55-4.87,7.35-8.11
					C2261.28,1299.12,2262.42,1295.49,2262.9,1291.48z"/>
			</g>
		</g>
		<g>
			<path class="st10" d="M2675.28,710.11c0,0-24.89,35.05-47.71,35.53c-22.82,0.49-57.54-16.24-57.54-16.24s-20.95-46.7-6.74-64.97
				c0,0,14.25-6.25,29.16,4.79c2.56,1.91,5.16,4.31,7.72,7.39c3.61,4.35,7.67,6.82,11.98,8.12c16.28,4.95,35.61-6.7,42.84,4.55
				c4.22,6.54,8.81,11.45,12.59,14.9C2672.03,708.16,2675.28,710.11,2675.28,710.11z"/>
			<path class="st10" d="M2350.74,962.9c0,0,87.99-213.2,246.36-217.26c0,0,146.19,16.24,154.31,217.26H2350.74z"/>
			<path class="st15" d="M2553.72,752.16c0,0,63.48,14.12,83.07,5.82c0,0,2.96-26.54-23.77-22.82c-18.3,2.55-30.22-6.25-37.23-9.81
				C2565.86,720.29,2551.08,741.05,2553.72,752.16z"/>
			<path class="st11" d="M2608.96,712.14c-4.06,3.05-16.53-42.92-16.53-42.92c2.56,1.91,5.16,4.31,7.72,7.39
				c3.61,4.35,7.67,6.82,11.98,8.12C2612.17,686.07,2612.9,709.18,2608.96,712.14z"/>
			<path class="st11" d="M2667.56,704.18c-0.89,0.53-30.25,18.11-34.23,18.11c-4.06,0,21.64-33.02,21.64-33.02
				C2659.19,695.82,2663.78,700.73,2667.56,704.18z"/>
			<path class="st11" d="M2436.7,903.34c-1.63-1.39,62.27-94.08,79.86-94.75c17.6-0.68,57.13,20.3,85.76,23.01
				c28.62,2.71,56.37-5.41,61.79,11.51s20.3,76.91,11.17,86.51C2666.14,939.21,2471.83,933.36,2436.7,903.34z"/>
		</g>
		<g>
			<path class="st4" d="M2623.34,732.05c-5.31-3.75-17.35-12-17.98-10.16c-0.45,1.32,0.19,3.57,1.64,5.9
				c-7.28-2.72-14.68-4.51-32.17-1.15c-3.5,0.67-6.68,2.66-8.6,5.66c-1.78,2.78-2.45,6.25,2.01,9.02c8.93,5.55,6.34,2.22,18.74,10.3
				c12.4,8.08,27.59,10.14,36.66,4.47l12.17-2.03l1.51-20.03C2637.33,734.06,2630.39,733.23,2623.34,732.05z"/>
			<path class="st4" d="M2942.38,564.09c0,0-28.7,34.05-65.25,19.81c0,0-7.86-19.02-7.97-33.04c-0.01-1.73-0.03-3.4-0.06-4.99
				c-0.2-15.79-0.73-24.64-0.73-24.64s0.01,0,0.04-0.01c1.66-0.69,55.88-22.95,55.83-21.1
				C2923.3,542.81,2942.38,564.09,2942.38,564.09z"/>
			<path class="st20" d="M2918.79,510.3c-5.23,9.69-23.17,28.65-49.7,35.57c-0.2-15.79-0.73-24.64-0.73-24.64s0.01,0,0.04-0.01
				C2869.9,520.82,2920.34,507.44,2918.79,510.3z"/>
			<path class="st4" d="M2857.01,519.59c0,0,60.97,14.33,69.31-23.77c8.34-38.11,21.83-61.92-16.75-72.68
				c-38.57-10.76-49.34,2.12-55.22,14.16C2848.47,449.33,2841.37,514.88,2857.01,519.59z"/>
			<path class="st21" d="M2924.23,506.2c0.83,0.53,13.95,4.56,38.8-44.93c3.9-7.77,6.56-24.58-2.53-39.43
				c-9.09-14.85-41.33-26.53-68.11-31.61c-26.78-5.08-33.21,9.99-39.52,25.13c-6.62,15.9-25.74,28.99-25.74,28.99
				c23.09,12.9,50.91-5.55,60.55-2.52c9.64,3.03,13.04,18.22,13.76,23.09c0.72,4.87,1.83,8.91,13.95,4.57
				c12.12-4.35,5.48,17.17,3.54,21.29C2918.93,490.78,2917.28,501.74,2924.23,506.2z"/>
			<g>
				<path class="st0" d="M3081.29,1456.45h36.92c7.74,0,16.34-7.75,18.49-21.93c2.15-14.2,18.06-21.93,21.5-33.55
					c3.45-11.61-14.2-27.96-14.2-27.96l-2.95-3.79l-3.07-3.95l-29.24,6.88c0,0-0.72,6.96-1.17,15.83c-0.31,6.4-0.48,13.81-0.12,20.3
					c0.86,15.49-4.34,32.16-18.09,35.17C3075.6,1446.47,3081.29,1456.45,3081.29,1456.45z"/>
				<path class="st0" d="M2824.29,1456.45h97.86c0.94-0.18,1.65-0.39,2.08-0.6c6.53-3.27,4.49-28.29,3.7-36.01
					c-0.15-1.43-0.26-2.27-0.26-2.27s-34.41-27.52-39.15-6.45c-0.15,0.66-0.32,1.3-0.51,1.94v0.01
					c-5.97,19.72-32.68,28.67-48.1,31.17C2828.13,1446.15,2825.08,1453.02,2824.29,1456.45z"/>
				<path class="st2" d="M2844.01,892.14c0,0,5.23,65.2,11.37,143.58c8.35,106.47,18.39,237.24,19.38,262.01
					c1.72,43.02,8.61,111.83,8.61,111.83s16.34,16.35,49.03,9.46c0,0,29.14-98.23,37.46-202.17c0.13-1.7,0.26-3.42,0.39-5.14
					c7.74-105.81,19.78-328.61,19.78-328.61L2844.01,892.14z"/>
				<path class="st3" d="M2844.01,892.14c0,0,5.23,65.2,11.37,143.58l114.48,181.14c0.13-1.7,0.26-3.42,0.39-5.14
					c7.74-105.81,19.78-328.61,19.78-328.61L2844.01,892.14z"/>
				<path class="st2" d="M2867.88,899.89c0,0,94.19,236.13,156.13,347.1c61.94,110.97,81.29,141.94,81.29,141.94
					s35.48-14.19,38.71-23.87c0,0-23.68-214.23-65.16-266.45c-23.44-29.51-50.97-118.07-52.26-149.03
					c-1.29-30.97-8.39-92.26-8.39-92.26L2867.88,899.89z"/>
			</g>
			<g>
				<path class="st4" d="M3082.69,856.98l1,15.19c0,0-10.02,26.98,18.05,40.82c0,0,12.01,4.85,12.5-4.51
					c0.49-9.35-1.05-5.83-0.07-19c0.98-13.17-4.2-25.61-12.91-29.81l-7.15-8.25L3082.69,856.98z"/>
				<path class="st22" d="M3093.65,868.04c-10.43,3.35-12.1,2.59-12.1,2.59s-50.75-92.39-55.89-100.85
					c-5.14-8.46-107.74-103.6-107.74-103.6l26.37-98.32c0,0,116.7,151.12,129.3,172.8c20.82,35.83,33.03,119.05,33.03,119.05
					S3101.84,865.41,3093.65,868.04z"/>
			</g>
			<path class="st23" d="M2824.13,704.79c0.37,20.19,1.54,42.89,3.12,65.94c0.1,1.37,0.19,2.73,0.29,4.1
				c1.01,14.28,2.11,28.6,3.37,42.56c0.51,5.6,1.04,11.13,1.6,16.56l0.09,0.73c0.04,2.03,0.29,4.24,0.52,6.25
				c5.14,52.29,10.54,93.6,11.54,94.23c1.19,0.8,2.54,1.19,4.01,1.02c13.71-1.72,54.62,1.39,88.12-5.9
				c28.26-5.96,52.6-17.26,78.39-32.5c3.42-2.02,11.23-7.38,10.59-11.39c-0.63-4.4-1.78-10.76-3.24-18.76
				c-5.08-27.81-13.85-75.65-16.84-131.64c-0.58-10.43-1.43-20.73-2.53-30.86c-2.87-26.38-7.48-51.44-13.66-73.69
				c-11.48-41.35-28.36-73.02-49.53-85.4c-2.77-1.55-17.65,7.92-31.32,16.69c-12.63,8.09-25.92,10.33-38.84,9.2l-11.38,12.58
				c-13.78,16.02-28.45,37.34-32.45,67.65c-0.3,2.24-0.56,4.62-0.77,7.15C2824.08,671.66,2823.81,687.29,2824.13,704.79z"/>
			<path class="st22" d="M2824.13,704.79c0.37,20.19,1.54,42.89,3.12,65.94c0.1,1.37,0.19,2.73,0.29,4.1
				c78.32-49.03,90.39-138.74,90.39-138.74c-38.53,1.69-69.14,10.55-92.73,23.22C2824.08,671.66,2823.81,687.29,2824.13,704.79z"/>
			<path class="st23" d="M2626.23,743.4c-0.81-11.62,5.21-13.55,5.21-13.55s118.09-21.4,128.13-24.56
				c10.04-3.16,95.88-92.46,95.88-92.46s32.9-37.11,59.84-28.91c23.41,7.12,32.56,25.38,35.68,42.78
				c3.71,20.73-5.84,41.59-23.8,52.6c-40.3,24.72-120.98,73.42-139.98,78.99c-42.29,12.4-155.91,0.99-155.91,0.99
				S2626.87,752.53,2626.23,743.4z"/>
		</g>
	</g>
	<g>
		<g>
			<path class="st24" d="M364.34,930.53l9.65,7.83c0,0,26.39-9.46,32.34,21.89c0,0,1.59,13.36-6.88,13.39
				c-8.47,0.03-4.97-1.46-16.96-1.11c-11.99,0.35-21.92-5.97-23.68-15.7l-5.73-8.24L364.34,930.53z"/>
			<path class="st22" d="M363.24,947.34c7.7-8.04,7.08-13.98,7.08-13.98s-89.11-72.96-98.15-78.9
				c-6.16-4.05-71.79-62.23-102.46-97.7c-15.22-17.59-34.07-10.77-55.63-4.58l-17.76,5.1c-21.44,6.15-27.02,36.14-9.43,50.72
				c49.55,41.05,131.99,87.21,147.41,96.92c38.29,24.09,113.24,52.71,113.24,52.71S356.64,954.24,363.24,947.34z"/>
		</g>
		<path class="st3" d="M464.94,1395.59c0,0,21.63,16.2,54.77,7.64c0,0,26.72-6.09,32.58,7.24c0,0-40.98,20.82-51.35,26.51
			c-7.82,4.29-15.97,11.06-21.74,16.3c-4.56,4.14-11.67,3.58-15.56-1.2c-1.8-2.22-3.87-4.86-6.13-7.92
			c-6.32-8.56-21.04-36.22-21.04-36.22L464.94,1395.59z"/>
		<path class="st2" d="M477.64,1387.36c0,0-13.17,30.37-43.57,24.78c0,0-62.03-51.23-104.58-104.44
			c-13.82-17.28-25.58-34.78-32.5-50.79c-28.22-65.33-104.37-162.76-152.79-212.14l121.14-43.82c0,0,38.8,78.05,90.43,173.93
			C392.98,1243.96,436.84,1322.3,477.64,1387.36z"/>
		<path class="st3" d="M355.78,1174.88l-26.28,132.82c-13.82-17.28-25.58-34.78-32.5-50.79
			c-28.22-65.33-104.37-162.76-152.79-212.14l121.14-43.82C265.35,1000.95,304.15,1079.01,355.78,1174.88z"/>
		<path class="st3" d="M256.76,1413.21c0,0-1.32,24.23,28.05,27.46c0,0,16.79,0.09,16.83,15.51l-85.37,0.27
			c0,0-2.48-6.22-3.08-19.54c-0.46-10.23,9.92-36.98,9.92-36.98L256.76,1413.21z"/>
		<path class="st2" d="M225.61,1000.95c0,0,53.97,59.3,88.22,166.13c18.64,58.13-34.16,204.27-44.46,255.04
			c0,0-35.42,3.01-59.64-6.36c0,0-1.84-104.87,12.32-185.71c7.93-45.24-71.06-96.75-105.57-178.49c-23.48-55.61,5.08-54.66,40.19-56
			L225.61,1000.95z"/>
		<path class="st25" d="M163.32,736.39c-30.03,16.96-91.49,1.32-91.49,1.32s24.96-28.54,13.62-74.5l23.58,11.97l25.32,12.86
			c0,0,1.64,8.12,2.78,22.7c0.29,3.75,0.55,7.95,0.73,12.53C153.26,727.95,163.32,736.39,163.32,736.39z"/>
		<path class="st23" d="M273.42,997.89c0,5.28-6.08,7.8-7.37,8.06c-12.11,2.21-45.92,15.37-76.39,18.38
			c-25.65,2.69-49.46,0.14-75.62-5.12c-3.46-0.7-11.6-2.89-12.17-6.21c-0.72-3.63-100.91-204.25-23.03-290.42
			c1.83-2.02,17.2,1.62,31.26,4.96c12.98,3.08,24.9,1.36,35.53-2.9l13.18,6.94c16.19,9.02,46.83,41.08,50.42,66.23
			c1.82,12.79,9.14,22.26,11.25,33.52c0.79,4.16,1.59,8.23,2.41,12.19c1.6,7.77,3.24,15.17,4.93,22.2
			c4.58,19.02,9.42,35.4,14.16,49.55c5.05,15.02,10.01,27.52,14.44,37.97c5.74,13.55,10.59,23.68,13.63,31.44
			C272.19,990.14,273.42,994.42,273.42,997.89z"/>
		<path class="st22" d="M270.05,984.67C128.62,918.04,79.64,790.09,79.64,790.09s114.91,42.39,143.25,53.42
			c1.6,7.77,3.24,15.17,4.93,22.2c4.58,19.02,9.42,35.4,14.16,49.55c5.05,15.02,10.01,27.52,14.44,37.97
			C262.16,966.79,267.02,976.92,270.05,984.67z"/>
		<path class="st24" d="M137.12,710.74c-29.53,1.66-48.73-22.72-48.73-22.72s13.35-7.4,20.63-12.84l25.32,12.86
			C134.34,688.05,135.98,696.16,137.12,710.74z"/>
		<path class="st25" d="M149.7,680.43c0,0-44.74,32.11-64.3,3.94c-19.56-28.17-38.52-42.99-10.78-64.68
			c27.74-21.69,40.81-14.84,49.63-7.02C133.06,620.47,160.83,671.35,149.7,680.43z"/>
		<path class="st3" d="M128.97,587.22c-1.6-10.83-5.21-18.45-5.21-18.45s-2.81,11.63-24.06,10.03c-21.25-1.6-54.94,2.09-66.17,26.31
			c-0.71,1.54-1.35,3.13-1.92,4.75c-2.03-5.37-2.52-13.42-2.52-13.42c-4.04,10.43,0,23.47,0,23.47h0c-0.06,0.38-0.11,0.76-0.17,1.14
			c-4.69,3.97-8.63,16.29-8.63,16.29c1.41-3.44,4.87-5.68,7.95-7.06c-0.1,18.85,7.55,37.27,20.96,42.75
			c19.62,8.02,19.46,1.9,39.19,14.99c0,0,5.29-6.57,1.68-10.98c-3.61-4.41-17.24-10.83-9.62-17.24c7.62-6.42,10.43,0.8,13.23-3.61
			c2.81-4.41-11.23-17.24,6.82-29.27C118.54,614.89,130.57,598.05,128.97,587.22z"/>
		<g>
			
				<ellipse transform="matrix(0.7071 -0.7071 0.7071 0.7071 -417.805 487.1306)" class="st17" cx="379.12" cy="747.9" rx="218.14" ry="218.14"/>
			<g>
				<path class="st18" d="M429.29,942.87c-51.41,13.23-104.9,5.65-150.61-21.35c-45.71-27-78.17-70.18-91.4-121.59
					c-13.23-51.41-5.65-104.9,21.35-150.61c27-45.71,70.18-78.17,121.59-91.4c51.41-13.23,104.9-5.65,150.61,21.35
					c45.71,27,78.17,70.18,91.4,121.59c13.23,51.41,5.65,104.9-21.35,150.61C523.88,897.18,480.7,929.64,429.29,942.87z
					 M333.19,569.4c-99.8,25.68-160.1,127.77-134.42,227.57c25.68,99.8,127.77,160.1,227.57,134.42
					c99.8-25.68,160.1-127.77,134.42-227.57C535.07,604.02,432.98,543.72,333.19,569.4z"/>
			</g>
			<g>
				<path class="st18" d="M420.63,799.44c-0.58-4.28-1.69-7.96-3.33-11.06c-1.65-3.1-4.02-5.78-7.11-8.06
					c-3.1-2.28-6.96-4.25-11.6-5.91c-4.63-1.66-10.22-3.13-16.75-4.43c-11.25-2.32-21.54-4.96-30.87-7.9
					c-9.33-2.95-17.48-6.7-24.45-11.25c-6.98-4.56-12.68-10.22-17.1-16.98c-4.43-6.77-7.31-15.14-8.66-25.12
					c-1.16-8.66-0.69-16.76,1.42-24.3c2.11-7.54,5.66-14.34,10.65-20.41c4.99-6.06,11.23-11.28,18.74-15.66
					c7.5-4.38,16.13-7.69,25.87-9.94l-4.4-32.69l26.32-3.54l4.46,33.15c9.59-0.04,18.48,1.3,26.66,4.03
					c8.18,2.74,15.36,6.75,21.55,12.03c6.18,5.29,11.28,11.84,15.28,19.64c4.01,7.81,6.7,16.81,8.07,26.99l-47.53,6.4
					c-1.64-12.22-5.59-21-11.83-26.33c-6.24-5.33-13.92-7.38-23.02-6.16c-4.93,0.66-9.09,1.92-12.47,3.78
					c-3.38,1.85-6.06,4.13-8.04,6.83c-1.98,2.71-3.3,5.76-3.96,9.17c-0.66,3.41-0.73,6.99-0.23,10.76c0.51,3.77,1.51,7.1,3.02,10.01
					c1.51,2.91,3.78,5.48,6.82,7.72c3.03,2.24,6.93,4.2,11.68,5.89c4.75,1.7,10.58,3.32,17.49,4.88
					c11.17,2.54,21.39,5.31,30.67,8.31c9.28,3,17.41,6.81,24.39,11.42c6.98,4.61,12.69,10.3,17.11,17.06
					c4.43,6.77,7.3,15.09,8.63,24.97c1.21,8.96,0.73,17.22-1.44,24.77c-2.17,7.55-5.75,14.31-10.75,20.27
					c-5,5.96-11.32,11.07-18.95,15.31c-7.63,4.24-16.32,7.48-26.07,9.73l4.09,30.4l-26.15,3.52l-4.07-30.25
					c-9.23,0.31-18.29-0.49-27.2-2.4c-8.91-1.91-17.04-5.3-24.39-10.17c-7.35-4.87-13.59-11.42-18.72-19.65
					c-5.13-8.23-8.51-18.45-10.16-30.67l47.53-6.4c0.97,7.23,2.8,13.13,5.48,17.69c2.68,4.57,5.91,8.07,9.7,10.52
					c3.79,2.44,7.93,3.96,12.42,4.55c4.49,0.59,8.98,0.58,13.48-0.03c5.15-0.69,9.59-1.96,13.3-3.81c3.71-1.85,6.73-4.12,9.05-6.82
					c2.32-2.7,3.92-5.74,4.8-9.12C420.95,806.79,421.14,803.21,420.63,799.44z"/>
			</g>
		</g>
		<g>
			<path class="st26" d="M355.78,967.82c0,0,23.94,8.07,37.73,7.74c13.79-0.34,37.77-14.84,37.82-15.87
				c0.05-1.02-10.78-7.27-26.49-5.29c-15.71,1.98-18.9-0.37-14.03-2.32c5.49-2.2,9.41-5.48,8.07-7.58
				c-0.74-1.16-8.63,1.34-11.32,2.24c-2.69,0.9-9.42-1.57-15.02,2.48c-3.72,2.69-17.71,4.7-17.71,4.7L355.78,967.82z"/>
			<path class="st23" d="M365.24,960.05c4.22-11.9,6.15-17.29,6.15-17.29s-94.22-72.92-103.79-79.13
				c-6.52-4.24-71.54-50.32-103.59-86.71c-15.9-18.05-40.44-25.87-63.85-20.34l-19.28,4.55c-23.28,5.5-30.13,35.31-11.59,50.41
				c52.23,42.54,139.74,91.19,156.09,101.36c40.58,25.24,129.78,59.79,129.78,59.79S361.93,969.39,365.24,960.05z"/>
		</g>
	</g>
	<g>
		<path class="st3" d="M1727.74,807.47c-18.76,32.65-42.35,45.25-42.35,45.25h-98.16C1587.23,852.73,1742.05,782.57,1727.74,807.47z
			"/>
		<g>
			<path class="st4" d="M1652.35,1060.09c-2.56,2.93-2.88,6.21-1.62,9.7c0,0.01,0.01,0.04,0.02,0.05
				c2.34,6.47,10.08,13.69,19.06,20.91c1.15,0.93,2.17,1.77,3.06,2.55c0.23,0.21,0.47,0.41,0.69,0.62c0.18,0.16,0.35,0.32,0.53,0.48
				c8.38,7.72,5.22,9.49,20.28,25.16c17.16,17.86,28.98,18.18,32.34,16.55c2.84-1.39-2.93-10.86-9.34-21.5
				c-0.31-0.51-0.61-1.03-0.93-1.55c-0.85-1.41-1.7-2.85-2.55-4.27c-7.5-12.81-5.58-18.82-3.8-37.89
				c1.45-15.49,24.1-86.56,24.1-86.56l-32.89-5.67c0,0-9.9,56.59-20.82,65.3c-5.84,4.64-12.37,4.7-17.98,8.15
				c-0.4,0.24-0.78,0.49-1.17,0.74C1658.16,1054.97,1654.91,1057.15,1652.35,1060.09z"/>
			<path class="st3" d="M1652.35,1060.09c-2.56,2.93-2.88,6.21-1.62,9.7c0,0.01,0.01,0.04,0.02,0.05
				c2.87,6.46,10.41,13.65,19.09,20.84c1.13,0.94,2.14,1.81,3.03,2.62c0.23,0.21,0.47,0.41,0.69,0.62c0.18,0.16,0.35,0.32,0.53,0.48
				c8.38,7.72,5.22,9.49,20.28,25.16c17.16,17.86,28.98,18.18,32.34,16.55c2.84-1.39-2.93-10.86-9.34-21.5
				c-3.34-1.22-18.86-7.53-30.59-22.54c-10.33-13.19-17.23-30.13-24.26-39.95c-0.4,0.24-0.78,0.49-1.17,0.74
				C1658.16,1054.97,1654.91,1057.15,1652.35,1060.09z"/>
			<path class="st4" d="M1917.55,1039.55c2.03,10.15,16.5,8.46,32.67,4.51c16.17-3.95,12.33,0.75,35.33-1.8
				c23.01-2.55,29.98-11.13,30.68-14.55c0.63-3.04-10.74-4.11-22.94-5.51c-1.53-0.17-3.07-0.36-4.61-0.55
				c-13.77-1.73-23.85-10.61-36.36-17.91c-11.85-6.91-29.53-35.07-29.53-35.07l-31.56,2.5c0,0,16.56,25.15,22.96,36.09
				c3.77,6.43,3.57,14.94,3.1,21.5C1917.06,1032.32,1916.83,1035.97,1917.55,1039.55z"/>
			<path class="st3" d="M1950.22,1044.05c16.17-3.95,12.33,0.75,35.33-1.8c23.01-2.55,29.98-11.13,30.68-14.55
				c0.63-3.04-10.74-4.11-22.94-5.51l-0.11,0.24c0,0-13.8,9.78-32.95,10.24c-15.61,0.38-32.15-4.09-42.93-3.92
				c-0.24,3.57-0.48,7.22,0.24,10.79C1919.58,1049.7,1934.05,1048.01,1950.22,1044.05z"/>
			<path class="st3" d="M1796.62,837.77l-29.5,79.38l-38.51,103.65c0,0-10.45,1.01-20.46-1.87c-9.21-2.66-19.79-9.63-19.79-9.63
				S1699.05,898,1719,834.12c5.11-16.4,10.84-29.66,17.16-37.13C1767.09,760.45,1796.62,837.77,1796.62,837.77z"/>
			<path class="st2" d="M1527.62,763.72c0,0,195.42-66.08,239-52.02c43.58,14.06,174.44,274.41,174.44,274.41s-2.95,3.93-11.01,6.95
				c-7.5,2.81-25.65,2.63-25.65,2.63s-118.1-101.23-132.15-130.75c-14.06-29.52-19.68-57.64-33.74-54.83
				c-8.59,1.72-74.99,42.6-134.46,42.6c-23.11,0-86.09,0-86.09,0c-37.22-40.07-26.8-103.59-26.8-103.59L1527.62,763.72z"/>
			<path class="st27" d="M1663.38,314.16c-8.05-5.44-18.1-6.75-25.19-6.88c1.96-1.73,5.59-2.14,5.59-2.14
				c-4.33-0.99-14.44,2.59-14.44,2.59c-59.07-28.2-75.61,60.71-75.95,81.64c-0.35,20.93-2.06,44.91-33.91,61.23
				c-62.67,32.1-17.2,100.2-17.2,100.2c0.45,0.31,24.2,48.84,24.2,48.84c-0.23-16.95,84.35-99.74,126.94-123.19
				c10.99-13.75,16.5-39.13,16.92-41.13c-3.29,20.21-7.65,31.35-11.26,37.53C1695.84,443.94,1684.71,328.58,1663.38,314.16z"/>
			<path class="st4" d="M1635.63,473.99c0.19,0.12-20.95,7.34-35.09,1.08c-13.3-5.88-23.37-27.76-23.18-27.77
				c6.05-0.28,12.69-5.57,17.81-40.27l2.58,0.92l43.31,15.59c0,0-3.14,13.9-5.17,27.13
				C1634.18,461.78,1633.26,472.42,1635.63,473.99z"/>
			<path class="st20" d="M1641.06,423.54c0,0-3.14,13.9-5.17,27.13c-24.88-4.48-34.64-29.27-38.15-42.72L1641.06,423.54z"/>
			<path class="st27" d="M1587.29,397.12c0,0-13.24-20.92-16.42-38.81c-2.27-12.77,4.24-60.12,51.82-53.3
				c0,0,13.82,1.36,26.81,10.13c10.33,6.98,25.24,22.04,8.57,63.35l-4.33,13.96L1587.29,397.12z"/>
			<path class="st4" d="M1647.51,437.33c0,0-59.26-7.95-53.74-44.78c5.52-36.83,1.59-62.66,39.66-59.14
				c38.07,3.52,43.3,18.67,44.44,31.42C1679.02,377.57,1663.07,438.45,1647.51,437.33z"/>
			<path class="st27" d="M1660.49,336.57c0,0-22.71,40.76-48.51,43.39c-25.81,2.64-35.57-5.65-35.57-5.65s21.34-12.26,29.28-38.08
				C1605.69,336.24,1651.39,314.17,1660.49,336.57z"/>
			<path class="st27" d="M1655.95,339.48c0,0,10.63,11.47,12.16,21.29c1.53,9.82-0.06,29.33,5.67,29.52c0,0,16.63-27.52,5.43-46.2
				C1667.34,324.28,1655.95,339.48,1655.95,339.48z"/>
			<path class="st23" d="M1481.78,764.75c3.22,8.95,13.11,11.26,26.37,9.7c25.27-2.95,62.81-19.92,89.86-31.65
				c41.24-17.87,59.99-1.08,73.11-12.46c13.12-11.38-15-36.68,9.37-154.15c8.27-39.84-44.6-125.52-44.6-125.52
				s-4.04,25.01-54.15-4.73c-1.77-1.05-21.49,28.16-40.49,64.16c-20.94,39.72-41,87.71-35.1,112.43
				C1517.4,669.66,1472.41,738.74,1481.78,764.75z"/>
			<path class="st22" d="M1481.78,764.75c3.22,8.95,13.11,11.26,26.37,9.7c17.49-7.62,93.05-36.89,92.2-56.73
				c-1.26-29.37-14.53-30.3-5.16-66.55c7.53-29.1-62.29-83.22-73.42-94.98c-20.94,39.72-21.52,41.6-15.62,66.33
				C1517.4,669.66,1472.41,738.74,1481.78,764.75z"/>
			<path class="st2" d="M1767.12,917.15l-38.51,103.65c0,0-10.45,1.01-20.46-1.87c-9.21-2.66-19.79-9.63-19.79-9.63
				S1699.05,898,1719,834.12L1767.12,917.15z"/>
			<path class="st23" d="M1635.89,450.67c0,0,51.55,8.74,57.6,30.94c6.05,22.2,41.68,152.68,41.68,152.68s-26.21,4.71-38.31-7.4
				c-12.11-12.11-42.13-112.32-42.13-112.32L1635.89,450.67z"/>
			<path class="st23" d="M1581.74,445.93c0,0-48.73,3-65.6,26.53c-23.75,33.12-70.85,174.26-43.85,193.09
				c30.4,21.2,138.37,5.55,138.37,5.55s3.59-16.79-1.41-24.92c-5-8.12-86.23-21.25-89.98-25c-3.75-3.75,46.87-73.11,46.87-84.36
				C1566.14,525.58,1581.74,445.93,1581.74,445.93z"/>
		</g>
		<g>
			<g>
				<polygon class="st5" points="1583.76,716.85 1791.84,716.85 1829.36,586.03 1621.59,586.03 				"/>
				
					<rect x="1519.09" y="711.75" transform="matrix(-1 -1.224647e-16 1.224647e-16 -1 3310.2261 1428.6017)" class="st7" width="272.04" height="5.1"/>
			</g>
			<path class="st17" d="M1725.77,649.32c1.32-4.6-1.34-8.33-5.94-8.33c-4.6,0-9.39,3.73-10.71,8.33c-1.32,4.6,1.34,8.33,5.94,8.33
				S1724.45,653.92,1725.77,649.32z"/>
		</g>
	</g>
	<polygon class="st15" points="1203.08,1175.72 1106.24,1285.85 1109.77,1235.55 1130.44,1175.72 	"/>
	<g>
		<path class="st28" d="M1053.9,868.55l158.35,272.59c6.99,12.03,2.86,27.59-9.17,34.58l-478.2,277.79
			c-12.03,6.99-27.59,2.86-34.58-9.17l-158.35-272.59c-6.99-12.03-2.86-27.59,9.17-34.58l478.2-277.79
			C1031.35,852.4,1046.91,856.52,1053.9,868.55z"/>
		<g>
			<path class="st1" d="M840.28,1306.58l-127.45,74.04c-5.39,3.13-12.37,1.28-15.5-4.11l-0.71-1.22c-3.13-5.39-1.28-12.37,4.11-15.5
				l127.45-74.04c5.39-3.13,12.37-1.28,15.5,4.11l0.71,1.22C847.52,1296.48,845.67,1303.45,840.28,1306.58z"/>
			<path class="st1" d="M1008.23,1209.02l-127.45,74.04c-5.39,3.13-12.37,1.28-15.5-4.11l-0.71-1.23
				c-3.13-5.39-1.28-12.37,4.11-15.5l127.45-74.04c5.39-3.13,12.37-1.28,15.5,4.11l0.71,1.22
				C1015.47,1198.91,1013.62,1205.88,1008.23,1209.02z"/>
			<g>
				<path class="st1" d="M652.68,1244.99c2.7,4.65,4.1,8.92,4.21,12.83c0.14,4.93-1.92,8.63-6.18,11.1
					c-4.26,2.47-8.49,2.43-12.71-0.13c-3.34-2.03-6.36-5.36-9.06-10.01c-2.7-4.64-4.11-8.9-4.23-12.76
					c-0.14-4.93,1.94-8.64,6.22-11.13c4.29-2.49,8.54-2.45,12.75,0.11C646.98,1237.02,649.98,1240.34,652.68,1244.99z
					 M646.82,1248.36c-1.69-2.91-3.44-5.17-5.25-6.77c-2.75-2.38-5.27-2.9-7.58-1.56c-2.37,1.38-3.19,3.82-2.47,7.34
					c0.46,2.38,1.55,5.05,3.26,7.99c4.61,7.93,8.93,10.72,12.98,8.37c2.34-1.36,3.13-3.83,2.37-7.4
					C649.65,1253.99,648.55,1251.34,646.82,1248.36z"/>
				<path class="st1" d="M678.85,1229.79c2.7,4.65,4.1,8.92,4.21,12.83c0.14,4.93-1.92,8.63-6.18,11.11
					c-4.26,2.47-8.49,2.43-12.71-0.14c-3.34-2.03-6.36-5.36-9.06-10.01c-2.7-4.65-4.11-8.9-4.23-12.76
					c-0.14-4.93,1.94-8.64,6.22-11.13c4.29-2.49,8.54-2.45,12.75,0.11C673.15,1221.81,676.15,1225.14,678.85,1229.79z
					 M672.99,1233.16c-1.69-2.91-3.44-5.17-5.25-6.77c-2.75-2.38-5.27-2.9-7.58-1.56c-2.37,1.38-3.19,3.82-2.47,7.34
					c0.46,2.38,1.55,5.05,3.26,7.99c4.61,7.93,8.93,10.72,12.98,8.37c2.34-1.36,3.13-3.83,2.37-7.4
					C675.82,1238.79,674.72,1236.14,672.99,1233.16z"/>
				<path class="st1" d="M705.02,1214.59c2.7,4.65,4.1,8.92,4.21,12.83c0.14,4.93-1.92,8.63-6.18,11.11
					c-4.26,2.47-8.49,2.43-12.71-0.13c-3.34-2.03-6.36-5.36-9.06-10.01c-2.7-4.65-4.11-8.9-4.23-12.76
					c-0.14-4.93,1.94-8.64,6.22-11.13c4.29-2.49,8.54-2.45,12.75,0.11C699.32,1206.61,702.32,1209.94,705.02,1214.59z
					 M699.16,1217.96c-1.69-2.91-3.44-5.17-5.25-6.77c-2.75-2.38-5.27-2.9-7.58-1.56c-2.37,1.38-3.19,3.82-2.47,7.34
					c0.46,2.38,1.55,5.04,3.26,7.99c4.61,7.93,8.93,10.72,12.98,8.37c2.34-1.36,3.13-3.83,2.37-7.4
					C701.99,1223.59,700.89,1220.93,699.16,1217.96z"/>
				<path class="st1" d="M731.19,1199.39c2.7,4.65,4.1,8.92,4.21,12.83c0.14,4.93-1.92,8.63-6.18,11.1
					c-4.26,2.47-8.49,2.43-12.71-0.13c-3.34-2.03-6.36-5.36-9.06-10.01c-2.7-4.65-4.11-8.9-4.22-12.76
					c-0.14-4.93,1.94-8.64,6.22-11.13c4.29-2.49,8.54-2.45,12.75,0.11C725.49,1191.41,728.49,1194.74,731.19,1199.39z
					 M725.33,1202.76c-1.69-2.91-3.44-5.17-5.25-6.77c-2.75-2.38-5.27-2.9-7.58-1.56c-2.37,1.38-3.19,3.82-2.47,7.34
					c0.46,2.38,1.55,5.05,3.26,7.99c4.61,7.93,8.93,10.72,12.98,8.37c2.34-1.36,3.13-3.83,2.37-7.4
					C728.16,1208.39,727.06,1205.73,725.33,1202.76z"/>
				<path class="st1" d="M770.84,1176.35c2.7,4.65,4.1,8.92,4.21,12.83c0.14,4.93-1.92,8.63-6.18,11.1
					c-4.26,2.47-8.49,2.43-12.71-0.13c-3.34-2.03-6.36-5.36-9.06-10.01c-2.7-4.65-4.11-8.9-4.23-12.76
					c-0.14-4.93,1.94-8.64,6.22-11.13c4.29-2.49,8.54-2.45,12.75,0.11C765.15,1168.37,768.15,1171.7,770.84,1176.35z
					 M764.99,1179.72c-1.69-2.91-3.44-5.17-5.25-6.77c-2.75-2.38-5.27-2.9-7.58-1.56c-2.37,1.38-3.19,3.82-2.47,7.34
					c0.46,2.38,1.55,5.05,3.26,7.99c4.61,7.93,8.93,10.72,12.98,8.37c2.34-1.36,3.13-3.83,2.37-7.4
					C767.81,1185.35,766.71,1182.7,764.99,1179.72z"/>
				<path class="st1" d="M797.01,1161.15c2.7,4.65,4.1,8.92,4.21,12.83c0.14,4.93-1.92,8.63-6.18,11.11
					c-4.26,2.47-8.49,2.43-12.71-0.14c-3.34-2.03-6.36-5.36-9.06-10.01c-2.7-4.65-4.11-8.9-4.23-12.76
					c-0.14-4.93,1.94-8.64,6.22-11.13c4.29-2.49,8.54-2.45,12.75,0.11C791.32,1153.17,794.32,1156.5,797.01,1161.15z
					 M791.16,1164.52c-1.69-2.91-3.44-5.17-5.25-6.77c-2.75-2.38-5.27-2.9-7.58-1.56c-2.37,1.38-3.19,3.82-2.47,7.34
					c0.46,2.38,1.55,5.05,3.26,7.99c4.61,7.93,8.93,10.72,12.98,8.37c2.34-1.36,3.13-3.83,2.37-7.4
					C793.98,1170.15,792.88,1167.49,791.16,1164.52z"/>
				<path class="st1" d="M823.18,1145.94c2.7,4.65,4.1,8.92,4.21,12.83c0.14,4.93-1.92,8.63-6.18,11.11
					c-4.26,2.47-8.49,2.43-12.71-0.13c-3.34-2.03-6.36-5.36-9.06-10.01c-2.7-4.65-4.11-8.9-4.23-12.76
					c-0.14-4.93,1.94-8.64,6.22-11.13c4.29-2.49,8.54-2.45,12.75,0.11C817.49,1137.97,820.48,1141.3,823.18,1145.94z
					 M817.32,1149.32c-1.69-2.91-3.44-5.17-5.26-6.77c-2.75-2.38-5.27-2.9-7.58-1.56c-2.37,1.38-3.19,3.82-2.47,7.34
					c0.46,2.38,1.55,5.04,3.26,7.99c4.61,7.93,8.93,10.72,12.98,8.37c2.34-1.36,3.13-3.83,2.37-7.4
					C820.15,1154.95,819.05,1152.29,817.32,1149.32z"/>
				<path class="st1" d="M849.35,1130.74c2.7,4.65,4.1,8.92,4.21,12.83c0.14,4.93-1.92,8.63-6.18,11.1
					c-4.26,2.47-8.49,2.43-12.71-0.13c-3.34-2.03-6.36-5.36-9.06-10.01c-2.7-4.65-4.11-8.9-4.22-12.76
					c-0.14-4.93,1.94-8.64,6.22-11.13c4.29-2.49,8.54-2.45,12.75,0.11C843.66,1122.77,846.65,1126.1,849.35,1130.74z
					 M843.49,1134.11c-1.69-2.91-3.44-5.17-5.25-6.77c-2.75-2.38-5.27-2.9-7.58-1.56c-2.37,1.38-3.19,3.82-2.47,7.34
					c0.46,2.38,1.55,5.05,3.26,7.99c4.61,7.93,8.93,10.72,12.98,8.37c2.34-1.36,3.13-3.83,2.37-7.4
					C846.32,1139.74,845.22,1137.09,843.49,1134.11z"/>
				<path class="st1" d="M889.01,1107.7c2.7,4.65,4.1,8.92,4.21,12.83c0.14,4.93-1.92,8.63-6.18,11.11
					c-4.26,2.47-8.49,2.43-12.71-0.14c-3.34-2.03-6.36-5.36-9.06-10.01c-2.7-4.65-4.11-8.9-4.23-12.76
					c-0.14-4.93,1.94-8.64,6.22-11.13c4.29-2.49,8.54-2.45,12.75,0.11C883.31,1099.73,886.31,1103.06,889.01,1107.7z
					 M883.15,1111.08c-1.69-2.91-3.44-5.17-5.25-6.77c-2.75-2.38-5.27-2.9-7.58-1.56c-2.37,1.38-3.19,3.82-2.47,7.34
					c0.46,2.38,1.55,5.05,3.26,7.99c4.61,7.93,8.93,10.72,12.98,8.37c2.34-1.36,3.13-3.83,2.37-7.4
					C885.98,1116.71,884.88,1114.05,883.15,1111.08z"/>
				<path class="st1" d="M915.18,1092.5c2.7,4.65,4.1,8.92,4.21,12.83c0.14,4.93-1.92,8.63-6.18,11.11
					c-4.26,2.47-8.49,2.43-12.71-0.13c-3.34-2.03-6.36-5.36-9.06-10.01c-2.7-4.65-4.11-8.9-4.23-12.76
					c-0.14-4.93,1.94-8.64,6.22-11.13c4.29-2.49,8.54-2.45,12.75,0.11C909.48,1084.53,912.48,1087.86,915.18,1092.5z
					 M909.32,1095.88c-1.69-2.91-3.44-5.17-5.26-6.77c-2.75-2.38-5.27-2.9-7.58-1.56c-2.37,1.38-3.19,3.82-2.47,7.34
					c0.46,2.38,1.55,5.05,3.26,7.99c4.61,7.93,8.93,10.72,12.98,8.37c2.34-1.36,3.13-3.83,2.37-7.4
					C912.15,1101.5,911.05,1098.85,909.32,1095.88z"/>
				<path class="st1" d="M941.35,1077.3c2.7,4.65,4.1,8.92,4.21,12.83c0.14,4.93-1.92,8.63-6.18,11.11
					c-4.26,2.47-8.49,2.43-12.71-0.13c-3.34-2.03-6.36-5.36-9.06-10.01c-2.7-4.64-4.11-8.9-4.23-12.76
					c-0.14-4.93,1.94-8.64,6.22-11.13c4.29-2.49,8.54-2.45,12.75,0.11C935.65,1069.32,938.65,1072.65,941.35,1077.3z
					 M935.49,1080.67c-1.69-2.91-3.44-5.17-5.25-6.77c-2.75-2.38-5.27-2.9-7.58-1.56c-2.37,1.38-3.19,3.82-2.47,7.34
					c0.46,2.38,1.55,5.05,3.26,7.99c4.61,7.93,8.93,10.72,12.98,8.37c2.34-1.36,3.13-3.83,2.37-7.4
					C938.32,1086.3,937.22,1083.65,935.49,1080.67z"/>
				<path class="st1" d="M967.52,1062.1c2.7,4.65,4.1,8.92,4.21,12.83c0.14,4.93-1.92,8.63-6.18,11.11
					c-4.26,2.47-8.49,2.43-12.71-0.14c-3.34-2.03-6.36-5.36-9.06-10.01c-2.7-4.65-4.11-8.9-4.23-12.76
					c-0.14-4.93,1.94-8.64,6.22-11.13c4.29-2.49,8.54-2.45,12.75,0.11C961.82,1054.12,964.82,1057.45,967.52,1062.1z
					 M961.66,1065.47c-1.69-2.91-3.44-5.17-5.25-6.77c-2.75-2.38-5.27-2.9-7.58-1.56c-2.37,1.38-3.19,3.82-2.47,7.34
					c0.46,2.38,1.55,5.05,3.26,7.99c4.61,7.93,8.93,10.72,12.98,8.37c2.34-1.36,3.13-3.83,2.37-7.4
					C964.48,1071.1,963.38,1068.45,961.66,1065.47z"/>
				<path class="st1" d="M1007.17,1039.06c2.7,4.65,4.1,8.92,4.21,12.83c0.14,4.93-1.92,8.63-6.18,11.11
					c-4.26,2.47-8.49,2.43-12.71-0.13c-3.34-2.03-6.36-5.36-9.06-10.01c-2.7-4.65-4.11-8.9-4.23-12.76
					c-0.14-4.93,1.94-8.64,6.22-11.13c4.29-2.49,8.54-2.45,12.75,0.11C1001.48,1031.08,1004.47,1034.41,1007.17,1039.06z
					 M1001.31,1042.43c-1.69-2.91-3.44-5.17-5.25-6.77c-2.75-2.38-5.27-2.9-7.58-1.56c-2.37,1.38-3.19,3.82-2.47,7.34
					c0.46,2.38,1.55,5.05,3.26,7.99c4.61,7.93,8.93,10.72,12.98,8.37c2.34-1.36,3.13-3.83,2.37-7.4
					C1004.14,1048.06,1003.04,1045.41,1001.31,1042.43z"/>
				<path class="st1" d="M1033.34,1023.86c2.7,4.65,4.1,8.92,4.21,12.83c0.14,4.93-1.92,8.63-6.18,11.11
					c-4.26,2.47-8.49,2.43-12.71-0.13c-3.34-2.03-6.36-5.36-9.06-10.01c-2.7-4.65-4.11-8.9-4.23-12.76
					c-0.14-4.93,1.94-8.64,6.22-11.13c4.29-2.49,8.54-2.45,12.75,0.11C1027.65,1015.88,1030.64,1019.21,1033.34,1023.86z
					 M1027.48,1027.23c-1.69-2.91-3.44-5.17-5.26-6.77c-2.75-2.38-5.27-2.9-7.58-1.56c-2.37,1.38-3.19,3.82-2.47,7.34
					c0.46,2.38,1.55,5.04,3.26,7.99c4.61,7.93,8.93,10.72,12.98,8.37c2.34-1.36,3.13-3.83,2.37-7.4
					C1030.31,1032.86,1029.21,1030.21,1027.48,1027.23z"/>
				<path class="st1" d="M1059.51,1008.66c2.7,4.65,4.1,8.92,4.21,12.83c0.14,4.93-1.92,8.63-6.18,11.11s-8.49,2.43-12.71-0.14
					c-3.34-2.03-6.36-5.36-9.06-10.01c-2.7-4.65-4.11-8.9-4.22-12.76c-0.14-4.93,1.94-8.64,6.22-11.13
					c4.29-2.49,8.54-2.45,12.75,0.11C1053.82,1000.68,1056.81,1004.01,1059.51,1008.66z M1053.65,1012.03
					c-1.69-2.91-3.44-5.17-5.26-6.77c-2.75-2.38-5.27-2.9-7.58-1.56c-2.37,1.38-3.19,3.82-2.47,7.34c0.46,2.38,1.55,5.05,3.26,7.99
					c4.61,7.93,8.93,10.72,12.98,8.37c2.34-1.36,3.13-3.83,2.37-7.4C1056.48,1017.66,1055.38,1015,1053.65,1012.03z"/>
				<path class="st1" d="M1085.68,993.45c2.7,4.65,4.1,8.92,4.21,12.83c0.14,4.93-1.92,8.63-6.18,11.11
					c-4.26,2.47-8.49,2.43-12.71-0.14c-3.34-2.03-6.36-5.36-9.06-10.01s-4.11-8.9-4.23-12.76c-0.14-4.93,1.94-8.64,6.22-11.13
					c4.29-2.49,8.54-2.45,12.75,0.11C1079.98,985.48,1082.98,988.81,1085.68,993.45z M1079.82,996.83
					c-1.69-2.91-3.44-5.17-5.25-6.77c-2.75-2.38-5.27-2.9-7.58-1.56c-2.37,1.38-3.19,3.82-2.47,7.34c0.46,2.38,1.55,5.05,3.26,7.99
					c4.61,7.93,8.93,10.72,12.98,8.37c2.34-1.36,3.13-3.83,2.37-7.4C1082.65,1002.46,1081.55,999.8,1079.82,996.83z"/>
			</g>
			<path class="st1" d="M712.7,1093.24l-124.72,72.45c-5.39,3.13-12.37,1.28-15.5-4.11l0,0c-3.13-5.39-1.28-12.37,4.11-15.5
				l124.72-72.45c5.39-3.13,12.37-1.28,15.5,4.11l0,0C719.94,1083.13,718.09,1090.1,712.7,1093.24z"/>
			<g>
				<g>
					<path class="st1" d="M1021.1,942c-2.07-3.56-5.21-6.12-8.78-7.5c-1.04-0.4-2.19,0.2-2.47,1.27l-0.24,0.93
						c-0.23,0.9,0.24,1.83,1.1,2.17c2.59,1.02,4.86,2.88,6.36,5.46s1.99,5.48,1.59,8.23c-0.13,0.92,0.45,1.78,1.34,2.03l0.93,0.26
						c1.07,0.29,2.16-0.42,2.33-1.52C1023.83,949.55,1023.17,945.55,1021.1,942z"/>
				</g>
				<g>
					<path class="st1" d="M1029.18,937.3c-3.4-5.85-8.69-9.93-14.66-11.92c-1.01-0.34-2.09,0.28-2.36,1.31l-0.13,0.53
						c-0.24,0.95,0.3,1.91,1.23,2.22c4.99,1.69,9.4,5.11,12.24,10c2.84,4.89,3.63,10.42,2.62,15.59c-0.19,0.96,0.38,1.9,1.32,2.16
						l0.53,0.14c1.03,0.28,2.1-0.35,2.31-1.4C1033.51,949.77,1032.58,943.16,1029.18,937.3z"/>
				</g>
				<g>
					<path class="st1" d="M1036.26,933.19c-4.55-7.83-11.69-13.24-19.72-15.77c-1.01-0.32-2.08,0.29-2.34,1.32l0,0
						c-0.24,0.95,0.3,1.93,1.24,2.22c7.18,2.26,13.56,7.09,17.63,14.09c4.07,7,5.1,14.94,3.51,22.29c-0.21,0.96,0.37,1.91,1.32,2.17
						l0,0c1.02,0.28,2.08-0.35,2.3-1.38C1041.97,949.9,1040.81,941.02,1036.26,933.19z"/>
				</g>
				<g>
					<path class="st1" d="M1043.93,928.73c-5.79-9.97-14.94-16.81-25.2-19.91c-1.01-0.31-2.08,0.29-2.34,1.32l-0.23,0.91
						c-0.24,0.96,0.31,1.94,1.25,2.23c9.15,2.78,17.31,8.89,22.49,17.79c5.17,8.9,6.43,19.02,4.32,28.35
						c-0.22,0.96,0.36,1.93,1.31,2.19l0.91,0.25c1.02,0.28,2.07-0.35,2.31-1.38C1051.13,950.04,1049.73,938.7,1043.93,928.73z"/>
				</g>
			</g>
			<g>
				<g>
					<path class="st1" d="M727.55,1402.17c1.3,2.24,1.98,4.3,2.03,6.19c0.07,2.38-0.93,4.16-2.98,5.36
						c-2.05,1.19-4.1,1.17-6.13-0.07c-1.61-0.98-3.07-2.59-4.37-4.83c-1.3-2.24-1.98-4.29-2.04-6.15c-0.07-2.38,0.93-4.17,3-5.37
						c2.07-1.2,4.12-1.18,6.15,0.05C724.8,1398.32,726.25,1399.93,727.55,1402.17z M724.72,1403.8c-0.82-1.41-1.66-2.49-2.53-3.26
						c-1.33-1.15-2.54-1.4-3.66-0.75c-1.14,0.66-1.54,1.84-1.19,3.54c0.22,1.15,0.75,2.43,1.57,3.85c2.22,3.82,4.31,5.17,6.26,4.03
						c1.13-0.66,1.51-1.84,1.15-3.57C726.09,1406.51,725.56,1405.23,724.72,1403.8z"/>
					<path class="st1" d="M740.17,1394.84c1.3,2.24,1.98,4.3,2.03,6.19c0.07,2.38-0.93,4.16-2.98,5.36
						c-2.05,1.19-4.1,1.17-6.13-0.07c-1.61-0.98-3.07-2.59-4.37-4.83c-1.3-2.24-1.98-4.29-2.04-6.16c-0.07-2.38,0.93-4.17,3-5.37
						c2.07-1.2,4.12-1.18,6.15,0.05C737.42,1390.99,738.87,1392.6,740.17,1394.84z M737.35,1396.46c-0.82-1.4-1.66-2.49-2.54-3.27
						c-1.32-1.15-2.54-1.4-3.66-0.75c-1.14,0.66-1.54,1.84-1.19,3.54c0.22,1.15,0.75,2.43,1.57,3.85c2.22,3.82,4.31,5.17,6.26,4.04
						c1.13-0.66,1.51-1.85,1.15-3.57C738.71,1399.18,738.18,1397.9,737.35,1396.46z"/>
					<path class="st1" d="M745.56,1382.19c0.12,0.2,0.19,0.5,0.21,0.89l1.32,17.43c0.07,0.85-0.16,1.43-0.68,1.73
						c-0.32,0.18-0.65,0.23-1,0.15c-0.35-0.09-0.62-0.29-0.8-0.61c-0.15-0.26-0.24-0.56-0.26-0.89l-1.27-17.42
						c-0.06-0.84,0.16-1.4,0.67-1.69c0.33-0.19,0.67-0.25,1.01-0.18C745.1,1381.66,745.36,1381.86,745.56,1382.19z"/>
					<path class="st1" d="M761.42,1382.49c1.3,2.24,1.98,4.3,2.03,6.19c0.07,2.38-0.93,4.16-2.98,5.36
						c-2.05,1.19-4.1,1.17-6.13-0.07c-1.61-0.98-3.07-2.59-4.37-4.83c-1.3-2.24-1.98-4.29-2.04-6.15c-0.07-2.38,0.93-4.17,3-5.37
						c2.07-1.2,4.12-1.18,6.15,0.05C758.68,1378.64,760.12,1380.25,761.42,1382.49z M758.6,1384.12c-0.82-1.4-1.66-2.49-2.54-3.27
						c-1.33-1.15-2.54-1.4-3.66-0.75c-1.14,0.66-1.54,1.84-1.19,3.54c0.22,1.15,0.75,2.43,1.57,3.85c2.22,3.82,4.31,5.17,6.26,4.03
						c1.13-0.65,1.51-1.84,1.15-3.57C759.96,1386.83,759.43,1385.55,758.6,1384.12z"/>
					<path class="st1" d="M774.05,1375.16c1.3,2.24,1.98,4.3,2.03,6.19c0.07,2.38-0.93,4.16-2.98,5.36
						c-2.05,1.19-4.1,1.17-6.13-0.06c-1.61-0.98-3.07-2.59-4.37-4.83c-1.3-2.24-1.98-4.29-2.04-6.15c-0.07-2.38,0.93-4.17,3-5.37
						c2.07-1.2,4.12-1.18,6.15,0.05C771.3,1371.31,772.74,1372.92,774.05,1375.16z M771.22,1376.79c-0.82-1.4-1.66-2.49-2.54-3.27
						c-1.33-1.15-2.54-1.4-3.66-0.75c-1.14,0.66-1.54,1.84-1.19,3.54c0.22,1.15,0.75,2.43,1.57,3.85c2.22,3.82,4.31,5.17,6.26,4.04
						c1.13-0.66,1.51-1.85,1.15-3.57C772.58,1379.5,772.05,1378.22,771.22,1376.79z"/>
					<path class="st1" d="M786.67,1367.83c1.3,2.24,1.98,4.31,2.03,6.19c0.07,2.38-0.93,4.16-2.98,5.36
						c-2.05,1.19-4.1,1.17-6.13-0.07c-1.61-0.98-3.07-2.59-4.37-4.83c-1.3-2.24-1.98-4.29-2.04-6.15c-0.07-2.38,0.93-4.17,3-5.37
						c2.07-1.2,4.12-1.18,6.15,0.05C783.92,1363.98,785.37,1365.58,786.67,1367.83z M783.84,1369.45c-0.82-1.4-1.66-2.49-2.54-3.27
						c-1.33-1.15-2.54-1.4-3.66-0.75c-1.14,0.66-1.54,1.84-1.19,3.54c0.22,1.15,0.75,2.43,1.57,3.85c2.22,3.82,4.31,5.17,6.26,4.03
						c1.13-0.66,1.51-1.84,1.15-3.57C785.2,1372.17,784.67,1370.89,783.84,1369.45z"/>
					<path class="st1" d="M799.29,1360.49c1.3,2.24,1.98,4.3,2.03,6.19c0.07,2.38-0.93,4.16-2.98,5.36
						c-2.05,1.19-4.1,1.17-6.13-0.06c-1.61-0.98-3.07-2.59-4.37-4.83c-1.3-2.24-1.98-4.29-2.04-6.15c-0.07-2.38,0.93-4.17,3-5.37
						c2.07-1.2,4.12-1.18,6.15,0.05C796.54,1356.65,797.99,1358.25,799.29,1360.49z M796.46,1362.12c-0.82-1.4-1.66-2.49-2.53-3.27
						c-1.33-1.15-2.54-1.4-3.66-0.75c-1.14,0.66-1.54,1.84-1.19,3.54c0.22,1.15,0.75,2.43,1.57,3.85c2.22,3.82,4.31,5.17,6.26,4.03
						c1.13-0.66,1.51-1.85,1.15-3.57C797.83,1364.84,797.3,1363.55,796.46,1362.12z"/>
				</g>
			</g>
		</g>
	</g>
</g>
</svg>
